<svg width="50" height="50" viewBox="0 0 50 50" fill="none" xmlns="http://www.w3.org/2000/svg">
<path fill-rule="evenodd" clip-rule="evenodd" d="M5.30185 9.85435C4.1665 12.0826 4.1665 14.9995 4.1665 20.8334V29.1667C4.1665 35.0006 4.1665 37.9176 5.30185 40.1458C6.30053 42.1058 7.89408 43.6994 9.8541 44.6981C12.0824 45.8334 14.9993 45.8334 20.8332 45.8334H29.1665C35.0004 45.8334 37.9173 45.8334 40.1456 44.6981C42.1056 43.6994 43.6991 42.1058 44.6978 40.1458C45.8332 37.9176 45.8332 35.0006 45.8332 29.1667V20.8334C45.8332 14.9995 45.8332 12.0826 44.6978 9.85435C43.6991 7.89433 42.1056 6.30078 40.1456 5.3021C37.9173 4.16675 35.0004 4.16675 29.1665 4.16675H20.8332C14.9993 4.16675 12.0824 4.16675 9.8541 5.3021C7.89408 6.30078 6.30053 7.89433 5.30185 9.85435ZM27.4595 16.1533C26.6339 14.7195 24.8355 14.175 23.3532 14.91C22.8759 15.1467 22.4613 15.6326 22.0607 16.1665C21.6372 16.7308 21.1152 17.5138 20.4472 18.5158L20.4308 18.5404C20.1415 18.9744 20.06 19.0893 19.9725 19.1762C19.7755 19.3717 19.5257 19.5054 19.2537 19.5608C19.1329 19.5854 18.9921 19.5895 18.4705 19.5895H17.9105L17.7786 19.5895C16.8469 19.5892 16.2111 19.589 15.6659 19.7351C14.1918 20.13 13.0404 21.2814 12.6454 22.7555C12.4993 23.3007 12.4996 23.9365 12.4999 24.8682L12.4999 25.0001L12.4999 25.132C12.4996 26.0637 12.4993 26.6995 12.6454 27.2447C13.0404 28.7188 14.1918 29.8701 15.6659 30.2651C16.2111 30.4112 16.8468 30.411 17.7786 30.4107H17.7786L17.9105 30.4107H18.4705C18.9921 30.4107 19.1329 30.4147 19.2537 30.4393C19.5257 30.4948 19.7755 30.6285 19.9725 30.824C20.06 30.9109 20.1415 31.0258 20.4308 31.4598L20.4471 31.4843C21.1152 32.4863 21.6372 33.2694 22.0607 33.8337C22.4613 34.3676 22.8759 34.8534 23.3532 35.0901C24.8355 35.8252 26.6339 35.2807 27.4595 33.8468C27.7253 33.3852 27.8008 32.7509 27.838 32.0845C27.8773 31.38 27.8773 30.439 27.8773 29.2348V29.2348V29.2348V29.2347V20.7654V20.7654V20.7654V20.7653C27.8773 19.5611 27.8773 18.6201 27.838 17.9157C27.8008 17.2493 27.7253 16.615 27.4595 16.1533ZM30.9147 22.0114C30.5223 21.7494 29.9918 21.855 29.7298 22.2474C29.4678 22.6398 29.5734 23.1703 29.9658 23.4323C30.3894 23.7152 30.725 24.2871 30.725 25C30.725 25.7129 30.3894 26.2848 29.9658 26.5677C29.5734 26.8297 29.4678 27.3602 29.7298 27.7526C29.9918 28.1449 30.5223 28.2506 30.9147 27.9886C31.8529 27.362 32.4336 26.234 32.4336 25C32.4336 23.766 31.8529 22.638 30.9147 22.0114ZM30.8688 17.6911C31.1309 17.2988 31.6614 17.1931 32.0537 17.4551C34.3538 18.9912 35.8508 21.819 35.8508 25C35.8508 28.1809 34.3538 31.0088 32.0537 32.5448C31.6614 32.8069 31.1309 32.7012 30.8688 32.3088C30.6068 31.9165 30.7125 31.386 31.1049 31.124C32.8904 29.9316 34.1422 27.6598 34.1422 25C34.1422 22.3401 32.8904 20.0684 31.1049 18.876C30.7125 18.614 30.6068 18.0835 30.8688 17.6911Z" fill="white"/>
</svg>
