<svg width="50" height="50" viewBox="0 0 50 50" fill="none" xmlns="http://www.w3.org/2000/svg">
<path fill-rule="evenodd" clip-rule="evenodd" d="M25.0787 46.8749H24.921H24.9207H24.9206H24.9205C21.0932 46.8749 18.1144 46.8749 15.7342 46.6592C13.3161 46.4401 11.363 45.9884 9.63525 44.9909C7.49748 43.7567 5.72226 41.9814 4.48802 39.8437C3.4905 38.1159 3.03888 36.1628 2.81972 33.7447C2.60399 31.3645 2.60399 28.3854 2.604 24.5579V24.4003C2.60399 20.5727 2.60399 17.5937 2.81972 15.2134C3.03888 12.7954 3.4905 10.8423 4.48802 9.1145C5.72226 6.97673 7.49748 5.20151 9.63525 3.96727C11.363 2.96974 13.3161 2.51812 15.7342 2.29897C18.1145 2.08323 21.0935 2.08324 24.9209 2.08325H31.6566L31.7707 2.08326L31.7707 7.92075V7.92077V7.92079V7.92081C31.7706 9.79262 31.7706 11.3535 31.9372 12.5926C32.113 13.9005 32.4998 15.0813 33.4487 16.0302C34.3976 16.9791 35.5784 17.3659 36.8863 17.5418C38.1255 17.7084 39.6864 17.7083 41.5582 17.7083L47.3957 17.7083L47.3957 17.8225V24.558C47.3957 28.3855 47.3957 31.3645 47.18 33.7447C46.9608 36.1628 46.5092 38.1159 45.5116 39.8437C44.2774 41.9814 42.5022 43.7567 40.3644 44.9909C38.6367 45.9884 36.6835 46.4401 34.2655 46.6592C31.8853 46.8749 28.9064 46.8749 25.0791 46.8749H25.0791H25.079H25.0787ZM41.7124 5.67779C39.7826 3.94675 37.4214 2.79087 34.8957 2.32071V7.81242C34.8957 9.82078 34.899 11.1699 35.0343 12.1762C35.1635 13.1376 35.3869 13.549 35.6584 13.8205C35.9299 14.092 36.3414 14.3154 37.3027 14.4446C38.3091 14.5799 39.6581 14.5833 41.6665 14.5833H47.1582C46.6881 12.0575 45.5322 9.69629 43.8011 7.76657C43.5463 7.48244 43.2699 7.20607 42.8062 6.74242L42.7364 6.67258C42.2727 6.20893 41.9965 5.93266 41.7124 5.67779ZM18.4325 32.9833C21.9318 32.9833 23.8687 30.8349 23.8687 28.0435C23.8687 26.8879 23.242 26.2369 22.1434 26.2369H19.8729C19.0916 26.2369 18.5952 26.6438 18.5952 27.3844C18.5952 28.1249 19.0998 28.5318 19.8729 28.5318H20.5483L20.5321 28.6946C20.4344 29.6386 19.6369 30.2652 18.5138 30.2652C17.0002 30.2652 16.0155 28.9876 16.0155 26.8473C16.0155 24.7558 16.8781 23.5514 18.3429 23.5514C19.173 23.5514 19.7345 23.8606 20.2879 24.6012C20.7111 25.1627 21.2238 25.4231 21.8993 25.4231C22.7782 25.4231 23.3804 24.829 23.3804 23.9664C23.3804 23.6734 23.3153 23.3967 23.1444 23.0793C22.4526 21.8424 20.6785 20.8333 18.3267 20.8333C14.7052 20.8333 12.4998 23.0468 12.4998 26.8961C12.4998 30.7942 14.7052 32.9833 18.4325 32.9833ZM26.2944 32.9833C27.3931 32.9833 28.0197 32.3323 28.0197 31.1767V22.6399C28.0197 21.4843 27.3931 20.8333 26.2944 20.8333C25.1958 20.8333 24.5692 21.4843 24.5692 22.6399V31.1767C24.5692 32.3323 25.1958 32.9833 26.2944 32.9833ZM32.4312 31.1767C32.4312 32.3323 31.8045 32.9833 30.7059 32.9833C29.6073 32.9833 28.9806 32.3323 28.9806 31.1767V22.8433C28.9806 21.6877 29.6073 21.0367 30.7059 21.0367H35.8735C36.8013 21.0367 37.3953 21.5331 37.3953 22.412C37.3953 23.2909 36.785 23.7874 35.8735 23.7874H32.4312V26.0334H35.5236C36.3862 26.0334 36.9396 26.5055 36.9396 27.3274C36.9396 28.1493 36.4025 28.6213 35.5236 28.6213H32.4312V31.1767Z" fill="white"/>
</svg>
