<svg width="50" height="50" viewBox="0 0 50 50" fill="none" xmlns="http://www.w3.org/2000/svg">
<path fill-rule="evenodd" clip-rule="evenodd" d="M24.2545 6.01752C16.0485 7.12234 9.04424 8.07415 8.68951 8.13268C5.91559 8.58991 3.67742 10.8149 3.13505 13.6546C2.95351 14.6052 2.95566 34.5275 3.13746 35.4826C3.74956 38.6987 6.58024 41.073 9.80254 41.073C10.2463 41.073 24.4891 39.2249 26.1679 38.9495L26.4903 38.8966L26.4905 41.9515C26.4906 45.3595 26.4987 45.4117 27.0835 45.8044C27.4255 46.0341 28.0067 46.0662 28.3732 45.8757C28.5054 45.8069 30.4296 43.9049 32.6492 41.649L36.6849 37.5473L39.0477 37.2318C41.7227 36.8745 42.4168 36.7124 43.3403 36.2289C45.0257 35.3468 46.2644 33.8149 46.8022 31.9477L47 31.261V20.4117V9.56229L46.7226 8.74102C45.949 6.45055 44.1228 4.73367 41.8481 4.15835C40.5381 3.82707 40.4706 3.83416 24.2545 6.01752ZM25.1187 15.7061C31.2981 16.8845 32.7801 24.9726 27.4511 28.435C23.0018 31.326 16.8639 27.9719 16.8596 22.6472C16.8559 18.0928 20.6986 14.8633 25.1187 15.7061ZM10.3812 15.8245C11.0895 16.1478 11.0489 15.819 11.0974 21.6181L11.1404 26.7657L13.5052 26.8089C15.5444 26.8462 15.8984 26.8723 16.0759 26.9987C16.8275 27.5336 16.7746 28.7683 15.9813 29.2036C15.7235 29.3452 15.4201 29.3592 12.6023 29.3592C9.06367 29.3592 9.08268 29.3627 8.71101 28.6256L8.51752 28.2419V22.5757C8.51752 19.1491 8.55072 16.793 8.60145 16.6151C8.82633 15.8268 9.61687 15.4757 10.3812 15.8245ZM35.4055 15.8748C35.9238 16.2163 35.9028 15.9939 35.9497 21.6181L35.9927 26.7657L38.3616 26.8089C40.9758 26.8566 41.0451 26.871 41.3305 27.426C41.6493 28.0458 41.4319 28.8386 40.8484 29.1832C40.4144 29.4395 34.5376 29.4573 34.0756 29.2036C33.4227 28.8454 33.4566 29.2106 33.4562 22.5209L33.4559 16.547L33.6511 16.2533C34.0314 15.6809 34.8448 15.5055 35.4055 15.8748ZM23.1668 18.1731C20.2019 18.5374 18.5303 21.9378 19.9736 24.6686C21.4167 27.3989 25.6359 27.6403 27.3303 25.0893C29.4905 21.8374 27.001 17.7017 23.1668 18.1731Z" fill="white"/>
</svg>
