<svg width="50" height="50" viewBox="0 0 50 50" fill="none" xmlns="http://www.w3.org/2000/svg">
<path fill-rule="evenodd" clip-rule="evenodd" d="M4.1665 25.0314C4.1665 14.0566 12.9373 4.16675 25.0415 4.16675C36.8748 4.16675 45.8332 13.8688 45.8332 24.9688C45.8332 37.8423 35.3332 45.8334 24.9998 45.8334C21.5832 45.8334 17.7915 44.9154 14.7498 43.121C13.6873 42.4742 12.7915 41.9943 11.6457 42.3699L7.43734 43.6218C6.37484 43.9556 5.4165 43.121 5.729 41.9943L7.12484 37.3206C7.354 36.6738 7.31234 35.9853 6.979 35.4428C5.18734 32.1462 4.1665 28.5366 4.1665 25.0314ZM22.2915 25.0314C22.2915 26.5128 23.479 27.7021 24.9582 27.7229C26.4373 27.7229 27.6248 26.5128 27.6248 25.0522C27.6248 23.5709 26.4373 22.3816 24.9582 22.3816C23.4998 22.3607 22.2915 23.5709 22.2915 25.0314ZM31.8957 25.0522C31.8957 26.5128 33.0832 27.7229 34.5623 27.7229C36.0415 27.7229 37.229 26.5128 37.229 25.0522C37.229 23.5709 36.0415 22.3816 34.5623 22.3816C33.0832 22.3816 31.8957 23.5709 31.8957 25.0522ZM15.354 27.7229C13.8957 27.7229 12.6873 26.5128 12.6873 25.0522C12.6873 23.5709 13.8748 22.3816 15.354 22.3816C16.8332 22.3816 18.0207 23.5709 18.0207 25.0522C18.0207 26.5128 16.8332 27.7021 15.354 27.7229Z" fill="white"/>
</svg>
