<svg width="50" height="50" viewBox="0 0 50 50" fill="none" xmlns="http://www.w3.org/2000/svg">
<path fill-rule="evenodd" clip-rule="evenodd" d="M46.9526 22.6605C45.1252 8.14218 29.4489 -0.218703 16.0425 6.17483C6.95654 10.5079 2.20992 20.4473 4.62512 30.0827C6.7636 38.6138 14.2177 44.972 23.2273 45.9499L23.6895 46L23.6919 43.0647C23.6938 40.73 23.7246 39.9112 23.8423 39.0632C25.3535 28.1799 32.1229 23.0277 44.6743 23.2076C47.2943 23.2452 47.0341 23.3076 46.9526 22.6605ZM44.8673 26.6758C43.7259 26.5366 40.2191 26.8107 38.3954 27.1817C30.8522 28.716 27.0578 34.1398 27.1868 43.2035C27.2067 44.5938 26.1607 45.47 36.3287 35.5451L45.3544 26.7352L44.8673 26.6758Z" fill="white"/>
</svg>
