<svg width="50" height="50" viewBox="0 0 50 50" fill="none" xmlns="http://www.w3.org/2000/svg">
<path fill-rule="evenodd" clip-rule="evenodd" d="M27.6191 4.16853L26.5685 4.04625C25.278 3.89641 22.1573 4.12733 20.4549 4.49858C12.6247 6.20644 6.21415 12.6168 4.50152 20.4517C1.87703 32.4584 9.81755 43.8826 22.1372 45.8241C23.7044 46.0711 45.0779 46.0523 45.4111 45.8036C45.5092 45.7303 45.5905 45.6982 45.6577 45.6475C46.017 45.3766 45.9761 44.5751 45.9761 34.1294C45.9761 24.2973 45.9878 22.8568 45.7314 21.4657C45.6744 21.1559 45.604 20.8486 45.5172 20.4517C43.6492 11.906 36.2492 5.1737 27.6191 4.16853ZM23.4771 33.6454H20.2422V20.9974H15.7006V18.3597H28.0294V20.9974H23.4771V33.6454ZM33.6403 33.7408C33.3832 33.769 33.0975 33.7831 32.7833 33.7831C31.4337 33.7831 30.4483 33.5289 29.827 33.0204C29.2057 32.5049 28.8951 31.661 28.8951 30.4887V24.4719H27.2027V22.1414H28.8951V19.366H32.055V22.1414H34.3151V24.4719H32.055V29.9696C32.055 30.4993 32.1728 30.8771 32.4084 31.1031C32.6512 31.322 33.0226 31.4315 33.5224 31.4315C33.6938 31.4315 33.8366 31.4279 33.9509 31.4209C34.0723 31.4068 34.1937 31.3962 34.3151 31.3891V33.6666C34.1294 33.6949 33.9045 33.7196 33.6403 33.7408Z" fill="white"/>
</svg>
