<svg width="54" height="58" viewBox="0 0 54 58" fill="none" xmlns="http://www.w3.org/2000/svg">
<g filter="url(#filter0_d_2598_9923)">
<path fill-rule="evenodd" clip-rule="evenodd" d="M21.5002 3.17538C24.9037 1.21042 29.0968 1.21042 32.5002 3.17538L43.1509 9.32453C46.5543 11.2895 48.6509 14.9209 48.6509 18.8508V31.1491C48.6509 35.079 46.5543 38.7104 43.1509 40.6754L32.5002 46.8245C29.0968 48.7895 24.9037 48.7895 21.5002 46.8245L10.8496 40.6754C7.4462 38.7104 5.34961 35.079 5.34961 31.1491V18.8508C5.34961 14.9209 7.4462 11.2895 10.8496 9.32453L21.5002 3.17538Z" fill="url(#paint0_linear_2598_9923)"/>
</g>
<path fill-rule="evenodd" clip-rule="evenodd" d="M33.6926 29.9237C33.6781 29.9238 33.6635 29.9239 33.6489 29.9239H38.0422C38.0423 29.9238 38.0423 29.9238 38.0424 29.9237H38.6161C39.1014 29.9237 39.4948 30.3229 39.4948 30.8157C39.4948 31.3079 39.1014 31.7073 38.6161 31.7073H33.6827C30.377 31.7073 27.6799 29.0137 27.6108 25.6754L27.6094 25.6754L27.6099 25.6097L27.6094 25.5442L27.6108 25.5441C27.68 22.2448 30.3515 19.5746 33.649 19.5133L33.6489 19.5122L33.707 19.5124L33.765 19.5122C37.1058 19.5755 39.8045 22.3159 39.8045 25.6754C39.8045 27.3527 39.1318 28.8436 38.0424 29.9237H33.6926ZM33.6926 29.9237C36.0844 29.9017 38.023 28.0756 38.023 25.6754C38.023 23.2749 36.0845 21.3197 33.6927 21.296C31.3138 21.3349 29.3687 23.2845 29.3687 25.6754C29.4373 28.0297 31.3462 29.9237 33.6827 29.9237H33.6926ZM16.8795 31.4314C17.0429 31.6153 17.2583 31.7073 17.4737 31.7073C17.6891 31.7073 17.9046 31.6153 18.068 31.4314L21.5121 27.5572L24.9555 31.4314C25.283 31.7993 25.8165 31.7993 26.1447 31.4314C26.4716 31.0629 26.4716 30.4627 26.1447 30.0935L22.7006 26.2199L26.1447 22.345C26.4716 21.9765 26.4716 21.3763 26.1447 21.007C25.8165 20.6399 25.283 20.6399 24.9555 21.007L21.5121 24.882L18.068 21.007C17.7405 20.6399 17.207 20.6399 16.8795 21.007C16.5519 21.3763 16.5519 21.9765 16.8795 22.345L20.3229 26.2199L16.8795 30.0935C16.5519 30.4627 16.5519 31.0629 16.8795 31.4314Z" fill="#0AFFD2"/>
<defs>
<filter id="filter0_d_2598_9923" x="0.349609" y="0.70166" width="53.3008" height="56.5967" filterUnits="userSpaceOnUse" color-interpolation-filters="sRGB">
<feFlood flood-opacity="0" result="BackgroundImageFix"/>
<feColorMatrix in="SourceAlpha" type="matrix" values="0 0 0 0 0 0 0 0 0 0 0 0 0 0 0 0 0 0 127 0" result="hardAlpha"/>
<feOffset dy="4"/>
<feGaussianBlur stdDeviation="2.5"/>
<feColorMatrix type="matrix" values="0 0 0 0 0 0 0 0 0 0 0 0 0 0 0 0 0 0 0.14 0"/>
<feBlend mode="normal" in2="BackgroundImageFix" result="effect1_dropShadow_2598_9923"/>
<feBlend mode="normal" in="SourceGraphic" in2="effect1_dropShadow_2598_9923" result="shape"/>
</filter>
<linearGradient id="paint0_linear_2598_9923" x1="-17.9248" y1="26.9392" x2="27.7212" y2="70.0147" gradientUnits="userSpaceOnUse">
<stop stop-color="#2C07FA"/>
<stop offset="1" stop-color="#A716EE"/>
</linearGradient>
</defs>
</svg>
