<svg width="50" height="50" viewBox="0 0 50 50" fill="none" xmlns="http://www.w3.org/2000/svg">
<circle cx="25" cy="25" r="25" fill="#FFD147"/>
<circle cx="25" cy="25" r="25" fill="url(#paint0_linear)"/>
<circle cx="24.8333" cy="24.8333" r="20.8333" fill="url(#paint1_linear)"/>
<path fill-rule="evenodd" clip-rule="evenodd" d="M37.1828 24.9428C37.1828 18.1933 31.6918 12.7024 24.9431 12.7024C18.1936 12.7024 12.7027 18.1933 12.7027 24.9428C12.7027 31.6922 18.1936 37.1832 24.943 37.1832V37.1835C24.9708 37.1835 24.9985 37.1834 25.0263 37.1832H34.8849C35.8638 37.1832 36.6571 36.3898 36.6571 35.4117C36.6571 34.4335 35.8638 33.6409 34.8849 33.6409H33.5472C35.7912 31.4208 37.1834 28.3415 37.1834 24.9431H33.6411C33.6411 29.7155 29.7771 33.6029 25.0134 33.6409H24.9431C20.1942 33.6409 16.323 29.8167 16.2457 25.0869L16.245 24.9428C16.245 20.1469 20.1464 16.2455 24.9431 16.2455V16.2447C29.739 16.2447 33.6411 20.1469 33.6411 24.9428H37.1828Z" fill="#00FFDD"/>
<path fill-rule="evenodd" clip-rule="evenodd" d="M24.9431 29.6617C22.3368 29.6617 20.2244 27.5493 20.2244 24.943C20.2244 22.3374 22.3368 20.2244 24.9431 20.2244C27.5487 20.2244 29.6617 22.3374 29.6617 24.943C29.6617 27.5493 27.5487 29.6617 24.9431 29.6617Z" fill="#00FFDD"/>
<path fill-rule="evenodd" clip-rule="evenodd" d="M24.9431 29.6617C22.3368 29.6617 20.2244 27.5493 20.2244 24.943C20.2244 22.3374 22.3368 20.2244 24.9431 20.2244C27.5487 20.2244 29.6617 22.3374 29.6617 24.943C29.6617 27.5493 27.5487 29.6617 24.9431 29.6617Z" fill="#2E3192"/>
<defs>
<linearGradient id="paint0_linear" x1="-6.5" y1="18.5" x2="32.5" y2="57.5" gradientUnits="userSpaceOnUse">
<stop stop-color="#FFF500"/>
<stop offset="0.994792" stop-color="#FFBF00"/>
</linearGradient>
<linearGradient id="paint1_linear" x1="3.8335" y1="3.83325" x2="45.8335" y2="45.8332" gradientUnits="userSpaceOnUse">
<stop stop-color="#20225C"/>
<stop offset="1" stop-color="#101133"/>
</linearGradient>
</defs>
</svg>
