<svg width="54" height="58" viewBox="0 0 54 58" fill="none" xmlns="http://www.w3.org/2000/svg">
<g filter="url(#filter0_d)">
<path fill-rule="evenodd" clip-rule="evenodd" d="M23.5 2.02073C25.6658 0.770297 28.3342 0.770297 30.5 2.02073L45.1506 10.4793C47.3164 11.7297 48.6506 14.0406 48.6506 16.5415V33.4585C48.6506 35.9594 47.3164 38.2703 45.1506 39.5207L30.5 47.9793C28.3342 49.2297 25.6658 49.2297 23.5 47.9793L8.84937 39.5207C6.68356 38.2703 5.34936 35.9594 5.34936 33.4585V16.5415C5.34936 14.0406 6.68356 11.7297 8.84937 10.4793L23.5 2.02073Z" fill="url(#paint0_linear)"/>
</g>
<path fill-rule="evenodd" clip-rule="evenodd" d="M33.6493 29.9239C36.0611 29.9239 38.0234 28.0902 38.0234 25.6754C38.0234 23.2749 36.0848 21.3197 33.6931 21.296C31.3141 21.3349 29.3691 23.2845 29.3691 25.6754C29.4377 28.0297 31.3465 29.9237 33.683 29.9237H38.6165C39.1017 29.9237 39.4951 30.3229 39.4951 30.8157C39.4951 31.3079 39.1017 31.7073 38.6165 31.7073H33.683C30.3773 31.7073 27.6802 29.0137 27.6112 25.6754L27.6098 25.6754L27.6103 25.6097L27.6098 25.5442L27.6112 25.5441C27.6803 22.2448 30.3518 19.5746 33.6493 19.5133L33.6493 19.5122L33.7074 19.5124C33.7267 19.5123 33.746 19.5122 33.7654 19.5122C37.1062 19.5755 39.8049 22.3159 39.8049 25.6754C39.8049 27.3528 39.1321 28.8438 38.0426 29.9239" fill="#0AFFD2"/>
<path fill-rule="evenodd" clip-rule="evenodd" d="M17.4741 31.7073C17.2587 31.7073 17.0433 31.6153 16.8798 31.4314C16.5523 31.0629 16.5523 30.4627 16.8798 30.0935L20.3232 26.2199L16.8798 22.345C16.5523 21.9765 16.5523 21.3763 16.8798 21.007C17.2074 20.6399 17.7408 20.6399 18.0684 21.007L21.5124 24.882L24.9558 21.007C25.2834 20.6399 25.8169 20.6399 26.145 21.007C26.472 21.3763 26.472 21.9765 26.145 22.345L22.701 26.2199L26.145 30.0935C26.472 30.4627 26.472 31.0629 26.145 31.4314C25.8169 31.7993 25.2834 31.7993 24.9558 31.4314L21.5124 27.5572L18.0684 31.4314C17.9049 31.6153 17.6895 31.7073 17.4741 31.7073Z" fill="#0AFFD2"/>
<defs>
<filter id="filter0_d" x="0.349365" y="0.0828857" width="53.3013" height="57.8342" filterUnits="userSpaceOnUse" color-interpolation-filters="sRGB">
<feFlood flood-opacity="0" result="BackgroundImageFix"/>
<feColorMatrix in="SourceAlpha" type="matrix" values="0 0 0 0 0 0 0 0 0 0 0 0 0 0 0 0 0 0 127 0"/>
<feOffset dy="4"/>
<feGaussianBlur stdDeviation="2.5"/>
<feColorMatrix type="matrix" values="0 0 0 0 0 0 0 0 0 0 0 0 0 0 0 0 0 0 0.14 0"/>
<feBlend mode="normal" in2="BackgroundImageFix" result="effect1_dropShadow"/>
<feBlend mode="normal" in="SourceGraphic" in2="effect1_dropShadow" result="shape"/>
</filter>
<linearGradient id="paint0_linear" x1="-17.9251" y1="26.9393" x2="27.721" y2="70.0148" gradientUnits="userSpaceOnUse">
<stop stop-color="#2C07FA"/>
<stop offset="1" stop-color="#A716EE"/>
</linearGradient>
</defs>
</svg>
