<svg width="25" height="23" viewBox="0 0 25 23" fill="none" xmlns="http://www.w3.org/2000/svg">
<path fill-rule="evenodd" clip-rule="evenodd" d="M15.5966 1.84267L24.6825 17.962C24.8825 18.4432 24.97 18.8343 24.995 19.2408C25.045 20.1904 24.72 21.1135 24.0826 21.8238C23.4452 22.5316 22.5829 22.9494 21.6455 23H3.34862C2.9612 22.976 2.57376 22.886 2.21132 22.7467C0.399125 21.9998 -0.475725 19.8979 0.26165 18.076L9.41011 1.83127C9.72254 1.26025 10.1975 0.767716 10.7849 0.451172C12.4846 -0.512362 14.6467 0.120713 15.5966 1.84267ZM13 11.8458C13 12.4747 12.5543 13 12.0058 13C11.4572 13 11 12.4747 11 11.8458V8.13975C11 7.50961 11.4572 7 12.0058 7C12.5543 7 13 7.50961 13 8.13975V11.8458ZM12.0058 18C11.4572 18 11 17.5445 11 17.0006C11 16.4543 11.4572 16 12.0058 16C12.5543 16 13 16.4441 13 16.9881C13 17.5445 12.5543 18 12.0058 18Z" fill="white"/>
</svg>
