<svg width="44" height="44" viewBox="0 0 44 44" fill="none" xmlns="http://www.w3.org/2000/svg">
<circle cx="22" cy="22" r="22" fill="white"/>
<path d="M22.2227 16.3846C23.0547 16.3846 24.0977 15.8048 24.7188 15.0318C25.2812 14.3312 25.6914 13.3528 25.6914 12.3744C25.6914 12.2416 25.6797 12.1087 25.6562 12C24.7305 12.0362 23.6172 12.6402 22.9492 13.4495C22.4219 14.0655 21.9414 15.0318 21.9414 16.0223C21.9414 16.1672 21.9648 16.3121 21.9766 16.3605C22.0352 16.3725 22.1289 16.3846 22.2227 16.3846ZM19.293 31C20.4297 31 20.9336 30.2149 22.3516 30.2149C23.793 30.2149 24.1094 30.9758 25.375 30.9758C26.6172 30.9758 27.4492 29.7921 28.2344 28.6325C29.1133 27.3039 29.4766 25.9994 29.5 25.939C29.418 25.9148 27.0391 24.9123 27.0391 22.0979C27.0391 19.658 28.9141 18.5588 29.0195 18.4743C27.7773 16.6383 25.8906 16.59 25.375 16.59C23.9805 16.59 22.8438 17.4596 22.1289 17.4596C21.3555 17.4596 20.3359 16.6383 19.1289 16.6383C16.832 16.6383 14.5 18.595 14.5 22.2912C14.5 24.5861 15.3672 27.014 16.4336 28.5842C17.3477 29.9129 18.1445 31 19.293 31Z" fill="black"/>
</svg>
