<svg width="24" height="24" viewBox="0 0 24 24" fill="none" xmlns="http://www.w3.org/2000/svg">
<path fill-rule="evenodd" clip-rule="evenodd" d="M1 11.75C1 5.81294 5.81294 1 11.75 1C17.6871 1 22.5 5.81294 22.5 11.75C22.5 17.6871 17.6871 22.5 11.75 22.5C5.81294 22.5 1 17.6871 1 11.75ZM12.8839 7.11612C12.6495 6.8817 12.3315 6.75 12 6.75C11.6685 6.75 11.3505 6.8817 11.1161 7.11612L8.11612 10.1161C7.62796 10.6043 7.62796 11.3957 8.11612 11.8839C8.60427 12.372 9.39573 12.372 9.88388 11.8839L10.75 11.0178L10.75 16C10.75 16.6904 11.3096 17.25 12 17.25C12.6904 17.25 13.25 16.6904 13.25 16V11.0178L14.1161 11.8839C14.6043 12.372 15.3957 12.372 15.8839 11.8839C16.372 11.3957 16.372 10.6043 15.8839 10.1161L12.8839 7.11612Z" fill="white"/>
<path fill-rule="evenodd" clip-rule="evenodd" d="M1 11.75C1 5.81294 5.81294 1 11.75 1C17.6871 1 22.5 5.81294 22.5 11.75C22.5 17.6871 17.6871 22.5 11.75 22.5C5.81294 22.5 1 17.6871 1 11.75ZM12.8839 7.11612C12.6495 6.8817 12.3315 6.75 12 6.75C11.6685 6.75 11.3505 6.8817 11.1161 7.11612L8.11612 10.1161C7.62796 10.6043 7.62796 11.3957 8.11612 11.8839C8.60427 12.372 9.39573 12.372 9.88388 11.8839L10.75 11.0178L10.75 16C10.75 16.6904 11.3096 17.25 12 17.25C12.6904 17.25 13.25 16.6904 13.25 16V11.0178L14.1161 11.8839C14.6043 12.372 15.3957 12.372 15.8839 11.8839C16.372 11.3957 16.372 10.6043 15.8839 10.1161L12.8839 7.11612Z" fill="url(#paint0_linear_7686_112455)"/>
<defs>
<linearGradient id="paint0_linear_7686_112455" x1="23" y1="1" x2="6.58872" y2="26.5849" gradientUnits="userSpaceOnUse">
<stop stop-color="#FFD3FB"/>
<stop offset="0.484375" stop-color="#F5FFCB"/>
<stop offset="1" stop-color="#9FFFDD"/>
</linearGradient>
</defs>
</svg>
