<svg width="16" height="16" viewBox="0 0 16 16" fill="none" xmlns="http://www.w3.org/2000/svg">
<path d="M8.00016 0.833984C4.04212 0.833984 0.833496 4.04261 0.833496 8.00065C0.833496 11.9587 4.04212 15.1673 8.00016 15.1673C11.9582 15.1673 15.1668 11.9587 15.1668 8.00065C15.1668 4.04261 11.9582 0.833984 8.00016 0.833984Z" fill="white"/>
<path fill-rule="evenodd" clip-rule="evenodd" d="M8 4.58398C8.19891 4.58398 8.38968 4.663 8.53033 4.80365L10.5303 6.80365C10.8232 7.09655 10.8232 7.57142 10.5303 7.86431C10.2374 8.15721 9.76256 8.15721 9.46967 7.86431L8.75 7.14464L8.75 10.6673C8.75 11.0815 8.41421 11.4173 8 11.4173C7.58579 11.4173 7.25 11.0815 7.25 10.6673L7.25 7.14464L6.53033 7.86431C6.23744 8.15721 5.76256 8.15721 5.46967 7.86431C5.17678 7.57142 5.17678 7.09655 5.46967 6.80365L7.46967 4.80365C7.61032 4.663 7.80109 4.58398 8 4.58398Z" fill="#1C1E64"/>
</svg>
