<svg width="18" height="24" viewBox="0 0 18 24" fill="none" xmlns="http://www.w3.org/2000/svg">
<path fill-rule="evenodd" clip-rule="evenodd" d="M4.34686 0.861603C3.57943 2.76726 4.01886 7.70378 5.14286 9.80332C6.59886 12.5232 6.58514 14.3161 5.08743 17.2653C4.428 18.5631 3.75143 20.6011 3.58343 21.7944C3.124 25.0589 4.64971 24.6134 6.20914 21.0281C6.91143 19.4133 8.02571 17.6362 8.68571 17.0796L9.88514 16.0666L9.45314 18.7897C8.76343 23.1358 8.79314 23.6914 9.71428 23.6914C10.8469 23.6914 13.0971 17.3922 13.1189 14.1604C13.1286 12.8124 12.7817 11.0631 12.3497 10.2733C11.6297 8.95806 11.7011 8.63455 13.1943 6.44732C14.0909 5.13313 14.8966 3.478 14.984 2.76944C15.2709 0.442239 13.7994 0.965083 12.3411 3.70838C10.8434 6.5252 9.69771 7.32145 7.91886 6.78336C6.32057 6.29972 5.652 4.64732 6.06343 2.19703C6.35771 0.44006 6.25771 0 5.56286 0C5.08457 0 4.53771 0.387776 4.34686 0.861603ZM7.18343 1.94487C6.68971 2.41597 6.28571 3.1131 6.28571 3.49434C6.28571 4.31728 7.18343 5.94463 9.004 5.99092C9.88286 5.99092 11.4286 4.42838 11.4286 3.54009C11.4286 2.58644 9.85771 1.08926 8.85714 1.08926C8.43086 1.08926 7.67771 1.47431 7.18343 1.94487ZM1.42857 3.8124C1.62286 4.11195 1.89486 4.35703 2.03371 4.35703C2.17257 4.35703 2.28571 4.11195 2.28571 3.8124C2.28571 3.51286 2.01314 3.26777 1.68057 3.26777C1.348 3.26777 1.23429 3.51286 1.42857 3.8124ZM15.7446 5.94463C15.5606 6.22838 15.6537 6.60363 15.9514 6.779C16.2491 6.95437 16.6429 6.86559 16.8269 6.58184C17.0109 6.29809 16.9177 5.92284 16.62 5.74747C16.3223 5.5721 15.9286 5.66087 15.7446 5.94463ZM0 8.44175C0 8.94118 0.276571 9.26142 0.614286 9.15413C0.952 9.04683 1.22857 8.72659 1.22857 8.44175C1.22857 8.15691 0.952 7.83667 0.614286 7.72938C0.276571 7.62208 0 7.94233 0 8.44175ZM16 9.25869C16 9.55824 16.2571 9.80332 16.5714 9.80332C16.8857 9.80332 17.1429 9.55824 17.1429 9.25869C17.1429 8.95915 16.8857 8.71407 16.5714 8.71407C16.2571 8.71407 16 8.95915 16 9.25869ZM4.10971 12.5673C4.22229 12.8892 4.55829 13.1528 4.85714 13.1528C5.156 13.1528 5.492 12.8892 5.60457 12.5673C5.71714 12.2454 5.38114 11.9818 4.85714 11.9818C4.33314 11.9818 3.99714 12.2454 4.10971 12.5673ZM14.2857 13.0711C14.2857 13.3706 14.5429 13.6157 14.8571 13.6157C15.1714 13.6157 15.4286 13.3706 15.4286 13.0711C15.4286 12.7716 15.1714 12.5265 14.8571 12.5265C14.5429 12.5265 14.2857 12.7716 14.2857 13.0711ZM1.14286 16.3389C1.14286 16.6384 1.41543 16.8835 1.748 16.8835C2.08057 16.8835 2.19429 16.6384 2 16.3389C1.80571 16.0393 1.53371 15.7942 1.39486 15.7942C1.256 15.7942 1.14286 16.0393 1.14286 16.3389ZM14.6509 16.7168C14.0074 17.3301 14.2594 17.9728 15.1429 17.9728C15.6143 17.9728 16 17.7424 16 17.4603C16 16.7735 15.1074 16.2817 14.6509 16.7168Z" fill="white"/>
</svg>
