<svg width="40" height="40" viewBox="0 0 40 40" fill="none" xmlns="http://www.w3.org/2000/svg">
<path fill-rule="evenodd" clip-rule="evenodd" d="M0 20C0 8.96 8.98 0 20 0L20.5596 0.00768C31.3412 0.30432 40 9.14712 40 20C40 31.02 31.04 40 20 40C8.98 40 0 31.02 0 20Z" fill="#141539"/>
<path fill-rule="evenodd" clip-rule="evenodd" d="M24.4142 11.5858C25.1953 12.3668 25.1953 13.6332 24.4142 14.4142L18.8284 20L24.4142 25.5859C25.1953 26.3669 25.1953 27.6333 24.4142 28.4143C23.6332 29.1953 22.3668 29.1953 21.5858 28.4143L14.5858 21.4142C13.8047 20.6332 13.8047 19.3668 14.5858 18.5858L21.5858 11.5858C22.3668 10.8047 23.6332 10.8047 24.4142 11.5858Z" fill="white"/>
</svg>
