<svg width="48" height="48" viewBox="0 0 48 48" fill="none" xmlns="http://www.w3.org/2000/svg">
<g filter="url(#filter0_d_866_10757)">
<path fill-rule="evenodd" clip-rule="evenodd" d="M4 22C4 10.96 12.98 2 24 2L24.5596 2.00768C35.3412 2.30432 44 11.1471 44 22C44 33.02 35.04 42 24 42C12.98 42 4 33.02 4 22Z" fill="#141539"/>
</g>
<path fill-rule="evenodd" clip-rule="evenodd" d="M28.4142 13.5858C29.1953 14.3668 29.1953 15.6332 28.4142 16.4142L22.8284 22L28.4142 27.5859C29.1953 28.3669 29.1953 29.6333 28.4142 30.4143C27.6332 31.1953 26.3668 31.1953 25.5858 30.4143L18.5858 23.4142C17.8047 22.6332 17.8047 21.3668 18.5858 20.5858L25.5858 13.5858C26.3668 12.8047 27.6332 12.8047 28.4142 13.5858Z" fill="white"/>
<defs>
<filter id="filter0_d_866_10757" x="0" y="0" width="48" height="48" filterUnits="userSpaceOnUse" color-interpolation-filters="sRGB">
<feFlood flood-opacity="0" result="BackgroundImageFix"/>
<feColorMatrix in="SourceAlpha" type="matrix" values="0 0 0 0 0 0 0 0 0 0 0 0 0 0 0 0 0 0 127 0" result="hardAlpha"/>
<feOffset dy="2"/>
<feGaussianBlur stdDeviation="2"/>
<feColorMatrix type="matrix" values="0 0 0 0 0 0 0 0 0 0 0 0 0 0 0 0 0 0 0.253621 0"/>
<feBlend mode="normal" in2="BackgroundImageFix" result="effect1_dropShadow_866_10757"/>
<feBlend mode="normal" in="SourceGraphic" in2="effect1_dropShadow_866_10757" result="shape"/>
</filter>
</defs>
</svg>
