<svg width="52" height="52" viewBox="0 0 52 52" fill="none" xmlns="http://www.w3.org/2000/svg">
<g filter="url(#filter0_d_1615_26547)">
<circle cx="26.0001" cy="22.0014" r="15.36" fill="white"/>
</g>
<g clip-path="url(#clip0_1615_26547)">
<path d="M18.4593 23.3593L27.4413 10.9227C28.0355 10.1 29.3333 10.6416 29.1665 11.6425L27.9201 19.1213H32.7625C33.5457 19.1213 33.9993 20.0085 33.5408 20.6434L24.5588 33.08C23.9647 33.9027 22.6668 33.3611 22.8336 32.3601L24.0801 24.8813H19.2376C18.4544 24.8813 18.0008 23.9941 18.4593 23.3593Z" fill="#940DFF"/>
<path d="M18.4593 23.3593L27.4413 10.9227C28.0355 10.1 29.3333 10.6416 29.1665 11.6425L27.9201 19.1213H32.7625C33.5457 19.1213 33.9993 20.0085 33.5408 20.6434L24.5588 33.08C23.9647 33.9027 22.6668 33.3611 22.8336 32.3601L24.0801 24.8813H19.2376C18.4544 24.8813 18.0008 23.9941 18.4593 23.3593Z" fill="url(#paint0_linear_1615_26547)"/>
<path d="M18.4593 23.3593L27.4413 10.9227C28.0355 10.1 29.3333 10.6416 29.1665 11.6425L27.9201 19.1213H32.7625C33.5457 19.1213 33.9993 20.0085 33.5408 20.6434L24.5588 33.08C23.9647 33.9027 22.6668 33.3611 22.8336 32.3601L24.0801 24.8813H19.2376C18.4544 24.8813 18.0008 23.9941 18.4593 23.3593Z" fill="url(#paint1_linear_1615_26547)"/>
</g>
<defs>
<filter id="filter0_d_1615_26547" x="0.640137" y="0.641357" width="50.7202" height="50.72" filterUnits="userSpaceOnUse" color-interpolation-filters="sRGB">
<feFlood flood-opacity="0" result="BackgroundImageFix"/>
<feColorMatrix in="SourceAlpha" type="matrix" values="0 0 0 0 0 0 0 0 0 0 0 0 0 0 0 0 0 0 127 0" result="hardAlpha"/>
<feOffset dy="4"/>
<feGaussianBlur stdDeviation="5"/>
<feComposite in2="hardAlpha" operator="out"/>
<feColorMatrix type="matrix" values="0 0 0 0 0 0 0 0 0 0 0 0 0 0 0 0 0 0 0.25 0"/>
<feBlend mode="normal" in2="BackgroundImageFix" result="effect1_dropShadow_1615_26547"/>
<feBlend mode="normal" in="SourceGraphic" in2="effect1_dropShadow_1615_26547" result="shape"/>
</filter>
<linearGradient id="paint0_linear_1615_26547" x1="26.0001" y1="10.5211" x2="26.0001" y2="33.4816" gradientUnits="userSpaceOnUse">
<stop stop-color="#7000FF"/>
<stop offset="1" stop-color="#00EADC"/>
</linearGradient>
<linearGradient id="paint1_linear_1615_26547" x1="27.5" y1="11" x2="26" y2="30.5" gradientUnits="userSpaceOnUse">
<stop stop-color="#EB00FF"/>
<stop offset="1" stop-color="#6B00BF"/>
</linearGradient>
<clipPath id="clip0_1615_26547">
<rect width="23.04" height="23.04" fill="white" transform="translate(14.48 10.4813)"/>
</clipPath>
</defs>
</svg>
