<svg width="32" height="32" viewBox="0 0 32 32" fill="none" xmlns="http://www.w3.org/2000/svg">
<circle cx="16" cy="16" r="15" fill="white"/>
<path d="M8.63612 17.3261L17.4076 5.18094C17.9878 4.3776 19.2553 4.90649 19.0924 5.88396L17.8751 13.1875H22.6041C23.3689 13.1875 23.8119 14.0539 23.3641 14.6739L14.5926 26.819C14.0124 27.6224 12.745 27.0935 12.9079 26.116L14.1251 18.8125H9.39614C8.63135 18.8125 8.18835 17.9461 8.63612 17.3261Z" fill="#940DFF"/>
<path d="M8.63612 17.3261L17.4076 5.18094C17.9878 4.3776 19.2553 4.90649 19.0924 5.88396L17.8751 13.1875H22.6041C23.3689 13.1875 23.8119 14.0539 23.3641 14.6739L14.5926 26.819C14.0124 27.6224 12.745 27.0935 12.9079 26.116L14.1251 18.8125H9.39614C8.63135 18.8125 8.18835 17.9461 8.63612 17.3261Z" fill="url(#paint0_linear_2600_24209)"/>
<defs>
<linearGradient id="paint0_linear_2600_24209" x1="16.0001" y1="4.78882" x2="16.0001" y2="27.2111" gradientUnits="userSpaceOnUse">
<stop stop-color="#8001FF"/>
<stop offset="1" stop-color="#FF008A"/>
</linearGradient>
</defs>
</svg>
