<svg width="52" height="52" viewBox="0 0 52 52" fill="none" xmlns="http://www.w3.org/2000/svg">
<g filter="url(#filter0_d_1593_26163)">
<circle cx="25.8632" cy="22.0014" r="15.36" fill="white"/>
</g>
<g clip-path="url(#clip0_1593_26163)">
<path d="M18.3226 23.3593L27.3046 10.9227C27.8987 10.1 29.1966 10.6416 29.0298 11.6425L27.7833 19.1213H32.6258C33.409 19.1213 33.8626 20.0085 33.4041 20.6434L24.4221 33.08C23.8279 33.9027 22.5301 33.3611 22.6969 32.3601L23.9433 24.8813H19.1009C18.3177 24.8813 17.8641 23.9941 18.3226 23.3593Z" fill="#940DFF"/>
<path d="M18.3226 23.3593L27.3046 10.9227C27.8987 10.1 29.1966 10.6416 29.0298 11.6425L27.7833 19.1213H32.6258C33.409 19.1213 33.8626 20.0085 33.4041 20.6434L24.4221 33.08C23.8279 33.9027 22.5301 33.3611 22.6969 32.3601L23.9433 24.8813H19.1009C18.3177 24.8813 17.8641 23.9941 18.3226 23.3593Z" fill="url(#paint0_linear_1593_26163)"/>
</g>
<defs>
<filter id="filter0_d_1593_26163" x="0.503174" y="0.641357" width="50.72" height="50.72" filterUnits="userSpaceOnUse" color-interpolation-filters="sRGB">
<feFlood flood-opacity="0" result="BackgroundImageFix"/>
<feColorMatrix in="SourceAlpha" type="matrix" values="0 0 0 0 0 0 0 0 0 0 0 0 0 0 0 0 0 0 127 0" result="hardAlpha"/>
<feOffset dy="4"/>
<feGaussianBlur stdDeviation="5"/>
<feComposite in2="hardAlpha" operator="out"/>
<feColorMatrix type="matrix" values="0 0 0 0 0 0 0 0 0 0 0 0 0 0 0 0 0 0 0.25 0"/>
<feBlend mode="normal" in2="BackgroundImageFix" result="effect1_dropShadow_1593_26163"/>
<feBlend mode="normal" in="SourceGraphic" in2="effect1_dropShadow_1593_26163" result="shape"/>
</filter>
<linearGradient id="paint0_linear_1593_26163" x1="25.8633" y1="10.5211" x2="25.8633" y2="33.4816" gradientUnits="userSpaceOnUse">
<stop stop-color="#7000FF"/>
<stop offset="1" stop-color="#00EADC"/>
</linearGradient>
<clipPath id="clip0_1593_26163">
<rect width="23.04" height="23.04" fill="white" transform="translate(14.3433 10.4813)"/>
</clipPath>
</defs>
</svg>
