<svg width="20" height="20" viewBox="0 0 20 20" fill="none" xmlns="http://www.w3.org/2000/svg">
<path fill-rule="evenodd" clip-rule="evenodd" d="M5.7558 1.64474C5.30168 1.64474 4.93355 2.01288 4.93355 2.467V3.28925H4.11129C2.74894 3.28925 1.64453 4.39366 1.64453 5.75602V15.6231C1.64453 16.9854 2.74894 18.0898 4.11129 18.0898H15.6229C16.9852 18.0898 18.0896 16.9854 18.0896 15.6231V5.75602C18.0896 4.39366 16.9852 3.28925 15.6229 3.28925H14.8006V2.467C14.8006 2.01288 14.4325 1.64474 13.9783 1.64474C13.5242 1.64474 13.1561 2.01288 13.1561 2.467V3.28925H6.57806V2.467C6.57806 2.01288 6.20992 1.64474 5.7558 1.64474ZM7.40031 10.6895C7.40031 10.2354 7.76845 9.86729 8.22256 9.86729H13.9783C14.4325 9.86729 14.8006 10.2354 14.8006 10.6895C14.8006 11.1437 14.4325 11.5118 13.9783 11.5118H8.22256C7.76845 11.5118 7.40031 11.1437 7.40031 10.6895ZM4.93355 13.9786C4.93355 13.5244 5.30168 13.1563 5.7558 13.1563H10.6893C11.1434 13.1563 11.5116 13.5244 11.5116 13.9786C11.5116 14.4327 11.1434 14.8008 10.6893 14.8008H5.7558C5.30168 14.8008 4.93355 14.4327 4.93355 13.9786Z" fill="white"/>
</svg>
