<svg width="20" height="20" viewBox="0 0 20 20" fill="none" xmlns="http://www.w3.org/2000/svg">
<path opacity="0.25" fill-rule="evenodd" clip-rule="evenodd" d="M4.93355 2.63851C4.93355 2.18439 5.30168 1.81625 5.7558 1.81625C6.20992 1.81625 6.57806 2.18439 6.57806 2.63851V3.46076H13.1561V2.63851C13.1561 2.18439 13.5242 1.81625 13.9783 1.81625C14.4325 1.81625 14.8006 2.18439 14.8006 2.63851V3.46076H15.6229C16.9852 3.46076 18.0896 4.56517 18.0896 5.92752V15.7946C18.0896 17.1569 16.9852 18.2613 15.6229 18.2613H4.11129C2.74894 18.2613 1.64453 17.1569 1.64453 15.7946V5.92752C1.64453 4.56517 2.74894 3.46076 4.11129 3.46076H4.93355V2.63851Z" fill="white"/>
<path fill-rule="evenodd" clip-rule="evenodd" d="M8.22249 10.0388C7.76837 10.0388 7.40023 10.4069 7.40023 10.861C7.40023 11.3152 7.76837 11.6833 8.22249 11.6833H13.9783C14.4324 11.6833 14.8005 11.3152 14.8005 10.861C14.8005 10.4069 14.4324 10.0388 13.9783 10.0388H8.22249ZM5.75573 13.3278C5.30161 13.3278 4.93347 13.6959 4.93347 14.1501C4.93347 14.6042 5.30161 14.9723 5.75573 14.9723H10.6892C11.1434 14.9723 11.5115 14.6042 11.5115 14.1501C11.5115 13.6959 11.1434 13.3278 10.6892 13.3278H5.75573Z" fill="white"/>
</svg>
