<svg width="270" height="270" viewBox="0 0 270 270" fill="none" xmlns="http://www.w3.org/2000/svg">
<path d="M0 14C0 6.26801 6.26801 0 14 0H256C263.732 0 270 6.26801 270 14V138H0V14Z" fill="#1E1E1E" fill-opacity="0.75"/>
<path d="M27.8983 24.022L26.371 29.019H28.4628L29.4257 24.022H27.8983ZM31.476 24.022L30.098 29.019H32.1815L33.0033 24.022H31.476ZM40.1075 36.2988C40.8712 36.2988 41.5851 36.1826 42.2242 35.9585L43.1871 37.2451H45.2789L43.7101 35.1201C45.0216 34.1074 45.7604 32.3062 45.7604 30.0151C45.7604 26.1387 43.569 23.7231 40.1075 23.7231C36.6295 23.7231 34.4298 26.1304 34.4298 30.0151C34.4298 33.9082 36.6046 36.2988 40.1075 36.2988ZM40.1075 34.4976C37.9493 34.4976 36.5797 32.7793 36.5797 30.0151C36.5797 27.2593 37.9576 25.5244 40.1075 25.5244C42.2408 25.5244 43.6105 27.2593 43.6105 30.0151C43.6105 31.5342 43.1954 32.7461 42.4649 33.4434L41.5602 32.248H39.4601L41.0455 34.373C40.7467 34.4644 40.4313 34.4976 40.1075 34.4976ZM50.0423 36.1494C51.2293 36.1494 52.2254 35.6348 52.7318 34.7549H52.8729V36H54.8568V29.7993C54.8568 27.8818 53.5452 26.7529 51.2127 26.7529C49.0545 26.7529 47.5521 27.7656 47.386 29.3511H49.3284C49.5194 28.7285 50.1668 28.3882 51.1131 28.3882C52.2254 28.3882 52.8231 28.8945 52.8231 29.7993V30.5796L50.4822 30.7207C48.2742 30.8452 47.0374 31.7998 47.0374 33.4268C47.0374 35.0869 48.2908 36.1494 50.0423 36.1494ZM50.6483 34.564C49.7352 34.564 49.0794 34.1074 49.0794 33.3271C49.0794 32.5718 49.619 32.1484 50.7728 32.0737L52.8231 31.9326V32.6714C52.8231 33.7505 51.8934 34.564 50.6483 34.564ZM61.878 26.7778C60.6328 26.7778 59.5786 27.4004 59.0557 28.4297H58.9146V26.9272H56.9307V39.0132H58.9893V34.6221H59.1304C59.5952 35.585 60.5996 36.1494 61.9029 36.1494C64.1939 36.1494 65.6216 34.3481 65.6216 31.4678C65.6216 28.5625 64.1773 26.7778 61.878 26.7778ZM61.2305 34.4395C59.8277 34.4395 58.9561 33.3022 58.9478 31.4678C58.9561 29.6333 59.836 28.4961 61.2388 28.4961C62.6499 28.4961 63.5049 29.6084 63.5049 31.4678C63.5049 33.3271 62.6582 34.4395 61.2305 34.4395ZM67.3635 36H69.4221V23.416H67.3635V36ZM74.1191 36.1494C75.3061 36.1494 76.3022 35.6348 76.8085 34.7549H76.9496V36H78.9335V29.7993C78.9335 27.8818 77.622 26.7529 75.2895 26.7529C73.1313 26.7529 71.6288 27.7656 71.4628 29.3511H73.4052C73.5961 28.7285 74.2436 28.3882 75.1899 28.3882C76.3022 28.3882 76.8998 28.8945 76.8998 29.7993V30.5796L74.559 30.7207C72.351 30.8452 71.1142 31.7998 71.1142 33.4268C71.1142 35.0869 72.3676 36.1494 74.1191 36.1494ZM74.725 34.564C73.812 34.564 73.1562 34.1074 73.1562 33.3271C73.1562 32.5718 73.6957 32.1484 74.8495 32.0737L76.8998 31.9326V32.6714C76.8998 33.7505 75.9702 34.564 74.725 34.564ZM95.7069 31.2188V29.7246H90.7347V31.3599H93.6151L93.6068 31.6089C93.5736 33.3022 92.3285 34.4395 90.5023 34.4395C88.369 34.4395 87.0326 32.7461 87.0326 29.9902C87.0326 27.2759 88.3441 25.5825 90.4359 25.5825C91.9715 25.5825 93.0423 26.3462 93.474 27.7324H95.6073C95.2254 25.292 93.2001 23.7231 90.4359 23.7231C87.0243 23.7231 84.8412 26.1719 84.8412 30.0068C84.8412 33.8833 86.9994 36.2988 90.4691 36.2988C93.6649 36.2988 95.7069 34.3149 95.7069 31.2188ZM100.022 36.1494C101.209 36.1494 102.205 35.6348 102.711 34.7549H102.853V36H104.836V29.7993C104.836 27.8818 103.525 26.7529 101.192 26.7529C99.0342 26.7529 97.5318 27.7656 97.3658 29.3511H99.3082C99.4991 28.7285 100.147 28.3882 101.093 28.3882C102.205 28.3882 102.803 28.8945 102.803 29.7993V30.5796L100.462 30.7207C98.254 30.8452 97.0172 31.7998 97.0172 33.4268C97.0172 35.0869 98.2706 36.1494 100.022 36.1494ZM100.628 34.564C99.7149 34.564 99.0591 34.1074 99.0591 33.3271C99.0591 32.5718 99.5987 32.1484 100.753 32.0737L102.803 31.9326V32.6714C102.803 33.7505 101.873 34.564 100.628 34.564ZM106.91 36H108.969V30.48C108.969 29.3511 109.724 28.4961 110.745 28.4961C111.758 28.4961 112.389 29.1104 112.389 30.1147V36H114.389V30.3306C114.389 29.293 115.095 28.4961 116.166 28.4961C117.27 28.4961 117.826 29.0854 117.826 30.2642V36H119.876V29.7578C119.876 27.8735 118.781 26.7529 116.963 26.7529C115.701 26.7529 114.655 27.4004 114.207 28.3882H114.066C113.684 27.3838 112.812 26.7529 111.559 26.7529C110.355 26.7529 109.426 27.3672 109.035 28.3882H108.894V26.9272H106.91V36ZM122.955 25.4082C123.635 25.4082 124.191 24.8687 124.191 24.188C124.191 23.5156 123.635 22.9678 122.955 22.9678C122.282 22.9678 121.726 23.5156 121.726 24.188C121.726 24.8687 122.282 25.4082 122.955 25.4082ZM121.934 36H123.984V26.9272H121.934V36ZM126.133 36H128.191V30.7124C128.191 29.3511 128.963 28.4961 130.192 28.4961C131.445 28.4961 132.026 29.2017 132.026 30.6128V36H134.085V30.1313C134.085 27.9731 132.981 26.7529 130.955 26.7529C129.602 26.7529 128.689 27.3672 128.258 28.3799H128.116V26.9272H126.133V36ZM140.018 39.4531C142.666 39.4531 144.343 38.1333 144.343 36.0498V26.9272H142.359V28.3799H142.218C141.72 27.3921 140.641 26.7778 139.404 26.7778C137.088 26.7778 135.652 28.5874 135.652 31.3682C135.652 34.0908 137.08 35.8672 139.371 35.8672C140.633 35.8672 141.621 35.3359 142.143 34.3564H142.285V36.083C142.285 37.2368 141.463 37.9175 140.052 37.9175C138.923 37.9175 138.192 37.5107 138.059 36.8716H135.993C136.159 38.4321 137.686 39.4531 140.018 39.4531ZM140.018 34.2319C138.582 34.2319 137.769 33.1196 137.769 31.3599C137.769 29.6084 138.582 28.4961 140.018 28.4961C141.446 28.4961 142.318 29.6084 142.318 31.3682C142.318 33.1196 141.454 34.2319 140.018 34.2319ZM148.052 29.019L149.439 24.022H147.355L146.533 29.019H148.052ZM151.63 29.019L153.157 24.022H151.074L150.111 29.019H151.63ZM166.336 27.4253H166.461L168.901 36H170.91L174.123 24.022H171.906L169.856 33.0117H169.74L167.349 24.022H165.448L163.091 33.0117H162.966L160.916 24.022H158.683L161.896 36H163.913L166.336 27.4253ZM178.678 36.1826C181.393 36.1826 183.045 34.4062 183.045 31.4595C183.045 28.5293 181.384 26.7529 178.678 26.7529C175.981 26.7529 174.312 28.5376 174.312 31.4595C174.312 34.4062 175.956 36.1826 178.678 36.1826ZM178.678 34.4976C177.242 34.4976 176.421 33.3853 176.421 31.4678C176.421 29.5503 177.242 28.438 178.678 28.438C180.106 28.438 180.928 29.5503 180.928 31.4678C180.928 33.3853 180.114 34.4976 178.678 34.4976ZM192.614 26.9272H190.556V32.2148C190.556 33.5845 189.825 34.4146 188.489 34.4146C187.26 34.4146 186.687 33.7339 186.687 32.3228V26.9272H184.629V32.8208C184.629 34.9458 185.791 36.1826 187.775 36.1826C189.161 36.1826 190.049 35.5933 190.489 34.5557H190.63V36H192.614V26.9272ZM194.813 36H196.871V23.416H194.813V36ZM202.357 36.1494C203.618 36.1494 204.664 35.5601 205.179 34.564H205.32V36H207.312V23.416H205.254V28.3716H205.113C204.631 27.3755 203.602 26.7778 202.357 26.7778C200.066 26.7778 198.621 28.5874 198.621 31.4595C198.621 34.3398 200.057 36.1494 202.357 36.1494ZM202.996 28.4961C204.407 28.4961 205.279 29.6333 205.279 31.4678C205.279 33.3105 204.415 34.4395 202.996 34.4395C201.585 34.4395 200.73 33.3271 200.73 31.4678C200.73 29.6167 201.593 28.4961 202.996 28.4961ZM221.479 34.1655H215.984V24.022H213.843V36H221.479V34.1655ZM224.209 25.4082C224.89 25.4082 225.446 24.8687 225.446 24.188C225.446 23.5156 224.89 22.9678 224.209 22.9678C223.537 22.9678 222.98 23.5156 222.98 24.188C222.98 24.8687 223.537 25.4082 224.209 25.4082ZM223.188 36H225.238V26.9272H223.188V36ZM229.67 30.646H229.529V23.416H227.47V36H229.529V32.8125L230.259 32.082L233.173 36H235.663L231.795 30.8203L235.414 26.9272H233.023L229.67 30.646ZM242.261 33.5181C241.962 34.1987 241.256 34.5806 240.235 34.5806C238.882 34.5806 238.011 33.6177 237.961 32.082V31.9741H244.303V31.3184C244.303 28.4712 242.75 26.7529 240.161 26.7529C237.529 26.7529 235.894 28.5874 235.894 31.501C235.894 34.4062 237.504 36.1826 240.177 36.1826C242.319 36.1826 243.838 35.1533 244.211 33.5181H242.261ZM240.152 28.355C241.389 28.355 242.203 29.2266 242.244 30.6045H237.969C238.06 29.2432 238.924 28.355 240.152 28.355ZM47.539 46.7026V48.9854H46.103V50.5874H47.539V55.5928C47.539 57.3442 48.3691 58.0415 50.4526 58.0415C50.851 58.0415 51.2328 58.0083 51.5317 57.9502V56.373C51.2826 56.3979 51.1249 56.4146 50.8344 56.4146C49.9711 56.4146 49.5893 56.0078 49.5893 55.103V50.5874H51.5317V48.9854H49.5893V46.7026H47.539ZM57.0172 58.1826C59.7316 58.1826 61.3834 56.4062 61.3834 53.4595C61.3834 50.5293 59.7233 48.7529 57.0172 48.7529C54.3195 48.7529 52.651 50.5376 52.651 53.4595C52.651 56.4062 54.2946 58.1826 57.0172 58.1826ZM57.0172 56.4976C55.5812 56.4976 54.7594 55.3853 54.7594 53.4678C54.7594 51.5503 55.5812 50.438 57.0172 50.438C58.445 50.438 59.2667 51.5503 59.2667 53.4678C59.2667 55.3853 58.4533 56.4976 57.0172 56.4976ZM75.1187 58H77.418L73.1597 46.022H70.7525L66.5025 58H68.669L69.6983 54.9038H74.106L75.1187 58ZM71.8399 48.2715H71.981L73.608 53.252H70.1963L71.8399 48.2715ZM86.199 51.957C85.9832 50.0811 84.572 48.7529 82.2395 48.7529C79.5085 48.7529 77.9065 50.5044 77.9065 53.4429C77.9065 56.4146 79.5168 58.1826 82.2478 58.1826C84.5471 58.1826 85.9749 56.9043 86.199 55.0283H84.24C84.0242 55.9829 83.3103 56.4893 82.2395 56.4893C80.8367 56.4893 79.99 55.3687 79.99 53.4429C79.99 51.5503 80.8284 50.438 82.2395 50.438C83.3684 50.438 84.0491 51.0771 84.24 51.957H86.199ZM95.6025 51.957C95.3867 50.0811 93.9755 48.7529 91.643 48.7529C88.9121 48.7529 87.31 50.5044 87.31 53.4429C87.31 56.4146 88.9204 58.1826 91.6513 58.1826C93.9506 58.1826 95.3784 56.9043 95.6025 55.0283H93.6435C93.4277 55.9829 92.7138 56.4893 91.643 56.4893C90.2402 56.4893 89.3935 55.3687 89.3935 53.4429C89.3935 51.5503 90.2319 50.438 91.643 50.438C92.7719 50.438 93.4526 51.0771 93.6435 51.957H95.6025ZM103.08 55.5181C102.781 56.1987 102.076 56.5806 101.055 56.5806C99.7018 56.5806 98.8302 55.6177 98.7804 54.082V53.9741H105.122V53.3184C105.122 50.4712 103.57 48.7529 100.98 48.7529C98.3488 48.7529 96.7135 50.5874 96.7135 53.501C96.7135 56.4062 98.3239 58.1826 100.997 58.1826C103.138 58.1826 104.657 57.1533 105.031 55.5181H103.08ZM100.972 50.355C102.209 50.355 103.022 51.2266 103.064 52.6045H98.7887C98.8801 51.2432 99.7433 50.355 100.972 50.355ZM106.574 51.5171C106.574 52.8784 107.395 53.6753 109.139 54.0737L110.749 54.4473C111.612 54.6465 112.002 54.9785 112.002 55.4932C112.002 56.1821 111.28 56.6553 110.243 56.6553C109.213 56.6553 108.574 56.2402 108.375 55.5679H106.341C106.499 57.2031 107.927 58.1826 110.193 58.1826C112.459 58.1826 114.061 57.0288 114.061 55.2939C114.061 53.9575 113.256 53.2188 111.521 52.8203L109.919 52.4634C109.006 52.2476 108.574 51.9238 108.574 51.4092C108.574 50.7368 109.28 50.2803 110.218 50.2803C111.181 50.2803 111.786 50.6953 111.936 51.3345H113.87C113.721 49.6992 112.368 48.7529 110.209 48.7529C108.068 48.7529 106.574 49.8901 106.574 51.5171ZM115.363 51.5171C115.363 52.8784 116.185 53.6753 117.928 54.0737L119.538 54.4473C120.401 54.6465 120.792 54.9785 120.792 55.4932C120.792 56.1821 120.069 56.6553 119.032 56.6553C118.003 56.6553 117.363 56.2402 117.164 55.5679H115.13C115.288 57.2031 116.716 58.1826 118.982 58.1826C121.248 58.1826 122.85 57.0288 122.85 55.2939C122.85 53.9575 122.045 53.2188 120.31 52.8203L118.708 52.4634C117.795 52.2476 117.363 51.9238 117.363 51.4092C117.363 50.7368 118.069 50.2803 119.007 50.2803C119.97 50.2803 120.576 50.6953 120.725 51.3345H122.659C122.51 49.6992 121.157 48.7529 118.999 48.7529C116.857 48.7529 115.363 49.8901 115.363 51.5171ZM134.319 58V53.2769L138.52 46.022H136.17L133.323 51.1602H133.182L130.327 46.022H127.978L132.178 53.2769V58H134.319ZM142.337 58.1826C145.051 58.1826 146.703 56.4062 146.703 53.4595C146.703 50.5293 145.043 48.7529 142.337 48.7529C139.639 48.7529 137.97 50.5376 137.97 53.4595C137.97 56.4062 139.614 58.1826 142.337 58.1826ZM142.337 56.4976C140.901 56.4976 140.079 55.3853 140.079 53.4678C140.079 51.5503 140.901 50.438 142.337 50.438C143.764 50.438 144.586 51.5503 144.586 53.4678C144.586 55.3853 143.773 56.4976 142.337 56.4976ZM156.272 48.9272H154.214V54.2148C154.214 55.5845 153.483 56.4146 152.147 56.4146C150.918 56.4146 150.346 55.7339 150.346 54.3228V48.9272H148.287V54.8208C148.287 56.9458 149.449 58.1826 151.433 58.1826C152.819 58.1826 153.707 57.5933 154.147 56.5557H154.288V58H156.272V48.9272ZM158.388 58H160.446V52.729C160.446 51.4507 161.376 50.6206 162.713 50.6206C163.061 50.6206 163.609 50.6787 163.767 50.7368V48.8608C163.576 48.811 163.211 48.7778 162.912 48.7778C161.741 48.7778 160.762 49.4419 160.513 50.3384H160.372V48.9272H158.388V58ZM169.392 46.022V58H171.534V54.0405H174.132C176.556 54.0405 178.249 52.4219 178.249 50.0562C178.249 47.6489 176.614 46.022 174.223 46.022H169.392ZM171.534 47.7734H173.659C175.203 47.7734 176.074 48.5703 176.074 50.0562C176.074 51.5005 175.178 52.314 173.65 52.314H171.534V47.7734ZM180.074 58H182.133V52.729C182.133 51.4009 182.888 50.5127 184.241 50.5127C185.436 50.5127 186.067 51.2266 186.067 52.6294V58H188.126V52.1479C188.126 49.9897 186.947 48.7612 185.005 48.7612C183.652 48.7612 182.68 49.3755 182.249 50.3965H182.099V45.416H180.074V58ZM194.076 58.1826C196.79 58.1826 198.442 56.4062 198.442 53.4595C198.442 50.5293 196.782 48.7529 194.076 48.7529C191.378 48.7529 189.71 50.5376 189.71 53.4595C189.71 56.4062 191.353 58.1826 194.076 58.1826ZM194.076 56.4976C192.64 56.4976 191.818 55.3853 191.818 53.4678C191.818 51.5503 192.64 50.438 194.076 50.438C195.504 50.438 196.326 51.5503 196.326 53.4678C196.326 55.3853 195.512 56.4976 194.076 56.4976ZM200.765 46.7026V48.9854H199.329V50.5874H200.765V55.5928C200.765 57.3442 201.595 58.0415 203.679 58.0415C204.077 58.0415 204.459 58.0083 204.758 57.9502V56.373C204.509 56.3979 204.351 56.4146 204.061 56.4146C203.197 56.4146 202.816 56.0078 202.816 55.103V50.5874H204.758V48.9854H202.816V46.7026H200.765ZM210.244 58.1826C212.958 58.1826 214.61 56.4062 214.61 53.4595C214.61 50.5293 212.95 48.7529 210.244 48.7529C207.546 48.7529 205.877 50.5376 205.877 53.4595C205.877 56.4062 207.521 58.1826 210.244 58.1826ZM210.244 56.4976C208.807 56.4976 207.986 55.3853 207.986 53.4678C207.986 51.5503 208.807 50.438 210.244 50.438C211.671 50.438 212.493 51.5503 212.493 53.4678C212.493 55.3853 211.68 56.4976 210.244 56.4976ZM216.069 51.5171C216.069 52.8784 216.891 53.6753 218.634 54.0737L220.245 54.4473C221.108 54.6465 221.498 54.9785 221.498 55.4932C221.498 56.1821 220.776 56.6553 219.738 56.6553C218.709 56.6553 218.07 56.2402 217.871 55.5679H215.837C215.995 57.2031 217.422 58.1826 219.689 58.1826C221.955 58.1826 223.557 57.0288 223.557 55.2939C223.557 53.9575 222.752 53.2188 221.017 52.8203L219.415 52.4634C218.502 52.2476 218.07 51.9238 218.07 51.4092C218.07 50.7368 218.775 50.2803 219.713 50.2803C220.676 50.2803 221.282 50.6953 221.432 51.3345H223.366C223.216 49.6992 221.863 48.7529 219.705 48.7529C217.564 48.7529 216.069 49.8901 216.069 51.5171Z" fill="white"/>
<path d="M36.0657 79H37.2654L33.8884 69.8403H32.7586L29.3816 79H30.5813L31.5017 76.3784H35.1453L36.0657 79ZM33.2727 71.3193H33.3743L34.8088 75.4072H31.8381L33.2727 71.3193ZM38.7172 79H39.809V69.4404H38.7172V79ZM41.9146 79H43.0064V69.4404H41.9146V79ZM47.8605 79.1206C49.8092 79.1206 51.0153 77.7749 51.0153 75.5786C51.0153 73.376 49.8092 72.0366 47.8605 72.0366C45.9118 72.0366 44.7057 73.376 44.7057 75.5786C44.7057 77.7749 45.9118 79.1206 47.8605 79.1206ZM47.8605 78.1367C46.5656 78.1367 45.8356 77.1973 45.8356 75.5786C45.8356 73.9536 46.5656 73.0205 47.8605 73.0205C49.1554 73.0205 49.8854 73.9536 49.8854 75.5786C49.8854 77.1973 49.1554 78.1367 47.8605 78.1367ZM61.0047 72.1572H59.9065L58.5608 77.6289H58.4592L56.9295 72.1572H55.8821L54.3523 77.6289H54.2508L52.905 72.1572H51.8006L53.7175 79H54.822L56.3455 73.7061H56.447L57.9768 79H59.0877L61.0047 72.1572ZM67.8819 79.1206C68.7959 79.1206 69.5449 78.7207 69.9893 77.9907H70.0908V79H71.1319V74.3154C71.1319 72.8936 70.1988 72.0366 68.5293 72.0366C67.0694 72.0366 65.9903 72.7603 65.8443 73.8584H66.9488C67.1011 73.3188 67.6724 73.0078 68.4912 73.0078C69.5132 73.0078 70.0401 73.4712 70.0401 74.3154V74.9375L68.0659 75.0581C66.4727 75.1533 65.5713 75.8579 65.5713 77.083C65.5713 78.3335 66.5552 79.1206 67.8819 79.1206ZM68.085 78.1621C67.2915 78.1621 66.7012 77.7559 66.7012 77.0576C66.7012 76.3721 67.1582 76.0103 68.1992 75.9404L70.0401 75.8198V76.4482C70.0401 77.4258 69.2085 78.1621 68.085 78.1621ZM78.7345 74.252C78.5441 73.0332 77.5285 72.0366 75.8654 72.0366C73.9484 72.0366 72.7296 73.4204 72.7296 75.5532C72.7296 77.7305 73.9547 79.1206 75.8717 79.1206C77.5158 79.1206 78.5377 78.1938 78.7345 76.937H77.63C77.4269 77.7114 76.7858 78.1367 75.8654 78.1367C74.6466 78.1367 73.8595 77.1338 73.8595 75.5532C73.8595 74.0044 74.6339 73.0205 75.8654 73.0205C76.8493 73.0205 77.4523 73.5728 77.63 74.252H78.7345ZM85.9309 74.252C85.7405 73.0332 84.7249 72.0366 83.0618 72.0366C81.1448 72.0366 79.9261 73.4204 79.9261 75.5532C79.9261 77.7305 81.1512 79.1206 83.0681 79.1206C84.7122 79.1206 85.7342 78.1938 85.9309 76.937H84.8264C84.6233 77.7114 83.9822 78.1367 83.0618 78.1367C81.843 78.1367 81.0559 77.1338 81.0559 75.5532C81.0559 74.0044 81.8304 73.0205 83.0618 73.0205C84.0457 73.0205 84.6487 73.5728 84.8264 74.252H85.9309ZM91.9975 77.229C91.7118 77.832 91.1151 78.1558 90.2328 78.1558C89.0712 78.1558 88.3158 77.2988 88.2587 75.9468V75.896H93.1781V75.4771C93.1781 73.3506 92.0546 72.0366 90.2074 72.0366C88.3285 72.0366 87.1225 73.4331 87.1225 75.585C87.1225 77.7495 88.3095 79.1206 90.2074 79.1206C91.7055 79.1206 92.7719 78.397 93.0893 77.229H91.9975ZM90.1947 73.0015C91.2802 73.0015 92.0038 73.8013 92.0292 75.0137H88.2587C88.3412 73.8013 89.1029 73.0015 90.1947 73.0015ZM94.6553 74.0298C94.6553 75.02 95.2393 75.5723 96.5215 75.8833L97.6958 76.1689C98.4258 76.3467 98.7813 76.6641 98.7813 77.1338C98.7813 77.7622 98.1211 78.2002 97.2007 78.2002C96.3247 78.2002 95.7788 77.832 95.5948 77.2544H94.4712C94.5918 78.3906 95.6392 79.1206 97.1626 79.1206C98.7178 79.1206 99.9048 78.2764 99.9048 77.0513C99.9048 76.0674 99.2828 75.5088 97.9942 75.1978L96.9405 74.9438C96.1343 74.7471 95.7535 74.4551 95.7535 73.9854C95.7535 73.376 96.3882 72.9634 97.2007 72.9634C98.0259 72.9634 98.5591 73.3252 98.7051 73.8711H99.7842C99.6382 72.7476 98.6416 72.0366 97.2071 72.0366C95.7535 72.0366 94.6553 72.8936 94.6553 74.0298ZM101.255 74.0298C101.255 75.02 101.839 75.5723 103.121 75.8833L104.296 76.1689C105.026 76.3467 105.381 76.6641 105.381 77.1338C105.381 77.7622 104.721 78.2002 103.8 78.2002C102.924 78.2002 102.379 77.832 102.194 77.2544H101.071C101.192 78.3906 102.239 79.1206 103.762 79.1206C105.318 79.1206 106.505 78.2764 106.505 77.0513C106.505 76.0674 105.882 75.5088 104.594 75.1978L103.54 74.9438C102.734 74.7471 102.353 74.4551 102.353 73.9854C102.353 73.376 102.988 72.9634 103.8 72.9634C104.626 72.9634 105.159 73.3252 105.305 73.8711H106.384C106.238 72.7476 105.241 72.0366 103.807 72.0366C102.353 72.0366 101.255 72.8936 101.255 74.0298ZM112.188 70.3862V72.1572H111.084V73.0713H112.188V77.2227C112.188 78.5303 112.753 79.0508 114.163 79.0508C114.378 79.0508 114.588 79.0254 114.804 78.9873V78.0669C114.601 78.0859 114.493 78.0923 114.296 78.0923C113.585 78.0923 113.28 77.7495 113.28 76.9434V73.0713H114.804V72.1572H113.28V70.3862H112.188ZM119.086 79.1206C121.035 79.1206 122.241 77.7749 122.241 75.5786C122.241 73.376 121.035 72.0366 119.086 72.0366C117.138 72.0366 115.932 73.376 115.932 75.5786C115.932 77.7749 117.138 79.1206 119.086 79.1206ZM119.086 78.1367C117.792 78.1367 117.062 77.1973 117.062 75.5786C117.062 73.9536 117.792 73.0205 119.086 73.0205C120.381 73.0205 121.111 73.9536 121.111 75.5786C121.111 77.1973 120.381 78.1367 119.086 78.1367ZM130.801 72.0366C129.867 72.0366 129.049 72.5127 128.611 73.2998H128.509V72.1572H127.468V81.2852H128.56V77.9717H128.661C129.036 78.6953 129.823 79.1206 130.801 79.1206C132.54 79.1206 133.676 77.7178 133.676 75.5786C133.676 73.4268 132.546 72.0366 130.801 72.0366ZM130.54 78.1367C129.309 78.1367 128.528 77.1465 128.528 75.5786C128.528 74.0044 129.309 73.0205 130.547 73.0205C131.797 73.0205 132.546 73.979 132.546 75.5786C132.546 77.1782 131.797 78.1367 130.54 78.1367ZM135.375 79H136.467V74.9502C136.467 73.7949 137.14 73.0205 138.365 73.0205C139.4 73.0205 139.946 73.6235 139.946 74.8359V79H141.038V74.5693C141.038 72.9634 140.123 72.0366 138.676 72.0366C137.629 72.0366 136.912 72.481 136.569 73.2363H136.467V69.4404H135.375V79ZM145.765 79.1206C147.713 79.1206 148.919 77.7749 148.919 75.5786C148.919 73.376 147.713 72.0366 145.765 72.0366C143.816 72.0366 142.61 73.376 142.61 75.5786C142.61 77.7749 143.816 79.1206 145.765 79.1206ZM145.765 78.1367C144.47 78.1367 143.74 77.1973 143.74 75.5786C143.74 73.9536 144.47 73.0205 145.765 73.0205C147.06 73.0205 147.79 73.9536 147.79 75.5786C147.79 77.1973 147.06 78.1367 145.765 78.1367ZM151.012 70.3862V72.1572H149.908V73.0713H151.012V77.2227C151.012 78.5303 151.577 79.0508 152.987 79.0508C153.202 79.0508 153.412 79.0254 153.628 78.9873V78.0669C153.424 78.0859 153.317 78.0923 153.12 78.0923C152.409 78.0923 152.104 77.7495 152.104 76.9434V73.0713H153.628V72.1572H152.104V70.3862H151.012ZM157.91 79.1206C159.859 79.1206 161.065 77.7749 161.065 75.5786C161.065 73.376 159.859 72.0366 157.91 72.0366C155.962 72.0366 154.756 73.376 154.756 75.5786C154.756 77.7749 155.962 79.1206 157.91 79.1206ZM157.91 78.1367C156.616 78.1367 155.886 77.1973 155.886 75.5786C155.886 73.9536 156.616 73.0205 157.91 73.0205C159.205 73.0205 159.935 73.9536 159.935 75.5786C159.935 77.1973 159.205 78.1367 157.91 78.1367ZM162.542 74.0298C162.542 75.02 163.126 75.5723 164.409 75.8833L165.583 76.1689C166.313 76.3467 166.668 76.6641 166.668 77.1338C166.668 77.7622 166.008 78.2002 165.088 78.2002C164.212 78.2002 163.666 77.832 163.482 77.2544H162.358C162.479 78.3906 163.526 79.1206 165.05 79.1206C166.605 79.1206 167.792 78.2764 167.792 77.0513C167.792 76.0674 167.17 75.5088 165.881 75.1978L164.828 74.9438C164.021 74.7471 163.641 74.4551 163.641 73.9854C163.641 73.376 164.275 72.9634 165.088 72.9634C165.913 72.9634 166.446 73.3252 166.592 73.8711H167.671C167.525 72.7476 166.529 72.0366 165.094 72.0366C163.641 72.0366 162.542 72.8936 162.542 74.0298ZM173.476 70.3862V72.1572H172.371V73.0713H173.476V77.2227C173.476 78.5303 174.041 79.0508 175.45 79.0508C175.666 79.0508 175.875 79.0254 176.091 78.9873V78.0669C175.888 78.0859 175.78 78.0923 175.583 78.0923C174.872 78.0923 174.568 77.7495 174.568 76.9434V73.0713H176.091V72.1572H174.568V70.3862H173.476ZM180.374 79.1206C182.323 79.1206 183.529 77.7749 183.529 75.5786C183.529 73.376 182.323 72.0366 180.374 72.0366C178.425 72.0366 177.219 73.376 177.219 75.5786C177.219 77.7749 178.425 79.1206 180.374 79.1206ZM180.374 78.1367C179.079 78.1367 178.349 77.1973 178.349 75.5786C178.349 73.9536 179.079 73.0205 180.374 73.0205C181.669 73.0205 182.399 73.9536 182.399 75.5786C182.399 77.1973 181.669 78.1367 180.374 78.1367ZM193.288 77.229C193.002 77.832 192.405 78.1558 191.523 78.1558C190.361 78.1558 189.606 77.2988 189.549 75.9468V75.896H194.468V75.4771C194.468 73.3506 193.345 72.0366 191.498 72.0366C189.619 72.0366 188.413 73.4331 188.413 75.585C188.413 77.7495 189.6 79.1206 191.498 79.1206C192.996 79.1206 194.062 78.397 194.379 77.229H193.288ZM191.485 73.0015C192.57 73.0015 193.294 73.8013 193.319 75.0137H189.549C189.631 73.8013 190.393 73.0015 191.485 73.0015ZM198.637 79.1206C199.583 79.1206 200.395 78.6699 200.827 77.9082H200.928V79H201.969V69.4404H200.878V73.2363H200.782C200.395 72.4873 199.589 72.0366 198.637 72.0366C196.898 72.0366 195.761 73.4331 195.761 75.5786C195.761 77.7305 196.885 79.1206 198.637 79.1206ZM198.891 73.0205C200.129 73.0205 200.903 74.0107 200.903 75.5786C200.903 77.1592 200.135 78.1367 198.891 78.1367C197.64 78.1367 196.891 77.1782 196.891 75.5786C196.891 73.9854 197.647 73.0205 198.891 73.0205ZM204.583 70.8369C205.002 70.8369 205.345 70.4941 205.345 70.0752C205.345 69.6562 205.002 69.3135 204.583 69.3135C204.164 69.3135 203.821 69.6562 203.821 70.0752C203.821 70.4941 204.164 70.8369 204.583 70.8369ZM204.037 79H205.129V72.1572H204.037V79ZM207.59 70.3862V72.1572H206.485V73.0713H207.59V77.2227C207.59 78.5303 208.155 79.0508 209.564 79.0508C209.78 79.0508 209.989 79.0254 210.205 78.9873V78.0669C210.002 78.0859 209.894 78.0923 209.697 78.0923C208.986 78.0923 208.682 77.7495 208.682 76.9434V73.0713H210.205V72.1572H208.682V70.3862H207.59ZM215.952 81.4756C217.165 81.4756 217.711 81.0059 218.295 79.4189L220.967 72.1572H219.805L217.933 77.7876H217.831L215.952 72.1572H214.772L217.304 79.0063L217.177 79.4126C216.892 80.2378 216.549 80.5361 215.921 80.5361C215.768 80.5361 215.597 80.5298 215.464 80.5044V81.4375C215.616 81.4629 215.806 81.4756 215.952 81.4756ZM224.907 79.1206C226.856 79.1206 228.062 77.7749 228.062 75.5786C228.062 73.376 226.856 72.0366 224.907 72.0366C222.958 72.0366 221.752 73.376 221.752 75.5786C221.752 77.7749 222.958 79.1206 224.907 79.1206ZM224.907 78.1367C223.612 78.1367 222.882 77.1973 222.882 75.5786C222.882 73.9536 223.612 73.0205 224.907 73.0205C226.202 73.0205 226.932 73.9536 226.932 75.5786C226.932 77.1973 226.202 78.1367 224.907 78.1367ZM235.233 72.1572H234.141V76.207C234.141 77.4067 233.481 78.124 232.275 78.124C231.183 78.124 230.726 77.5527 230.726 76.3213V72.1572H229.634V76.5879C229.634 78.2065 230.434 79.1206 231.97 79.1206C233.018 79.1206 233.748 78.689 234.09 77.9272H234.192V79H235.233V72.1572ZM237.212 79H238.303V74.7598C238.303 73.7949 239.059 73.0967 240.1 73.0967C240.316 73.0967 240.709 73.1348 240.798 73.1602V72.0684C240.658 72.0493 240.43 72.0366 240.252 72.0366C239.344 72.0366 238.557 72.5063 238.354 73.1729H238.253V72.1572H237.212V79ZM27.5127 90.0366C26.5796 90.0366 25.7607 90.5127 25.3228 91.2998H25.2212V90.1572H24.1802V99.2852H25.272V95.9717H25.3735C25.7481 96.6953 26.5352 97.1206 27.5127 97.1206C29.252 97.1206 30.3882 95.7178 30.3882 93.5786C30.3882 91.4268 29.2583 90.0366 27.5127 90.0366ZM27.2524 96.1367C26.021 96.1367 25.2402 95.1465 25.2402 93.5786C25.2402 92.0044 26.021 91.0205 27.2588 91.0205C28.5093 91.0205 29.2583 91.979 29.2583 93.5786C29.2583 95.1782 28.5093 96.1367 27.2524 96.1367ZM32.0241 97H33.1159V92.7598C33.1159 91.7949 33.8712 91.0967 34.9122 91.0967C35.1281 91.0967 35.5216 91.1348 35.6105 91.1602V90.0684C35.4708 90.0493 35.2423 90.0366 35.0646 90.0366C34.1569 90.0366 33.3698 90.5063 33.1666 91.1729H33.0651V90.1572H32.0241V97ZM39.5188 97.1206C41.4675 97.1206 42.6736 95.7749 42.6736 93.5786C42.6736 91.376 41.4675 90.0366 39.5188 90.0366C37.5701 90.0366 36.364 91.376 36.364 93.5786C36.364 95.7749 37.5701 97.1206 39.5188 97.1206ZM39.5188 96.1367C38.2239 96.1367 37.4939 95.1973 37.4939 93.5786C37.4939 91.9536 38.2239 91.0205 39.5188 91.0205C40.8137 91.0205 41.5437 91.9536 41.5437 93.5786C41.5437 95.1973 40.8137 96.1367 39.5188 96.1367ZM44.7665 97H45.8583V91.0713H47.4262V90.1572H45.8583V89.4272C45.8583 88.6782 46.1884 88.2974 46.9755 88.2974C47.1723 88.2974 47.3563 88.3037 47.4896 88.3291V87.4404C47.2611 87.396 47.0199 87.377 46.7533 87.377C45.452 87.377 44.7665 88.0308 44.7665 89.3955V90.1572H43.6303V91.0713H44.7665V97ZM49.5127 88.8369C49.9317 88.8369 50.2744 88.4941 50.2744 88.0752C50.2744 87.6562 49.9317 87.3135 49.5127 87.3135C49.0938 87.3135 48.751 87.6562 48.751 88.0752C48.751 88.4941 49.0938 88.8369 49.5127 88.8369ZM48.9668 97H50.0586V90.1572H48.9668V97ZM52.1261 97H53.2179V87.4404H52.1261V97ZM59.7923 95.229C59.5066 95.832 58.9099 96.1558 58.0276 96.1558C56.866 96.1558 56.1106 95.2988 56.0535 93.9468V93.896H60.9729V93.4771C60.9729 91.3506 59.8494 90.0366 58.0022 90.0366C56.1233 90.0366 54.9173 91.4331 54.9173 93.585C54.9173 95.7495 56.1043 97.1206 58.0022 97.1206C59.5003 97.1206 60.5667 96.397 60.8841 95.229H59.7923ZM57.9895 91.0015C59.075 91.0015 59.7986 91.8013 59.824 93.0137H56.0535C56.136 91.8013 56.8977 91.0015 57.9895 91.0015ZM69.5323 90.0366C68.5992 90.0366 67.7803 90.5127 67.3423 91.2998H67.2408V90.1572H66.1997V99.2852H67.2915V95.9717H67.3931C67.7676 96.6953 68.5547 97.1206 69.5323 97.1206C71.2715 97.1206 72.4077 95.7178 72.4077 93.5786C72.4077 91.4268 71.2779 90.0366 69.5323 90.0366ZM69.272 96.1367C68.0406 96.1367 67.2598 95.1465 67.2598 93.5786C67.2598 92.0044 68.0406 91.0205 69.2784 91.0205C70.5288 91.0205 71.2779 91.979 71.2779 93.5786C71.2779 95.1782 70.5288 96.1367 69.272 96.1367ZM74.6149 88.8369C75.0338 88.8369 75.3766 88.4941 75.3766 88.0752C75.3766 87.6562 75.0338 87.3135 74.6149 87.3135C74.196 87.3135 73.8532 87.6562 73.8532 88.0752C73.8532 88.4941 74.196 88.8369 74.6149 88.8369ZM74.069 97H75.1608V90.1572H74.069V97ZM82.8269 92.252C82.6365 91.0332 81.6209 90.0366 79.9578 90.0366C78.0408 90.0366 76.8221 91.4204 76.8221 93.5532C76.8221 95.7305 78.0472 97.1206 79.9641 97.1206C81.6082 97.1206 82.6302 96.1938 82.8269 94.937H81.7225C81.5193 95.7114 80.8782 96.1367 79.9578 96.1367C78.7391 96.1367 77.9519 95.1338 77.9519 93.5532C77.9519 92.0044 78.7264 91.0205 79.9578 91.0205C80.9417 91.0205 81.5447 91.5728 81.7225 92.252H82.8269ZM84.9452 88.3862V90.1572H83.8407V91.0713H84.9452V95.2227C84.9452 96.5303 85.5102 97.0508 86.9193 97.0508C87.1352 97.0508 87.3446 97.0254 87.5605 96.9873V96.0669C87.3573 96.0859 87.2494 96.0923 87.0527 96.0923C86.3417 96.0923 86.037 95.7495 86.037 94.9434V91.0713H87.5605V90.1572H86.037V88.3862H84.9452ZM94.668 90.1572H93.5762V94.207C93.5762 95.4067 92.9161 96.124 91.71 96.124C90.6182 96.124 90.1612 95.5527 90.1612 94.3213V90.1572H89.0694V94.5879C89.0694 96.2065 89.8692 97.1206 91.4053 97.1206C92.4527 97.1206 93.1827 96.689 93.5254 95.9272H93.627V97H94.668V90.1572ZM96.6467 97H97.7384V92.7598C97.7384 91.7949 98.4938 91.0967 99.5348 91.0967C99.7507 91.0967 100.144 91.1348 100.233 91.1602V90.0684C100.093 90.0493 99.8649 90.0366 99.6872 90.0366C98.7795 90.0366 97.9924 90.5063 97.7892 91.1729H97.6877V90.1572H96.6467V97ZM105.862 95.229C105.576 95.832 104.979 96.1558 104.097 96.1558C102.935 96.1558 102.18 95.2988 102.123 93.9468V93.896H107.042V93.4771C107.042 91.3506 105.919 90.0366 104.072 90.0366C102.193 90.0366 100.987 91.4331 100.987 93.585C100.987 95.7495 102.174 97.1206 104.072 97.1206C105.57 97.1206 106.636 96.397 106.953 95.229H105.862ZM104.059 91.0015C105.144 91.0015 105.868 91.8013 105.893 93.0137H102.123C102.205 91.8013 102.967 91.0015 104.059 91.0015ZM109.58 97.0635C110.037 97.0635 110.405 96.689 110.405 96.2383C110.405 95.7812 110.037 95.4131 109.58 95.4131C109.129 95.4131 108.754 95.7812 108.754 96.2383C108.754 96.689 109.129 97.0635 109.58 97.0635ZM119.859 97V93.0581L123.109 87.8403H121.808L119.339 91.9092H119.237L116.768 87.8403H115.466L118.716 93.0581V97H119.859ZM126.237 97.1206C128.185 97.1206 129.391 95.7749 129.391 93.5786C129.391 91.376 128.185 90.0366 126.237 90.0366C124.288 90.0366 123.082 91.376 123.082 93.5786C123.082 95.7749 124.288 97.1206 126.237 97.1206ZM126.237 96.1367C124.942 96.1367 124.212 95.1973 124.212 93.5786C124.212 91.9536 124.942 91.0205 126.237 91.0205C127.532 91.0205 128.262 91.9536 128.262 93.5786C128.262 95.1973 127.532 96.1367 126.237 96.1367ZM136.562 90.1572H135.471V94.207C135.471 95.4067 134.81 96.124 133.604 96.124C132.513 96.124 132.056 95.5527 132.056 94.3213V90.1572H130.964V94.5879C130.964 96.2065 131.764 97.1206 133.3 97.1206C134.347 97.1206 135.077 96.689 135.42 95.9272H135.521V97H136.562V90.1572ZM138.541 97H139.633V92.7598C139.633 91.7949 140.388 91.0967 141.429 91.0967C141.645 91.0967 142.039 91.1348 142.128 91.1602V90.0684C141.988 90.0493 141.759 90.0366 141.582 90.0366C140.674 90.0366 139.887 90.5063 139.684 91.1729H139.582V90.1572H138.541V97ZM150.338 90.0366C149.405 90.0366 148.586 90.5127 148.148 91.2998H148.046V90.1572H147.005V99.2852H148.097V95.9717H148.199C148.573 96.6953 149.36 97.1206 150.338 97.1206C152.077 97.1206 153.213 95.7178 153.213 93.5786C153.213 91.4268 152.083 90.0366 150.338 90.0366ZM150.077 96.1367C148.846 96.1367 148.065 95.1465 148.065 93.5786C148.065 92.0044 148.846 91.0205 150.084 91.0205C151.334 91.0205 152.083 91.979 152.083 93.5786C152.083 95.1782 151.334 96.1367 150.077 96.1367ZM155.42 88.8369C155.839 88.8369 156.182 88.4941 156.182 88.0752C156.182 87.6562 155.839 87.3135 155.42 87.3135C155.001 87.3135 154.659 87.6562 154.659 88.0752C154.659 88.4941 155.001 88.8369 155.42 88.8369ZM154.874 97H155.966V90.1572H154.874V97ZM163.632 92.252C163.442 91.0332 162.426 90.0366 160.763 90.0366C158.846 90.0366 157.628 91.4204 157.628 93.5532C157.628 95.7305 158.853 97.1206 160.77 97.1206C162.414 97.1206 163.436 96.1938 163.632 94.937H162.528C162.325 95.7114 161.684 96.1367 160.763 96.1367C159.545 96.1367 158.757 95.1338 158.757 93.5532C158.757 92.0044 159.532 91.0205 160.763 91.0205C161.747 91.0205 162.35 91.5728 162.528 92.252H163.632ZM165.751 88.3862V90.1572H164.646V91.0713H165.751V95.2227C165.751 96.5303 166.316 97.0508 167.725 97.0508C167.941 97.0508 168.15 97.0254 168.366 96.9873V96.0669C168.163 96.0859 168.055 96.0923 167.858 96.0923C167.147 96.0923 166.842 95.7495 166.842 94.9434V91.0713H168.366V90.1572H166.842V88.3862H165.751ZM175.473 90.1572H174.382V94.207C174.382 95.4067 173.722 96.124 172.515 96.124C171.424 96.124 170.967 95.5527 170.967 94.3213V90.1572H169.875V94.5879C169.875 96.2065 170.675 97.1206 172.211 97.1206C173.258 97.1206 173.988 96.689 174.331 95.9272H174.432V97H175.473V90.1572ZM177.452 97H178.544V92.7598C178.544 91.7949 179.299 91.0967 180.34 91.0967C180.556 91.0967 180.95 91.1348 181.039 91.1602V90.0684C180.899 90.0493 180.67 90.0366 180.493 90.0366C179.585 90.0366 178.798 90.5063 178.595 91.1729H178.493V90.1572H177.452V97ZM186.667 95.229C186.381 95.832 185.785 96.1558 184.902 96.1558C183.741 96.1558 182.985 95.2988 182.928 93.9468V93.896H187.848V93.4771C187.848 91.3506 186.724 90.0366 184.877 90.0366C182.998 90.0366 181.792 91.4331 181.792 93.585C181.792 95.7495 182.979 97.1206 184.877 97.1206C186.375 97.1206 187.441 96.397 187.759 95.229H186.667ZM184.864 91.0015C185.95 91.0015 186.673 91.8013 186.699 93.0137H182.928C183.011 91.8013 183.773 91.0015 184.864 91.0015ZM201.682 90.1572H200.584L199.238 95.6289H199.137L197.607 90.1572H196.559L195.03 95.6289H194.928L193.582 90.1572H192.478L194.395 97H195.499L197.023 91.7061H197.124L198.654 97H199.765L201.682 90.1572ZM203.635 88.8369C204.054 88.8369 204.397 88.4941 204.397 88.0752C204.397 87.6562 204.054 87.3135 203.635 87.3135C203.216 87.3135 202.874 87.6562 202.874 88.0752C202.874 88.4941 203.216 88.8369 203.635 88.8369ZM203.089 97H204.181V90.1572H203.089V97ZM206.249 97H207.34V87.4404H206.249V97ZM209.446 97H210.538V87.4404H209.446V97ZM216.012 92.0298C216.012 93.02 216.596 93.5723 217.878 93.8833L219.053 94.1689C219.783 94.3467 220.138 94.6641 220.138 95.1338C220.138 95.7622 219.478 96.2002 218.558 96.2002C217.682 96.2002 217.136 95.832 216.952 95.2544H215.828C215.949 96.3906 216.996 97.1206 218.52 97.1206C220.075 97.1206 221.262 96.2764 221.262 95.0513C221.262 94.0674 220.64 93.5088 219.351 93.1978L218.297 92.9438C217.491 92.7471 217.11 92.4551 217.11 91.9854C217.11 91.376 217.745 90.9634 218.558 90.9634C219.383 90.9634 219.916 91.3252 220.062 91.8711H221.141C220.995 90.7476 219.999 90.0366 218.564 90.0366C217.11 90.0366 216.012 90.8936 216.012 92.0298ZM222.961 97H224.053V92.9502C224.053 91.7949 224.726 91.0205 225.951 91.0205C226.985 91.0205 227.531 91.6235 227.531 92.8359V97H228.623V92.5693C228.623 90.9634 227.709 90.0366 226.262 90.0366C225.214 90.0366 224.497 90.481 224.154 91.2363H224.053V87.4404H222.961V97ZM233.35 97.1206C235.299 97.1206 236.505 95.7749 236.505 93.5786C236.505 91.376 235.299 90.0366 233.35 90.0366C231.402 90.0366 230.196 91.376 230.196 93.5786C230.196 95.7749 231.402 97.1206 233.35 97.1206ZM233.35 96.1367C232.055 96.1367 231.325 95.1973 231.325 93.5786C231.325 91.9536 232.055 91.0205 233.35 91.0205C234.645 91.0205 235.375 91.9536 235.375 93.5786C235.375 95.1973 234.645 96.1367 233.35 96.1367ZM246.495 90.1572H245.396L244.051 95.6289H243.949L242.419 90.1572H241.372L239.842 95.6289H239.741L238.395 90.1572H237.29L239.207 97H240.312L241.835 91.7061H241.937L243.467 97H244.578L246.495 90.1572ZM26.4499 106.837C26.8688 106.837 27.2116 106.494 27.2116 106.075C27.2116 105.656 26.8688 105.313 26.4499 105.313C26.031 105.313 25.6882 105.656 25.6882 106.075C25.6882 106.494 26.031 106.837 26.4499 106.837ZM25.904 115H26.9958V108.157H25.904V115ZM28.9998 115H30.0916V110.95C30.0916 109.75 30.7962 109.021 31.888 109.021C32.9798 109.021 33.5003 109.604 33.5003 110.836V115H34.5921V110.569C34.5921 108.944 33.7352 108.037 32.199 108.037C31.1517 108.037 30.4852 108.481 30.1424 109.236H30.0408V108.157H28.9998V115ZM40.6886 117.476C41.901 117.476 42.4469 117.006 43.0308 115.419L45.7032 108.157H44.5416L42.669 113.788H42.5675L40.6886 108.157H39.5079L42.0406 115.006L41.9137 115.413C41.628 116.238 41.2852 116.536 40.6568 116.536C40.5045 116.536 40.3331 116.53 40.1998 116.504V117.438C40.3521 117.463 40.5426 117.476 40.6886 117.476ZM49.6433 115.121C51.592 115.121 52.7981 113.775 52.7981 111.579C52.7981 109.376 51.592 108.037 49.6433 108.037C47.6945 108.037 46.4885 109.376 46.4885 111.579C46.4885 113.775 47.6945 115.121 49.6433 115.121ZM49.6433 114.137C48.3483 114.137 47.6184 113.197 47.6184 111.579C47.6184 109.954 48.3483 109.021 49.6433 109.021C50.9382 109.021 51.6682 109.954 51.6682 111.579C51.6682 113.197 50.9382 114.137 49.6433 114.137ZM59.9691 108.157H58.8773V112.207C58.8773 113.407 58.2171 114.124 57.0111 114.124C55.9193 114.124 55.4622 113.553 55.4622 112.321V108.157H54.3704V112.588C54.3704 114.207 55.1702 115.121 56.7064 115.121C57.7537 115.121 58.4837 114.689 58.8265 113.927H58.9281V115H59.9691V108.157ZM61.9477 115H63.0395V110.76C63.0395 109.795 63.7949 109.097 64.8359 109.097C65.0517 109.097 65.4453 109.135 65.5341 109.16V108.068C65.3945 108.049 65.166 108.037 64.9882 108.037C64.0805 108.037 63.2934 108.506 63.0903 109.173H62.9887V108.157H61.9477V115ZM73.7444 108.037C72.8112 108.037 71.9924 108.513 71.5544 109.3H71.4529V108.157H70.4118V117.285H71.5036V113.972H71.6052C71.9797 114.695 72.7668 115.121 73.7444 115.121C75.4836 115.121 76.6198 113.718 76.6198 111.579C76.6198 109.427 75.49 108.037 73.7444 108.037ZM73.4841 114.137C72.2527 114.137 71.4719 113.146 71.4719 111.579C71.4719 110.004 72.2527 109.021 73.4904 109.021C74.7409 109.021 75.49 109.979 75.49 111.579C75.49 113.178 74.7409 114.137 73.4841 114.137ZM78.2557 115H79.3475V110.76C79.3475 109.795 80.1029 109.097 81.1439 109.097C81.3597 109.097 81.7533 109.135 81.8421 109.16V108.068C81.7025 108.049 81.474 108.037 81.2962 108.037C80.3885 108.037 79.6014 108.506 79.3983 109.173H79.2967V108.157H78.2557V115ZM85.7505 115.121C87.6992 115.121 88.9053 113.775 88.9053 111.579C88.9053 109.376 87.6992 108.037 85.7505 108.037C83.8017 108.037 82.5957 109.376 82.5957 111.579C82.5957 113.775 83.8017 115.121 85.7505 115.121ZM85.7505 114.137C84.4555 114.137 83.7256 113.197 83.7256 111.579C83.7256 109.954 84.4555 109.021 85.7505 109.021C87.0454 109.021 87.7754 109.954 87.7754 111.579C87.7754 113.197 87.0454 114.137 85.7505 114.137ZM90.9981 115H92.0899V109.071H93.6578V108.157H92.0899V107.427C92.0899 106.678 92.42 106.297 93.2071 106.297C93.4039 106.297 93.588 106.304 93.7213 106.329V105.44C93.4928 105.396 93.2516 105.377 92.985 105.377C91.6837 105.377 90.9981 106.031 90.9981 107.396V108.157H89.8619V109.071H90.9981V115ZM95.7444 106.837C96.1633 106.837 96.5061 106.494 96.5061 106.075C96.5061 105.656 96.1633 105.313 95.7444 105.313C95.3254 105.313 94.9827 105.656 94.9827 106.075C94.9827 106.494 95.3254 106.837 95.7444 106.837ZM95.1985 115H96.2903V108.157H95.1985V115ZM98.3578 115H99.4496V105.44H98.3578V115ZM106.024 113.229C105.738 113.832 105.142 114.156 104.259 114.156C103.098 114.156 102.342 113.299 102.285 111.947V111.896H107.205V111.477C107.205 109.351 106.081 108.037 104.234 108.037C102.355 108.037 101.149 109.433 101.149 111.585C101.149 113.75 102.336 115.121 104.234 115.121C105.732 115.121 106.798 114.397 107.116 113.229H106.024ZM104.221 109.001C105.307 109.001 106.03 109.801 106.056 111.014H102.285C102.368 109.801 103.129 109.001 104.221 109.001ZM114.336 115.121C115.25 115.121 115.999 114.721 116.443 113.991H116.545V115H117.586V110.315C117.586 108.894 116.653 108.037 114.983 108.037C113.523 108.037 112.444 108.76 112.298 109.858H113.403C113.555 109.319 114.126 109.008 114.945 109.008C115.967 109.008 116.494 109.471 116.494 110.315V110.938L114.52 111.058C112.927 111.153 112.025 111.858 112.025 113.083C112.025 114.333 113.009 115.121 114.336 115.121ZM114.539 114.162C113.745 114.162 113.155 113.756 113.155 113.058C113.155 112.372 113.612 112.01 114.653 111.94L116.494 111.82V112.448C116.494 113.426 115.662 114.162 114.539 114.162ZM119.526 115H120.618V110.95C120.618 109.75 121.323 109.021 122.414 109.021C123.506 109.021 124.027 109.604 124.027 110.836V115H125.119V110.569C125.119 108.944 124.262 108.037 122.725 108.037C121.678 108.037 121.012 108.481 120.669 109.236H120.567V108.157H119.526V115ZM129.573 115.121C130.519 115.121 131.331 114.67 131.763 113.908H131.864V115H132.905V105.44H131.813V109.236H131.718C131.331 108.487 130.525 108.037 129.573 108.037C127.833 108.037 126.697 109.433 126.697 111.579C126.697 113.73 127.821 115.121 129.573 115.121ZM129.827 109.021C131.064 109.021 131.839 110.011 131.839 111.579C131.839 113.159 131.071 114.137 129.827 114.137C128.576 114.137 127.827 113.178 127.827 111.579C127.827 109.985 128.583 109.021 129.827 109.021ZM138.538 115H139.63V110.76C139.63 109.795 140.386 109.097 141.427 109.097C141.642 109.097 142.036 109.135 142.125 109.16V108.068C141.985 108.049 141.757 108.037 141.579 108.037C140.671 108.037 139.884 108.506 139.681 109.173H139.579V108.157H138.538V115ZM145.316 115.121C146.23 115.121 146.979 114.721 147.423 113.991H147.525V115H148.566V110.315C148.566 108.894 147.633 108.037 145.963 108.037C144.503 108.037 143.424 108.76 143.278 109.858H144.383C144.535 109.319 145.106 109.008 145.925 109.008C146.947 109.008 147.474 109.471 147.474 110.315V110.938L145.5 111.058C143.907 111.153 143.005 111.858 143.005 113.083C143.005 114.333 143.989 115.121 145.316 115.121ZM145.519 114.162C144.725 114.162 144.135 113.756 144.135 113.058C144.135 112.372 144.592 112.01 145.633 111.94L147.474 111.82V112.448C147.474 113.426 146.642 114.162 145.519 114.162ZM150.506 115H151.598V110.95C151.598 109.75 152.303 109.021 153.395 109.021C154.486 109.021 155.007 109.604 155.007 110.836V115H156.099V110.569C156.099 108.944 155.242 108.037 153.706 108.037C152.658 108.037 151.992 108.481 151.649 109.236H151.547V108.157H150.506V115ZM159.277 111.147H159.175V105.44H158.084V115H159.175V112.404L159.829 111.794L162.394 115H163.784L160.642 111.09L163.587 108.157H162.248L159.277 111.147ZM165.572 106.837C165.991 106.837 166.334 106.494 166.334 106.075C166.334 105.656 165.991 105.313 165.572 105.313C165.153 105.313 164.81 105.656 164.81 106.075C164.81 106.494 165.153 106.837 165.572 106.837ZM165.026 115H166.118V108.157H165.026V115ZM168.122 115H169.214V110.95C169.214 109.75 169.918 109.021 171.01 109.021C172.102 109.021 172.622 109.604 172.622 110.836V115H173.714V110.569C173.714 108.944 172.857 108.037 171.321 108.037C170.274 108.037 169.607 108.481 169.265 109.236H169.163V108.157H168.122V115ZM178.454 117.628C180.32 117.628 181.501 116.65 181.501 115.121V108.157H180.46V109.243H180.358C179.965 108.506 179.121 108.037 178.162 108.037C176.404 108.037 175.293 109.427 175.293 111.477C175.293 113.527 176.391 114.898 178.162 114.898C179.102 114.898 179.876 114.473 180.308 113.718H180.409V115.063C180.409 116.073 179.679 116.676 178.454 116.676C177.47 116.676 176.861 116.314 176.74 115.755H175.585C175.75 116.885 176.804 117.628 178.454 117.628ZM178.403 113.934C177.134 113.934 176.423 112.969 176.423 111.477C176.423 109.985 177.134 109.021 178.403 109.021C179.667 109.021 180.435 109.985 180.435 111.477C180.435 112.969 179.673 113.934 178.403 113.934ZM186.912 110.03C186.912 111.02 187.496 111.572 188.778 111.883L189.952 112.169C190.682 112.347 191.038 112.664 191.038 113.134C191.038 113.762 190.378 114.2 189.457 114.2C188.581 114.2 188.035 113.832 187.851 113.254H186.728C186.848 114.391 187.896 115.121 189.419 115.121C190.974 115.121 192.161 114.276 192.161 113.051C192.161 112.067 191.539 111.509 190.251 111.198L189.197 110.944C188.391 110.747 188.01 110.455 188.01 109.985C188.01 109.376 188.645 108.963 189.457 108.963C190.283 108.963 190.816 109.325 190.962 109.871H192.041C191.895 108.748 190.898 108.037 189.464 108.037C188.01 108.037 186.912 108.894 186.912 110.03ZM194.191 106.386V108.157H193.086V109.071H194.191V113.223C194.191 114.53 194.756 115.051 196.165 115.051C196.381 115.051 196.59 115.025 196.806 114.987V114.067C196.603 114.086 196.495 114.092 196.298 114.092C195.587 114.092 195.283 113.75 195.283 112.943V109.071H196.806V108.157H195.283V106.386H194.191ZM200.283 115.121C201.197 115.121 201.946 114.721 202.39 113.991H202.492V115H203.533V110.315C203.533 108.894 202.6 108.037 200.93 108.037C199.47 108.037 198.391 108.76 198.245 109.858H199.35C199.502 109.319 200.073 109.008 200.892 109.008C201.914 109.008 202.441 109.471 202.441 110.315V110.938L200.467 111.058C198.874 111.153 197.972 111.858 197.972 113.083C197.972 114.333 198.956 115.121 200.283 115.121ZM200.486 114.162C199.692 114.162 199.102 113.756 199.102 113.058C199.102 112.372 199.559 112.01 200.6 111.94L202.441 111.82V112.448C202.441 113.426 201.609 114.162 200.486 114.162ZM205.473 115H206.565V110.95C206.565 109.75 207.27 109.021 208.361 109.021C209.453 109.021 209.974 109.604 209.974 110.836V115H211.066V110.569C211.066 108.944 210.209 108.037 208.673 108.037C207.625 108.037 206.959 108.481 206.616 109.236H206.514V108.157H205.473V115ZM215.52 115.121C216.466 115.121 217.278 114.67 217.71 113.908H217.811V115H218.852V105.44H217.761V109.236H217.665C217.278 108.487 216.472 108.037 215.52 108.037C213.781 108.037 212.644 109.433 212.644 111.579C212.644 113.73 213.768 115.121 215.52 115.121ZM215.774 109.021C217.012 109.021 217.786 110.011 217.786 111.579C217.786 113.159 217.018 114.137 215.774 114.137C214.523 114.137 213.774 113.178 213.774 111.579C213.774 109.985 214.53 109.021 215.774 109.021ZM221.466 106.837C221.885 106.837 222.227 106.494 222.227 106.075C222.227 105.656 221.885 105.313 221.466 105.313C221.047 105.313 220.704 105.656 220.704 106.075C220.704 106.494 221.047 106.837 221.466 106.837ZM220.92 115H222.012V108.157H220.92V115ZM224.016 115H225.107V110.95C225.107 109.75 225.812 109.021 226.904 109.021C227.996 109.021 228.516 109.604 228.516 110.836V115H229.608V110.569C229.608 108.944 228.751 108.037 227.215 108.037C226.168 108.037 225.501 108.481 225.158 109.236H225.057V108.157H224.016V115ZM234.348 117.628C236.214 117.628 237.395 116.65 237.395 115.121V108.157H236.354V109.243H236.252C235.859 108.506 235.014 108.037 234.056 108.037C232.298 108.037 231.187 109.427 231.187 111.477C231.187 113.527 232.285 114.898 234.056 114.898C234.995 114.898 235.77 114.473 236.201 113.718H236.303V115.063C236.303 116.073 235.573 116.676 234.348 116.676C233.364 116.676 232.755 116.314 232.634 115.755H231.479C231.644 116.885 232.697 117.628 234.348 117.628ZM234.297 113.934C233.028 113.934 232.317 112.969 232.317 111.477C232.317 109.985 233.028 109.021 234.297 109.021C235.56 109.021 236.328 109.985 236.328 111.477C236.328 112.969 235.567 113.934 234.297 113.934ZM239.215 110.03C239.215 111.02 239.799 111.572 241.081 111.883L242.255 112.169C242.985 112.347 243.341 112.664 243.341 113.134C243.341 113.762 242.68 114.2 241.76 114.2C240.884 114.2 240.338 113.832 240.154 113.254H239.031C239.151 114.391 240.199 115.121 241.722 115.121C243.277 115.121 244.464 114.276 244.464 113.051C244.464 112.067 243.842 111.509 242.554 111.198L241.5 110.944C240.694 110.747 240.313 110.455 240.313 109.985C240.313 109.376 240.948 108.963 241.76 108.963C242.585 108.963 243.118 109.325 243.264 109.871H244.344C244.198 108.748 243.201 108.037 241.766 108.037C240.313 108.037 239.215 108.894 239.215 110.03Z" fill="white"/>
<path fill-rule="evenodd" clip-rule="evenodd" d="M0 138H270V182H0V138Z" fill="#1E1E1E" fill-opacity="0.75"/>
<rect y="138" width="270" height="0.5" fill="#545458" fill-opacity="0.65"/>
<path d="M72.7412 162.754C72.8491 164.921 74.6669 166.299 77.4145 166.299C80.3198 166.299 82.121 164.854 82.121 162.53C82.121 160.712 81.1 159.7 78.6679 159.144L77.29 158.828C75.8041 158.479 75.1982 158.006 75.1982 157.185C75.1982 156.147 76.1113 155.466 77.4892 155.466C78.8007 155.466 79.7304 156.139 79.8798 157.209H81.9301C81.8305 155.159 80.0126 153.723 77.4975 153.723C74.8163 153.723 73.04 155.167 73.04 157.326C73.04 159.102 74.061 160.173 76.2358 160.671L77.788 161.028C79.3237 161.385 79.9794 161.916 79.9794 162.788C79.9794 163.809 78.9584 164.547 77.5473 164.547C76.0283 164.547 74.9658 163.85 74.833 162.754H72.7412ZM89.8229 163.518C89.5241 164.199 88.8185 164.581 87.7975 164.581C86.4445 164.581 85.5729 163.618 85.5231 162.082V161.974H91.8649V161.318C91.8649 158.471 90.3126 156.753 87.7228 156.753C85.0915 156.753 83.4562 158.587 83.4562 161.501C83.4562 164.406 85.0666 166.183 87.7394 166.183C89.881 166.183 91.4 165.153 91.7736 163.518H89.8229ZM87.7145 158.355C88.9513 158.355 89.7648 159.227 89.8063 160.604H85.5314C85.6227 159.243 86.486 158.355 87.7145 158.355ZM93.6068 166H95.6654V153.416H93.6068V166ZM103.782 163.518C103.483 164.199 102.778 164.581 101.757 164.581C100.404 164.581 99.5323 163.618 99.4825 162.082V161.974H105.824V161.318C105.824 158.471 104.272 156.753 101.682 156.753C99.0508 156.753 97.4156 158.587 97.4156 161.501C97.4156 164.406 99.0259 166.183 101.699 166.183C103.84 166.183 105.359 165.153 105.733 163.518H103.782ZM101.674 158.355C102.911 158.355 103.724 159.227 103.766 160.604H99.4908C99.5821 159.243 100.445 158.355 101.674 158.355ZM115.327 159.957C115.112 158.081 113.7 156.753 111.368 156.753C108.637 156.753 107.035 158.504 107.035 161.443C107.035 164.415 108.645 166.183 111.376 166.183C113.676 166.183 115.103 164.904 115.327 163.028H113.368C113.153 163.983 112.439 164.489 111.368 164.489C109.965 164.489 109.118 163.369 109.118 161.443C109.118 159.55 109.957 158.438 111.368 158.438C112.497 158.438 113.178 159.077 113.368 159.957H115.327ZM117.659 154.703V156.985H116.223V158.587H117.659V163.593C117.659 165.344 118.489 166.042 120.572 166.042C120.971 166.042 121.353 166.008 121.651 165.95V164.373C121.402 164.398 121.245 164.415 120.954 164.415C120.091 164.415 119.709 164.008 119.709 163.103V158.587H121.651V156.985H119.709V154.703H117.659ZM127.642 154.022V166H129.784V162.041H132.382C134.806 162.041 136.499 160.422 136.499 158.056C136.499 155.649 134.864 154.022 132.473 154.022H127.642ZM129.784 155.773H131.909C133.453 155.773 134.324 156.57 134.324 158.056C134.324 159.5 133.428 160.314 131.9 160.314H129.784V155.773ZM138.324 166H140.382V160.729C140.382 159.401 141.138 158.513 142.491 158.513C143.686 158.513 144.317 159.227 144.317 160.629V166H146.376V160.148C146.376 157.99 145.197 156.761 143.255 156.761C141.901 156.761 140.93 157.375 140.499 158.396H140.349V153.416H138.324V166ZM152.326 166.183C155.04 166.183 156.692 164.406 156.692 161.459C156.692 158.529 155.032 156.753 152.326 156.753C149.628 156.753 147.96 158.538 147.96 161.459C147.96 164.406 149.603 166.183 152.326 166.183ZM152.326 164.498C150.89 164.498 150.068 163.385 150.068 161.468C150.068 159.55 150.89 158.438 152.326 158.438C153.754 158.438 154.576 159.55 154.576 161.468C154.576 163.385 153.762 164.498 152.326 164.498ZM159.015 154.703V156.985H157.579V158.587H159.015V163.593C159.015 165.344 159.845 166.042 161.929 166.042C162.327 166.042 162.709 166.008 163.008 165.95V164.373C162.759 164.398 162.601 164.415 162.311 164.415C161.447 164.415 161.065 164.008 161.065 163.103V158.587H163.008V156.985H161.065V154.703H159.015ZM168.493 166.183C171.208 166.183 172.86 164.406 172.86 161.459C172.86 158.529 171.199 156.753 168.493 156.753C165.796 156.753 164.127 158.538 164.127 161.459C164.127 164.406 165.771 166.183 168.493 166.183ZM168.493 164.498C167.057 164.498 166.236 163.385 166.236 161.468C166.236 159.55 167.057 158.438 168.493 158.438C169.921 158.438 170.743 159.55 170.743 161.468C170.743 163.385 169.929 164.498 168.493 164.498ZM174.319 159.517C174.319 160.878 175.141 161.675 176.884 162.074L178.495 162.447C179.358 162.646 179.748 162.979 179.748 163.493C179.748 164.182 179.026 164.655 177.988 164.655C176.959 164.655 176.32 164.24 176.121 163.568H174.087C174.245 165.203 175.672 166.183 177.938 166.183C180.205 166.183 181.807 165.029 181.807 163.294C181.807 161.958 181.001 161.219 179.267 160.82L177.664 160.463C176.751 160.248 176.32 159.924 176.32 159.409C176.32 158.737 177.025 158.28 177.963 158.28C178.926 158.28 179.532 158.695 179.682 159.334H181.616C181.466 157.699 180.113 156.753 177.955 156.753C175.813 156.753 174.319 157.89 174.319 159.517ZM185.018 166.166C185.806 166.166 186.346 165.61 186.346 164.871C186.346 164.141 185.806 163.584 185.018 163.584C184.237 163.584 183.69 164.141 183.69 164.871C183.69 165.61 184.237 166.166 185.018 166.166ZM190.204 166.166C190.993 166.166 191.533 165.61 191.533 164.871C191.533 164.141 190.993 163.584 190.204 163.584C189.424 163.584 188.876 164.141 188.876 164.871C188.876 165.61 189.424 166.166 190.204 166.166ZM195.391 166.166C196.18 166.166 196.719 165.61 196.719 164.871C196.719 164.141 196.18 163.584 195.391 163.584C194.611 163.584 194.063 164.141 194.063 164.871C194.063 165.61 194.611 166.166 195.391 166.166Z" fill="#0A84FF"/>
<path fill-rule="evenodd" clip-rule="evenodd" d="M0 182H270V226H0V182Z" fill="#1E1E1E" fill-opacity="0.75"/>
<rect y="182" width="270" height="0.5" fill="#545458" fill-opacity="0.65"/>
<path d="M43.6864 210H45.2553L40.8393 198.022H39.3617L34.9457 210H36.5145L37.7182 206.572H42.4828L43.6864 210ZM40.0341 199.956H40.1669L42.0429 205.302H38.1581L40.0341 199.956ZM46.8478 210H48.2755V197.499H46.8478V210ZM50.723 210H52.1507V197.499H50.723V210ZM58.1924 210.158C60.7407 210.158 62.3179 208.398 62.3179 205.526C62.3179 202.646 60.7407 200.894 58.1924 200.894C55.6441 200.894 54.0669 202.646 54.0669 205.526C54.0669 208.398 55.6441 210.158 58.1924 210.158ZM58.1924 208.871C56.499 208.871 55.5445 207.643 55.5445 205.526C55.5445 203.401 56.499 202.181 58.1924 202.181C59.8858 202.181 60.8404 203.401 60.8404 205.526C60.8404 207.643 59.8858 208.871 58.1924 208.871ZM75.0749 201.052H73.6389L71.8791 208.207H71.7463L69.7458 201.052H68.3762L66.3757 208.207H66.2429L64.4831 201.052H63.0388L65.5456 210H66.99L68.9822 203.077H69.115L71.1155 210H72.5681L75.0749 201.052ZM88.9347 210H90.5036L86.0875 198.022H84.61L80.194 210H81.7628L82.9665 206.572H87.7311L88.9347 210ZM85.2824 199.956H85.4152L87.2912 205.302H83.4064L85.2824 199.956ZM98.9193 203.791C98.6703 202.197 97.3421 200.894 95.1673 200.894C92.6605 200.894 91.0668 202.704 91.0668 205.493C91.0668 208.34 92.6688 210.158 95.1756 210.158C97.3255 210.158 98.662 208.946 98.9193 207.302H97.475C97.2093 208.315 96.371 208.871 95.1673 208.871C93.5736 208.871 92.5443 207.56 92.5443 205.493C92.5443 203.467 93.557 202.181 95.1673 202.181C96.454 202.181 97.2425 202.903 97.475 203.791H98.9193ZM108.024 203.791C107.775 202.197 106.447 200.894 104.272 200.894C101.765 200.894 100.171 202.704 100.171 205.493C100.171 208.34 101.773 210.158 104.28 210.158C106.43 210.158 107.767 208.946 108.024 207.302H106.58C106.314 208.315 105.476 208.871 104.272 208.871C102.678 208.871 101.649 207.56 101.649 205.493C101.649 203.467 102.662 202.181 104.272 202.181C105.559 202.181 106.347 202.903 106.58 203.791H108.024ZM115.651 207.684C115.278 208.473 114.497 208.896 113.344 208.896C111.824 208.896 110.837 207.775 110.762 206.007V205.941H117.195V205.393C117.195 202.612 115.726 200.894 113.31 200.894C110.853 200.894 109.276 202.72 109.276 205.534C109.276 208.365 110.828 210.158 113.31 210.158C115.269 210.158 116.664 209.211 117.079 207.684H115.651ZM113.294 202.156C114.713 202.156 115.659 203.202 115.693 204.787H110.762C110.87 203.202 111.866 202.156 113.294 202.156ZM118.821 203.5C118.821 204.795 119.584 205.518 121.261 205.924L122.797 206.298C123.751 206.53 124.216 206.945 124.216 207.56C124.216 208.381 123.353 208.954 122.149 208.954C121.004 208.954 120.29 208.473 120.049 207.717H118.58C118.738 209.203 120.107 210.158 122.1 210.158C124.133 210.158 125.686 209.054 125.686 207.452C125.686 206.165 124.872 205.435 123.187 205.028L121.809 204.696C120.755 204.438 120.257 204.057 120.257 203.442C120.257 202.646 121.087 202.106 122.149 202.106C123.228 202.106 123.926 202.579 124.117 203.293H125.528C125.337 201.824 124.034 200.894 122.158 200.894C120.257 200.894 118.821 202.015 118.821 203.5ZM127.145 203.5C127.145 204.795 127.909 205.518 129.586 205.924L131.121 206.298C132.076 206.53 132.541 206.945 132.541 207.56C132.541 208.381 131.677 208.954 130.474 208.954C129.328 208.954 128.614 208.473 128.374 207.717H126.904C127.062 209.203 128.432 210.158 130.424 210.158C132.458 210.158 134.01 209.054 134.01 207.452C134.01 206.165 133.196 205.435 131.511 205.028L130.133 204.696C129.079 204.438 128.581 204.057 128.581 203.442C128.581 202.646 129.411 202.106 130.474 202.106C131.553 202.106 132.25 202.579 132.441 203.293H133.852C133.661 201.824 132.358 200.894 130.482 200.894C128.581 200.894 127.145 202.015 127.145 203.5ZM140.831 198.736V201.052H139.386V202.247H140.831V207.676C140.831 209.386 141.569 210.066 143.412 210.066C143.694 210.066 143.968 210.033 144.251 209.983V208.78C143.985 208.805 143.844 208.813 143.587 208.813C142.657 208.813 142.258 208.365 142.258 207.311V202.247H144.251V201.052H142.258V198.736H140.831ZM149.545 210.158C152.094 210.158 153.671 208.398 153.671 205.526C153.671 202.646 152.094 200.894 149.545 200.894C146.997 200.894 145.42 202.646 145.42 205.526C145.42 208.398 146.997 210.158 149.545 210.158ZM149.545 208.871C147.852 208.871 146.897 207.643 146.897 205.526C146.897 203.401 147.852 202.181 149.545 202.181C151.239 202.181 152.193 203.401 152.193 205.526C152.193 207.643 151.239 208.871 149.545 208.871ZM167.863 210H169.431L165.015 198.022H163.538L159.122 210H160.691L161.894 206.572H166.659L167.863 210ZM164.21 199.956H164.343L166.219 205.302H162.334L164.21 199.956ZM171.024 210H172.452V197.499H171.024V210ZM174.899 210H176.327V197.499H174.899V210ZM183.264 198.022V210H184.758V205.725H187.771C190.021 205.725 191.623 204.14 191.623 201.898C191.623 199.616 190.054 198.022 187.788 198.022H183.264ZM184.758 199.35H187.398C189.132 199.35 190.087 200.255 190.087 201.898C190.087 203.484 189.099 204.397 187.398 204.397H184.758V199.35ZM193.564 210H194.991V204.704C194.991 203.193 195.871 202.181 197.473 202.181C198.826 202.181 199.54 202.969 199.54 204.555V210H200.968V204.206C200.968 202.106 199.773 200.894 197.88 200.894C196.511 200.894 195.573 201.475 195.124 202.463H194.991V197.499H193.564V210ZM206.844 210.158C209.392 210.158 210.969 208.398 210.969 205.526C210.969 202.646 209.392 200.894 206.844 200.894C204.295 200.894 202.718 202.646 202.718 205.526C202.718 208.398 204.295 210.158 206.844 210.158ZM206.844 208.871C205.15 208.871 204.196 207.643 204.196 205.526C204.196 203.401 205.15 202.181 206.844 202.181C208.537 202.181 209.492 203.401 209.492 205.526C209.492 207.643 208.537 208.871 206.844 208.871ZM213.4 198.736V201.052H211.956V202.247H213.4V207.676C213.4 209.386 214.139 210.066 215.982 210.066C216.264 210.066 216.538 210.033 216.82 209.983V208.78C216.554 208.805 216.413 208.813 216.156 208.813C215.226 208.813 214.828 208.365 214.828 207.311V202.247H216.82V201.052H214.828V198.736H213.4ZM222.115 210.158C224.663 210.158 226.24 208.398 226.24 205.526C226.24 202.646 224.663 200.894 222.115 200.894C219.566 200.894 217.989 202.646 217.989 205.526C217.989 208.398 219.566 210.158 222.115 210.158ZM222.115 208.871C220.421 208.871 219.467 207.643 219.467 205.526C219.467 203.401 220.421 202.181 222.115 202.181C223.808 202.181 224.763 203.401 224.763 205.526C224.763 207.643 223.808 208.871 222.115 208.871ZM227.866 203.5C227.866 204.795 228.629 205.518 230.306 205.924L231.842 206.298C232.796 206.53 233.261 206.945 233.261 207.56C233.261 208.381 232.398 208.954 231.194 208.954C230.049 208.954 229.335 208.473 229.094 207.717H227.625C227.783 209.203 229.152 210.158 231.145 210.158C233.178 210.158 234.731 209.054 234.731 207.452C234.731 206.165 233.917 205.435 232.232 205.028L230.854 204.696C229.8 204.438 229.302 204.057 229.302 203.442C229.302 202.646 230.132 202.106 231.194 202.106C232.274 202.106 232.971 202.579 233.162 203.293H234.573C234.382 201.824 233.079 200.894 231.203 200.894C229.302 200.894 227.866 202.015 227.866 203.5Z" fill="#0A84FF"/>
<path fill-rule="evenodd" clip-rule="evenodd" d="M0 226H270V247.6C270 255.441 270 259.361 268.474 262.356C267.132 264.99 264.99 267.132 262.356 268.474C259.361 270 255.441 270 247.6 270H22.4C14.5593 270 10.6389 270 7.64413 268.474C5.00986 267.132 2.86814 264.99 1.52591 262.356C0 259.361 0 255.441 0 247.6V226Z" fill="#1E1E1E" fill-opacity="0.75"/>
<rect y="226" width="270" height="0.5" fill="#545458" fill-opacity="0.65"/>
<path d="M93.0044 242.022V254H97.1132C100.674 254 102.766 251.784 102.766 248.007C102.766 244.238 100.666 242.022 97.1132 242.022H93.0044ZM94.4985 243.367H97.0136C99.6699 243.367 101.239 245.093 101.239 248.023C101.239 250.945 99.6865 252.655 97.0136 252.655H94.4985V243.367ZM108.443 254.158C110.991 254.158 112.568 252.398 112.568 249.526C112.568 246.646 110.991 244.894 108.443 244.894C105.894 244.894 104.317 246.646 104.317 249.526C104.317 252.398 105.894 254.158 108.443 254.158ZM108.443 252.871C106.749 252.871 105.795 251.643 105.795 249.526C105.795 247.401 106.749 246.181 108.443 246.181C110.136 246.181 111.09 247.401 111.09 249.526C111.09 251.643 110.136 252.871 108.443 252.871ZM114.401 254H115.829V248.704C115.829 247.135 116.75 246.181 118.178 246.181C119.606 246.181 120.286 246.944 120.286 248.555V254H121.714V248.206C121.714 246.081 120.594 244.894 118.585 244.894C117.215 244.894 116.344 245.475 115.895 246.463H115.763V245.052H114.401V254ZM124.809 246.496L126.312 242.022H124.693L123.772 246.496H124.809ZM129.041 242.736V245.052H127.597V246.247H129.041V251.676C129.041 253.386 129.78 254.066 131.623 254.066C131.905 254.066 132.179 254.033 132.461 253.983V252.78C132.196 252.805 132.054 252.813 131.797 252.813C130.867 252.813 130.469 252.365 130.469 251.311V246.247H132.461V245.052H130.469V242.736H129.041ZM146.57 254H148.139L143.723 242.022H142.245L137.829 254H139.398L140.602 250.572H145.366L146.57 254ZM142.918 243.956H143.05L144.926 249.302H141.042L142.918 243.956ZM149.731 254H151.159V241.499H149.731V254ZM153.607 254H155.034V241.499H153.607V254ZM161.076 254.158C163.624 254.158 165.202 252.398 165.202 249.526C165.202 246.646 163.624 244.894 161.076 244.894C158.528 244.894 156.951 246.646 156.951 249.526C156.951 252.398 158.528 254.158 161.076 254.158ZM161.076 252.871C159.383 252.871 158.428 251.643 158.428 249.526C158.428 247.401 159.383 246.181 161.076 246.181C162.769 246.181 163.724 247.401 163.724 249.526C163.724 251.643 162.769 252.871 161.076 252.871ZM177.959 245.052H176.522L174.763 252.207H174.63L172.629 245.052H171.26L169.259 252.207H169.126L167.367 245.052H165.922L168.429 254H169.874L171.866 247.077H171.999L173.999 254H175.452L177.959 245.052Z" fill="#0A84FF"/>
</svg>
