<svg width="270" height="270" viewBox="0 0 270 270" fill="none" xmlns="http://www.w3.org/2000/svg">
<path d="M0 14C0 6.26801 6.26801 0 14 0H256C263.732 0 270 6.26801 270 14V138H0V14Z" fill="#1E1E1E" fill-opacity="0.75"/>
<path d="M57.475 29.1685C58.3134 29.1685 58.853 28.6538 58.853 27.8652C58.853 27.0767 58.3134 26.5537 57.475 26.5537C56.6366 26.5537 56.0971 27.0767 56.0971 27.8652C56.0971 28.6538 56.6366 29.1685 57.475 29.1685ZM61.1274 35.4604H59.1767C59.1103 36.498 58.413 37.1455 57.3588 37.1455C56.3046 37.1455 55.6073 36.5146 55.6073 35.6265C55.6073 34.813 55.956 34.3647 56.9853 33.7422C58.1308 33.0615 58.6122 32.3228 58.5292 31.0859L58.5209 30.5049H56.5951V30.9863C56.5951 31.8164 56.2963 32.2397 55.2089 32.8789C54.0883 33.5513 53.4491 34.4395 53.4491 35.7012C53.4491 37.5356 54.9682 38.8472 57.2509 38.8472C59.6996 38.8472 61.0693 37.4194 61.1274 35.4604ZM62.8444 24.022V36H64.986V32.0405H67.5841C70.0079 32.0405 71.7013 30.4219 71.7013 28.0562C71.7013 25.6489 70.066 24.022 67.6754 24.022H62.8444ZM64.986 25.7734H67.111C68.6549 25.7734 69.5265 26.5703 69.5265 28.0562C69.5265 29.5005 68.63 30.314 67.1027 30.314H64.986V25.7734ZM79.1126 33.5181C78.8138 34.1987 78.1082 34.5806 77.0872 34.5806C75.7342 34.5806 74.8626 33.6177 74.8128 32.082V31.9741H81.1546V31.3184C81.1546 28.4712 79.6024 26.7529 77.0125 26.7529C74.3812 26.7529 72.7459 28.5874 72.7459 31.501C72.7459 34.4062 74.3563 36.1826 77.0291 36.1826C79.1707 36.1826 80.6898 35.1533 81.0633 33.5181H79.1126ZM77.0042 28.355C78.2411 28.355 79.0545 29.2266 79.096 30.6045H74.8211C74.9124 29.2432 75.7757 28.355 77.0042 28.355ZM82.8135 36H84.8721V30.729C84.8721 29.4507 85.8018 28.6206 87.1382 28.6206C87.4869 28.6206 88.0347 28.6787 88.1924 28.7368V26.8608C88.0015 26.811 87.6363 26.7778 87.3374 26.7778C86.167 26.7778 85.1875 27.4419 84.9385 28.3384H84.7974V26.9272H82.8135V36ZM89.594 36H91.6526V30.48C91.6526 29.3511 92.408 28.4961 93.429 28.4961C94.4417 28.4961 95.0725 29.1104 95.0725 30.1147V36H97.073V30.3306C97.073 29.293 97.7786 28.4961 98.8494 28.4961C99.9534 28.4961 100.51 29.0854 100.51 30.2642V36H102.56V29.7578C102.56 27.8735 101.464 26.7529 99.6462 26.7529C98.3845 26.7529 97.3386 27.4004 96.8904 28.3882H96.7493C96.3674 27.3838 95.4958 26.7529 94.2424 26.7529C93.0388 26.7529 92.1091 27.3672 91.719 28.3882H91.5779V26.9272H89.594V36ZM105.638 25.4082C106.319 25.4082 106.875 24.8687 106.875 24.188C106.875 23.5156 106.319 22.9678 105.638 22.9678C104.966 22.9678 104.41 23.5156 104.41 24.188C104.41 24.8687 104.966 25.4082 105.638 25.4082ZM104.617 36H106.667V26.9272H104.617V36ZM109.472 24.7026V26.9854H108.036V28.5874H109.472V33.5928C109.472 35.3442 110.302 36.0415 112.385 36.0415C112.784 36.0415 113.166 36.0083 113.465 35.9502V34.373C113.215 34.3979 113.058 34.4146 112.767 34.4146C111.904 34.4146 111.522 34.0078 111.522 33.103V28.5874H113.465V26.9854H111.522V24.7026H109.472ZM116.161 25.4082C116.842 25.4082 117.398 24.8687 117.398 24.188C117.398 23.5156 116.842 22.9678 116.161 22.9678C115.489 22.9678 114.932 23.5156 114.932 24.188C114.932 24.8687 115.489 25.4082 116.161 25.4082ZM115.14 36H117.19V26.9272H115.14V36ZM119.339 36H121.398V30.729C121.398 29.4507 122.327 28.6206 123.664 28.6206C124.012 28.6206 124.56 28.6787 124.718 28.7368V26.8608C124.527 26.811 124.162 26.7778 123.863 26.7778C122.692 26.7778 121.713 27.4419 121.464 28.3384H121.323V26.9272H119.339V36ZM133.423 26.7778C131.132 26.7778 129.679 28.5957 129.679 31.4595C129.679 34.3398 131.099 36.1494 133.39 36.1494C134.676 36.1494 135.631 35.6016 136.154 34.6221H136.295V39.0132H138.37V26.9272H136.37V28.4297H136.229C135.73 27.4253 134.651 26.7778 133.423 26.7778ZM134.037 34.4395C132.626 34.4395 131.788 33.3271 131.788 31.4678C131.788 29.6084 132.634 28.4961 134.045 28.4961C135.448 28.4961 136.336 29.6333 136.336 31.4678C136.336 33.3105 135.457 34.4395 134.037 34.4395ZM148.38 26.9272H146.321V32.2148C146.321 33.5845 145.591 34.4146 144.254 34.4146C143.026 34.4146 142.453 33.7339 142.453 32.3228V26.9272H140.394V32.8208C140.394 34.9458 141.556 36.1826 143.54 36.1826C144.926 36.1826 145.815 35.5933 146.255 34.5557H146.396V36H148.38V26.9272ZM156.413 33.5181C156.115 34.1987 155.409 34.5806 154.388 34.5806C153.035 34.5806 152.163 33.6177 152.114 32.082V31.9741H158.455V31.3184C158.455 28.4712 156.903 26.7529 154.313 26.7529C151.682 26.7529 150.047 28.5874 150.047 31.501C150.047 34.4062 151.657 36.1826 154.33 36.1826C156.472 36.1826 157.991 35.1533 158.364 33.5181H156.413ZM154.305 28.355C155.542 28.355 156.355 29.2266 156.397 30.6045H152.122C152.213 29.2432 153.077 28.355 154.305 28.355ZM165.575 24.022L164.048 29.019H166.139L167.102 24.022H165.575ZM169.153 24.022L167.775 29.019H169.858L170.68 24.022H169.153ZM177.784 36.2988C178.548 36.2988 179.262 36.1826 179.901 35.9585L180.864 37.2451H182.956L181.387 35.1201C182.698 34.1074 183.437 32.3062 183.437 30.0151C183.437 26.1387 181.246 23.7231 177.784 23.7231C174.306 23.7231 172.106 26.1304 172.106 30.0151C172.106 33.9082 174.281 36.2988 177.784 36.2988ZM177.784 34.4976C175.626 34.4976 174.256 32.7793 174.256 30.0151C174.256 27.2593 175.634 25.5244 177.784 25.5244C179.918 25.5244 181.287 27.2593 181.287 30.0151C181.287 31.5342 180.872 32.7461 180.142 33.4434L179.237 32.248H177.137L178.722 34.373C178.423 34.4644 178.108 34.4976 177.784 34.4976ZM187.719 36.1494C188.906 36.1494 189.902 35.6348 190.408 34.7549H190.55V36H192.533V29.7993C192.533 27.8818 191.222 26.7529 188.889 26.7529C186.731 26.7529 185.229 27.7656 185.063 29.3511H187.005C187.196 28.7285 187.844 28.3882 188.79 28.3882C189.902 28.3882 190.5 28.8945 190.5 29.7993V30.5796L188.159 30.7207C185.951 30.8452 184.714 31.7998 184.714 33.4268C184.714 35.0869 185.968 36.1494 187.719 36.1494ZM188.325 34.564C187.412 34.564 186.756 34.1074 186.756 33.3271C186.756 32.5718 187.296 32.1484 188.449 32.0737L190.5 31.9326V32.6714C190.5 33.7505 189.57 34.564 188.325 34.564ZM199.555 26.7778C198.31 26.7778 197.255 27.4004 196.732 28.4297H196.591V26.9272H194.607V39.0132H196.666V34.6221H196.807C197.272 35.585 198.276 36.1494 199.58 36.1494C201.871 36.1494 203.298 34.3481 203.298 31.4678C203.298 28.5625 201.854 26.7778 199.555 26.7778ZM198.907 34.4395C197.504 34.4395 196.633 33.3022 196.624 31.4678C196.633 29.6333 197.513 28.4961 198.915 28.4961C200.327 28.4961 201.182 29.6084 201.182 31.4678C201.182 33.3271 200.335 34.4395 198.907 34.4395ZM205.04 36H207.099V23.416H205.04V36ZM211.796 36.1494C212.983 36.1494 213.979 35.6348 214.485 34.7549H214.626V36H216.61V29.7993C216.61 27.8818 215.299 26.7529 212.966 26.7529C210.808 26.7529 209.306 27.7656 209.14 29.3511H211.082C211.273 28.7285 211.92 28.3882 212.867 28.3882C213.979 28.3882 214.577 28.8945 214.577 29.7993V30.5796L212.236 30.7207C210.028 30.8452 208.791 31.7998 208.791 33.4268C208.791 35.0869 210.044 36.1494 211.796 36.1494ZM212.402 34.564C211.489 34.564 210.833 34.1074 210.833 33.3271C210.833 32.5718 211.372 32.1484 212.526 32.0737L214.577 31.9326V32.6714C214.577 33.7505 213.647 34.564 212.402 34.564ZM32.9915 53.2188V51.7246H28.0193V53.3599H30.8997L30.8914 53.6089C30.8582 55.3022 29.6131 56.4395 27.7869 56.4395C25.6536 56.4395 24.3172 54.7461 24.3172 51.9902C24.3172 49.2759 25.6287 47.5825 27.7205 47.5825C29.2561 47.5825 30.327 48.3462 30.7586 49.7324H32.8919C32.5101 47.292 30.4847 45.7231 27.7205 45.7231C24.3089 45.7231 22.1258 48.1719 22.1258 52.0068C22.1258 55.8833 24.284 58.2988 27.7537 58.2988C30.9495 58.2988 32.9915 56.3149 32.9915 53.2188ZM37.3066 58.1494C38.4937 58.1494 39.4897 57.6348 39.9961 56.7549H40.1372V58H42.1211V51.7993C42.1211 49.8818 40.8096 48.7529 38.4771 48.7529C36.3189 48.7529 34.8164 49.7656 34.6504 51.3511H36.5928C36.7837 50.7285 37.4312 50.3882 38.3774 50.3882C39.4897 50.3882 40.0874 50.8945 40.0874 51.7993V52.5796L37.7466 52.7207C35.5386 52.8452 34.3018 53.7998 34.3018 55.4268C34.3018 57.0869 35.5552 58.1494 37.3066 58.1494ZM37.9126 56.564C36.9995 56.564 36.3438 56.1074 36.3438 55.3271C36.3438 54.5718 36.8833 54.1484 38.0371 54.0737L40.0874 53.9326V54.6714C40.0874 55.7505 39.1577 56.564 37.9126 56.564ZM44.195 58H46.2536V52.48C46.2536 51.3511 47.009 50.4961 48.03 50.4961C49.0427 50.4961 49.6735 51.1104 49.6735 52.1147V58H51.674V52.3306C51.674 51.293 52.3796 50.4961 53.4504 50.4961C54.5544 50.4961 55.1106 51.0854 55.1106 52.2642V58H57.1609V51.7578C57.1609 49.8735 56.0651 48.7529 54.2473 48.7529C52.9856 48.7529 51.9397 49.4004 51.4914 50.3882H51.3503C50.9685 49.3838 50.0969 48.7529 48.8435 48.7529C47.6399 48.7529 46.7102 49.3672 46.32 50.3882H46.1789V48.9272H44.195V58ZM60.2392 47.4082C60.9198 47.4082 61.476 46.8687 61.476 46.188C61.476 45.5156 60.9198 44.9678 60.2392 44.9678C59.5668 44.9678 59.0107 45.5156 59.0107 46.188C59.0107 46.8687 59.5668 47.4082 60.2392 47.4082ZM59.2182 58H61.2685V48.9272H59.2182V58ZM63.4171 58H65.4757V52.7124C65.4757 51.3511 66.2477 50.4961 67.4762 50.4961C68.7296 50.4961 69.3107 51.2017 69.3107 52.6128V58H71.3693V52.1313C71.3693 49.9731 70.2653 48.7529 68.2399 48.7529C66.8868 48.7529 65.9738 49.3672 65.5421 50.3799H65.401V48.9272H63.4171V58ZM77.3031 61.4531C79.951 61.4531 81.6278 60.1333 81.6278 58.0498V48.9272H79.6439V50.3799H79.5028C79.0047 49.3921 77.9256 48.7778 76.6888 48.7778C74.3729 48.7778 72.9369 50.5874 72.9369 53.3682C72.9369 56.0908 74.3646 57.8672 76.6556 57.8672C77.9173 57.8672 78.9051 57.3359 79.4281 56.3564H79.5692V58.083C79.5692 59.2368 78.7474 59.9175 77.3363 59.9175C76.2074 59.9175 75.4769 59.5107 75.3441 58.8716H73.2772C73.4432 60.4321 74.9705 61.4531 77.3031 61.4531ZM77.3031 56.2319C75.867 56.2319 75.0536 55.1196 75.0536 53.3599C75.0536 51.6084 75.867 50.4961 77.3031 50.4961C78.7308 50.4961 79.6024 51.6084 79.6024 53.3682C79.6024 55.1196 78.7391 56.2319 77.3031 56.2319ZM85.337 51.019L86.7232 46.022H84.6397L83.8179 51.019H85.337ZM88.9146 51.019L90.4419 46.022H88.3584L87.3956 51.019H88.9146ZM98.9975 58.1494C100.185 58.1494 101.181 57.6348 101.687 56.7549H101.828V58H103.812V51.7993C103.812 49.8818 102.5 48.7529 100.168 48.7529C98.0097 48.7529 96.5073 49.7656 96.3413 51.3511H98.2837C98.4746 50.7285 99.122 50.3882 100.068 50.3882C101.181 50.3882 101.778 50.8945 101.778 51.7993V52.5796L99.4375 52.7207C97.2295 52.8452 95.9926 53.7998 95.9926 55.4268C95.9926 57.0869 97.2461 58.1494 98.9975 58.1494ZM99.6035 56.564C98.6904 56.564 98.0346 56.1074 98.0346 55.3271C98.0346 54.5718 98.5742 54.1484 99.728 54.0737L101.778 53.9326V54.6714C101.778 55.7505 100.849 56.564 99.6035 56.564ZM113.73 51.957C113.514 50.0811 112.103 48.7529 109.771 48.7529C107.04 48.7529 105.438 50.5044 105.438 53.4429C105.438 56.4146 107.048 58.1826 109.779 58.1826C112.078 58.1826 113.506 56.9043 113.73 55.0283H111.771C111.555 55.9829 110.841 56.4893 109.771 56.4893C108.368 56.4893 107.521 55.3687 107.521 53.4429C107.521 51.5503 108.36 50.438 109.771 50.438C110.9 50.438 111.58 51.0771 111.771 51.957H113.73ZM123.134 51.957C122.918 50.0811 121.507 48.7529 119.174 48.7529C116.443 48.7529 114.841 50.5044 114.841 53.4429C114.841 56.4146 116.452 58.1826 119.182 58.1826C121.482 58.1826 122.91 56.9043 123.134 55.0283H121.175C120.959 55.9829 120.245 56.4893 119.174 56.4893C117.771 56.4893 116.925 55.3687 116.925 53.4429C116.925 51.5503 117.763 50.438 119.174 50.438C120.303 50.438 120.984 51.0771 121.175 51.957H123.134ZM130.611 55.5181C130.313 56.1987 129.607 56.5806 128.586 56.5806C127.233 56.5806 126.361 55.6177 126.312 54.082V53.9741H132.653V53.3184C132.653 50.4712 131.101 48.7529 128.511 48.7529C125.88 48.7529 124.245 50.5874 124.245 53.501C124.245 56.4062 125.855 58.1826 128.528 58.1826C130.67 58.1826 132.189 57.1533 132.562 55.5181H130.611ZM128.503 50.355C129.74 50.355 130.553 51.2266 130.595 52.6045H126.32C126.411 51.2432 127.274 50.355 128.503 50.355ZM134.105 51.5171C134.105 52.8784 134.927 53.6753 136.67 54.0737L138.28 54.4473C139.143 54.6465 139.533 54.9785 139.533 55.4932C139.533 56.1821 138.811 56.6553 137.774 56.6553C136.744 56.6553 136.105 56.2402 135.906 55.5679H133.872C134.03 57.2031 135.458 58.1826 137.724 58.1826C139.99 58.1826 141.592 57.0288 141.592 55.2939C141.592 53.9575 140.787 53.2188 139.052 52.8203L137.45 52.4634C136.537 52.2476 136.105 51.9238 136.105 51.4092C136.105 50.7368 136.811 50.2803 137.749 50.2803C138.712 50.2803 139.318 50.6953 139.467 51.3345H141.401C141.252 49.6992 139.899 48.7529 137.741 48.7529C135.599 48.7529 134.105 49.8901 134.105 51.5171ZM149.186 55.5181C148.887 56.1987 148.182 56.5806 147.161 56.5806C145.808 56.5806 144.936 55.6177 144.886 54.082V53.9741H151.228V53.3184C151.228 50.4712 149.676 48.7529 147.086 48.7529C144.455 48.7529 142.819 50.5874 142.819 53.501C142.819 56.4062 144.43 58.1826 147.103 58.1826C149.244 58.1826 150.763 57.1533 151.137 55.5181H149.186ZM147.078 50.355C148.314 50.355 149.128 51.2266 149.169 52.6045H144.895C144.986 51.2432 145.849 50.355 147.078 50.355ZM159.51 58.1494C160.697 58.1494 161.693 57.6348 162.199 56.7549H162.34V58H164.324V51.7993C164.324 49.8818 163.013 48.7529 160.68 48.7529C158.522 48.7529 157.019 49.7656 156.853 51.3511H158.796C158.987 50.7285 159.634 50.3882 160.58 50.3882C161.693 50.3882 162.29 50.8945 162.29 51.7993V52.5796L159.95 52.7207C157.742 52.8452 156.505 53.7998 156.505 55.4268C156.505 57.0869 157.758 58.1494 159.51 58.1494ZM160.116 56.564C159.203 56.564 158.547 56.1074 158.547 55.3271C158.547 54.5718 159.086 54.1484 160.24 54.0737L162.29 53.9326V54.6714C162.29 55.7505 161.361 56.564 160.116 56.564ZM171.178 46.7026V48.9854H169.742V50.5874H171.178V55.5928C171.178 57.3442 172.008 58.0415 174.092 58.0415C174.49 58.0415 174.872 58.0083 175.171 57.9502V56.373C174.922 56.3979 174.764 56.4146 174.473 56.4146C173.61 56.4146 173.228 56.0078 173.228 55.103V50.5874H175.171V48.9854H173.228V46.7026H171.178ZM184.724 48.9272H182.665V54.2148C182.665 55.5845 181.935 56.4146 180.598 56.4146C179.37 56.4146 178.797 55.7339 178.797 54.3228V48.9272H176.738V54.8208C176.738 56.9458 177.9 58.1826 179.884 58.1826C181.271 58.1826 182.159 57.5933 182.599 56.5557H182.74V58H184.724V48.9272ZM186.632 51.5171C186.632 52.8784 187.453 53.6753 189.197 54.0737L190.807 54.4473C191.67 54.6465 192.06 54.9785 192.06 55.4932C192.06 56.1821 191.338 56.6553 190.301 56.6553C189.271 56.6553 188.632 56.2402 188.433 55.5679H186.399C186.557 57.2031 187.985 58.1826 190.251 58.1826C192.517 58.1826 194.119 57.0288 194.119 55.2939C194.119 53.9575 193.314 53.2188 191.579 52.8203L189.977 52.4634C189.064 52.2476 188.632 51.9238 188.632 51.4092C188.632 50.7368 189.338 50.2803 190.276 50.2803C191.239 50.2803 191.844 50.6953 191.994 51.3345H193.928C193.779 49.6992 192.426 48.7529 190.267 48.7529C188.126 48.7529 186.632 49.8901 186.632 51.5171ZM200.583 58H202.633V50.5874H204.584V48.9854H202.608V48.147C202.608 47.2837 202.99 46.8521 203.961 46.8521C204.252 46.8521 204.501 46.877 204.667 46.9019V45.416C204.335 45.3579 203.961 45.333 203.521 45.333C201.504 45.333 200.583 46.2212 200.583 48.0308V48.9854H199.097V50.5874H200.583V58ZM209.754 58.1826C212.468 58.1826 214.12 56.4062 214.12 53.4595C214.12 50.5293 212.46 48.7529 209.754 48.7529C207.056 48.7529 205.388 50.5376 205.388 53.4595C205.388 56.4062 207.031 58.1826 209.754 58.1826ZM209.754 56.4976C208.318 56.4976 207.496 55.3853 207.496 53.4678C207.496 51.5503 208.318 50.438 209.754 50.438C211.182 50.438 212.003 51.5503 212.003 53.4678C212.003 55.3853 211.19 56.4976 209.754 56.4976ZM216.443 46.7026V48.9854H215.007V50.5874H216.443V55.5928C216.443 57.3442 217.273 58.0415 219.357 58.0415C219.755 58.0415 220.137 58.0083 220.436 57.9502V56.373C220.187 56.3979 220.029 56.4146 219.738 56.4146C218.875 56.4146 218.493 56.0078 218.493 55.103V50.5874H220.436V48.9854H218.493V46.7026H216.443ZM225.921 58.1826C228.636 58.1826 230.287 56.4062 230.287 53.4595C230.287 50.5293 228.627 48.7529 225.921 48.7529C223.223 48.7529 221.555 50.5376 221.555 53.4595C221.555 56.4062 223.199 58.1826 225.921 58.1826ZM225.921 56.4976C224.485 56.4976 223.663 55.3853 223.663 53.4678C223.663 51.5503 224.485 50.438 225.921 50.438C227.349 50.438 228.171 51.5503 228.171 53.4678C228.171 55.3853 227.357 56.4976 225.921 56.4976ZM231.747 51.5171C231.747 52.8784 232.569 53.6753 234.312 54.0737L235.922 54.4473C236.786 54.6465 237.176 54.9785 237.176 55.4932C237.176 56.1821 236.454 56.6553 235.416 56.6553C234.387 56.6553 233.748 56.2402 233.548 55.5679H231.515C231.672 57.2031 233.1 58.1826 235.366 58.1826C237.632 58.1826 239.234 57.0288 239.234 55.2939C239.234 53.9575 238.429 53.2188 236.694 52.8203L235.092 52.4634C234.179 52.2476 233.748 51.9238 233.748 51.4092C233.748 50.7368 234.453 50.2803 235.391 50.2803C236.354 50.2803 236.96 50.6953 237.109 51.3345H239.043C238.894 49.6992 237.541 48.7529 235.383 48.7529C233.241 48.7529 231.747 49.8901 231.747 51.5171ZM240.296 49.3008H242.246C242.313 48.2715 243.002 47.6157 244.072 47.6157C245.118 47.6157 245.816 48.2549 245.816 49.1348C245.816 49.9565 245.467 50.4048 244.438 51.0273C243.292 51.6997 242.811 52.4468 242.885 53.6753L242.894 54.2646H244.82V53.7832C244.82 52.9531 245.127 52.5215 246.214 51.8906C247.343 51.2183 247.974 50.3301 247.974 49.0601C247.974 47.2339 246.455 45.9224 244.18 45.9224C241.715 45.9224 240.362 47.3501 240.296 49.3008ZM243.948 58.2075C244.795 58.2075 245.326 57.6929 245.326 56.9043C245.326 56.1074 244.795 55.5928 243.948 55.5928C243.118 55.5928 242.57 56.1074 242.57 56.9043C242.57 57.6929 243.118 58.2075 243.948 58.2075Z" fill="white"/>
<path d="M27.4537 69.6245C24.8639 69.6245 23.2516 71.4717 23.2516 74.417C23.2516 77.3496 24.8258 79.2158 27.4537 79.2158C30.069 79.2158 31.6559 77.3433 31.6559 74.417C31.6559 71.478 30.0563 69.6245 27.4537 69.6245ZM27.4537 70.6782C29.3263 70.6782 30.4816 72.1255 30.4816 74.417C30.4816 76.6895 29.3326 78.1621 27.4537 78.1621C25.5494 78.1621 24.4259 76.6895 24.4259 74.417C24.4259 72.1255 25.5875 70.6782 27.4537 70.6782ZM33.8757 70.3862V72.1572H32.7713V73.0713H33.8757V77.2227C33.8757 78.5303 34.4407 79.0508 35.8499 79.0508C36.0657 79.0508 36.2752 79.0254 36.491 78.9873V78.0669C36.2879 78.0859 36.1799 78.0923 35.9832 78.0923C35.2722 78.0923 34.9675 77.7495 34.9675 76.9434V73.0713H36.491V72.1572H34.9675V70.3862H33.8757ZM40.7738 79.1206C42.7225 79.1206 43.9286 77.7749 43.9286 75.5786C43.9286 73.376 42.7225 72.0366 40.7738 72.0366C38.8251 72.0366 37.619 73.376 37.619 75.5786C37.619 77.7749 38.8251 79.1206 40.7738 79.1206ZM40.7738 78.1367C39.4789 78.1367 38.7489 77.1973 38.7489 75.5786C38.7489 73.9536 39.4789 73.0205 40.7738 73.0205C42.0687 73.0205 42.7987 73.9536 42.7987 75.5786C42.7987 77.1973 42.0687 78.1367 40.7738 78.1367ZM45.5645 79H46.6563V74.7598C46.6563 73.7949 47.4116 73.0967 48.4527 73.0967C48.6685 73.0967 49.062 73.1348 49.1509 73.1602V72.0684C49.0112 72.0493 48.7827 72.0366 48.605 72.0366C47.6973 72.0366 46.9102 72.5063 46.707 73.1729H46.6055V72.1572H45.5645V79ZM53.0656 81.6279C54.9318 81.6279 56.1124 80.6504 56.1124 79.1206V72.1572H55.0714V73.2427H54.9699C54.5763 72.5063 53.7321 72.0366 52.7736 72.0366C51.0153 72.0366 49.9044 73.4268 49.9044 75.4771C49.9044 77.5273 51.0026 78.8984 52.7736 78.8984C53.713 78.8984 54.4874 78.4731 54.9191 77.7178H55.0206V79.0635C55.0206 80.0728 54.2907 80.6758 53.0656 80.6758C52.0817 80.6758 51.4723 80.314 51.3517 79.7554H50.1964C50.3615 80.8853 51.4152 81.6279 53.0656 81.6279ZM53.0148 77.9336C51.7453 77.9336 51.0343 76.9688 51.0343 75.4771C51.0343 73.9854 51.7453 73.0205 53.0148 73.0205C54.278 73.0205 55.046 73.9854 55.046 75.4771C55.046 76.9688 54.2843 77.9336 53.0148 77.9336ZM59.9954 79.1206C60.9094 79.1206 61.6585 78.7207 62.1028 77.9907H62.2044V79H63.2454V74.3154C63.2454 72.8936 62.3123 72.0366 60.6428 72.0366C59.1829 72.0366 58.1038 72.7603 57.9578 73.8584H59.0623C59.2146 73.3188 59.7859 73.0078 60.6048 73.0078C61.6267 73.0078 62.1536 73.4712 62.1536 74.3154V74.9375L60.1795 75.0581C58.5862 75.1533 57.6848 75.8579 57.6848 77.083C57.6848 78.3335 58.6687 79.1206 59.9954 79.1206ZM60.1985 78.1621C59.4051 78.1621 58.8147 77.7559 58.8147 77.0576C58.8147 76.3721 59.2718 76.0103 60.3128 75.9404L62.1536 75.8198V76.4482C62.1536 77.4258 61.322 78.1621 60.1985 78.1621ZM70.6812 79.1206C71.5952 79.1206 72.3443 78.7207 72.7886 77.9907H72.8902V79H73.9312V74.3154C73.9312 72.8936 72.9981 72.0366 71.3286 72.0366C69.8687 72.0366 68.7896 72.7603 68.6436 73.8584H69.7481C69.9004 73.3188 70.4717 73.0078 71.2906 73.0078C72.3125 73.0078 72.8394 73.4712 72.8394 74.3154V74.9375L70.8653 75.0581C69.272 75.1533 68.3706 75.8579 68.3706 77.083C68.3706 78.3335 69.3545 79.1206 70.6812 79.1206ZM70.8843 78.1621C70.0908 78.1621 69.5005 77.7559 69.5005 77.0576C69.5005 76.3721 69.9575 76.0103 70.9986 75.9404L72.8394 75.8198V76.4482C72.8394 77.4258 72.0078 78.1621 70.8843 78.1621ZM81.5338 74.252C81.3434 73.0332 80.3278 72.0366 78.6647 72.0366C76.7477 72.0366 75.529 73.4204 75.529 75.5532C75.529 77.7305 76.7541 79.1206 78.6711 79.1206C80.3151 79.1206 81.3371 78.1938 81.5338 76.937H80.4294C80.2262 77.7114 79.5851 78.1367 78.6647 78.1367C77.446 78.1367 76.6588 77.1338 76.6588 75.5532C76.6588 74.0044 77.4333 73.0205 78.6647 73.0205C79.6486 73.0205 80.2516 73.5728 80.4294 74.252H81.5338ZM88.7303 74.252C88.5398 73.0332 87.5242 72.0366 85.8611 72.0366C83.9441 72.0366 82.7254 73.4204 82.7254 75.5532C82.7254 77.7305 83.9505 79.1206 85.8675 79.1206C87.5115 79.1206 88.5335 78.1938 88.7303 76.937H87.6258C87.4226 77.7114 86.7815 78.1367 85.8611 78.1367C84.6424 78.1367 83.8553 77.1338 83.8553 75.5532C83.8553 74.0044 84.6297 73.0205 85.8611 73.0205C86.845 73.0205 87.448 73.5728 87.6258 74.252H88.7303ZM94.7968 77.229C94.5111 77.832 93.9145 78.1558 93.0321 78.1558C91.8705 78.1558 91.1152 77.2988 91.058 75.9468V75.896H95.9775V75.4771C95.9775 73.3506 94.8539 72.0366 93.0068 72.0366C91.1278 72.0366 89.9218 73.4331 89.9218 75.585C89.9218 77.7495 91.1088 79.1206 93.0068 79.1206C94.5048 79.1206 95.5712 78.397 95.8886 77.229H94.7968ZM92.9941 73.0015C94.0795 73.0015 94.8031 73.8013 94.8285 75.0137H91.058C91.1405 73.8013 91.9023 73.0015 92.9941 73.0015ZM97.4546 74.0298C97.4546 75.02 98.0386 75.5723 99.3208 75.8833L100.495 76.1689C101.225 76.3467 101.581 76.6641 101.581 77.1338C101.581 77.7622 100.92 78.2002 100 78.2002C99.1241 78.2002 98.5782 77.832 98.3941 77.2544H97.2705C97.3912 78.3906 98.4385 79.1206 99.962 79.1206C101.517 79.1206 102.704 78.2764 102.704 77.0513C102.704 76.0674 102.082 75.5088 100.793 75.1978L99.7398 74.9438C98.9336 74.7471 98.5528 74.4551 98.5528 73.9854C98.5528 73.376 99.1875 72.9634 100 72.9634C100.825 72.9634 101.358 73.3252 101.504 73.8711H102.584C102.438 72.7476 101.441 72.0366 100.006 72.0366C98.5528 72.0366 97.4546 72.8936 97.4546 74.0298ZM107.152 79.1206C109.101 79.1206 110.307 77.7749 110.307 75.5786C110.307 73.376 109.101 72.0366 107.152 72.0366C105.203 72.0366 103.997 73.376 103.997 75.5786C103.997 77.7749 105.203 79.1206 107.152 79.1206ZM107.152 78.1367C105.857 78.1367 105.127 77.1973 105.127 75.5786C105.127 73.9536 105.857 73.0205 107.152 73.0205C108.447 73.0205 109.177 73.9536 109.177 75.5786C109.177 77.1973 108.447 78.1367 107.152 78.1367ZM117.438 79.1206C118.352 79.1206 119.101 78.7207 119.545 77.9907H119.647V79H120.688V74.3154C120.688 72.8936 119.755 72.0366 118.085 72.0366C116.625 72.0366 115.546 72.7603 115.4 73.8584H116.505C116.657 73.3188 117.228 73.0078 118.047 73.0078C119.069 73.0078 119.596 73.4712 119.596 74.3154V74.9375L117.622 75.0581C116.029 75.1533 115.127 75.8579 115.127 77.083C115.127 78.3335 116.111 79.1206 117.438 79.1206ZM117.641 78.1621C116.848 78.1621 116.257 77.7559 116.257 77.0576C116.257 76.3721 116.714 76.0103 117.755 75.9404L119.596 75.8198V76.4482C119.596 77.4258 118.765 78.1621 117.641 78.1621ZM126.676 70.3862V72.1572H125.572V73.0713H126.676V77.2227C126.676 78.5303 127.241 79.0508 128.651 79.0508C128.866 79.0508 129.076 79.0254 129.292 78.9873V78.0669C129.089 78.0859 128.981 78.0923 128.784 78.0923C128.073 78.0923 127.768 77.7495 127.768 76.9434V73.0713H129.292V72.1572H127.768V70.3862H126.676ZM136.399 72.1572H135.307V76.207C135.307 77.4067 134.647 78.124 133.441 78.124C132.349 78.124 131.892 77.5527 131.892 76.3213V72.1572H130.801V76.5879C130.801 78.2065 131.6 79.1206 133.137 79.1206C134.184 79.1206 134.914 78.689 135.257 77.9272H135.358V79H136.399V72.1572ZM138.219 74.0298C138.219 75.02 138.803 75.5723 140.085 75.8833L141.26 76.1689C141.99 76.3467 142.345 76.6641 142.345 77.1338C142.345 77.7622 141.685 78.2002 140.765 78.2002C139.889 78.2002 139.343 77.832 139.159 77.2544H138.035C138.156 78.3906 139.203 79.1206 140.727 79.1206C142.282 79.1206 143.469 78.2764 143.469 77.0513C143.469 76.0674 142.847 75.5088 141.558 75.1978L140.504 74.9438C139.698 74.7471 139.317 74.4551 139.317 73.9854C139.317 73.376 139.952 72.9634 140.765 72.9634C141.59 72.9634 142.123 73.3252 142.269 73.8711H143.348C143.202 72.7476 142.206 72.0366 140.771 72.0366C139.317 72.0366 138.219 72.8936 138.219 74.0298ZM149.153 79H150.244V73.0713H151.812V72.1572H150.244V71.4272C150.244 70.6782 150.574 70.2974 151.362 70.2974C151.558 70.2974 151.742 70.3037 151.876 70.3291V69.4404C151.647 69.396 151.406 69.377 151.139 69.377C149.838 69.377 149.153 70.0308 149.153 71.3955V72.1572H148.016V73.0713H149.153V79ZM155.847 79.1206C157.796 79.1206 159.002 77.7749 159.002 75.5786C159.002 73.376 157.796 72.0366 155.847 72.0366C153.899 72.0366 152.693 73.376 152.693 75.5786C152.693 77.7749 153.899 79.1206 155.847 79.1206ZM155.847 78.1367C154.553 78.1367 153.823 77.1973 153.823 75.5786C153.823 73.9536 154.553 73.0205 155.847 73.0205C157.142 73.0205 157.872 73.9536 157.872 75.5786C157.872 77.1973 157.142 78.1367 155.847 78.1367ZM161.095 70.3862V72.1572H159.991V73.0713H161.095V77.2227C161.095 78.5303 161.66 79.0508 163.069 79.0508C163.285 79.0508 163.495 79.0254 163.71 78.9873V78.0669C163.507 78.0859 163.399 78.0923 163.203 78.0923C162.492 78.0923 162.187 77.7495 162.187 76.9434V73.0713H163.71V72.1572H162.187V70.3862H161.095ZM167.993 79.1206C169.942 79.1206 171.148 77.7749 171.148 75.5786C171.148 73.376 169.942 72.0366 167.993 72.0366C166.044 72.0366 164.838 73.376 164.838 75.5786C164.838 77.7749 166.044 79.1206 167.993 79.1206ZM167.993 78.1367C166.698 78.1367 165.968 77.1973 165.968 75.5786C165.968 73.9536 166.698 73.0205 167.993 73.0205C169.288 73.0205 170.018 73.9536 170.018 75.5786C170.018 77.1973 169.288 78.1367 167.993 78.1367ZM172.625 74.0298C172.625 75.02 173.209 75.5723 174.491 75.8833L175.666 76.1689C176.396 76.3467 176.751 76.6641 176.751 77.1338C176.751 77.7622 176.091 78.2002 175.171 78.2002C174.295 78.2002 173.749 77.832 173.565 77.2544H172.441C172.562 78.3906 173.609 79.1206 175.133 79.1206C176.688 79.1206 177.875 78.2764 177.875 77.0513C177.875 76.0674 177.253 75.5088 175.964 75.1978L174.91 74.9438C174.104 74.7471 173.723 74.4551 173.723 73.9854C173.723 73.376 174.358 72.9634 175.171 72.9634C175.996 72.9634 176.529 73.3252 176.675 73.8711H177.754C177.608 72.7476 176.612 72.0366 175.177 72.0366C173.723 72.0366 172.625 72.8936 172.625 74.0298ZM186.434 72.0366C185.501 72.0366 184.682 72.5127 184.244 73.2998H184.143V72.1572H183.102V81.2852H184.193V77.9717H184.295C184.669 78.6953 185.457 79.1206 186.434 79.1206C188.173 79.1206 189.31 77.7178 189.31 75.5786C189.31 73.4268 188.18 72.0366 186.434 72.0366ZM186.174 78.1367C184.942 78.1367 184.162 77.1465 184.162 75.5786C184.162 74.0044 184.942 73.0205 186.18 73.0205C187.431 73.0205 188.18 73.979 188.18 75.5786C188.18 77.1782 187.431 78.1367 186.174 78.1367ZM192.85 79.1206C193.764 79.1206 194.513 78.7207 194.957 77.9907H195.059V79H196.1V74.3154C196.1 72.8936 195.167 72.0366 193.497 72.0366C192.037 72.0366 190.958 72.7603 190.812 73.8584H191.917C192.069 73.3188 192.64 73.0078 193.459 73.0078C194.481 73.0078 195.008 73.4712 195.008 74.3154V74.9375L193.034 75.0581C191.441 75.1533 190.539 75.8579 190.539 77.083C190.539 78.3335 191.523 79.1206 192.85 79.1206ZM193.053 78.1621C192.259 78.1621 191.669 77.7559 191.669 77.0576C191.669 76.3721 192.126 76.0103 193.167 75.9404L195.008 75.8198V76.4482C195.008 77.4258 194.176 78.1621 193.053 78.1621ZM198.04 79H199.132V74.7598C199.132 73.7949 199.887 73.0967 200.928 73.0967C201.144 73.0967 201.538 73.1348 201.627 73.1602V72.0684C201.487 72.0493 201.259 72.0366 201.081 72.0366C200.173 72.0366 199.386 72.5063 199.183 73.1729H199.081V72.1572H198.04V79ZM204.818 79.1206C205.732 79.1206 206.481 78.7207 206.925 77.9907H207.027V79H208.068V74.3154C208.068 72.8936 207.135 72.0366 205.465 72.0366C204.005 72.0366 202.926 72.7603 202.78 73.8584H203.885C204.037 73.3188 204.608 73.0078 205.427 73.0078C206.449 73.0078 206.976 73.4712 206.976 74.3154V74.9375L205.002 75.0581C203.409 75.1533 202.507 75.8579 202.507 77.083C202.507 78.3335 203.491 79.1206 204.818 79.1206ZM205.021 78.1621C204.227 78.1621 203.637 77.7559 203.637 77.0576C203.637 76.3721 204.094 76.0103 205.135 75.9404L206.976 75.8198V76.4482C206.976 77.4258 206.144 78.1621 205.021 78.1621ZM218.131 77.229C217.846 77.832 217.249 78.1558 216.367 78.1558C215.205 78.1558 214.45 77.2988 214.393 75.9468V75.896H219.312V75.4771C219.312 73.3506 218.189 72.0366 216.341 72.0366C214.462 72.0366 213.256 73.4331 213.256 75.585C213.256 77.7495 214.443 79.1206 216.341 79.1206C217.839 79.1206 218.906 78.397 219.223 77.229H218.131ZM216.329 73.0015C217.414 73.0015 218.138 73.8013 218.163 75.0137H214.393C214.475 73.8013 215.237 73.0015 216.329 73.0015ZM223.481 79.1206C224.426 79.1206 225.239 78.6699 225.671 77.9082H225.772V79H226.813V69.4404H225.721V73.2363H225.626C225.239 72.4873 224.433 72.0366 223.481 72.0366C221.741 72.0366 220.605 73.4331 220.605 75.5786C220.605 77.7305 221.729 79.1206 223.481 79.1206ZM223.735 73.0205C224.972 73.0205 225.747 74.0107 225.747 75.5786C225.747 77.1592 224.979 78.1367 223.735 78.1367C222.484 78.1367 221.735 77.1782 221.735 75.5786C221.735 73.9854 222.49 73.0205 223.735 73.0205ZM229.427 70.8369C229.846 70.8369 230.188 70.4941 230.188 70.0752C230.188 69.6562 229.846 69.3135 229.427 69.3135C229.008 69.3135 228.665 69.6562 228.665 70.0752C228.665 70.4941 229.008 70.8369 229.427 70.8369ZM228.881 79H229.973V72.1572H228.881V79ZM232.434 70.3862V72.1572H231.329V73.0713H232.434V77.2227C232.434 78.5303 232.999 79.0508 234.408 79.0508C234.624 79.0508 234.833 79.0254 235.049 78.9873V78.0669C234.846 78.0859 234.738 78.0923 234.541 78.0923C233.83 78.0923 233.525 77.7495 233.525 76.9434V73.0713H235.049V72.1572H233.525V70.3862H232.434ZM238.526 79.1206C239.44 79.1206 240.189 78.7207 240.633 77.9907H240.734V79H241.776V74.3154C241.776 72.8936 240.842 72.0366 239.173 72.0366C237.713 72.0366 236.634 72.7603 236.488 73.8584H237.592C237.745 73.3188 238.316 73.0078 239.135 73.0078C240.157 73.0078 240.684 73.4712 240.684 74.3154V74.9375L238.71 75.0581C237.116 75.1533 236.215 75.8579 236.215 77.083C236.215 78.3335 237.199 79.1206 238.526 79.1206ZM238.729 78.1621C237.935 78.1621 237.345 77.7559 237.345 77.0576C237.345 76.3721 237.802 76.0103 238.843 75.9404L240.684 75.8198V76.4482C240.684 77.4258 239.852 78.1621 238.729 78.1621ZM243.716 79H244.808V74.7598C244.808 73.7949 245.563 73.0967 246.604 73.0967C246.82 73.0967 247.214 73.1348 247.302 73.1602V72.0684C247.163 72.0493 246.934 72.0366 246.757 72.0366C245.849 72.0366 245.062 72.5063 244.859 73.1729H244.757V72.1572H243.716V79ZM19.1229 88.3862V90.1572H18.0184V91.0713H19.1229V95.2227C19.1229 96.5303 19.6879 97.0508 21.097 97.0508C21.3129 97.0508 21.5223 97.0254 21.7382 96.9873V96.0669C21.535 96.0859 21.4271 96.0923 21.2303 96.0923C20.5194 96.0923 20.2147 95.7495 20.2147 94.9434V91.0713H21.7382V90.1572H20.2147V88.3862H19.1229ZM28.8457 90.1572H27.7539V94.207C27.7539 95.4067 27.0938 96.124 25.8877 96.124C24.7959 96.124 24.3389 95.5527 24.3389 94.3213V90.1572H23.2471V94.5879C23.2471 96.2065 24.0469 97.1206 25.583 97.1206C26.6304 97.1206 27.3604 96.689 27.7031 95.9272H27.8047V97H28.8457V90.1572ZM34.8723 97H35.9641V91.0713H37.532V90.1572H35.9641V89.4272C35.9641 88.6782 36.2942 88.2974 37.0813 88.2974C37.2781 88.2974 37.4622 88.3037 37.5955 88.3291V87.4404C37.367 87.396 37.1257 87.377 36.8591 87.377C35.5579 87.377 34.8723 88.0308 34.8723 89.3955V90.1572H33.7361V91.0713H34.8723V97ZM41.5673 97.1206C43.516 97.1206 44.7221 95.7749 44.7221 93.5786C44.7221 91.376 43.516 90.0366 41.5673 90.0366C39.6185 90.0366 38.4125 91.376 38.4125 93.5786C38.4125 95.7749 39.6185 97.1206 41.5673 97.1206ZM41.5673 96.1367C40.2724 96.1367 39.5424 95.1973 39.5424 93.5786C39.5424 91.9536 40.2724 91.0205 41.5673 91.0205C42.8622 91.0205 43.5922 91.9536 43.5922 93.5786C43.5922 95.1973 42.8622 96.1367 41.5673 96.1367ZM46.815 88.3862V90.1572H45.7105V91.0713H46.815V95.2227C46.815 96.5303 47.3799 97.0508 48.7891 97.0508C49.0049 97.0508 49.2144 97.0254 49.4302 96.9873V96.0669C49.2271 96.0859 49.1192 96.0923 48.9224 96.0923C48.2114 96.0923 47.9068 95.7495 47.9068 94.9434V91.0713H49.4302V90.1572H47.9068V88.3862H46.815ZM53.713 97.1206C55.6618 97.1206 56.8678 95.7749 56.8678 93.5786C56.8678 91.376 55.6618 90.0366 53.713 90.0366C51.7643 90.0366 50.5582 91.376 50.5582 93.5786C50.5582 95.7749 51.7643 97.1206 53.713 97.1206ZM53.713 96.1367C52.4181 96.1367 51.6881 95.1973 51.6881 93.5786C51.6881 91.9536 52.4181 91.0205 53.713 91.0205C55.008 91.0205 55.7379 91.9536 55.7379 93.5786C55.7379 95.1973 55.008 96.1367 53.713 96.1367ZM64.6273 97.1206C65.5731 97.1206 66.3856 96.6699 66.8173 95.9082H66.9188V97H67.9599V87.4404H66.8681V91.2363H66.7729C66.3856 90.4873 65.5795 90.0366 64.6273 90.0366C62.8881 90.0366 61.7519 91.4331 61.7519 93.5786C61.7519 95.7305 62.8754 97.1206 64.6273 97.1206ZM64.8812 91.0205C66.119 91.0205 66.8935 92.0107 66.8935 93.5786C66.8935 95.1592 66.1254 96.1367 64.8812 96.1367C63.6308 96.1367 62.8817 95.1782 62.8817 93.5786C62.8817 91.9854 63.6371 91.0205 64.8812 91.0205ZM74.5342 95.229C74.2486 95.832 73.6519 96.1558 72.7696 96.1558C71.6079 96.1558 70.8526 95.2988 70.7954 93.9468V93.896H75.7149V93.4771C75.7149 91.3506 74.5913 90.0366 72.7442 90.0366C70.8653 90.0366 69.6592 91.4331 69.6592 93.585C69.6592 95.7495 70.8462 97.1206 72.7442 97.1206C74.2422 97.1206 75.3086 96.397 75.626 95.229H74.5342ZM72.7315 91.0015C73.8169 91.0015 74.5406 91.8013 74.5659 93.0137H70.7954C70.878 91.8013 71.6397 91.0015 72.7315 91.0015ZM84.2742 90.0366C83.3411 90.0366 82.5222 90.5127 82.0843 91.2998H81.9827V90.1572H80.9417V99.2852H82.0335V95.9717H82.135C82.5096 96.6953 83.2967 97.1206 84.2742 97.1206C86.0135 97.1206 87.1497 95.7178 87.1497 93.5786C87.1497 91.4268 86.0198 90.0366 84.2742 90.0366ZM84.0139 96.1367C82.7825 96.1367 82.0017 95.1465 82.0017 93.5786C82.0017 92.0044 82.7825 91.0205 84.0203 91.0205C85.2708 91.0205 86.0198 91.979 86.0198 93.5786C86.0198 95.1782 85.2708 96.1367 84.0139 96.1367ZM93.3178 95.229C93.0321 95.832 92.4355 96.1558 91.5531 96.1558C90.3915 96.1558 89.6361 95.2988 89.579 93.9468V93.896H94.4985V93.4771C94.4985 91.3506 93.3749 90.0366 91.5277 90.0366C89.6488 90.0366 88.4428 91.4331 88.4428 93.585C88.4428 95.7495 89.6298 97.1206 91.5277 97.1206C93.0258 97.1206 94.0922 96.397 94.4096 95.229H93.3178ZM91.5151 91.0015C92.6005 91.0015 93.3241 91.8013 93.3495 93.0137H89.579C89.6615 91.8013 90.4233 91.0015 91.5151 91.0015ZM96.1343 97H97.2261V92.7598C97.2261 91.7949 97.9815 91.0967 99.0225 91.0967C99.2383 91.0967 99.6319 91.1348 99.7207 91.1602V90.0684C99.5811 90.0493 99.3526 90.0366 99.1748 90.0366C98.2671 90.0366 97.48 90.5063 97.2769 91.1729H97.1753V90.1572H96.1343V97ZM101.845 97H102.937V91.0713H104.505V90.1572H102.937V89.4272C102.937 88.6782 103.267 88.2974 104.054 88.2974C104.251 88.2974 104.435 88.3037 104.569 88.3291V87.4404C104.34 87.396 104.099 87.377 103.832 87.377C102.531 87.377 101.845 88.0308 101.845 89.3955V90.1572H100.709V91.0713H101.845V97ZM106.592 88.8369C107.011 88.8369 107.353 88.4941 107.353 88.0752C107.353 87.6562 107.011 87.3135 106.592 87.3135C106.173 87.3135 105.83 87.6562 105.83 88.0752C105.83 88.4941 106.173 88.8369 106.592 88.8369ZM106.046 97H107.137V90.1572H106.046V97ZM109.205 97H110.297V87.4404H109.205V97ZM113.24 97.0635C113.697 97.0635 114.065 96.689 114.065 96.2383C114.065 95.7812 113.697 95.4131 113.24 95.4131C112.79 95.4131 112.415 95.7812 112.415 96.2383C112.415 96.689 112.79 97.0635 113.24 97.0635ZM123.374 97V88.8687H126.325V87.8403H119.28V88.8687H122.231V97H123.374ZM132.456 90.1572H131.364V94.207C131.364 95.4067 130.704 96.124 129.497 96.124C128.406 96.124 127.949 95.5527 127.949 94.3213V90.1572H126.857V94.5879C126.857 96.2065 127.657 97.1206 129.193 97.1206C130.24 97.1206 130.97 96.689 131.313 95.9272H131.414V97H132.456V90.1572ZM138.482 97H139.574V91.0713H141.142V90.1572H139.574V89.4272C139.574 88.6782 139.904 88.2974 140.691 88.2974C140.888 88.2974 141.072 88.3037 141.205 88.3291V87.4404C140.977 87.396 140.736 87.377 140.469 87.377C139.168 87.377 138.482 88.0308 138.482 89.3955V90.1572H137.346V91.0713H138.482V97ZM145.177 97.1206C147.126 97.1206 148.332 95.7749 148.332 93.5786C148.332 91.376 147.126 90.0366 145.177 90.0366C143.228 90.0366 142.022 91.376 142.022 93.5786C142.022 95.7749 143.228 97.1206 145.177 97.1206ZM145.177 96.1367C143.882 96.1367 143.152 95.1973 143.152 93.5786C143.152 91.9536 143.882 91.0205 145.177 91.0205C146.472 91.0205 147.202 91.9536 147.202 93.5786C147.202 95.1973 146.472 96.1367 145.177 96.1367ZM150.425 88.3862V90.1572H149.32V91.0713H150.425V95.2227C150.425 96.5303 150.99 97.0508 152.399 97.0508C152.615 97.0508 152.824 97.0254 153.04 96.9873V96.0669C152.837 96.0859 152.729 96.0923 152.532 96.0923C151.821 96.0923 151.517 95.7495 151.517 94.9434V91.0713H153.04V90.1572H151.517V88.3862H150.425ZM157.323 97.1206C159.272 97.1206 160.478 95.7749 160.478 93.5786C160.478 91.376 159.272 90.0366 157.323 90.0366C155.374 90.0366 154.168 91.376 154.168 93.5786C154.168 95.7749 155.374 97.1206 157.323 97.1206ZM157.323 96.1367C156.028 96.1367 155.298 95.1973 155.298 93.5786C155.298 91.9536 156.028 91.0205 157.323 91.0205C158.618 91.0205 159.348 91.9536 159.348 93.5786C159.348 95.1973 158.618 96.1367 157.323 96.1367ZM167.609 97.1206C168.523 97.1206 169.272 96.7207 169.716 95.9907H169.818V97H170.859V92.3154C170.859 90.8936 169.926 90.0366 168.256 90.0366C166.796 90.0366 165.717 90.7603 165.571 91.8584H166.676C166.828 91.3188 167.399 91.0078 168.218 91.0078C169.24 91.0078 169.767 91.4712 169.767 92.3154V92.9375L167.793 93.0581C166.2 93.1533 165.298 93.8579 165.298 95.083C165.298 96.3335 166.282 97.1206 167.609 97.1206ZM167.812 96.1621C167.018 96.1621 166.428 95.7559 166.428 95.0576C166.428 94.3721 166.885 94.0103 167.926 93.9404L169.767 93.8198V94.4482C169.767 95.4258 168.935 96.1621 167.812 96.1621ZM176.132 90.0366C175.199 90.0366 174.38 90.5127 173.942 91.2998H173.84V90.1572H172.799V99.2852H173.891V95.9717H173.993C174.367 96.6953 175.154 97.1206 176.132 97.1206C177.871 97.1206 179.007 95.7178 179.007 93.5786C179.007 91.4268 177.877 90.0366 176.132 90.0366ZM175.872 96.1367C174.64 96.1367 173.859 95.1465 173.859 93.5786C173.859 92.0044 174.64 91.0205 175.878 91.0205C177.128 91.0205 177.877 91.979 177.877 93.5786C177.877 95.1782 177.128 96.1367 175.872 96.1367ZM180.643 97H181.735V92.7598C181.735 91.7949 182.49 91.0967 183.531 91.0967C183.747 91.0967 184.141 91.1348 184.23 91.1602V90.0684C184.09 90.0493 183.861 90.0366 183.684 90.0366C182.776 90.0366 181.989 90.5063 181.786 91.1729H181.684V90.1572H180.643V97ZM189.858 95.229C189.572 95.832 188.976 96.1558 188.093 96.1558C186.932 96.1558 186.176 95.2988 186.119 93.9468V93.896H191.039V93.4771C191.039 91.3506 189.915 90.0366 188.068 90.0366C186.189 90.0366 184.983 91.4331 184.983 93.585C184.983 95.7495 186.17 97.1206 188.068 97.1206C189.566 97.1206 190.633 96.397 190.95 95.229H189.858ZM188.055 91.0015C189.141 91.0015 189.864 91.8013 189.89 93.0137H186.119C186.202 91.8013 186.964 91.0015 188.055 91.0015ZM198.337 92.252C198.146 91.0332 197.131 90.0366 195.468 90.0366C193.551 90.0366 192.332 91.4204 192.332 93.5532C192.332 95.7305 193.557 97.1206 195.474 97.1206C197.118 97.1206 198.14 96.1938 198.337 94.937H197.232C197.029 95.7114 196.388 96.1367 195.468 96.1367C194.249 96.1367 193.462 95.1338 193.462 93.5532C193.462 92.0044 194.236 91.0205 195.468 91.0205C196.452 91.0205 197.055 91.5728 197.232 92.252H198.337ZM204.403 95.229C204.118 95.832 203.521 96.1558 202.639 96.1558C201.477 96.1558 200.722 95.2988 200.665 93.9468V93.896H205.584V93.4771C205.584 91.3506 204.46 90.0366 202.613 90.0366C200.734 90.0366 199.528 91.4331 199.528 93.585C199.528 95.7495 200.715 97.1206 202.613 97.1206C204.111 97.1206 205.178 96.397 205.495 95.229H204.403ZM202.601 91.0015C203.686 91.0015 204.41 91.8013 204.435 93.0137H200.665C200.747 91.8013 201.509 91.0015 202.601 91.0015ZM207.22 97H208.312V92.7598C208.312 91.7949 209.067 91.0967 210.108 91.0967C210.324 91.0967 210.717 91.1348 210.806 91.1602V90.0684C210.667 90.0493 210.438 90.0366 210.26 90.0366C209.353 90.0366 208.566 90.5063 208.362 91.1729H208.261V90.1572H207.22V97ZM215.14 89.2051L216.606 87.0469H215.299L214.175 89.2051H215.14ZM213.997 97.1206C214.911 97.1206 215.66 96.7207 216.105 95.9907H216.206V97H217.247V92.3154C217.247 90.8936 216.314 90.0366 214.645 90.0366C213.185 90.0366 212.106 90.7603 211.96 91.8584H213.064C213.217 91.3188 213.788 91.0078 214.607 91.0078C215.629 91.0078 216.156 91.4712 216.156 92.3154V92.9375L214.181 93.0581C212.588 93.1533 211.687 93.8579 211.687 95.083C211.687 96.3335 212.671 97.1206 213.997 97.1206ZM214.2 96.1621C213.407 96.1621 212.817 95.7559 212.817 95.0576C212.817 94.3721 213.274 94.0103 214.315 93.9404L216.156 93.8198V94.4482C216.156 95.4258 215.324 96.1621 214.2 96.1621ZM227.311 95.229C227.025 95.832 226.429 96.1558 225.546 96.1558C224.385 96.1558 223.629 95.2988 223.572 93.9468V93.896H228.492V93.4771C228.492 91.3506 227.368 90.0366 225.521 90.0366C223.642 90.0366 222.436 91.4331 222.436 93.585C222.436 95.7495 223.623 97.1206 225.521 97.1206C227.019 97.1206 228.085 96.397 228.403 95.229H227.311ZM225.508 91.0015C226.594 91.0015 227.317 91.8013 227.343 93.0137H223.572C223.655 91.8013 224.416 91.0015 225.508 91.0015ZM230.128 97H231.219V92.9502C231.219 91.7505 231.924 91.0205 233.016 91.0205C234.108 91.0205 234.628 91.6045 234.628 92.8359V97H235.72V92.5693C235.72 90.9443 234.863 90.0366 233.327 90.0366C232.279 90.0366 231.613 90.481 231.27 91.2363H231.169V90.1572H230.128V97ZM241.689 88.3862V90.1572H240.585V91.0713H241.689V95.2227C241.689 96.5303 242.254 97.0508 243.663 97.0508C243.879 97.0508 244.089 97.0254 244.305 96.9873V96.0669C244.101 96.0859 243.994 96.0923 243.797 96.0923C243.086 96.0923 242.781 95.7495 242.781 94.9434V91.0713H244.305V90.1572H242.781V88.3862H241.689ZM251.412 90.1572H250.32V94.207C250.32 95.4067 249.66 96.124 248.454 96.124C247.362 96.124 246.905 95.5527 246.905 94.3213V90.1572H245.813V94.5879C245.813 96.2065 246.613 97.1206 248.149 97.1206C249.197 97.1206 249.927 96.689 250.27 95.9272H250.371V97H251.412V90.1572ZM69.0317 108.037C68.0986 108.037 67.2797 108.513 66.8418 109.3H66.7402V108.157H65.6992V117.285H66.791V113.972H66.8925C67.2671 114.695 68.0542 115.121 69.0317 115.121C70.771 115.121 71.9072 113.718 71.9072 111.579C71.9072 109.427 70.7773 108.037 69.0317 108.037ZM68.7714 114.137C67.54 114.137 66.7592 113.146 66.7592 111.579C66.7592 110.004 67.54 109.021 68.7778 109.021C70.0283 109.021 70.7773 109.979 70.7773 111.579C70.7773 113.178 70.0283 114.137 68.7714 114.137ZM78.0753 113.229C77.7896 113.832 77.193 114.156 76.3106 114.156C75.149 114.156 74.3936 113.299 74.3365 111.947V111.896H79.2559V111.477C79.2559 109.351 78.1324 108.037 76.2852 108.037C74.4063 108.037 73.2003 109.433 73.2003 111.585C73.2003 113.75 74.3873 115.121 76.2852 115.121C77.7833 115.121 78.8497 114.397 79.1671 113.229H78.0753ZM76.2725 109.001C77.358 109.001 78.0816 109.801 78.107 111.014H74.3365C74.419 109.801 75.1808 109.001 76.2725 109.001ZM80.8918 115H81.9836V110.76C81.9836 109.795 82.739 109.097 83.78 109.097C83.9958 109.097 84.3894 109.135 84.4782 109.16V108.068C84.3386 108.049 84.1101 108.037 83.9323 108.037C83.0246 108.037 82.2375 108.506 82.0344 109.173H81.9328V108.157H80.8918V115ZM86.6029 115H87.6947V109.071H89.2625V108.157H87.6947V107.427C87.6947 106.678 88.0247 106.297 88.8119 106.297C89.0086 106.297 89.1927 106.304 89.326 106.329V105.44C89.0975 105.396 88.8563 105.377 88.5897 105.377C87.2884 105.377 86.6029 106.031 86.6029 107.396V108.157H85.4666V109.071H86.6029V115ZM91.3491 106.837C91.768 106.837 92.1108 106.494 92.1108 106.075C92.1108 105.656 91.768 105.313 91.3491 105.313C90.9301 105.313 90.5874 105.656 90.5874 106.075C90.5874 106.494 90.9301 106.837 91.3491 106.837ZM90.8032 115H91.895V108.157H90.8032V115ZM93.9625 115H95.0543V105.44H93.9625V115ZM101.271 117.476C102.484 117.476 103.03 117.006 103.614 115.419L106.286 108.157H105.124L103.252 113.788H103.15L101.271 108.157H100.091L102.623 115.006L102.496 115.413C102.211 116.238 101.868 116.536 101.24 116.536C101.087 116.536 100.916 116.53 100.783 116.504V117.438C100.935 117.463 101.125 117.476 101.271 117.476ZM115.791 113.229C115.505 113.832 114.909 114.156 114.026 114.156C112.865 114.156 112.109 113.299 112.052 111.947V111.896H116.972V111.477C116.972 109.351 115.848 108.037 114.001 108.037C112.122 108.037 110.916 109.433 110.916 111.585C110.916 113.75 112.103 115.121 114.001 115.121C115.499 115.121 116.566 114.397 116.883 113.229H115.791ZM113.988 109.001C115.074 109.001 115.797 109.801 115.823 111.014H112.052C112.135 109.801 112.897 109.001 113.988 109.001ZM118.608 115H119.699V110.95C119.699 109.75 120.404 109.021 121.496 109.021C122.588 109.021 123.108 109.604 123.108 110.836V115H124.2V110.569C124.2 108.944 123.343 108.037 121.807 108.037C120.76 108.037 120.093 108.481 119.75 109.236H119.649V108.157H118.608V115ZM129.776 115H130.868V105.44H129.776V115ZM135.722 115.121C137.671 115.121 138.877 113.775 138.877 111.579C138.877 109.376 137.671 108.037 135.722 108.037C133.773 108.037 132.567 109.376 132.567 111.579C132.567 113.775 133.773 115.121 135.722 115.121ZM135.722 114.137C134.427 114.137 133.697 113.197 133.697 111.579C133.697 109.954 134.427 109.021 135.722 109.021C137.017 109.021 137.747 109.954 137.747 111.579C137.747 113.197 137.017 114.137 135.722 114.137ZM140.354 110.03C140.354 111.02 140.938 111.572 142.22 111.883L143.394 112.169C144.124 112.347 144.48 112.664 144.48 113.134C144.48 113.762 143.82 114.2 142.899 114.2C142.023 114.2 141.477 113.832 141.293 113.254H140.17C140.29 114.391 141.338 115.121 142.861 115.121C144.416 115.121 145.603 114.276 145.603 113.051C145.603 112.067 144.981 111.509 143.693 111.198L142.639 110.944C141.833 110.747 141.452 110.455 141.452 109.985C141.452 109.376 142.087 108.963 142.899 108.963C143.724 108.963 144.258 109.325 144.404 109.871H145.483C145.337 108.748 144.34 108.037 142.906 108.037C141.452 108.037 140.354 108.894 140.354 110.03ZM150.83 115H151.922V110.76C151.922 109.795 152.677 109.097 153.718 109.097C153.934 109.097 154.328 109.135 154.417 109.16V108.068C154.277 108.049 154.048 108.037 153.871 108.037C152.963 108.037 152.176 108.506 151.973 109.173H151.871V108.157H150.83V115ZM157.608 115.121C158.522 115.121 159.271 114.721 159.715 113.991H159.817V115H160.858V110.315C160.858 108.894 159.924 108.037 158.255 108.037C156.795 108.037 155.716 108.76 155.57 109.858H156.674C156.827 109.319 157.398 109.008 158.217 109.008C159.239 109.008 159.766 109.471 159.766 110.315V110.938L157.792 111.058C156.198 111.153 155.297 111.858 155.297 113.083C155.297 114.333 156.281 115.121 157.608 115.121ZM157.811 114.162C157.017 114.162 156.427 113.756 156.427 113.058C156.427 112.372 156.884 112.01 157.925 111.94L159.766 111.82V112.448C159.766 113.426 158.934 114.162 157.811 114.162ZM162.798 115H163.89V110.95C163.89 109.75 164.594 109.021 165.686 109.021C166.778 109.021 167.299 109.604 167.299 110.836V115H168.39V110.569C168.39 108.944 167.533 108.037 165.997 108.037C164.95 108.037 164.283 108.481 163.941 109.236H163.839V108.157H162.798V115ZM171.569 111.147H171.467V105.44H170.375V115H171.467V112.404L172.121 111.794L174.685 115H176.076L172.933 111.09L175.879 108.157H174.539L171.569 111.147ZM177.864 106.837C178.283 106.837 178.626 106.494 178.626 106.075C178.626 105.656 178.283 105.313 177.864 105.313C177.445 105.313 177.102 105.656 177.102 106.075C177.102 106.494 177.445 106.837 177.864 106.837ZM177.318 115H178.41V108.157H177.318V115ZM180.414 115H181.506V110.95C181.506 109.75 182.21 109.021 183.302 109.021C184.394 109.021 184.914 109.604 184.914 110.836V115H186.006V110.569C186.006 108.944 185.149 108.037 183.613 108.037C182.566 108.037 181.899 108.481 181.556 109.236H181.455V108.157H180.414V115ZM190.746 117.628C192.612 117.628 193.793 116.65 193.793 115.121V108.157H192.752V109.243H192.65C192.257 108.506 191.412 108.037 190.454 108.037C188.696 108.037 187.585 109.427 187.585 111.477C187.585 113.527 188.683 114.898 190.454 114.898C191.393 114.898 192.168 114.473 192.599 113.718H192.701V115.063C192.701 116.073 191.971 116.676 190.746 116.676C189.762 116.676 189.153 116.314 189.032 115.755H187.877C188.042 116.885 189.095 117.628 190.746 117.628ZM190.695 113.934C189.426 113.934 188.715 112.969 188.715 111.477C188.715 109.985 189.426 109.021 190.695 109.021C191.958 109.021 192.726 109.985 192.726 111.477C192.726 112.969 191.965 113.934 190.695 113.934ZM195.613 110.03C195.613 111.02 196.197 111.572 197.479 111.883L198.653 112.169C199.383 112.347 199.739 112.664 199.739 113.134C199.739 113.762 199.079 114.2 198.158 114.2C197.282 114.2 196.736 113.832 196.552 113.254H195.429C195.549 114.391 196.597 115.121 198.12 115.121C199.675 115.121 200.862 114.276 200.862 113.051C200.862 112.067 200.24 111.509 198.952 111.198L197.898 110.944C197.092 110.747 196.711 110.455 196.711 109.985C196.711 109.376 197.346 108.963 198.158 108.963C198.983 108.963 199.517 109.325 199.663 109.871H200.742C200.596 108.748 199.599 108.037 198.164 108.037C196.711 108.037 195.613 108.894 195.613 110.03ZM203.399 115.063C203.856 115.063 204.225 114.689 204.225 114.238C204.225 113.781 203.856 113.413 203.399 113.413C202.949 113.413 202.574 113.781 202.574 114.238C202.574 114.689 202.949 115.063 203.399 115.063Z" fill="white"/>
<path fill-rule="evenodd" clip-rule="evenodd" d="M0 138H270V182H0V138Z" fill="#1E1E1E" fill-opacity="0.75"/>
<rect y="138" width="270" height="0.5" fill="#545458" fill-opacity="0.65"/>
<path d="M72.7412 162.754C72.8491 164.921 74.6669 166.299 77.4145 166.299C80.3198 166.299 82.121 164.854 82.121 162.53C82.121 160.712 81.1 159.7 78.6679 159.144L77.29 158.828C75.8041 158.479 75.1982 158.006 75.1982 157.185C75.1982 156.147 76.1113 155.466 77.4892 155.466C78.8007 155.466 79.7304 156.139 79.8798 157.209H81.9301C81.8305 155.159 80.0126 153.723 77.4975 153.723C74.8163 153.723 73.04 155.167 73.04 157.326C73.04 159.102 74.061 160.173 76.2358 160.671L77.788 161.028C79.3237 161.385 79.9794 161.916 79.9794 162.788C79.9794 163.809 78.9584 164.547 77.5473 164.547C76.0283 164.547 74.9658 163.85 74.833 162.754H72.7412ZM89.8229 163.518C89.5241 164.199 88.8185 164.581 87.7975 164.581C86.4445 164.581 85.5729 163.618 85.5231 162.082V161.974H91.8649V161.318C91.8649 158.471 90.3126 156.753 87.7228 156.753C85.0915 156.753 83.4562 158.587 83.4562 161.501C83.4562 164.406 85.0666 166.183 87.7394 166.183C89.881 166.183 91.4 165.153 91.7736 163.518H89.8229ZM87.7145 158.355C88.9513 158.355 89.7648 159.227 89.8063 160.604H85.5314C85.6227 159.243 86.486 158.355 87.7145 158.355ZM93.6068 166H95.6654V153.416H93.6068V166ZM103.782 163.518C103.483 164.199 102.778 164.581 101.757 164.581C100.404 164.581 99.5323 163.618 99.4825 162.082V161.974H105.824V161.318C105.824 158.471 104.272 156.753 101.682 156.753C99.0508 156.753 97.4156 158.587 97.4156 161.501C97.4156 164.406 99.0259 166.183 101.699 166.183C103.84 166.183 105.359 165.153 105.733 163.518H103.782ZM101.674 158.355C102.911 158.355 103.724 159.227 103.766 160.604H99.4908C99.5821 159.243 100.445 158.355 101.674 158.355ZM115.327 159.957C115.112 158.081 113.7 156.753 111.368 156.753C108.637 156.753 107.035 158.504 107.035 161.443C107.035 164.415 108.645 166.183 111.376 166.183C113.676 166.183 115.103 164.904 115.327 163.028H113.368C113.153 163.983 112.439 164.489 111.368 164.489C109.965 164.489 109.118 163.369 109.118 161.443C109.118 159.55 109.957 158.438 111.368 158.438C112.497 158.438 113.178 159.077 113.368 159.957H115.327ZM117.659 154.703V156.985H116.223V158.587H117.659V163.593C117.659 165.344 118.489 166.042 120.572 166.042C120.971 166.042 121.353 166.008 121.651 165.95V164.373C121.402 164.398 121.245 164.415 120.954 164.415C120.091 164.415 119.709 164.008 119.709 163.103V158.587H121.651V156.985H119.709V154.703H117.659ZM127.642 154.022V166H129.784V162.041H132.382C134.806 162.041 136.499 160.422 136.499 158.056C136.499 155.649 134.864 154.022 132.473 154.022H127.642ZM129.784 155.773H131.909C133.453 155.773 134.324 156.57 134.324 158.056C134.324 159.5 133.428 160.314 131.9 160.314H129.784V155.773ZM138.324 166H140.382V160.729C140.382 159.401 141.138 158.513 142.491 158.513C143.686 158.513 144.317 159.227 144.317 160.629V166H146.376V160.148C146.376 157.99 145.197 156.761 143.255 156.761C141.901 156.761 140.93 157.375 140.499 158.396H140.349V153.416H138.324V166ZM152.326 166.183C155.04 166.183 156.692 164.406 156.692 161.459C156.692 158.529 155.032 156.753 152.326 156.753C149.628 156.753 147.96 158.538 147.96 161.459C147.96 164.406 149.603 166.183 152.326 166.183ZM152.326 164.498C150.89 164.498 150.068 163.385 150.068 161.468C150.068 159.55 150.89 158.438 152.326 158.438C153.754 158.438 154.576 159.55 154.576 161.468C154.576 163.385 153.762 164.498 152.326 164.498ZM159.015 154.703V156.985H157.579V158.587H159.015V163.593C159.015 165.344 159.845 166.042 161.929 166.042C162.327 166.042 162.709 166.008 163.008 165.95V164.373C162.759 164.398 162.601 164.415 162.311 164.415C161.447 164.415 161.065 164.008 161.065 163.103V158.587H163.008V156.985H161.065V154.703H159.015ZM168.493 166.183C171.208 166.183 172.86 164.406 172.86 161.459C172.86 158.529 171.199 156.753 168.493 156.753C165.796 156.753 164.127 158.538 164.127 161.459C164.127 164.406 165.771 166.183 168.493 166.183ZM168.493 164.498C167.057 164.498 166.236 163.385 166.236 161.468C166.236 159.55 167.057 158.438 168.493 158.438C169.921 158.438 170.743 159.55 170.743 161.468C170.743 163.385 169.929 164.498 168.493 164.498ZM174.319 159.517C174.319 160.878 175.141 161.675 176.884 162.074L178.495 162.447C179.358 162.646 179.748 162.979 179.748 163.493C179.748 164.182 179.026 164.655 177.988 164.655C176.959 164.655 176.32 164.24 176.121 163.568H174.087C174.245 165.203 175.672 166.183 177.938 166.183C180.205 166.183 181.807 165.029 181.807 163.294C181.807 161.958 181.001 161.219 179.267 160.82L177.664 160.463C176.751 160.248 176.32 159.924 176.32 159.409C176.32 158.737 177.025 158.28 177.963 158.28C178.926 158.28 179.532 158.695 179.682 159.334H181.616C181.466 157.699 180.113 156.753 177.955 156.753C175.813 156.753 174.319 157.89 174.319 159.517ZM185.018 166.166C185.806 166.166 186.346 165.61 186.346 164.871C186.346 164.141 185.806 163.584 185.018 163.584C184.237 163.584 183.69 164.141 183.69 164.871C183.69 165.61 184.237 166.166 185.018 166.166ZM190.204 166.166C190.993 166.166 191.533 165.61 191.533 164.871C191.533 164.141 190.993 163.584 190.204 163.584C189.424 163.584 188.876 164.141 188.876 164.871C188.876 165.61 189.424 166.166 190.204 166.166ZM195.391 166.166C196.18 166.166 196.719 165.61 196.719 164.871C196.719 164.141 196.18 163.584 195.391 163.584C194.611 163.584 194.063 164.141 194.063 164.871C194.063 165.61 194.611 166.166 195.391 166.166Z" fill="#0A84FF"/>
<path fill-rule="evenodd" clip-rule="evenodd" d="M0 182H270V226H0V182Z" fill="#1E1E1E" fill-opacity="0.75"/>
<rect y="182" width="270" height="0.5" fill="#545458" fill-opacity="0.65"/>
<path d="M43.6864 210H45.2553L40.8393 198.022H39.3617L34.9457 210H36.5145L37.7182 206.572H42.4828L43.6864 210ZM40.0341 199.956H40.1669L42.0429 205.302H38.1581L40.0341 199.956ZM46.8478 210H48.2755V197.499H46.8478V210ZM50.723 210H52.1507V197.499H50.723V210ZM58.1924 210.158C60.7407 210.158 62.3179 208.398 62.3179 205.526C62.3179 202.646 60.7407 200.894 58.1924 200.894C55.6441 200.894 54.0669 202.646 54.0669 205.526C54.0669 208.398 55.6441 210.158 58.1924 210.158ZM58.1924 208.871C56.499 208.871 55.5445 207.643 55.5445 205.526C55.5445 203.401 56.499 202.181 58.1924 202.181C59.8858 202.181 60.8404 203.401 60.8404 205.526C60.8404 207.643 59.8858 208.871 58.1924 208.871ZM75.0749 201.052H73.6389L71.8791 208.207H71.7463L69.7458 201.052H68.3762L66.3757 208.207H66.2429L64.4831 201.052H63.0388L65.5456 210H66.99L68.9822 203.077H69.115L71.1155 210H72.5681L75.0749 201.052ZM88.9347 210H90.5036L86.0875 198.022H84.61L80.194 210H81.7628L82.9665 206.572H87.7311L88.9347 210ZM85.2824 199.956H85.4152L87.2912 205.302H83.4064L85.2824 199.956ZM98.9193 203.791C98.6703 202.197 97.3421 200.894 95.1673 200.894C92.6605 200.894 91.0668 202.704 91.0668 205.493C91.0668 208.34 92.6688 210.158 95.1756 210.158C97.3255 210.158 98.662 208.946 98.9193 207.302H97.475C97.2093 208.315 96.371 208.871 95.1673 208.871C93.5736 208.871 92.5443 207.56 92.5443 205.493C92.5443 203.467 93.557 202.181 95.1673 202.181C96.454 202.181 97.2425 202.903 97.475 203.791H98.9193ZM108.024 203.791C107.775 202.197 106.447 200.894 104.272 200.894C101.765 200.894 100.171 202.704 100.171 205.493C100.171 208.34 101.773 210.158 104.28 210.158C106.43 210.158 107.767 208.946 108.024 207.302H106.58C106.314 208.315 105.476 208.871 104.272 208.871C102.678 208.871 101.649 207.56 101.649 205.493C101.649 203.467 102.662 202.181 104.272 202.181C105.559 202.181 106.347 202.903 106.58 203.791H108.024ZM115.651 207.684C115.278 208.473 114.497 208.896 113.344 208.896C111.824 208.896 110.837 207.775 110.762 206.007V205.941H117.195V205.393C117.195 202.612 115.726 200.894 113.31 200.894C110.853 200.894 109.276 202.72 109.276 205.534C109.276 208.365 110.828 210.158 113.31 210.158C115.269 210.158 116.664 209.211 117.079 207.684H115.651ZM113.294 202.156C114.713 202.156 115.659 203.202 115.693 204.787H110.762C110.87 203.202 111.866 202.156 113.294 202.156ZM118.821 203.5C118.821 204.795 119.584 205.518 121.261 205.924L122.797 206.298C123.751 206.53 124.216 206.945 124.216 207.56C124.216 208.381 123.353 208.954 122.149 208.954C121.004 208.954 120.29 208.473 120.049 207.717H118.58C118.738 209.203 120.107 210.158 122.1 210.158C124.133 210.158 125.686 209.054 125.686 207.452C125.686 206.165 124.872 205.435 123.187 205.028L121.809 204.696C120.755 204.438 120.257 204.057 120.257 203.442C120.257 202.646 121.087 202.106 122.149 202.106C123.228 202.106 123.926 202.579 124.117 203.293H125.528C125.337 201.824 124.034 200.894 122.158 200.894C120.257 200.894 118.821 202.015 118.821 203.5ZM127.145 203.5C127.145 204.795 127.909 205.518 129.586 205.924L131.121 206.298C132.076 206.53 132.541 206.945 132.541 207.56C132.541 208.381 131.677 208.954 130.474 208.954C129.328 208.954 128.614 208.473 128.374 207.717H126.904C127.062 209.203 128.432 210.158 130.424 210.158C132.458 210.158 134.01 209.054 134.01 207.452C134.01 206.165 133.196 205.435 131.511 205.028L130.133 204.696C129.079 204.438 128.581 204.057 128.581 203.442C128.581 202.646 129.411 202.106 130.474 202.106C131.553 202.106 132.25 202.579 132.441 203.293H133.852C133.661 201.824 132.358 200.894 130.482 200.894C128.581 200.894 127.145 202.015 127.145 203.5ZM140.831 198.736V201.052H139.386V202.247H140.831V207.676C140.831 209.386 141.569 210.066 143.412 210.066C143.694 210.066 143.968 210.033 144.251 209.983V208.78C143.985 208.805 143.844 208.813 143.587 208.813C142.657 208.813 142.258 208.365 142.258 207.311V202.247H144.251V201.052H142.258V198.736H140.831ZM149.545 210.158C152.094 210.158 153.671 208.398 153.671 205.526C153.671 202.646 152.094 200.894 149.545 200.894C146.997 200.894 145.42 202.646 145.42 205.526C145.42 208.398 146.997 210.158 149.545 210.158ZM149.545 208.871C147.852 208.871 146.897 207.643 146.897 205.526C146.897 203.401 147.852 202.181 149.545 202.181C151.239 202.181 152.193 203.401 152.193 205.526C152.193 207.643 151.239 208.871 149.545 208.871ZM167.863 210H169.431L165.015 198.022H163.538L159.122 210H160.691L161.894 206.572H166.659L167.863 210ZM164.21 199.956H164.343L166.219 205.302H162.334L164.21 199.956ZM171.024 210H172.452V197.499H171.024V210ZM174.899 210H176.327V197.499H174.899V210ZM183.264 198.022V210H184.758V205.725H187.771C190.021 205.725 191.623 204.14 191.623 201.898C191.623 199.616 190.054 198.022 187.788 198.022H183.264ZM184.758 199.35H187.398C189.132 199.35 190.087 200.255 190.087 201.898C190.087 203.484 189.099 204.397 187.398 204.397H184.758V199.35ZM193.564 210H194.991V204.704C194.991 203.193 195.871 202.181 197.473 202.181C198.826 202.181 199.54 202.969 199.54 204.555V210H200.968V204.206C200.968 202.106 199.773 200.894 197.88 200.894C196.511 200.894 195.573 201.475 195.124 202.463H194.991V197.499H193.564V210ZM206.844 210.158C209.392 210.158 210.969 208.398 210.969 205.526C210.969 202.646 209.392 200.894 206.844 200.894C204.295 200.894 202.718 202.646 202.718 205.526C202.718 208.398 204.295 210.158 206.844 210.158ZM206.844 208.871C205.15 208.871 204.196 207.643 204.196 205.526C204.196 203.401 205.15 202.181 206.844 202.181C208.537 202.181 209.492 203.401 209.492 205.526C209.492 207.643 208.537 208.871 206.844 208.871ZM213.4 198.736V201.052H211.956V202.247H213.4V207.676C213.4 209.386 214.139 210.066 215.982 210.066C216.264 210.066 216.538 210.033 216.82 209.983V208.78C216.554 208.805 216.413 208.813 216.156 208.813C215.226 208.813 214.828 208.365 214.828 207.311V202.247H216.82V201.052H214.828V198.736H213.4ZM222.115 210.158C224.663 210.158 226.24 208.398 226.24 205.526C226.24 202.646 224.663 200.894 222.115 200.894C219.566 200.894 217.989 202.646 217.989 205.526C217.989 208.398 219.566 210.158 222.115 210.158ZM222.115 208.871C220.421 208.871 219.467 207.643 219.467 205.526C219.467 203.401 220.421 202.181 222.115 202.181C223.808 202.181 224.763 203.401 224.763 205.526C224.763 207.643 223.808 208.871 222.115 208.871ZM227.866 203.5C227.866 204.795 228.629 205.518 230.306 205.924L231.842 206.298C232.796 206.53 233.261 206.945 233.261 207.56C233.261 208.381 232.398 208.954 231.194 208.954C230.049 208.954 229.335 208.473 229.094 207.717H227.625C227.783 209.203 229.152 210.158 231.145 210.158C233.178 210.158 234.731 209.054 234.731 207.452C234.731 206.165 233.917 205.435 232.232 205.028L230.854 204.696C229.8 204.438 229.302 204.057 229.302 203.442C229.302 202.646 230.132 202.106 231.194 202.106C232.274 202.106 232.971 202.579 233.162 203.293H234.573C234.382 201.824 233.079 200.894 231.203 200.894C229.302 200.894 227.866 202.015 227.866 203.5Z" fill="#0A84FF"/>
<path fill-rule="evenodd" clip-rule="evenodd" d="M0 226H270V247.6C270 255.441 270 259.361 268.474 262.356C267.132 264.99 264.99 267.132 262.356 268.474C259.361 270 255.441 270 247.6 270H22.4C14.5593 270 10.6389 270 7.64413 268.474C5.00986 267.132 2.86814 264.99 1.52591 262.356C0 259.361 0 255.441 0 247.6V226Z" fill="#1E1E1E" fill-opacity="0.75"/>
<rect y="226" width="270" height="0.5" fill="#545458" fill-opacity="0.65"/>
<path d="M93.0044 242.022V254H97.1132C100.674 254 102.766 251.784 102.766 248.007C102.766 244.238 100.666 242.022 97.1132 242.022H93.0044ZM94.4985 243.367H97.0136C99.6699 243.367 101.239 245.093 101.239 248.023C101.239 250.945 99.6865 252.655 97.0136 252.655H94.4985V243.367ZM108.443 254.158C110.991 254.158 112.568 252.398 112.568 249.526C112.568 246.646 110.991 244.894 108.443 244.894C105.894 244.894 104.317 246.646 104.317 249.526C104.317 252.398 105.894 254.158 108.443 254.158ZM108.443 252.871C106.749 252.871 105.795 251.643 105.795 249.526C105.795 247.401 106.749 246.181 108.443 246.181C110.136 246.181 111.09 247.401 111.09 249.526C111.09 251.643 110.136 252.871 108.443 252.871ZM114.401 254H115.829V248.704C115.829 247.135 116.75 246.181 118.178 246.181C119.606 246.181 120.286 246.944 120.286 248.555V254H121.714V248.206C121.714 246.081 120.594 244.894 118.585 244.894C117.215 244.894 116.344 245.475 115.895 246.463H115.763V245.052H114.401V254ZM124.809 246.496L126.312 242.022H124.693L123.772 246.496H124.809ZM129.041 242.736V245.052H127.597V246.247H129.041V251.676C129.041 253.386 129.78 254.066 131.623 254.066C131.905 254.066 132.179 254.033 132.461 253.983V252.78C132.196 252.805 132.054 252.813 131.797 252.813C130.867 252.813 130.469 252.365 130.469 251.311V246.247H132.461V245.052H130.469V242.736H129.041ZM146.57 254H148.139L143.723 242.022H142.245L137.829 254H139.398L140.602 250.572H145.366L146.57 254ZM142.918 243.956H143.05L144.926 249.302H141.042L142.918 243.956ZM149.731 254H151.159V241.499H149.731V254ZM153.607 254H155.034V241.499H153.607V254ZM161.076 254.158C163.624 254.158 165.202 252.398 165.202 249.526C165.202 246.646 163.624 244.894 161.076 244.894C158.528 244.894 156.951 246.646 156.951 249.526C156.951 252.398 158.528 254.158 161.076 254.158ZM161.076 252.871C159.383 252.871 158.428 251.643 158.428 249.526C158.428 247.401 159.383 246.181 161.076 246.181C162.769 246.181 163.724 247.401 163.724 249.526C163.724 251.643 162.769 252.871 161.076 252.871ZM177.959 245.052H176.522L174.763 252.207H174.63L172.629 245.052H171.26L169.259 252.207H169.126L167.367 245.052H165.922L168.429 254H169.874L171.866 247.077H171.999L173.999 254H175.452L177.959 245.052Z" fill="#0A84FF"/>
</svg>
