<svg width="270" height="234" viewBox="0 0 270 234" fill="none" xmlns="http://www.w3.org/2000/svg">
<path d="M0 14C0 6.26801 6.26801 0 14 0H256C263.732 0 270 6.26801 270 14V102H0V14Z" fill="#1E1E1E" fill-opacity="0.75"/>
<path d="M30.1941 36.2988C30.9578 36.2988 31.6717 36.1826 32.3108 35.9585L33.2737 37.2451H35.3655L33.7967 35.1201C35.1082 34.1074 35.847 32.3062 35.847 30.0151C35.847 26.1387 33.6556 23.7231 30.1941 23.7231C26.7161 23.7231 24.5164 26.1304 24.5164 30.0151C24.5164 33.9082 26.6912 36.2988 30.1941 36.2988ZM30.1941 34.4976C28.0359 34.4976 26.6663 32.7793 26.6663 30.0151C26.6663 27.2593 28.0442 25.5244 30.1941 25.5244C32.3274 25.5244 33.6971 27.2593 33.6971 30.0151C33.6971 31.5342 33.282 32.7461 32.5516 33.4434L31.6468 32.248H29.5467L31.1321 34.373C30.8333 34.4644 30.5179 34.4976 30.1941 34.4976ZM40.1289 36.1494C41.3159 36.1494 42.312 35.6348 42.8184 34.7549H42.9595V36H44.9434V29.7993C44.9434 27.8818 43.6318 26.7529 41.2993 26.7529C39.1411 26.7529 37.6387 27.7656 37.4727 29.3511H39.415C39.606 28.7285 40.2534 28.3882 41.1997 28.3882C42.312 28.3882 42.9097 28.8945 42.9097 29.7993V30.5796L40.5689 30.7207C38.3608 30.8452 37.124 31.7998 37.124 33.4268C37.124 35.0869 38.3774 36.1494 40.1289 36.1494ZM40.7349 34.564C39.8218 34.564 39.166 34.1074 39.166 33.3271C39.166 32.5718 39.7056 32.1484 40.8594 32.0737L42.9097 31.9326V32.6714C42.9097 33.7505 41.98 34.564 40.7349 34.564ZM51.9646 26.7778C50.7194 26.7778 49.6652 27.4004 49.1423 28.4297H49.0012V26.9272H47.0173V39.0132H49.0759V34.6221H49.217C49.6818 35.585 50.6862 36.1494 51.9895 36.1494C54.2805 36.1494 55.7082 34.3481 55.7082 31.4678C55.7082 28.5625 54.2639 26.7778 51.9646 26.7778ZM51.3171 34.4395C49.9143 34.4395 49.0427 33.3022 49.0344 31.4678C49.0427 29.6333 49.9226 28.4961 51.3254 28.4961C52.7365 28.4961 53.5915 29.6084 53.5915 31.4678C53.5915 33.3271 52.7448 34.4395 51.3171 34.4395ZM57.4501 36H59.5087V23.416H57.4501V36ZM64.2057 36.1494C65.3927 36.1494 66.3888 35.6348 66.8951 34.7549H67.0363V36H69.0201V29.7993C69.0201 27.8818 67.7086 26.7529 65.3761 26.7529C63.2179 26.7529 61.7155 27.7656 61.5494 29.3511H63.4918C63.6827 28.7285 64.3302 28.3882 65.2765 28.3882C66.3888 28.3882 66.9865 28.8945 66.9865 29.7993V30.5796L64.6456 30.7207C62.4376 30.8452 61.2008 31.7998 61.2008 33.4268C61.2008 35.0869 62.4542 36.1494 64.2057 36.1494ZM64.8116 34.564C63.8986 34.564 63.2428 34.1074 63.2428 33.3271C63.2428 32.5718 63.7824 32.1484 64.9362 32.0737L66.9865 31.9326V32.6714C66.9865 33.7505 66.0568 34.564 64.8116 34.564ZM85.7935 31.2188V29.7246H80.8213V31.3599H83.7017L83.6934 31.6089C83.6602 33.3022 82.4151 34.4395 80.5889 34.4395C78.4556 34.4395 77.1192 32.7461 77.1192 29.9902C77.1192 27.2759 78.4307 25.5825 80.5225 25.5825C82.0582 25.5825 83.129 26.3462 83.5606 27.7324H85.6939C85.3121 25.292 83.2867 23.7231 80.5225 23.7231C77.1109 23.7231 74.9278 26.1719 74.9278 30.0068C74.9278 33.8833 77.086 36.2988 80.5557 36.2988C83.7515 36.2988 85.7935 34.3149 85.7935 31.2188ZM90.1086 36.1494C91.2957 36.1494 92.2917 35.6348 92.7981 34.7549H92.9392V36H94.9231V29.7993C94.9231 27.8818 93.6116 26.7529 91.2791 26.7529C89.1208 26.7529 87.6184 27.7656 87.4524 29.3511H89.3948C89.5857 28.7285 90.2332 28.3882 91.1794 28.3882C92.2917 28.3882 92.8894 28.8945 92.8894 29.7993V30.5796L90.5486 30.7207C88.3406 30.8452 87.1038 31.7998 87.1038 33.4268C87.1038 35.0869 88.3572 36.1494 90.1086 36.1494ZM90.7146 34.564C89.8015 34.564 89.1458 34.1074 89.1458 33.3271C89.1458 32.5718 89.6853 32.1484 90.8391 32.0737L92.8894 31.9326V32.6714C92.8894 33.7505 91.9597 34.564 90.7146 34.564ZM96.997 36H99.0556V30.48C99.0556 29.3511 99.811 28.4961 100.832 28.4961C101.845 28.4961 102.476 29.1104 102.476 30.1147V36H104.476V30.3306C104.476 29.293 105.182 28.4961 106.252 28.4961C107.356 28.4961 107.913 29.0854 107.913 30.2642V36H109.963V29.7578C109.963 27.8735 108.867 26.7529 107.049 26.7529C105.788 26.7529 104.742 27.4004 104.293 28.3882H104.152C103.77 27.3838 102.899 26.7529 101.645 26.7529C100.442 26.7529 99.5122 27.3672 99.122 28.3882H98.9809V26.9272H96.997V36ZM113.041 25.4082C113.722 25.4082 114.278 24.8687 114.278 24.188C114.278 23.5156 113.722 22.9678 113.041 22.9678C112.369 22.9678 111.813 23.5156 111.813 24.188C111.813 24.8687 112.369 25.4082 113.041 25.4082ZM112.02 36H114.07V26.9272H112.02V36ZM116.219 36H118.278V30.7124C118.278 29.3511 119.05 28.4961 120.278 28.4961C121.532 28.4961 122.113 29.2017 122.113 30.6128V36H124.171V30.1313C124.171 27.9731 123.067 26.7529 121.042 26.7529C119.689 26.7529 118.776 27.3672 118.344 28.3799H118.203V26.9272H116.219V36ZM130.105 39.4531C132.753 39.4531 134.43 38.1333 134.43 36.0498V26.9272H132.446V28.3799H132.305C131.807 27.3921 130.728 26.7778 129.491 26.7778C127.175 26.7778 125.739 28.5874 125.739 31.3682C125.739 34.0908 127.167 35.8672 129.458 35.8672C130.719 35.8672 131.707 35.3359 132.23 34.3564H132.371V36.083C132.371 37.2368 131.549 37.9175 130.138 37.9175C129.009 37.9175 128.279 37.5107 128.146 36.8716H126.079C126.245 38.4321 127.773 39.4531 130.105 39.4531ZM130.105 34.2319C128.669 34.2319 127.856 33.1196 127.856 31.3599C127.856 29.6084 128.669 28.4961 130.105 28.4961C131.533 28.4961 132.404 29.6084 132.404 31.3682C132.404 33.1196 131.541 34.2319 130.105 34.2319ZM147.8 27.4253H147.924L150.365 36H152.374L155.586 24.022H153.37L151.319 33.0117H151.203L148.812 24.022H146.912L144.554 33.0117H144.43L142.379 24.022H140.146L143.359 36H145.376L147.8 27.4253ZM160.142 36.1826C162.856 36.1826 164.508 34.4062 164.508 31.4595C164.508 28.5293 162.848 26.7529 160.142 26.7529C157.444 26.7529 155.776 28.5376 155.776 31.4595C155.776 34.4062 157.419 36.1826 160.142 36.1826ZM160.142 34.4976C158.706 34.4976 157.884 33.3853 157.884 31.4678C157.884 29.5503 158.706 28.438 160.142 28.438C161.57 28.438 162.391 29.5503 162.391 31.4678C162.391 33.3853 161.578 34.4976 160.142 34.4976ZM174.078 26.9272H172.019V32.2148C172.019 33.5845 171.288 34.4146 169.952 34.4146C168.724 34.4146 168.151 33.7339 168.151 32.3228V26.9272H166.092V32.8208C166.092 34.9458 167.254 36.1826 169.238 36.1826C170.624 36.1826 171.513 35.5933 171.953 34.5557H172.094V36H174.078V26.9272ZM176.276 36H178.335V23.416H176.276V36ZM183.82 36.1494C185.082 36.1494 186.128 35.5601 186.642 34.564H186.784V36H188.776V23.416H186.717V28.3716H186.576C186.095 27.3755 185.065 26.7778 183.82 26.7778C181.529 26.7778 180.085 28.5874 180.085 31.4595C180.085 34.3398 181.521 36.1494 183.82 36.1494ZM184.459 28.4961C185.87 28.4961 186.742 29.6333 186.742 31.4678C186.742 33.3105 185.879 34.4395 184.459 34.4395C183.048 34.4395 182.193 33.3271 182.193 31.4678C182.193 29.6167 183.056 28.4961 184.459 28.4961ZM202.943 34.1655H197.448V24.022H195.306V36H202.943V34.1655ZM205.672 25.4082C206.353 25.4082 206.909 24.8687 206.909 24.188C206.909 23.5156 206.353 22.9678 205.672 22.9678C205 22.9678 204.444 23.5156 204.444 24.188C204.444 24.8687 205 25.4082 205.672 25.4082ZM204.651 36H206.702V26.9272H204.651V36ZM211.133 30.646H210.992V23.416H208.933V36H210.992V32.8125L211.722 32.082L214.636 36H217.126L213.258 30.8203L216.877 26.9272H214.486L211.133 30.646ZM223.724 33.5181C223.425 34.1987 222.72 34.5806 221.699 34.5806C220.346 34.5806 219.474 33.6177 219.424 32.082V31.9741H225.766V31.3184C225.766 28.4712 224.214 26.7529 221.624 26.7529C218.993 26.7529 217.357 28.5874 217.357 31.501C217.357 34.4062 218.968 36.1826 221.641 36.1826C223.782 36.1826 225.301 35.1533 225.675 33.5181H223.724ZM221.616 28.355C222.852 28.355 223.666 29.2266 223.707 30.6045H219.432C219.524 29.2432 220.387 28.355 221.616 28.355ZM232.205 24.7026V26.9854H230.769V28.5874H232.205V33.5928C232.205 35.3442 233.035 36.0415 235.118 36.0415C235.517 36.0415 235.899 36.0083 236.198 35.9502V34.373C235.949 34.3979 235.791 34.4146 235.5 34.4146C234.637 34.4146 234.255 34.0078 234.255 33.103V28.5874H236.198V26.9854H234.255V24.7026H232.205ZM241.683 36.1826C244.397 36.1826 246.049 34.4062 246.049 31.4595C246.049 28.5293 244.389 26.7529 241.683 26.7529C238.985 26.7529 237.317 28.5376 237.317 31.4595C237.317 34.4062 238.96 36.1826 241.683 36.1826ZM241.683 34.4976C240.247 34.4976 239.425 33.3853 239.425 31.4678C239.425 29.5503 240.247 28.438 241.683 28.438C243.111 28.438 243.933 29.5503 243.933 31.4678C243.933 33.3853 243.119 34.4976 241.683 34.4976ZM64.9729 58H67.2722L63.0139 46.022H60.6067L56.3567 58H58.5232L59.5525 54.9038H63.9602L64.9729 58ZM61.6941 48.2715H61.8352L63.4621 53.252H60.0505L61.6941 48.2715ZM76.0532 51.957C75.8373 50.0811 74.4262 48.7529 72.0937 48.7529C69.3627 48.7529 67.7607 50.5044 67.7607 53.4429C67.7607 56.4146 69.371 58.1826 72.102 58.1826C74.4013 58.1826 75.829 56.9043 76.0532 55.0283H74.0942C73.8784 55.9829 73.1645 56.4893 72.0937 56.4893C70.6909 56.4893 69.8442 55.3687 69.8442 53.4429C69.8442 51.5503 70.6826 50.438 72.0937 50.438C73.2226 50.438 73.9033 51.0771 74.0942 51.957H76.0532ZM85.4567 51.957C85.2409 50.0811 83.8297 48.7529 81.4972 48.7529C78.7663 48.7529 77.1642 50.5044 77.1642 53.4429C77.1642 56.4146 78.7746 58.1826 81.5055 58.1826C83.8048 58.1826 85.2326 56.9043 85.4567 55.0283H83.4977C83.2819 55.9829 82.568 56.4893 81.4972 56.4893C80.0944 56.4893 79.2477 55.3687 79.2477 53.4429C79.2477 51.5503 80.0861 50.438 81.4972 50.438C82.6261 50.438 83.3068 51.0771 83.4977 51.957H85.4567ZM92.9344 55.5181C92.6356 56.1987 91.93 56.5806 90.909 56.5806C89.556 56.5806 88.6844 55.6177 88.6346 54.082V53.9741H94.9764V53.3184C94.9764 50.4712 93.4242 48.7529 90.8343 48.7529C88.203 48.7529 86.5677 50.5874 86.5677 53.501C86.5677 56.4062 88.1781 58.1826 90.8509 58.1826C92.9925 58.1826 94.5116 57.1533 94.8851 55.5181H92.9344ZM90.826 50.355C92.0629 50.355 92.8763 51.2266 92.9178 52.6045H88.6429C88.7342 51.2432 89.5975 50.355 90.826 50.355ZM96.4278 51.5171C96.4278 52.8784 97.2496 53.6753 98.9927 54.0737L100.603 54.4473C101.466 54.6465 101.857 54.9785 101.857 55.4932C101.857 56.1821 101.134 56.6553 100.097 56.6553C99.0674 56.6553 98.4283 56.2402 98.2291 55.5679H96.1954C96.3531 57.2031 97.7808 58.1826 100.047 58.1826C102.313 58.1826 103.915 57.0288 103.915 55.2939C103.915 53.9575 103.11 53.2188 101.375 52.8203L99.773 52.4634C98.8599 52.2476 98.4283 51.9238 98.4283 51.4092C98.4283 50.7368 99.1339 50.2803 100.072 50.2803C101.035 50.2803 101.641 50.6953 101.79 51.3345H103.724C103.575 49.6992 102.222 48.7529 100.064 48.7529C97.9219 48.7529 96.4278 49.8901 96.4278 51.5171ZM105.217 51.5171C105.217 52.8784 106.039 53.6753 107.782 54.0737L109.392 54.4473C110.256 54.6465 110.646 54.9785 110.646 55.4932C110.646 56.1821 109.924 56.6553 108.886 56.6553C107.857 56.6553 107.218 56.2402 107.018 55.5679H104.985C105.142 57.2031 106.57 58.1826 108.836 58.1826C111.102 58.1826 112.704 57.0288 112.704 55.2939C112.704 53.9575 111.899 53.2188 110.164 52.8203L108.562 52.4634C107.649 52.2476 107.218 51.9238 107.218 51.4092C107.218 50.7368 107.923 50.2803 108.861 50.2803C109.824 50.2803 110.43 50.6953 110.579 51.3345H112.513C112.364 49.6992 111.011 48.7529 108.853 48.7529C106.711 48.7529 105.217 49.8901 105.217 51.5171ZM124.174 58V53.2769L128.374 46.022H126.025L123.177 51.1602H123.036L120.181 46.022H117.832L122.032 53.2769V58H124.174ZM132.191 58.1826C134.905 58.1826 136.557 56.4062 136.557 53.4595C136.557 50.5293 134.897 48.7529 132.191 48.7529C129.493 48.7529 127.825 50.5376 127.825 53.4595C127.825 56.4062 129.468 58.1826 132.191 58.1826ZM132.191 56.4976C130.755 56.4976 129.933 55.3853 129.933 53.4678C129.933 51.5503 130.755 50.438 132.191 50.438C133.619 50.438 134.44 51.5503 134.44 53.4678C134.44 55.3853 133.627 56.4976 132.191 56.4976ZM146.127 48.9272H144.068V54.2148C144.068 55.5845 143.338 56.4146 142.001 56.4146C140.773 56.4146 140.2 55.7339 140.2 54.3228V48.9272H138.141V54.8208C138.141 56.9458 139.303 58.1826 141.287 58.1826C142.673 58.1826 143.562 57.5933 144.002 56.5557H144.143V58H146.127V48.9272ZM148.242 58H150.301V52.729C150.301 51.4507 151.23 50.6206 152.567 50.6206C152.915 50.6206 153.463 50.6787 153.621 50.7368V48.8608C153.43 48.811 153.065 48.7778 152.766 48.7778C151.596 48.7778 150.616 49.4419 150.367 50.3384H150.226V48.9272H148.242V58ZM159.246 46.022V58H161.388V54.0405H163.986C166.41 54.0405 168.103 52.4219 168.103 50.0562C168.103 47.6489 166.468 46.022 164.077 46.022H159.246ZM161.388 47.7734H163.513C165.057 47.7734 165.928 48.5703 165.928 50.0562C165.928 51.5005 165.032 52.314 163.505 52.314H161.388V47.7734ZM169.928 58H171.987V52.729C171.987 51.4009 172.742 50.5127 174.095 50.5127C175.29 50.5127 175.921 51.2266 175.921 52.6294V58H177.98V52.1479C177.98 49.9897 176.801 48.7612 174.859 48.7612C173.506 48.7612 172.535 49.3755 172.103 50.3965H171.954V45.416H169.928V58ZM183.93 58.1826C186.645 58.1826 188.297 56.4062 188.297 53.4595C188.297 50.5293 186.636 48.7529 183.93 48.7529C181.233 48.7529 179.564 50.5376 179.564 53.4595C179.564 56.4062 181.208 58.1826 183.93 58.1826ZM183.93 56.4976C182.494 56.4976 181.673 55.3853 181.673 53.4678C181.673 51.5503 182.494 50.438 183.93 50.438C185.358 50.438 186.18 51.5503 186.18 53.4678C186.18 55.3853 185.366 56.4976 183.93 56.4976ZM190.619 46.7026V48.9854H189.183V50.5874H190.619V55.5928C190.619 57.3442 191.45 58.0415 193.533 58.0415C193.932 58.0415 194.313 58.0083 194.612 57.9502V56.373C194.363 56.3979 194.205 56.4146 193.915 56.4146C193.052 56.4146 192.67 56.0078 192.67 55.103V50.5874H194.612V48.9854H192.67V46.7026H190.619ZM200.098 58.1826C202.812 58.1826 204.464 56.4062 204.464 53.4595C204.464 50.5293 202.804 48.7529 200.098 48.7529C197.4 48.7529 195.732 50.5376 195.732 53.4595C195.732 56.4062 197.375 58.1826 200.098 58.1826ZM200.098 56.4976C198.662 56.4976 197.84 55.3853 197.84 53.4678C197.84 51.5503 198.662 50.438 200.098 50.438C201.525 50.438 202.347 51.5503 202.347 53.4678C202.347 55.3853 201.534 56.4976 200.098 56.4976ZM205.924 51.5171C205.924 52.8784 206.745 53.6753 208.489 54.0737L210.099 54.4473C210.962 54.6465 211.352 54.9785 211.352 55.4932C211.352 56.1821 210.63 56.6553 209.593 56.6553C208.563 56.6553 207.924 56.2402 207.725 55.5679H205.691C205.849 57.2031 207.277 58.1826 209.543 58.1826C211.809 58.1826 213.411 57.0288 213.411 55.2939C213.411 53.9575 212.606 53.2188 210.871 52.8203L209.269 52.4634C208.356 52.2476 207.924 51.9238 207.924 51.4092C207.924 50.7368 208.63 50.2803 209.568 50.2803C210.531 50.2803 211.136 50.6953 211.286 51.3345H213.22C213.071 49.6992 211.718 48.7529 209.559 48.7529C207.418 48.7529 205.924 49.8901 205.924 51.5171Z" fill="white"/>
<path d="M45.2117 69.8403V79H46.3543V75.731H48.6585C50.3787 75.731 51.6038 74.5186 51.6038 72.8047C51.6038 71.0591 50.4041 69.8403 48.6712 69.8403H45.2117ZM46.3543 70.856H48.3728C49.6995 70.856 50.4295 71.5479 50.4295 72.8047C50.4295 74.0171 49.6741 74.7153 48.3728 74.7153H46.3543V70.856ZM53.3222 79H54.414V74.9502C54.414 73.7949 55.0868 73.0205 56.3119 73.0205C57.3466 73.0205 57.8925 73.6235 57.8925 74.8359V79H58.9843V74.5693C58.9843 72.9634 58.0702 72.0366 56.623 72.0366C55.5756 72.0366 54.8583 72.481 54.5155 73.2363H54.414V69.4404H53.3222V79ZM63.7115 79.1206C65.6602 79.1206 66.8662 77.7749 66.8662 75.5786C66.8662 73.376 65.6602 72.0366 63.7115 72.0366C61.7627 72.0366 60.5567 73.376 60.5567 75.5786C60.5567 77.7749 61.7627 79.1206 63.7115 79.1206ZM63.7115 78.1367C62.4165 78.1367 61.6866 77.1973 61.6866 75.5786C61.6866 73.9536 62.4165 73.0205 63.7115 73.0205C65.0064 73.0205 65.7364 73.9536 65.7364 75.5786C65.7364 77.1973 65.0064 78.1367 63.7115 78.1367ZM68.9591 70.3862V72.1572H67.8546V73.0713H68.9591V77.2227C68.9591 78.5303 69.5241 79.0508 70.9333 79.0508C71.1491 79.0508 71.3586 79.0254 71.5744 78.9873V78.0669C71.3712 78.0859 71.2633 78.0923 71.0666 78.0923C70.3556 78.0923 70.0509 77.7495 70.0509 76.9434V73.0713H71.5744V72.1572H70.0509V70.3862H68.9591ZM75.8572 79.1206C77.8059 79.1206 79.012 77.7749 79.012 75.5786C79.012 73.376 77.8059 72.0366 75.8572 72.0366C73.9085 72.0366 72.7024 73.376 72.7024 75.5786C72.7024 77.7749 73.9085 79.1206 75.8572 79.1206ZM75.8572 78.1367C74.5623 78.1367 73.8323 77.1973 73.8323 75.5786C73.8323 73.9536 74.5623 73.0205 75.8572 73.0205C77.1521 73.0205 77.8821 73.9536 77.8821 75.5786C77.8821 77.1973 77.1521 78.1367 75.8572 78.1367ZM89.939 77.9717H85.521V69.8403H84.3785V79H89.939V77.9717ZM92.1208 70.8369C92.5397 70.8369 92.8825 70.4941 92.8825 70.0752C92.8825 69.6562 92.5397 69.3135 92.1208 69.3135C91.7018 69.3135 91.3591 69.6562 91.3591 70.0752C91.3591 70.4941 91.7018 70.8369 92.1208 70.8369ZM91.5749 79H92.6667V72.1572H91.5749V79ZM98.073 79.1206C99.806 79.1206 100.942 77.7178 100.942 75.5786C100.942 73.4268 99.8123 72.0366 98.073 72.0366C97.1336 72.0366 96.302 72.5 95.9275 73.2363H95.826V69.4404H94.7342V79H95.7752V77.9082H95.8768C96.3084 78.6699 97.1209 79.1206 98.073 79.1206ZM97.8191 73.0205C99.0696 73.0205 99.8123 73.979 99.8123 75.5786C99.8123 77.1782 99.0696 78.1367 97.8191 78.1367C96.575 78.1367 95.8006 77.1592 95.8006 75.5786C95.8006 73.998 96.575 73.0205 97.8191 73.0205ZM102.578 79H103.67V74.7598C103.67 73.7949 104.425 73.0967 105.466 73.0967C105.682 73.0967 106.076 73.1348 106.164 73.1602V72.0684C106.025 72.0493 105.796 72.0366 105.619 72.0366C104.711 72.0366 103.924 72.5063 103.721 73.1729H103.619V72.1572H102.578V79ZM109.356 79.1206C110.27 79.1206 111.019 78.7207 111.463 77.9907H111.565V79H112.606V74.3154C112.606 72.8936 111.672 72.0366 110.003 72.0366C108.543 72.0366 107.464 72.7603 107.318 73.8584H108.422C108.575 73.3188 109.146 73.0078 109.965 73.0078C110.987 73.0078 111.514 73.4712 111.514 74.3154V74.9375L109.54 75.0581C107.946 75.1533 107.045 75.8579 107.045 77.083C107.045 78.3335 108.029 79.1206 109.356 79.1206ZM109.559 78.1621C108.765 78.1621 108.175 77.7559 108.175 77.0576C108.175 76.3721 108.632 76.0103 109.673 75.9404L111.514 75.8198V76.4482C111.514 77.4258 110.682 78.1621 109.559 78.1621ZM114.546 79H115.638V74.7598C115.638 73.7949 116.393 73.0967 117.434 73.0967C117.65 73.0967 118.044 73.1348 118.132 73.1602V72.0684C117.993 72.0493 117.764 72.0366 117.587 72.0366C116.679 72.0366 115.892 72.5063 115.689 73.1729H115.587V72.1572H114.546V79ZM120.003 81.4756C121.216 81.4756 121.762 81.0059 122.346 79.4189L125.018 72.1572H123.856L121.984 77.7876H121.882L120.003 72.1572H118.823L121.355 79.0063L121.228 79.4126C120.943 80.2378 120.6 80.5361 119.971 80.5361C119.819 80.5361 119.648 80.5298 119.514 80.5044V81.4375C119.667 81.4629 119.857 81.4756 120.003 81.4756ZM136.085 79H137.284L133.907 69.8403H132.777L129.4 79H130.6L131.521 76.3784H135.164L136.085 79ZM133.292 71.3193H133.393L134.828 75.4072H131.857L133.292 71.3193ZM143.954 74.252C143.763 73.0332 142.748 72.0366 141.085 72.0366C139.168 72.0366 137.949 73.4204 137.949 75.5532C137.949 77.7305 139.174 79.1206 141.091 79.1206C142.735 79.1206 143.757 78.1938 143.954 76.937H142.849C142.646 77.7114 142.005 78.1367 141.085 78.1367C139.866 78.1367 139.079 77.1338 139.079 75.5532C139.079 74.0044 139.853 73.0205 141.085 73.0205C142.069 73.0205 142.672 73.5728 142.849 74.252H143.954ZM151.15 74.252C150.96 73.0332 149.944 72.0366 148.281 72.0366C146.364 72.0366 145.145 73.4204 145.145 75.5532C145.145 77.7305 146.37 79.1206 148.287 79.1206C149.931 79.1206 150.953 78.1938 151.15 76.937H150.046C149.843 77.7114 149.201 78.1367 148.281 78.1367C147.062 78.1367 146.275 77.1338 146.275 75.5532C146.275 74.0044 147.05 73.0205 148.281 73.0205C149.265 73.0205 149.868 73.5728 150.046 74.252H151.15ZM157.217 77.229C156.931 77.832 156.334 78.1558 155.452 78.1558C154.29 78.1558 153.535 77.2988 153.478 75.9468V75.896H158.397V75.4771C158.397 73.3506 157.274 72.0366 155.427 72.0366C153.548 72.0366 152.342 73.4331 152.342 75.585C152.342 77.7495 153.529 79.1206 155.427 79.1206C156.925 79.1206 157.991 78.397 158.309 77.229H157.217ZM155.414 73.0015C156.499 73.0015 157.223 73.8013 157.248 75.0137H153.478C153.561 73.8013 154.322 73.0015 155.414 73.0015ZM159.875 74.0298C159.875 75.02 160.459 75.5723 161.741 75.8833L162.915 76.1689C163.645 76.3467 164.001 76.6641 164.001 77.1338C164.001 77.7622 163.34 78.2002 162.42 78.2002C161.544 78.2002 160.998 77.832 160.814 77.2544H159.691C159.811 78.3906 160.858 79.1206 162.382 79.1206C163.937 79.1206 165.124 78.2764 165.124 77.0513C165.124 76.0674 164.502 75.5088 163.213 75.1978L162.16 74.9438C161.354 74.7471 160.973 74.4551 160.973 73.9854C160.973 73.376 161.607 72.9634 162.42 72.9634C163.245 72.9634 163.778 73.3252 163.924 73.8711H165.003C164.857 72.7476 163.861 72.0366 162.426 72.0366C160.973 72.0366 159.875 72.8936 159.875 74.0298ZM166.474 74.0298C166.474 75.02 167.058 75.5723 168.341 75.8833L169.515 76.1689C170.245 76.3467 170.6 76.6641 170.6 77.1338C170.6 77.7622 169.94 78.2002 169.02 78.2002C168.144 78.2002 167.598 77.832 167.414 77.2544H166.29C166.411 78.3906 167.458 79.1206 168.982 79.1206C170.537 79.1206 171.724 78.2764 171.724 77.0513C171.724 76.0674 171.102 75.5088 169.813 75.1978L168.759 74.9438C167.953 74.7471 167.572 74.4551 167.572 73.9854C167.572 73.376 168.207 72.9634 169.02 72.9634C169.845 72.9634 170.378 73.3252 170.524 73.8711H171.603C171.457 72.7476 170.461 72.0366 169.026 72.0366C167.572 72.0366 166.474 72.8936 166.474 74.0298ZM182.175 71.77H182.251L184.358 79H185.437L187.932 69.8403H186.739L184.917 77.2861H184.841L182.79 69.8403H181.635L179.585 77.2861H179.509L177.687 69.8403H176.494L178.988 79H180.067L182.175 71.77ZM190.723 79.1206C191.637 79.1206 192.386 78.7207 192.831 77.9907H192.932V79H193.973V74.3154C193.973 72.8936 193.04 72.0366 191.371 72.0366C189.911 72.0366 188.832 72.7603 188.686 73.8584H189.79C189.942 73.3188 190.514 73.0078 191.333 73.0078C192.355 73.0078 192.881 73.4712 192.881 74.3154V74.9375L190.907 75.0581C189.314 75.1533 188.413 75.8579 188.413 77.083C188.413 78.3335 189.397 79.1206 190.723 79.1206ZM190.926 78.1621C190.133 78.1621 189.543 77.7559 189.543 77.0576C189.543 76.3721 190 76.0103 191.041 75.9404L192.881 75.8198V76.4482C192.881 77.4258 192.05 78.1621 190.926 78.1621ZM195.914 79H197.006V74.7598C197.006 73.7949 197.761 73.0967 198.802 73.0967C199.018 73.0967 199.411 73.1348 199.5 73.1602V72.0684C199.361 72.0493 199.132 72.0366 198.954 72.0366C198.047 72.0366 197.259 72.5063 197.056 73.1729H196.955V72.1572H195.914V79ZM200.914 79H202.006V74.9502C202.006 73.7505 202.71 73.0205 203.802 73.0205C204.894 73.0205 205.414 73.6045 205.414 74.8359V79H206.506V74.5693C206.506 72.9443 205.649 72.0366 204.113 72.0366C203.066 72.0366 202.399 72.481 202.056 73.2363H201.955V72.1572H200.914V79ZM208.999 70.8369C209.418 70.8369 209.761 70.4941 209.761 70.0752C209.761 69.6562 209.418 69.3135 208.999 69.3135C208.58 69.3135 208.237 69.6562 208.237 70.0752C208.237 70.4941 208.58 70.8369 208.999 70.8369ZM208.453 79H209.545V72.1572H208.453V79ZM211.549 79H212.641V74.9502C212.641 73.7505 213.345 73.0205 214.437 73.0205C215.529 73.0205 216.049 73.6045 216.049 74.8359V79H217.141V74.5693C217.141 72.9443 216.284 72.0366 214.748 72.0366C213.701 72.0366 213.034 72.481 212.691 73.2363H212.59V72.1572H211.549V79ZM221.881 81.6279C223.747 81.6279 224.928 80.6504 224.928 79.1206V72.1572H223.887V73.2427H223.785C223.392 72.5063 222.548 72.0366 221.589 72.0366C219.831 72.0366 218.72 73.4268 218.72 75.4771C218.72 77.5273 219.818 78.8984 221.589 78.8984C222.529 78.8984 223.303 78.4731 223.735 77.7178H223.836V79.0635C223.836 80.0728 223.106 80.6758 221.881 80.6758C220.897 80.6758 220.288 80.314 220.167 79.7554H219.012C219.177 80.8853 220.231 81.6279 221.881 81.6279ZM221.83 77.9336C220.561 77.9336 219.85 76.9688 219.85 75.4771C219.85 73.9854 220.561 73.0205 221.83 73.0205C223.093 73.0205 223.862 73.9854 223.862 75.4771C223.862 76.9688 223.1 77.9336 221.83 77.9336Z" fill="white"/>
<path fill-rule="evenodd" clip-rule="evenodd" d="M0 102H270V146H0V102Z" fill="#1E1E1E" fill-opacity="0.75"/>
<rect y="102" width="270" height="0.5" fill="#545458" fill-opacity="0.65"/>
<path d="M72.7412 126.754C72.8491 128.921 74.6669 130.299 77.4145 130.299C80.3198 130.299 82.121 128.854 82.121 126.53C82.121 124.712 81.1 123.7 78.6679 123.144L77.29 122.828C75.8041 122.479 75.1982 122.006 75.1982 121.185C75.1982 120.147 76.1113 119.466 77.4892 119.466C78.8007 119.466 79.7304 120.139 79.8798 121.209H81.9301C81.8305 119.159 80.0126 117.723 77.4975 117.723C74.8163 117.723 73.04 119.167 73.04 121.326C73.04 123.102 74.061 124.173 76.2358 124.671L77.788 125.028C79.3237 125.385 79.9794 125.916 79.9794 126.788C79.9794 127.809 78.9584 128.547 77.5473 128.547C76.0283 128.547 74.9658 127.85 74.833 126.754H72.7412ZM89.8229 127.518C89.5241 128.199 88.8185 128.581 87.7975 128.581C86.4445 128.581 85.5729 127.618 85.5231 126.082V125.974H91.8649V125.318C91.8649 122.471 90.3126 120.753 87.7228 120.753C85.0915 120.753 83.4562 122.587 83.4562 125.501C83.4562 128.406 85.0666 130.183 87.7394 130.183C89.881 130.183 91.4 129.153 91.7736 127.518H89.8229ZM87.7145 122.355C88.9513 122.355 89.7648 123.227 89.8063 124.604H85.5314C85.6227 123.243 86.486 122.355 87.7145 122.355ZM93.6068 130H95.6654V117.416H93.6068V130ZM103.782 127.518C103.483 128.199 102.778 128.581 101.757 128.581C100.404 128.581 99.5323 127.618 99.4825 126.082V125.974H105.824V125.318C105.824 122.471 104.272 120.753 101.682 120.753C99.0508 120.753 97.4156 122.587 97.4156 125.501C97.4156 128.406 99.0259 130.183 101.699 130.183C103.84 130.183 105.359 129.153 105.733 127.518H103.782ZM101.674 122.355C102.911 122.355 103.724 123.227 103.766 124.604H99.4908C99.5821 123.243 100.445 122.355 101.674 122.355ZM115.327 123.957C115.112 122.081 113.7 120.753 111.368 120.753C108.637 120.753 107.035 122.504 107.035 125.443C107.035 128.415 108.645 130.183 111.376 130.183C113.676 130.183 115.103 128.904 115.327 127.028H113.368C113.153 127.983 112.439 128.489 111.368 128.489C109.965 128.489 109.118 127.369 109.118 125.443C109.118 123.55 109.957 122.438 111.368 122.438C112.497 122.438 113.178 123.077 113.368 123.957H115.327ZM117.659 118.703V120.985H116.223V122.587H117.659V127.593C117.659 129.344 118.489 130.042 120.572 130.042C120.971 130.042 121.353 130.008 121.651 129.95V128.373C121.402 128.398 121.245 128.415 120.954 128.415C120.091 128.415 119.709 128.008 119.709 127.103V122.587H121.651V120.985H119.709V118.703H117.659ZM127.642 118.022V130H129.784V126.041H132.382C134.806 126.041 136.499 124.422 136.499 122.056C136.499 119.649 134.864 118.022 132.473 118.022H127.642ZM129.784 119.773H131.909C133.453 119.773 134.324 120.57 134.324 122.056C134.324 123.5 133.428 124.314 131.9 124.314H129.784V119.773ZM138.324 130H140.382V124.729C140.382 123.401 141.138 122.513 142.491 122.513C143.686 122.513 144.317 123.227 144.317 124.629V130H146.376V124.148C146.376 121.99 145.197 120.761 143.255 120.761C141.901 120.761 140.93 121.375 140.499 122.396H140.349V117.416H138.324V130ZM152.326 130.183C155.04 130.183 156.692 128.406 156.692 125.459C156.692 122.529 155.032 120.753 152.326 120.753C149.628 120.753 147.96 122.538 147.96 125.459C147.96 128.406 149.603 130.183 152.326 130.183ZM152.326 128.498C150.89 128.498 150.068 127.385 150.068 125.468C150.068 123.55 150.89 122.438 152.326 122.438C153.754 122.438 154.576 123.55 154.576 125.468C154.576 127.385 153.762 128.498 152.326 128.498ZM159.015 118.703V120.985H157.579V122.587H159.015V127.593C159.015 129.344 159.845 130.042 161.929 130.042C162.327 130.042 162.709 130.008 163.008 129.95V128.373C162.759 128.398 162.601 128.415 162.311 128.415C161.447 128.415 161.065 128.008 161.065 127.103V122.587H163.008V120.985H161.065V118.703H159.015ZM168.493 130.183C171.208 130.183 172.86 128.406 172.86 125.459C172.86 122.529 171.199 120.753 168.493 120.753C165.796 120.753 164.127 122.538 164.127 125.459C164.127 128.406 165.771 130.183 168.493 130.183ZM168.493 128.498C167.057 128.498 166.236 127.385 166.236 125.468C166.236 123.55 167.057 122.438 168.493 122.438C169.921 122.438 170.743 123.55 170.743 125.468C170.743 127.385 169.929 128.498 168.493 128.498ZM174.319 123.517C174.319 124.878 175.141 125.675 176.884 126.074L178.495 126.447C179.358 126.646 179.748 126.979 179.748 127.493C179.748 128.182 179.026 128.655 177.988 128.655C176.959 128.655 176.32 128.24 176.121 127.568H174.087C174.245 129.203 175.672 130.183 177.938 130.183C180.205 130.183 181.807 129.029 181.807 127.294C181.807 125.958 181.001 125.219 179.267 124.82L177.664 124.463C176.751 124.248 176.32 123.924 176.32 123.409C176.32 122.737 177.025 122.28 177.963 122.28C178.926 122.28 179.532 122.695 179.682 123.334H181.616C181.466 121.699 180.113 120.753 177.955 120.753C175.813 120.753 174.319 121.89 174.319 123.517ZM185.018 130.166C185.806 130.166 186.346 129.61 186.346 128.871C186.346 128.141 185.806 127.584 185.018 127.584C184.237 127.584 183.69 128.141 183.69 128.871C183.69 129.61 184.237 130.166 185.018 130.166ZM190.204 130.166C190.993 130.166 191.533 129.61 191.533 128.871C191.533 128.141 190.993 127.584 190.204 127.584C189.424 127.584 188.876 128.141 188.876 128.871C188.876 129.61 189.424 130.166 190.204 130.166ZM195.391 130.166C196.18 130.166 196.719 129.61 196.719 128.871C196.719 128.141 196.18 127.584 195.391 127.584C194.611 127.584 194.063 128.141 194.063 128.871C194.063 129.61 194.611 130.166 195.391 130.166Z" fill="#0A84FF"/>
<path fill-rule="evenodd" clip-rule="evenodd" d="M0 146H270V190H0V146Z" fill="#1E1E1E" fill-opacity="0.75"/>
<rect y="146" width="270" height="0.5" fill="#545458" fill-opacity="0.65"/>
<path d="M43.6864 174H45.2553L40.8393 162.022H39.3617L34.9457 174H36.5145L37.7182 170.572H42.4828L43.6864 174ZM40.0341 163.956H40.1669L42.0429 169.302H38.1581L40.0341 163.956ZM46.8478 174H48.2755V161.499H46.8478V174ZM50.723 174H52.1507V161.499H50.723V174ZM58.1924 174.158C60.7407 174.158 62.3179 172.398 62.3179 169.526C62.3179 166.646 60.7407 164.894 58.1924 164.894C55.6441 164.894 54.0669 166.646 54.0669 169.526C54.0669 172.398 55.6441 174.158 58.1924 174.158ZM58.1924 172.871C56.499 172.871 55.5445 171.643 55.5445 169.526C55.5445 167.401 56.499 166.181 58.1924 166.181C59.8858 166.181 60.8404 167.401 60.8404 169.526C60.8404 171.643 59.8858 172.871 58.1924 172.871ZM75.0749 165.052H73.6389L71.8791 172.207H71.7463L69.7458 165.052H68.3762L66.3757 172.207H66.2429L64.4831 165.052H63.0388L65.5456 174H66.99L68.9822 167.077H69.115L71.1155 174H72.5681L75.0749 165.052ZM88.9347 174H90.5036L86.0875 162.022H84.61L80.194 174H81.7628L82.9665 170.572H87.7311L88.9347 174ZM85.2824 163.956H85.4152L87.2912 169.302H83.4064L85.2824 163.956ZM98.9193 167.791C98.6703 166.197 97.3421 164.894 95.1673 164.894C92.6605 164.894 91.0668 166.704 91.0668 169.493C91.0668 172.34 92.6688 174.158 95.1756 174.158C97.3255 174.158 98.662 172.946 98.9193 171.302H97.475C97.2093 172.315 96.371 172.871 95.1673 172.871C93.5736 172.871 92.5443 171.56 92.5443 169.493C92.5443 167.467 93.557 166.181 95.1673 166.181C96.454 166.181 97.2425 166.903 97.475 167.791H98.9193ZM108.024 167.791C107.775 166.197 106.447 164.894 104.272 164.894C101.765 164.894 100.171 166.704 100.171 169.493C100.171 172.34 101.773 174.158 104.28 174.158C106.43 174.158 107.767 172.946 108.024 171.302H106.58C106.314 172.315 105.476 172.871 104.272 172.871C102.678 172.871 101.649 171.56 101.649 169.493C101.649 167.467 102.662 166.181 104.272 166.181C105.559 166.181 106.347 166.903 106.58 167.791H108.024ZM115.651 171.684C115.278 172.473 114.497 172.896 113.344 172.896C111.824 172.896 110.837 171.775 110.762 170.007V169.941H117.195V169.393C117.195 166.612 115.726 164.894 113.31 164.894C110.853 164.894 109.276 166.72 109.276 169.534C109.276 172.365 110.828 174.158 113.31 174.158C115.269 174.158 116.664 173.211 117.079 171.684H115.651ZM113.294 166.156C114.713 166.156 115.659 167.202 115.693 168.787H110.762C110.87 167.202 111.866 166.156 113.294 166.156ZM118.821 167.5C118.821 168.795 119.584 169.518 121.261 169.924L122.797 170.298C123.751 170.53 124.216 170.945 124.216 171.56C124.216 172.381 123.353 172.954 122.149 172.954C121.004 172.954 120.29 172.473 120.049 171.717H118.58C118.738 173.203 120.107 174.158 122.1 174.158C124.133 174.158 125.686 173.054 125.686 171.452C125.686 170.165 124.872 169.435 123.187 169.028L121.809 168.696C120.755 168.438 120.257 168.057 120.257 167.442C120.257 166.646 121.087 166.106 122.149 166.106C123.228 166.106 123.926 166.579 124.117 167.293H125.528C125.337 165.824 124.034 164.894 122.158 164.894C120.257 164.894 118.821 166.015 118.821 167.5ZM127.145 167.5C127.145 168.795 127.909 169.518 129.586 169.924L131.121 170.298C132.076 170.53 132.541 170.945 132.541 171.56C132.541 172.381 131.677 172.954 130.474 172.954C129.328 172.954 128.614 172.473 128.374 171.717H126.904C127.062 173.203 128.432 174.158 130.424 174.158C132.458 174.158 134.01 173.054 134.01 171.452C134.01 170.165 133.196 169.435 131.511 169.028L130.133 168.696C129.079 168.438 128.581 168.057 128.581 167.442C128.581 166.646 129.411 166.106 130.474 166.106C131.553 166.106 132.25 166.579 132.441 167.293H133.852C133.661 165.824 132.358 164.894 130.482 164.894C128.581 164.894 127.145 166.015 127.145 167.5ZM140.831 162.736V165.052H139.386V166.247H140.831V171.676C140.831 173.386 141.569 174.066 143.412 174.066C143.694 174.066 143.968 174.033 144.251 173.983V172.78C143.985 172.805 143.844 172.813 143.587 172.813C142.657 172.813 142.258 172.365 142.258 171.311V166.247H144.251V165.052H142.258V162.736H140.831ZM149.545 174.158C152.094 174.158 153.671 172.398 153.671 169.526C153.671 166.646 152.094 164.894 149.545 164.894C146.997 164.894 145.42 166.646 145.42 169.526C145.42 172.398 146.997 174.158 149.545 174.158ZM149.545 172.871C147.852 172.871 146.897 171.643 146.897 169.526C146.897 167.401 147.852 166.181 149.545 166.181C151.239 166.181 152.193 167.401 152.193 169.526C152.193 171.643 151.239 172.871 149.545 172.871ZM167.863 174H169.431L165.015 162.022H163.538L159.122 174H160.691L161.894 170.572H166.659L167.863 174ZM164.21 163.956H164.343L166.219 169.302H162.334L164.21 163.956ZM171.024 174H172.452V161.499H171.024V174ZM174.899 174H176.327V161.499H174.899V174ZM183.264 162.022V174H184.758V169.725H187.771C190.021 169.725 191.623 168.14 191.623 165.898C191.623 163.616 190.054 162.022 187.788 162.022H183.264ZM184.758 163.35H187.398C189.132 163.35 190.087 164.255 190.087 165.898C190.087 167.484 189.099 168.397 187.398 168.397H184.758V163.35ZM193.564 174H194.991V168.704C194.991 167.193 195.871 166.181 197.473 166.181C198.826 166.181 199.54 166.969 199.54 168.555V174H200.968V168.206C200.968 166.106 199.773 164.894 197.88 164.894C196.511 164.894 195.573 165.475 195.124 166.463H194.991V161.499H193.564V174ZM206.844 174.158C209.392 174.158 210.969 172.398 210.969 169.526C210.969 166.646 209.392 164.894 206.844 164.894C204.295 164.894 202.718 166.646 202.718 169.526C202.718 172.398 204.295 174.158 206.844 174.158ZM206.844 172.871C205.15 172.871 204.196 171.643 204.196 169.526C204.196 167.401 205.15 166.181 206.844 166.181C208.537 166.181 209.492 167.401 209.492 169.526C209.492 171.643 208.537 172.871 206.844 172.871ZM213.4 162.736V165.052H211.956V166.247H213.4V171.676C213.4 173.386 214.139 174.066 215.982 174.066C216.264 174.066 216.538 174.033 216.82 173.983V172.78C216.554 172.805 216.413 172.813 216.156 172.813C215.226 172.813 214.828 172.365 214.828 171.311V166.247H216.82V165.052H214.828V162.736H213.4ZM222.115 174.158C224.663 174.158 226.24 172.398 226.24 169.526C226.24 166.646 224.663 164.894 222.115 164.894C219.566 164.894 217.989 166.646 217.989 169.526C217.989 172.398 219.566 174.158 222.115 174.158ZM222.115 172.871C220.421 172.871 219.467 171.643 219.467 169.526C219.467 167.401 220.421 166.181 222.115 166.181C223.808 166.181 224.763 167.401 224.763 169.526C224.763 171.643 223.808 172.871 222.115 172.871ZM227.866 167.5C227.866 168.795 228.629 169.518 230.306 169.924L231.842 170.298C232.796 170.53 233.261 170.945 233.261 171.56C233.261 172.381 232.398 172.954 231.194 172.954C230.049 172.954 229.335 172.473 229.094 171.717H227.625C227.783 173.203 229.152 174.158 231.145 174.158C233.178 174.158 234.731 173.054 234.731 171.452C234.731 170.165 233.917 169.435 232.232 169.028L230.854 168.696C229.8 168.438 229.302 168.057 229.302 167.442C229.302 166.646 230.132 166.106 231.194 166.106C232.274 166.106 232.971 166.579 233.162 167.293H234.573C234.382 165.824 233.079 164.894 231.203 164.894C229.302 164.894 227.866 166.015 227.866 167.5Z" fill="#0A84FF"/>
<path fill-rule="evenodd" clip-rule="evenodd" d="M0 190H270V211.6C270 219.441 270 223.361 268.474 226.356C267.132 228.99 264.99 231.132 262.356 232.474C259.361 234 255.441 234 247.6 234H22.4C14.5593 234 10.6389 234 7.64413 232.474C5.00986 231.132 2.86814 228.99 1.52591 226.356C0 223.361 0 219.441 0 211.6V190Z" fill="#1E1E1E" fill-opacity="0.75"/>
<rect y="190" width="270" height="0.5" fill="#545458" fill-opacity="0.65"/>
<path d="M93.0044 206.022V218H97.1132C100.674 218 102.766 215.784 102.766 212.007C102.766 208.238 100.666 206.022 97.1132 206.022H93.0044ZM94.4985 207.367H97.0136C99.6699 207.367 101.239 209.093 101.239 212.023C101.239 214.945 99.6865 216.655 97.0136 216.655H94.4985V207.367ZM108.443 218.158C110.991 218.158 112.568 216.398 112.568 213.526C112.568 210.646 110.991 208.894 108.443 208.894C105.894 208.894 104.317 210.646 104.317 213.526C104.317 216.398 105.894 218.158 108.443 218.158ZM108.443 216.871C106.749 216.871 105.795 215.643 105.795 213.526C105.795 211.401 106.749 210.181 108.443 210.181C110.136 210.181 111.09 211.401 111.09 213.526C111.09 215.643 110.136 216.871 108.443 216.871ZM114.401 218H115.829V212.704C115.829 211.135 116.75 210.181 118.178 210.181C119.606 210.181 120.286 210.944 120.286 212.555V218H121.714V212.206C121.714 210.081 120.594 208.894 118.585 208.894C117.215 208.894 116.344 209.475 115.895 210.463H115.763V209.052H114.401V218ZM124.809 210.496L126.312 206.022H124.693L123.772 210.496H124.809ZM129.041 206.736V209.052H127.597V210.247H129.041V215.676C129.041 217.386 129.78 218.066 131.623 218.066C131.905 218.066 132.179 218.033 132.461 217.983V216.78C132.196 216.805 132.054 216.813 131.797 216.813C130.867 216.813 130.469 216.365 130.469 215.311V210.247H132.461V209.052H130.469V206.736H129.041ZM146.57 218H148.139L143.723 206.022H142.245L137.829 218H139.398L140.602 214.572H145.366L146.57 218ZM142.918 207.956H143.05L144.926 213.302H141.042L142.918 207.956ZM149.731 218H151.159V205.499H149.731V218ZM153.607 218H155.034V205.499H153.607V218ZM161.076 218.158C163.624 218.158 165.202 216.398 165.202 213.526C165.202 210.646 163.624 208.894 161.076 208.894C158.528 208.894 156.951 210.646 156.951 213.526C156.951 216.398 158.528 218.158 161.076 218.158ZM161.076 216.871C159.383 216.871 158.428 215.643 158.428 213.526C158.428 211.401 159.383 210.181 161.076 210.181C162.769 210.181 163.724 211.401 163.724 213.526C163.724 215.643 162.769 216.871 161.076 216.871ZM177.959 209.052H176.522L174.763 216.207H174.63L172.629 209.052H171.26L169.259 216.207H169.126L167.367 209.052H165.922L168.429 218H169.874L171.866 211.077H171.999L173.999 218H175.452L177.959 209.052Z" fill="#0A84FF"/>
</svg>
