<svg width="16" height="17" viewBox="0 0 16 17" fill="none" xmlns="http://www.w3.org/2000/svg">
<path fill-rule="evenodd" clip-rule="evenodd" d="M0.583313 8.49967C0.583313 4.40356 3.90387 1.08301 7.99998 1.08301C12.0961 1.08301 15.4166 4.40356 15.4166 8.49967C15.4166 12.5958 12.0961 15.9163 7.99998 15.9163C3.90387 15.9163 0.583313 12.5958 0.583313 8.49967ZM11.5303 7.36334C11.8232 7.07044 11.8232 6.59557 11.5303 6.30268C11.2374 6.00978 10.7625 6.00978 10.4696 6.30268L7.33331 9.43901L6.19698 8.30268C5.90408 8.00978 5.42921 8.00978 5.13632 8.30268C4.84342 8.59557 4.84342 9.07045 5.13632 9.36334L6.80298 11.03C6.94363 11.1707 7.1344 11.2497 7.33331 11.2497C7.53223 11.2497 7.72299 11.1707 7.86364 11.03L11.5303 7.36334Z" fill="#3B4BF9"/>
<path fill-rule="evenodd" clip-rule="evenodd" d="M0.583313 8.49967C0.583313 4.40356 3.90387 1.08301 7.99998 1.08301C12.0961 1.08301 15.4166 4.40356 15.4166 8.49967C15.4166 12.5958 12.0961 15.9163 7.99998 15.9163C3.90387 15.9163 0.583313 12.5958 0.583313 8.49967ZM11.5303 7.36334C11.8232 7.07044 11.8232 6.59557 11.5303 6.30268C11.2374 6.00978 10.7625 6.00978 10.4696 6.30268L7.33331 9.43901L6.19698 8.30268C5.90408 8.00978 5.42921 8.00978 5.13632 8.30268C4.84342 8.59557 4.84342 9.07045 5.13632 9.36334L6.80298 11.03C6.94363 11.1707 7.1344 11.2497 7.33331 11.2497C7.53223 11.2497 7.72299 11.1707 7.86364 11.03L11.5303 7.36334Z" fill="white"/>
</svg>
