<svg width="16" height="17" viewBox="0 0 16 17" fill="none" xmlns="http://www.w3.org/2000/svg">
<path fill-rule="evenodd" clip-rule="evenodd" d="M0.583984 8.50004C0.583984 4.40393 3.90454 1.08337 8.00065 1.08337C12.0968 1.08337 15.4173 4.40393 15.4173 8.50004C15.4173 12.5962 12.0968 15.9167 8.00065 15.9167C3.90454 15.9167 0.583984 12.5962 0.583984 8.50004ZM11.531 7.3637C11.8239 7.07081 11.8239 6.59594 11.531 6.30304C11.2381 6.01015 10.7632 6.01015 10.4703 6.30304L7.33398 9.43938L6.19765 8.30304C5.90475 8.01015 5.42988 8.01015 5.13699 8.30304C4.84409 8.59594 4.84409 9.07081 5.13699 9.3637L6.80365 11.0304C6.94431 11.171 7.13507 11.25 7.33398 11.25C7.5329 11.25 7.72366 11.171 7.86431 11.0304L11.531 7.3637Z" fill="#3B4BF9"/>
<path fill-rule="evenodd" clip-rule="evenodd" d="M0.583984 8.50004C0.583984 4.40393 3.90454 1.08337 8.00065 1.08337C12.0968 1.08337 15.4173 4.40393 15.4173 8.50004C15.4173 12.5962 12.0968 15.9167 8.00065 15.9167C3.90454 15.9167 0.583984 12.5962 0.583984 8.50004ZM11.531 7.3637C11.8239 7.07081 11.8239 6.59594 11.531 6.30304C11.2381 6.01015 10.7632 6.01015 10.4703 6.30304L7.33398 9.43938L6.19765 8.30304C5.90475 8.01015 5.42988 8.01015 5.13699 8.30304C4.84409 8.59594 4.84409 9.07081 5.13699 9.3637L6.80365 11.0304C6.94431 11.171 7.13507 11.25 7.33398 11.25C7.5329 11.25 7.72366 11.171 7.86431 11.0304L11.531 7.3637Z" fill="white"/>
</svg>
