<?xml version="1.0" encoding="UTF-8"?>
<svg width="73px" height="64px" viewBox="0 0 73 64" version="1.1" xmlns="http://www.w3.org/2000/svg" xmlns:xlink="http://www.w3.org/1999/xlink">
    <!-- Generator: Sketch 54.1 (76490) - https://sketchapp.com -->
    <title>CLASH LOGO</title>
    <desc>Created with Sketch.</desc>
    <g id="Page-1" stroke="none" stroke-width="1" fill="none" fill-rule="evenodd">
        <g id="Ranking" transform="translate(-227.000000, -363.000000)" fill="#3DF9DF">
            <g id="CLASH-ROYALE" transform="translate(210.000000, 342.000000)">
                <g id="CLASH-LOGO" transform="translate(17.333333, 21.232227)">
                    <path d="M67.0019458,5.72781492 C74.0812715,7.54281492 72.6155788,6.52614825 72.152799,12.9504816 C71.3410926,24.1508149 70.3291384,35.3318149 69.4554825,46.5268149 C69.1641522,50.2334816 69.2361476,53.9778149 68.7536109,57.6558149 C68.5054779,59.5378149 67.784854,61.6521483 66.5532302,63.0064816 C65.6604871,63.9901483 63.5846751,63.8148149 61.9371522,63.9471483 C61.908354,63.8331483 61.9656155,64.0614816 61.9371522,63.9471483 C61.3022531,63.9471483 60.6623311,63.9001483 60.032455,63.9568149 C57.9844366,64.1471483 56.915221,63.2251483 57.2256384,61.2151483 C57.6787072,58.2974816 56.1845513,57.5131483 53.6211797,57.0001483 C41.7730788,54.6288149 29.9819045,54.3911483 18.1482027,57.1048149 C16.2150421,57.5514816 15.5131705,58.2781483 15.570432,60.2551483 C15.6705559,63.8618149 15.3986476,64.0234816 11.82801,63.9428149 C11.2694595,63.9284816 10.7155972,63.8858149 10.1620696,63.8664816 C6.23312926,63.7574816 4.66262468,62.4361483 4.33345495,58.4161483 C3.50768431,48.2424816 2.8774733,38.0498149 2.03696871,27.8761483 C1.56481275,22.2071483 0.867629263,16.5524816 0.203932015,10.8978149 C-0.225696425,7.23414825 -0.277934957,7.17714825 3.17349165,6.34081492 C7.69413385,5.24781492 7.18313385,4.23081492 9.7706155,9.33414825 C10.8826935,11.5251483 11.8949825,13.7628149 13.0834091,15.9108149 C13.4366889,16.5478149 14.3438311,17.4504816 14.7925467,17.3458149 C15.6374045,17.1511483 16.68251,16.4764816 17.0361247,15.7161483 C18.9933953,11.4821483 20.8502072,7.19148159 22.55901,2.84814825 C23.2846568,1.01381492 24.3156981,0.305814921 26.2823449,0.334148255 C32.8844916,0.419814921 39.4913265,0.410481588 46.0884504,0.339148255 C47.9261751,0.315481588 48.9910375,0.904481588 49.6925742,2.67214825 C51.420799,7.00614825 53.2632118,11.3018149 55.2201476,15.5401483 C55.6119366,16.3908149 56.6382898,17.2984816 57.5072577,17.4598149 C58.0751843,17.5691483 59.1256476,16.5098149 59.5452302,15.7491483 C61.1160696,12.9124816 62.5670283,10.0041483 63.9563724,7.07248159 C64.6291109,5.64714825 65.4883678,5.34281492 67.0019458,5.72781492 Z M46.885422,33.6666667 C43.9238991,33.6666667 41.5229358,36.0566667 41.5229358,39.005 C41.5229358,41.9526667 43.9238991,44.3426667 46.885422,44.3426667 C49.8472798,44.3426667 52.2482431,41.9526667 52.2482431,39.005 C52.2482431,36.0566667 49.8472798,33.6666667 46.885422,33.6666667 Z M20.4266055,39.005 C20.4266055,41.953 22.8275688,44.343 25.7890917,44.343 C28.7506147,44.343 31.1512431,41.953 31.1512431,39.005 C31.1512431,36.0566667 28.7506147,33.6666667 25.7890917,33.6666667 C22.8275688,33.6666667 20.4266055,36.0566667 20.4266055,39.005 Z M32.4816514,27.084 C32.4816514,29.3396667 34.3183716,31.168 36.5843853,31.168 C38.8503991,31.168 40.6871193,29.3396667 40.6871193,27.084 C40.6871193,24.8283333 38.8503991,23 36.5843853,23 C34.3183716,23 32.4816514,24.8283333 32.4816514,27.084 Z M33.5441843,45.763 C35.7147623,48.4833333 38.1009916,46.7063333 39.0506614,45.7866667 C39.2214412,45.6213333 39.1032348,45.3333333 38.8651476,45.3333333 L33.7524687,45.3333333 C33.5301201,45.3333333 33.406221,45.5893333 33.5441843,45.763 Z" id="CLASH-ROYALE"></path>
                </g>
            </g>
        </g>
    </g>
</svg>