<svg width="20" height="20" viewBox="0 0 20 20" fill="none" xmlns="http://www.w3.org/2000/svg">
<path fill-rule="evenodd" clip-rule="evenodd" d="M9.86707 18.0898C14.4083 18.0898 18.0896 14.4084 18.0896 9.86722C18.0896 5.32604 14.4083 1.64468 9.86707 1.64468C5.32589 1.64468 1.64453 5.32604 1.64453 9.86722C1.64453 14.4084 5.32589 18.0898 9.86707 18.0898ZM10.6893 5.75595C10.6893 5.30184 10.3212 4.9337 9.86707 4.9337C9.41295 4.9337 9.04482 5.30184 9.04482 5.75595V9.86722C9.04482 10.0853 9.13145 10.2944 9.28565 10.4486L11.3413 12.5043C11.6624 12.8254 12.183 12.8254 12.5041 12.5043C12.8252 12.1832 12.8252 11.6625 12.5041 11.3414L10.6893 9.52664V5.75595Z" fill="white"/>
</svg>
