<?xml version="1.0" encoding="utf-8"?>
<svg version="1.1" xmlns="http://www.w3.org/2000/svg" xmlns:xlink="http://www.w3.org/1999/xlink" height="16.88185204379147" width="16.88185204379124">
  <defs>
    <path id="path-1" opacity="1" fill-rule="evenodd" d="M15.610935449957218,2.8642520222922765 C16.05092287920848,2.4242645930410163 16.05092287920848,1.7109040230854389 15.610935449957216,1.2709165938341795 C15.170948020705953,0.8309291645829197 14.457587450750374,0.8309291645829202 14.017600021499113,1.270916593834181 L8.440926021895642,6.8475905934376415 L2.864252022292165,1.2709165938341798 C2.424264593040904,0.8309291645829197 1.7109040230853267,0.83092916458292 1.2709165938340652,1.2709165938341798 C0.8309291645828051,1.7109040230854393 0.8309291645828051,2.4242645930410154 1.2709165938340652,2.864252022292275 L6.847590593437543,8.44092602189574 L1.270916593834066,14.017600021499199 C0.830929164582805,14.45758745075046 0.8309291645828045,15.170948020706035 1.2709165938340656,15.610935449957296 C1.7109040230853265,16.050922879208557 2.4242645930409044,16.050922879208557 2.864252022292166,15.610935449957298 L8.440926021895642,10.034261450353837 L14.017600021499112,15.610935449957296 C14.457587450750374,16.050922879208557 15.170948020705953,16.050922879208557 15.610935449957216,15.610935449957296 C16.05092287920848,15.170948020706037 16.05092287920848,14.45758745075046 15.610935449957216,14.017600021499199 L10.03426145035374,8.44092602189574 L15.610935449957218,2.8642520222922765Z"/>
    <mask id="mask-2" maskUnits="userSpaceOnUse" maskContentUnits="userSpaceOnUse" x="0" y="0">
      <rect opacity="1" x="0" y="0" width="16.88185204379124" height="16.88185204379147" fill="white"/>
      <use xlink:href="#path-1" fill="black"/>
    </mask>
  </defs>
  <g opacity="1">
    <use xlink:href="#path-1" fill="rgb(255,255,255)" fill-opacity="1"/>
    <use xlink:href="#path-1" fill-opacity="0" stroke="rgb(255,255,255)" stroke-opacity="1" stroke-width="0.4" stroke-linecap="butt" stroke-linejoin="miter" mask="url(#mask-2)"/>
  </g>
</svg>