<svg width="40" height="40" viewBox="0 0 40 40" fill="none" xmlns="http://www.w3.org/2000/svg">
<path fill-rule="evenodd" clip-rule="evenodd" d="M0 20C0 8.96 8.98 0 20 0L20.5596 0.00768C31.3412 0.30432 40 9.14712 40 20C40 31.02 31.04 40 20 40C8.98 40 0 31.02 0 20Z" fill="#141539"/>
<path fill-rule="evenodd" clip-rule="evenodd" d="M27.254 27.2245C28.0338 26.447 28.0338 25.1855 27.254 24.4057L23.1715 20.3231L27.254 16.2383C28.0338 15.4608 28.0338 14.1764 27.254 13.3966C26.4742 12.6145 25.2127 12.6145 24.41 13.3966L20.3504 17.4768L16.2678 13.3966C15.465 12.6145 14.2035 12.6145 13.4237 13.3966C12.6439 14.1764 12.6439 15.4608 13.4237 16.2383L17.5064 20.3231L13.4237 24.3828C12.6439 25.1855 12.6439 26.447 13.4237 27.2245C13.8136 27.6144 14.3412 27.8231 14.8457 27.8231C15.3733 27.8231 15.8779 27.6144 16.2678 27.2245L20.3504 23.1672L24.4329 27.2245C24.8228 27.6396 25.3274 27.8231 25.832 27.8231C26.3595 27.8231 26.8641 27.6144 27.254 27.2245Z" fill="white"/>
</svg>
