<svg width="48" height="48" viewBox="0 0 48 48" fill="none" xmlns="http://www.w3.org/2000/svg">
<g filter="url(#filter0_d_1196_135)">
<path fill-rule="evenodd" clip-rule="evenodd" d="M4 22C4 10.96 12.98 2 24 2L24.5596 2.00768C35.3412 2.30432 44 11.1471 44 22C44 33.02 35.04 42 24 42C12.98 42 4 33.02 4 22Z" fill="#141539"/>
</g>
<path fill-rule="evenodd" clip-rule="evenodd" d="M31.2539 29.2245C32.0337 28.447 32.0337 27.1855 31.2539 26.4057L27.1713 22.3231L31.2539 18.2383C32.0337 17.4608 32.0337 16.1764 31.2539 15.3966C30.4741 14.6145 29.2126 14.6145 28.4099 15.3966L24.3503 19.4768L20.2677 15.3966C19.4649 14.6145 18.2034 14.6145 17.4236 15.3966C16.6438 16.1764 16.6438 17.4608 17.4236 18.2383L21.5062 22.3231L17.4236 26.3828C16.6438 27.1855 16.6438 28.447 17.4236 29.2245C17.8135 29.6144 18.341 29.8231 18.8456 29.8231C19.3731 29.8231 19.8778 29.6144 20.2677 29.2245L24.3503 25.1672L28.4328 29.2245C28.8227 29.6396 29.3273 29.8231 29.8319 29.8231C30.3594 29.8231 30.864 29.6144 31.2539 29.2245Z" fill="white"/>
<defs>
<filter id="filter0_d_1196_135" x="0" y="0" width="48" height="48" filterUnits="userSpaceOnUse" color-interpolation-filters="sRGB">
<feFlood flood-opacity="0" result="BackgroundImageFix"/>
<feColorMatrix in="SourceAlpha" type="matrix" values="0 0 0 0 0 0 0 0 0 0 0 0 0 0 0 0 0 0 127 0" result="hardAlpha"/>
<feOffset dy="2"/>
<feGaussianBlur stdDeviation="2"/>
<feColorMatrix type="matrix" values="0 0 0 0 0 0 0 0 0 0 0 0 0 0 0 0 0 0 0.253621 0"/>
<feBlend mode="normal" in2="BackgroundImageFix" result="effect1_dropShadow_1196_135"/>
<feBlend mode="normal" in="SourceGraphic" in2="effect1_dropShadow_1196_135" result="shape"/>
</filter>
</defs>
</svg>
