<?xml version="1.0" encoding="UTF-8"?>
<svg width="26px" height="26px" viewBox="0 0 26 26" version="1.1" xmlns="http://www.w3.org/2000/svg" xmlns:xlink="http://www.w3.org/1999/xlink">
    <title>Chat</title>
    <g id="UI" stroke="none" stroke-width="1" fill="none" fill-rule="evenodd">
        <g id="Profile" transform="translate(-175.000000, -745.000000)" fill="#FFFFFF">
            <g id="Bottom-Nav-Bar" transform="translate(0.000000, 731.000000)">
                <g id="Community" transform="translate(125.000000, 12.000000)">
                    <g id="chat" transform="translate(48.000000, 0.000000)">
                        <g id="Comment" transform="translate(2.500000, 2.500000)">
                            <path d="M4.6184625,0.61165 C2.5059,0.9331 0.8320625,2.4811 0.469325,4.5869625 C0.2165125,6.05465 0,7.9190625 0,10 C0,12.080875 0.2165125,13.945375 0.469325,15.413 C0.7807,17.22075 2.0582,18.617375 3.75,19.18 L3.75,23.4345 C3.75,24.402375 4.8026375,25.003 5.6359125,24.510625 L13.280125,19.993625 C16.048,19.94825 18.52975,19.670125 20.3815,19.388375 C22.494125,19.066875 24.168,17.518875 24.530625,15.413 C24.7835,13.945375 25,12.080875 25,10 C25,7.9190625 24.7835,6.05465 24.530625,4.5869625 C24.168,2.4811 22.494125,0.9331 20.3815,0.61165 C18.357375,0.3036625 15.5805,0 12.5,0 C9.4194875,0 6.6426375,0.3036625 4.6184625,0.61165 Z" id="Path" opacity="0.25"></path>
                            <path d="M19.3318519,8.97228158 C18.6598227,8.55105931 17.768351,8.74615248 17.3407879,9.40813407 C17.3229757,9.43554796 15.5280615,12.1591821 12.5,12.1591821 C9.47193853,12.1591821 7.67702426,9.43554796 7.65921214,9.40813407 C7.23157688,8.7462235 6.34017731,8.55113033 5.66814814,8.97228158 C4.99611897,9.39350385 4.79802216,10.2714586 5.22565742,10.9331561 C5.33296286,11.0992019 7.90627426,15 12.5,15 C17.0937257,15 19.6670371,11.099273 19.7743426,10.9331561 C20.2019778,10.2713166 20.003881,9.39350385 19.3318519,8.97228158" id="Shape"></path>
                        </g>
                    </g>
                </g>
            </g>
        </g>
    </g>
</svg>