<?xml version="1.0" encoding="UTF-8"?>
<svg width="30px" height="30px" viewBox="0 0 30 30" version="1.1" xmlns="http://www.w3.org/2000/svg" xmlns:xlink="http://www.w3.org/1999/xlink">
    <!-- Generator: sketchtool 61 (101010) - https://sketch.com -->
    <title>7FD13E71-C264-46EF-85F8-14F7966D5EC1</title>
    <desc>Created with sketchtool.</desc>
    <g id="UI" stroke="none" stroke-width="1" fill="none" fill-rule="evenodd">
        <g id="Event-Card-Expanded-UID" transform="translate(-305.000000, -398.000000)">
            <g id="Hosted-by-Copy" transform="translate(16.000000, 324.000000)">
                <g id="Copy" transform="translate(289.000000, 74.000000)">
                    <circle id="Oval" fill="#6C77ED" cx="15" cy="15" r="15"></circle>
                    <g id="copy" transform="translate(8.400000, 7.200000)" fill="#FFFFFF" fill-rule="nonzero">
                        <path d="M9.52774946,16.8 L2.99859246,16.8 C1.49062106,16.8 0.263867017,15.622467 0.263867017,14.175 L0.263867017,5.2828125 C0.263867017,3.83534547 1.49062106,2.6578125 2.99859246,2.6578125 L9.52774946,2.6578125 C11.0357209,2.6578125 12.2624749,3.83534547 12.2624749,5.2828125 L12.2624749,14.175 C12.2624749,15.622467 11.0357209,16.8 9.52774946,16.8 Z M2.99859246,3.9703125 C2.24467351,3.9703125 1.63122974,4.55914305 1.63122974,5.2828125 L1.63122974,14.175 C1.63122974,14.8986694 2.24467351,15.4875 2.99859246,15.4875 L9.52774946,15.4875 C10.2816684,15.4875 10.8951122,14.8986694 10.8951122,14.175 L10.8951122,5.2828125 C10.8951122,4.55914305 10.2816684,3.9703125 9.52774946,3.9703125 L2.99859246,3.9703125 Z M14.9972003,12.534375 L14.9972003,2.625 C14.9972003,1.17753297 13.7704463,0 12.2624749,0 L4.6736118,0 C4.29598467,0 3.98993044,0.293774414 3.98993044,0.65625 C3.98993044,1.01872559 4.29598467,1.3125 4.6736118,1.3125 L12.2624749,1.3125 C13.0163939,1.3125 13.6298376,1.90133055 13.6298376,2.625 L13.6298376,12.534375 C13.6298376,12.8968506 13.9358919,13.190625 14.313519,13.190625 C14.6911461,13.190625 14.9972003,12.8968506 14.9972003,12.534375 Z" id="Shape"></path>
                    </g>
                </g>
            </g>
        </g>
    </g>
</svg>