<svg width="17" height="16" viewBox="0 0 17 16" fill="none" xmlns="http://www.w3.org/2000/svg">
<g clip-path="url(#clip0_1086_8970)">
<path d="M7.2427 12.8122C5.71229 12.8122 4.46665 11.5666 4.46665 10.0362V3.34119H3.32363C2.33273 3.34119 1.52734 4.14646 1.52734 5.13735V13.9553C1.52734 14.9462 2.33273 15.7516 3.32363 15.7516H11.4883C12.4792 15.7516 13.2846 14.9462 13.2846 13.9553V12.8122H7.2427Z" fill="white"/>
<path d="M15.8972 1.8716C15.8972 0.879393 15.0932 0.0753174 14.1011 0.0753174H7.24269C6.25049 0.0753174 5.44641 0.879393 5.44641 1.8716V10.0363C5.44641 11.0285 6.25049 11.8325 7.24269 11.8325H14.1011C15.0932 11.8325 15.8972 11.0285 15.8972 10.0363V1.8716Z" fill="white"/>
</g>
<defs>
<clipPath id="clip0_1086_8970">
<rect width="15.6763" height="15.6763" fill="white" transform="translate(0.884399 0.0753174)"/>
</clipPath>
</defs>
</svg>
