<svg xmlns="http://www.w3.org/2000/svg" viewBox="0 0 34.81 34.8"><defs><style>.cls-1{fill:#fff;}</style></defs><title>Asset 1</title><g id="Layer_2" data-name="Layer 2"><g id="Layer_1-2" data-name="Layer 1"><path class="cls-1" d="M15.76,18.66a2.1,2.1,0,0,1-2,2.18,2.19,2.19,0,0,1,0-4.36A2.1,2.1,0,0,1,15.76,18.66Z"/><path class="cls-1" d="M22.95,18.66a2,2,0,1,1-2-2.18A2.1,2.1,0,0,1,22.95,18.66Z"/><path class="cls-1" d="M17.4,0A17.4,17.4,0,1,0,34.81,17.4,17.4,17.4,0,0,0,17.4,0Zm5.5,25.69s-.7-.85-1.29-1.6a6.19,6.19,0,0,0,3.57-2.35,11.25,11.25,0,0,1-2.28,1.17,14,14,0,0,1-2.86.86,14.14,14.14,0,0,1-5.12,0A15.18,15.18,0,0,1,12,22.91a10.88,10.88,0,0,1-1.45-.68l-.19-.1-.08,0c-.35-.2-.55-.34-.55-.34a6.11,6.11,0,0,0,3.46,2.32c-.59.76-1.32,1.63-1.32,1.63a7.15,7.15,0,0,1-6-3A26.41,26.41,0,0,1,8.72,11.19a9.63,9.63,0,0,1,5.53-2.07l.21.23A13.15,13.15,0,0,0,9.3,11.93a12.34,12.34,0,0,1,1.15-.55,15.25,15.25,0,0,1,4.48-1.25l.33,0a17,17,0,0,1,4,0,16,16,0,0,1,5.94,1.89,13.07,13.07,0,0,0-4.91-2.51l.27-.31a9.65,9.65,0,0,1,5.54,2.07,26.41,26.41,0,0,1,2.84,11.49A7.16,7.16,0,0,1,22.9,25.69Z"/></g></g></svg>