<svg width="24" height="25" viewBox="0 0 24 25" fill="none" xmlns="http://www.w3.org/2000/svg">
<path d="M20.317 5.3327C18.7873 4.63082 17.147 4.1137 15.4319 3.81753C15.4007 3.81181 15.3694 3.8261 15.3534 3.85467C15.1424 4.22989 14.9087 4.71939 14.7451 5.10414C12.9004 4.82796 11.0652 4.82796 9.25832 5.10414C9.09466 4.71082 8.85248 4.22989 8.64058 3.85467C8.6245 3.82705 8.59328 3.81276 8.56206 3.81753C6.84792 4.11275 5.20756 4.62987 3.67694 5.3327C3.66369 5.33841 3.65234 5.34793 3.64477 5.36032C0.533392 10.0087 -0.31895 14.5428 0.0991801 19.0207C0.101072 19.0426 0.11337 19.0635 0.130398 19.0769C2.18321 20.5844 4.17169 21.4996 6.12328 22.1062C6.1545 22.1158 6.18761 22.1043 6.20748 22.0786C6.66912 21.4482 7.08063 20.7834 7.43349 20.0844C7.4543 20.0435 7.43443 19.9949 7.39186 19.9787C6.73913 19.7311 6.11761 19.4292 5.51974 19.0864C5.47244 19.0588 5.46865 18.9911 5.51217 18.9588C5.63799 18.8645 5.7638 18.7664 5.88395 18.6673C5.9057 18.6493 5.93598 18.6454 5.96152 18.6569C9.88929 20.4501 14.1415 20.4501 18.023 18.6569C18.0485 18.6445 18.0788 18.6483 18.1015 18.6664C18.2216 18.7654 18.3474 18.8645 18.4742 18.9588C18.5177 18.9911 18.5149 19.0588 18.4676 19.0864C17.8697 19.4359 17.2482 19.7311 16.5945 19.9778C16.5519 19.994 16.533 20.0435 16.5538 20.0844C16.9143 20.7825 17.3258 21.4472 17.7789 22.0777C17.7978 22.1043 17.8319 22.1158 17.8631 22.1062C19.8241 21.4996 21.8126 20.5844 23.8654 19.0769C23.8834 19.0635 23.8948 19.0435 23.8967 19.0216C24.3971 13.8447 23.0585 9.34776 20.3482 5.36127C20.3416 5.34793 20.3303 5.33841 20.317 5.3327ZM8.02001 16.2941C6.83751 16.2941 5.86313 15.2085 5.86313 13.8752C5.86313 12.5419 6.81859 11.4562 8.02001 11.4562C9.23088 11.4562 10.1958 12.5514 10.1769 13.8752C10.1769 15.2085 9.22142 16.2941 8.02001 16.2941ZM15.9948 16.2941C14.8123 16.2941 13.8379 15.2085 13.8379 13.8752C13.8379 12.5419 14.7933 11.4562 15.9948 11.4562C17.2056 11.4562 18.1705 12.5514 18.1516 13.8752C18.1516 15.2085 17.2056 16.2941 15.9948 16.2941Z" fill="white"/>
</svg>
