<svg width="24" height="24" viewBox="0 0 24 24" fill="none" xmlns="http://www.w3.org/2000/svg">
<path d="M11.0099 12.56C11.0359 13.1642 10.5234 13.6745 9.86209 13.7028C9.21736 13.6464 8.72517 13.1516 8.72517 12.56C8.72517 11.9683 9.21736 11.4736 9.86209 11.4171C10.5234 11.4454 11.0359 11.9557 11.0099 12.56Z" fill="white"/>
<path d="M15.1123 12.6628C15.0566 13.2775 14.5222 13.7371 13.905 13.7008C13.2879 13.6646 12.811 13.1457 12.8279 12.5287C12.8448 11.9117 13.3493 11.4196 13.9676 11.4171C14.627 11.448 15.1381 12.0042 15.1123 12.6628Z" fill="white"/>
<path fill-rule="evenodd" clip-rule="evenodd" d="M2 12.0038C1.99789 6.48173 6.47216 2.00318 11.9943 2C14.6474 1.99848 17.1924 3.05137 19.069 4.9269C20.9456 6.80243 22 9.34684 22 12C22 17.5221 17.524 21.9989 12.0019 22C6.47982 22.0011 2.00212 17.5259 2 12.0038ZM14.3429 15.7657C14.68 16.1943 15.08 16.68 15.08 16.68C16.437 16.7292 17.7301 16.102 18.5314 15.0057C18.4942 12.7226 17.9393 10.4776 16.9086 8.44001C16.0031 7.72411 14.8959 7.31039 13.7429 7.25715L13.5886 7.43429C14.6152 7.70741 15.5717 8.19638 16.3943 8.86858C15.3446 8.28953 14.1913 7.92257 13 7.78858C12.2408 7.69863 11.4735 7.69863 10.7143 7.78858H10.5257C9.64088 7.89438 8.77751 8.13527 7.96572 8.50286C7.7414 8.59623 7.52206 8.70114 7.30857 8.81715C8.17019 8.11353 9.17728 7.60998 10.2571 7.34286L10.1371 7.21143C8.98594 7.26509 7.88063 7.67884 6.97715 8.39429C5.93941 10.4418 5.38242 12.6991 5.34857 14.9943C6.13582 16.0996 7.42051 16.742 8.77714 16.7086C8.77714 16.7086 9.19429 16.2114 9.53143 15.7771C8.73743 15.5805 8.03769 15.1113 7.55429 14.4514C7.55429 14.4514 7.66857 14.5314 7.86857 14.6457H7.91429L8.02286 14.7029C8.28913 14.8526 8.56607 14.9824 8.85143 15.0914C9.38975 15.3107 9.94875 15.4754 10.52 15.5829C11.4871 15.7609 12.4786 15.7609 13.4457 15.5829C14.0064 15.4778 14.5543 15.313 15.08 15.0914C15.5383 14.9189 15.9755 14.6946 16.3829 14.4229C15.8839 15.0985 15.1607 15.5745 14.3429 15.7657Z" fill="white"/>
</svg>
