<?xml version="1.0" encoding="UTF-8"?>
<svg width="14px" height="12px" viewBox="0 0 14 12" version="1.1" xmlns="http://www.w3.org/2000/svg" xmlns:xlink="http://www.w3.org/1999/xlink">
    <title>icon-stars-donated</title>
    <g id="UI" stroke="none" stroke-width="1" fill="none" fill-rule="evenodd">
        <g id="Profile-Slide-Up" transform="translate(-329.000000, -423.000000)" fill="#FFFFFF">
            <g id="Slide-Up-Modal" transform="translate(0.000000, 167.000000)">
                <g id="stars" transform="translate(329.000000, 255.000000)">
                    <g id="Star" transform="translate(0.583333, 1.166667)">
                        <path d="M5.86479511,0.362898482 C6.07359528,-0.120966161 6.75967874,-0.120966161 6.96847891,0.362898482 L8.27879915,3.39927008 C8.36721166,3.60415149 8.56182736,3.74318932 8.78433117,3.76038498 L12.1444873,4.02002685 C12.6836173,4.06168471 12.8978268,4.73850018 12.4808876,5.08277404 L9.9538886,7.16909284 C9.7756211,7.31628674 9.69760653,7.5526144 9.75308222,7.77698142 L10.5308238,10.919442 C10.6587244,11.4362134 10.1012027,11.8518303 9.64243135,11.5817244 L6.72157301,9.86221835 C6.5333884,9.75138717 6.29994573,9.75138717 6.11176112,9.86221835 L3.19085469,11.5817244 C2.73208333,11.8518303 2.17460972,11.4362134 2.30250433,10.919442 L3.08020383,7.77698142 C3.13573361,7.5526144 3.05767697,7.31628674 2.87943351,7.16909284 L0.352446575,5.08277404 C-0.0645286869,4.73850018 0.149680814,4.06168471 0.688804777,4.02002685 L4.04899094,3.76038498 C4.27147671,3.74318932 4.46612247,3.60415149 4.55453498,3.39927008 L5.86479511,0.362898482 Z" id="Path" fill-rule="nonzero"></path>
                    </g>
                </g>
            </g>
        </g>
    </g>
</svg>