<?xml version="1.0" encoding="UTF-8"?>
<svg width="11px" height="14px" viewBox="0 0 11 14" version="1.1" xmlns="http://www.w3.org/2000/svg" xmlns:xlink="http://www.w3.org/1999/xlink">
    <title>icon-bits-donated</title>
    <g id="UI" stroke="none" stroke-width="1" fill="none" fill-rule="evenodd">
        <g id="Profile-Slide-Up" transform="translate(-330.000000, -391.000000)" fill="#FFFFFF">
            <g id="Slide-Up-Modal" transform="translate(0.000000, 167.000000)">
                <g id="bits" transform="translate(329.000000, 224.000000)">
                    <g transform="translate(1.166667, 0.000000)" id="Path">
                        <path d="M5.79104167,6.601 L10.5522569,8.57772222 C10.6296886,8.60924307 10.6844864,8.67765248 10.6967614,8.75812122 C10.7090365,8.83858995 10.6770046,8.91942142 10.6122917,8.97127778 L5.69868056,13.08125 C5.60850699,13.1567135 5.47482635,13.1567135 5.38465278,13.08125 L0.461805556,8.97127778 C0.397092649,8.91942142 0.365060722,8.83858995 0.377335783,8.75812122 C0.389610843,8.67765248 0.444408639,8.60924307 0.521840278,8.57772222 L5.28305556,6.601 C5.44571255,6.53590043 5.62838467,6.53590043 5.79104167,6.601 Z" fill-rule="nonzero"></path>
                        <path d="M5.74024306,0.380138889 L10.4044792,6.88722222 C10.4641455,6.9745146 10.4576146,7.08937481 10.3884122,7.16979525 C10.3192098,7.25021568 10.2037262,7.27714916 10.1043056,7.23605556 L5.80027778,5.33536111 C5.63574488,5.26399635 5.44758846,5.26399635 5.28305556,5.33536111 L0.979027778,7.23605556 C0.879607102,7.27714916 0.764123509,7.25021568 0.694921139,7.16979525 C0.625718768,7.08937481 0.619187869,6.9745146 0.678854167,6.88722222 L5.34309028,0.380138889 C5.38780029,0.316466023 5.46215606,0.278352824 5.54166667,0.278352824 C5.62117727,0.278352824 5.69553304,0.316466023 5.74024306,0.380138889 Z" fill-rule="nonzero"></path>
                    </g>
                </g>
            </g>
        </g>
    </g>
</svg>