<svg width="24" height="24" viewBox="0 0 24 24" fill="none" xmlns="http://www.w3.org/2000/svg">
<path fill-rule="evenodd" clip-rule="evenodd" d="M4.08786 7.7364C4.84218 3.96483 8.15374 1.25 12 1.25C15.8463 1.25 19.1578 3.96483 19.9121 7.7364L21.1659 14.0054C21.5686 16.019 20.4997 18.0431 18.6324 18.873C17.9506 19.176 17.2508 19.4298 16.5388 19.6343L16.4351 19.8678C15.6561 21.6205 13.918 22.75 12 22.75C10.082 22.75 8.34391 21.6205 7.56494 19.8678L7.46118 19.6343C6.74921 19.4298 6.04939 19.176 5.36757 18.873C3.50025 18.0431 2.43135 16.019 2.83407 14.0054L4.08786 7.7364ZM9.44875 20.0731C10.0758 20.808 11.0027 21.25 12 21.25C12.9973 21.25 13.9242 20.808 14.5512 20.0731C12.8625 20.3372 11.1375 20.3372 9.44875 20.0731Z" fill="white"/>
</svg>
