<svg width="24" height="24" viewBox="0 0 24 24" fill="none" xmlns="http://www.w3.org/2000/svg">
<path d="M8.96942 2.25002C7.14079 2.24971 6.02452 2.24952 5.1009 2.57271C3.44923 3.15065 2.15062 4.44926 1.57268 6.10093C1.24949 7.02455 1.24968 8.14082 1.24999 9.96945L1.25001 12.5513C1.25 14.6227 1.24999 16.2463 1.40523 17.5243C1.56387 18.8302 1.89411 19.8755 2.62767 20.7344C2.8233 20.9634 3.03663 21.1767 3.26568 21.3724C4.12457 22.1059 5.16982 22.4362 6.47579 22.5948C7.75376 22.7501 9.37732 22.75 11.4488 22.75L14.0306 22.7501C15.8592 22.7504 16.9755 22.7506 17.8991 22.4274C19.5508 21.8494 20.8494 20.5508 21.4273 18.8991C21.7505 17.9755 21.7503 16.8593 21.75 15.0306L21.75 13.8C21.75 12.3917 20.6083 11.25 19.2 11.25C15.6378 11.25 12.75 8.36227 12.75 4.80004C12.75 3.39171 11.6083 2.25004 10.2 2.25004L8.96942 2.25002Z" fill="white"/>
<path d="M19 1.25C16.9289 1.25 15.25 2.92893 15.25 5C15.25 7.07107 16.9289 8.75 19 8.75C21.0711 8.75 22.75 7.07107 22.75 5C22.75 2.92893 21.0711 1.25 19 1.25Z" fill="white" fill-opacity="0.25"/>
</svg>
