<svg width="24" height="24" viewBox="0 0 24 24" fill="none" xmlns="http://www.w3.org/2000/svg">
<path fill-rule="evenodd" clip-rule="evenodd" d="M13.3162 1.35741C12.6414 2.40822 12.25 3.6584 12.25 5C12.25 8.72792 15.2721 11.75 19 11.75C19.5775 11.75 20.1381 11.6775 20.6731 11.541L21.1659 14.0054C21.5686 16.019 20.4997 18.0431 18.6324 18.873C17.9506 19.176 17.2508 19.4298 16.5388 19.6343L16.4351 19.8678C15.6561 21.6205 13.918 22.75 12 22.75C10.082 22.75 8.34391 21.6205 7.56494 19.8678L7.46118 19.6343C6.74921 19.4298 6.04939 19.176 5.36757 18.873C3.50025 18.0431 2.43135 16.019 2.83407 14.0054L4.08786 7.7364C4.84218 3.96483 8.15374 1.25 12 1.25C12.447 1.25 12.8868 1.28667 13.3162 1.35741ZM16.2445 2.45635C15.6272 3.12479 15.25 4.01834 15.25 5C15.25 7.07107 16.9289 8.75 19 8.75C19.3766 8.75 19.7402 8.69449 20.0831 8.59122L19.9121 7.7364C19.4608 5.47962 18.0938 3.60119 16.2445 2.45635ZM12 21.25C11.0027 21.25 10.0758 20.808 9.44875 20.0731C11.1375 20.3372 12.8625 20.3372 14.5512 20.0731C13.9242 20.808 12.9973 21.25 12 21.25Z" fill="white"/>
<path d="M19 1.25C16.9289 1.25 15.25 2.92893 15.25 5C15.25 7.07107 16.9289 8.75 19 8.75C21.0711 8.75 22.75 7.07107 22.75 5C22.75 2.92893 21.0711 1.25 19 1.25Z" fill="#F93B8B"/>
</svg>
