<svg width="30" height="31" viewBox="0 0 30 31" fill="none" xmlns="http://www.w3.org/2000/svg">
<path fill-rule="evenodd" clip-rule="evenodd" d="M23.75 1.82979C21.2647 1.82979 19.25 3.84451 19.25 6.32979C19.25 8.81507 21.2647 10.8298 23.75 10.8298C26.2353 10.8298 28.25 8.81507 28.25 6.32979C28.25 3.84451 26.2353 1.82979 23.75 1.82979ZM13.2695 3.09303C13.1342 3.0797 12.9829 3.07973 12.7866 3.07978L12.75 3.07979H11.4286L11.3842 3.07979C9.58104 3.07978 8.16761 3.07977 7.04505 3.19928C5.89971 3.32121 4.9702 3.57442 4.17264 4.14031C3.64524 4.51453 3.18474 4.97502 2.81053 5.50243C2.24463 6.29998 1.99142 7.2295 1.86949 8.37484C1.74999 9.49739 1.74999 10.9108 1.75 12.7139V12.714V12.7584V17.5798V17.6372V17.6372C1.74999 19.9456 1.74998 21.7546 1.93975 23.1661C2.13399 24.6108 2.53933 25.7508 3.43414 26.6457C4.32895 27.5405 5.46897 27.9458 6.91371 28.14C8.32519 28.3298 10.1342 28.3298 12.4426 28.3298H12.5H17.3214H17.3658H17.3659C19.169 28.3298 20.5824 28.3298 21.7049 28.2103C22.8503 28.0884 23.7798 27.8352 24.5774 27.2693C25.1048 26.8951 25.5653 26.4346 25.9395 25.9071C26.5054 25.1096 26.7586 24.1801 26.8805 23.0347C27 21.9122 27 20.4988 27 18.6957V18.6956V18.6512V17.3298L27 17.2932C27.0001 17.0969 27.0001 16.9456 26.9868 16.8102C26.8582 15.5046 25.8252 14.4716 24.5195 14.343C24.3842 14.3297 24.233 14.3297 24.0367 14.3298H24.0366L24 14.3298C23.0535 14.3298 22.6346 14.3289 22.2894 14.2949C18.8472 13.9559 16.1239 11.2325 15.7849 7.79041C15.7509 7.4452 15.75 7.02631 15.75 6.07979L15.75 6.04314C15.7501 5.84685 15.7501 5.69563 15.7368 5.56024C15.6082 4.2546 14.5752 3.22162 13.2695 3.09303Z" fill="white"/>
</svg>
