<svg width="32" height="32" viewBox="0 0 32 32" fill="none" xmlns="http://www.w3.org/2000/svg">
<path fill-rule="evenodd" clip-rule="evenodd" d="M13.0849 24.9199L22.8475 12.2949C23.3781 11.6141 23.5668 10.827 23.3899 10.0255C23.2366 9.29695 22.7886 8.60419 22.1165 8.07865L20.4776 6.77674C19.051 5.64204 17.2824 5.76149 16.2684 7.0634L15.1718 8.48594C15.0303 8.66391 15.0657 8.92668 15.2426 9.07001C15.2426 9.07001 18.0134 11.2916 18.0723 11.3394C18.261 11.5186 18.4025 11.7574 18.4378 12.0441C18.4968 12.6055 18.1077 13.131 17.53 13.2027C17.2588 13.2385 16.9994 13.1549 16.8107 12.9996L13.8984 10.6825C13.757 10.5762 13.5447 10.5989 13.4268 10.7422L6.50571 19.7003C6.05766 20.2617 5.90439 20.9903 6.05766 21.695L6.94196 25.529C6.98913 25.7321 7.16599 25.8754 7.37822 25.8754L11.2691 25.8276C11.9766 25.8157 12.6368 25.4932 13.0849 24.9199ZM18.533 23.7258H24.8775C25.4965 23.7258 26 24.2358 26 24.8629C26 25.4912 25.4965 26 24.8775 26H18.533C17.914 26 17.4105 25.4912 17.4105 24.8629C17.4105 24.2358 17.914 23.7258 18.533 23.7258Z" fill="url(#paint0_linear_5200_66511)"/>
<path fill-rule="evenodd" clip-rule="evenodd" d="M13.0849 24.9199L22.8475 12.2949C23.3781 11.6141 23.5668 10.827 23.3899 10.0255C23.2366 9.29695 22.7886 8.60419 22.1165 8.07865L20.4776 6.77674C19.051 5.64204 17.2824 5.76149 16.2684 7.0634L15.1718 8.48594C15.0303 8.66391 15.0657 8.92668 15.2426 9.07001C15.2426 9.07001 18.0134 11.2916 18.0723 11.3394C18.261 11.5186 18.4025 11.7574 18.4378 12.0441C18.4968 12.6055 18.1077 13.131 17.53 13.2027C17.2588 13.2385 16.9994 13.1549 16.8107 12.9996L13.8984 10.6825C13.757 10.5762 13.5447 10.5989 13.4268 10.7422L6.50571 19.7003C6.05766 20.2617 5.90439 20.9903 6.05766 21.695L6.94196 25.529C6.98913 25.7321 7.16599 25.8754 7.37822 25.8754L11.2691 25.8276C11.9766 25.8157 12.6368 25.4932 13.0849 24.9199ZM18.533 23.7258H24.8775C25.4965 23.7258 26 24.2358 26 24.8629C26 25.4912 25.4965 26 24.8775 26H18.533C17.914 26 17.4105 25.4912 17.4105 24.8629C17.4105 24.2358 17.914 23.7258 18.533 23.7258Z" fill="white"/>
<defs>
<linearGradient id="paint0_linear_5200_66511" x1="6" y1="16" x2="26" y2="16" gradientUnits="userSpaceOnUse">
<stop stop-color="#FFCAFA"/>
<stop offset="0.708333" stop-color="#A2FFFF"/>
<stop offset="1" stop-color="#AFFFE2"/>
</linearGradient>
</defs>
</svg>
