<svg width="16" height="16" viewBox="0 0 16 16" fill="none" xmlns="http://www.w3.org/2000/svg">
<path fill-rule="evenodd" clip-rule="evenodd" d="M1 7.665C1 3.70788 4.20788 0.5 8.165 0.5C12.1221 0.5 15.33 3.70788 15.33 7.665C15.33 11.6221 12.1221 14.83 8.165 14.83C4.20788 14.83 1 11.6221 1 7.665ZM11.6056 6.92964C11.5074 7.02791 11.3686 7.07591 11.2314 7.05338C10.3795 6.91346 9.83164 6.64366 9.46867 6.26006C9.11733 5.88874 8.89007 5.36048 8.76974 4.60104C8.74805 4.46412 8.7963 4.32601 8.89433 4.22798C9.59585 3.52646 10.7332 3.52646 11.4348 4.22798L11.6056 4.39884C12.3045 5.0977 12.3045 6.23078 11.6056 6.92964ZM6.30107 6.82124L7.87819 5.24412C8.04091 5.921 8.31221 6.49249 8.74247 6.9472C9.20799 7.43919 9.82269 7.7567 10.5917 7.94355L9.00755 9.52771L9.00754 9.52772C8.54099 9.99428 8.30771 10.2276 8.04385 10.4172C7.80959 10.5856 7.5578 10.7282 7.29287 10.8424C6.99448 10.9711 6.67442 11.0511 6.03434 11.2111L6.03431 11.2111L6.03429 11.2111L5.69766 11.2953L5.69765 11.2953L5.69763 11.2953C5.18566 11.4233 4.92968 11.4873 4.75126 11.4174C4.59554 11.3564 4.47234 11.2332 4.41136 11.0775C4.34149 10.8991 4.40549 10.6431 4.53348 10.1311L4.61764 9.79449C4.77767 9.15437 4.85769 8.83432 4.98636 8.53591C5.10059 8.27099 5.24315 8.0192 5.41155 7.78494C5.60123 7.52108 5.83451 7.2878 6.30107 6.82124Z" fill="white"/>
</svg>
