<svg width="32" height="32" viewBox="0 0 32 32" fill="none" xmlns="http://www.w3.org/2000/svg">
<g opacity="0.6">
<path fill-rule="evenodd" clip-rule="evenodd" d="M7.98005 5.79497C9.04961 5.25 10.4497 5.25 13.25 5.25H18.75C21.5503 5.25 22.9504 5.25 24.02 5.79497C24.9608 6.27433 25.7257 7.03924 26.205 7.98005C26.75 9.04961 26.75 10.4497 26.75 13.25V18.75C26.75 21.5503 26.75 22.9504 26.205 24.02C25.7257 24.9608 24.9608 25.7257 24.02 26.205C22.9504 26.75 21.5503 26.75 18.75 26.75H13.25C10.4497 26.75 9.04961 26.75 7.98005 26.205C7.03924 25.7257 6.27433 24.9608 5.79497 24.02C5.25 22.9504 5.25 21.5503 5.25 18.75V13.25C5.25 10.4497 5.25 9.04961 5.79497 7.98005C6.27433 7.03924 7.03924 6.27433 7.98005 5.79497ZM21.162 14.8984C21.0146 15.0459 20.8064 15.1179 20.6006 15.0841C19.3224 14.8742 18.5005 14.4694 17.9559 13.8938C17.4287 13.3367 17.0878 12.5441 16.9072 11.4047C16.8747 11.1993 16.9471 10.9921 17.0942 10.845C18.1467 9.79247 19.8532 9.79247 20.9057 10.845L21.162 11.1013C22.2106 12.1499 22.2106 13.8499 21.162 14.8984ZM12.5762 15.363L15.5696 12.3696C15.8137 13.3851 16.2208 14.2425 16.8663 14.9248C17.5648 15.6629 18.487 16.1393 19.6408 16.4196L16.6368 19.4236C16.1703 19.8902 15.937 20.1235 15.6731 20.3131C15.4389 20.4815 15.1871 20.6241 14.9222 20.7383C14.6238 20.867 14.3037 20.947 13.6636 21.1071L11.5214 21.6426C11.0094 21.7706 10.7534 21.8346 10.575 21.7647C10.4193 21.7038 10.2961 21.5805 10.2351 21.4248C10.1652 21.2464 10.2292 20.9904 10.3572 20.4784L10.8928 18.3362C11.0528 17.6961 11.1328 17.376 11.2615 17.0776C11.3757 16.8127 11.5183 16.5609 11.6867 16.3267C11.8763 16.0628 12.1096 15.8296 12.5761 15.363L12.5762 15.363L12.5762 15.363L12.5762 15.363Z" fill="white"/>
</g>
</svg>
