<svg width="16" height="17" viewBox="0 0 16 17" fill="none" xmlns="http://www.w3.org/2000/svg">
<path fill-rule="evenodd" clip-rule="evenodd" d="M13.5847 6.28835L13.6865 6.18649L13.6866 6.18647C13.9398 5.93321 14.0665 5.80657 14.1563 5.68434C14.6745 4.97954 14.6745 4.01976 14.1564 3.31495C14.0665 3.19272 13.9399 3.06608 13.6866 2.81281L13.6866 2.81279C13.4333 2.55949 13.3066 2.43285 13.1844 2.34298C12.4796 1.82477 11.5198 1.82476 10.815 2.34295C10.6928 2.43282 10.5661 2.55945 10.3128 2.81273L10.3128 2.81275L10.2112 2.91437C10.6132 4.57718 11.922 5.88609 13.5847 6.28835ZM9.02108 4.10448L4.24258 8.88293C3.73328 9.39223 3.47862 9.64688 3.27628 9.93701C3.09667 10.1945 2.94801 10.4723 2.83337 10.7646C2.70421 11.0939 2.63358 11.447 2.49232 12.1533L2.31132 13.0583C2.21689 13.5304 2.16968 13.7665 2.23934 13.9349C2.30024 14.0821 2.41718 14.199 2.56438 14.2599C2.73276 14.3296 2.96882 14.2824 3.44095 14.188L4.34599 14.0069L4.34601 14.0069C5.05227 13.8657 5.4054 13.7951 5.73469 13.6659C6.02697 13.5513 6.30474 13.4026 6.56226 13.223C6.85239 13.0207 7.10704 12.766 7.61633 12.2567L12.3947 7.47839C10.8618 6.86098 9.63834 5.63736 9.02108 4.10448Z" fill="#2F384C"/>
<path fill-rule="evenodd" clip-rule="evenodd" d="M13.5847 6.28835L13.6865 6.18649L13.6866 6.18647C13.9398 5.93321 14.0665 5.80657 14.1563 5.68434C14.6745 4.97954 14.6745 4.01976 14.1564 3.31495C14.0665 3.19272 13.9399 3.06608 13.6866 2.81281L13.6866 2.81279C13.4333 2.55949 13.3066 2.43285 13.1844 2.34298C12.4796 1.82477 11.5198 1.82476 10.815 2.34295C10.6928 2.43282 10.5661 2.55945 10.3128 2.81273L10.3128 2.81275L10.2112 2.91437C10.6132 4.57718 11.922 5.88609 13.5847 6.28835ZM9.02108 4.10448L4.24258 8.88293C3.73328 9.39223 3.47862 9.64688 3.27628 9.93701C3.09667 10.1945 2.94801 10.4723 2.83337 10.7646C2.70421 11.0939 2.63358 11.447 2.49232 12.1533L2.31132 13.0583C2.21689 13.5304 2.16968 13.7665 2.23934 13.9349C2.30024 14.0821 2.41718 14.199 2.56438 14.2599C2.73276 14.3296 2.96882 14.2824 3.44095 14.188L4.34599 14.0069L4.34601 14.0069C5.05227 13.8657 5.4054 13.7951 5.73469 13.6659C6.02697 13.5513 6.30474 13.4026 6.56226 13.223C6.85239 13.0207 7.10704 12.766 7.61633 12.2567L12.3947 7.47839C10.8618 6.86098 9.63834 5.63736 9.02108 4.10448Z" fill="#0D1022"/>
</svg>
