<svg width="44" height="44" viewBox="0 0 44 44" fill="none" xmlns="http://www.w3.org/2000/svg">
<circle cx="22" cy="22" r="22" fill="white"/>
<path fill-rule="evenodd" clip-rule="evenodd" d="M19.7164 12H19.75H24.2107H24.2443H24.2443C25.616 12 26.6914 12 27.5558 12.0706C28.4359 12.1425 29.163 12.2914 29.8211 12.6267C30.9031 13.178 31.7827 14.0576 32.334 15.1396C32.6693 15.7977 32.8182 16.5248 32.8901 17.4049C32.9607 18.2693 32.9607 19.3447 32.9607 20.7163V20.7164V20.7164V20.75V23.1646V23.1982V23.1982V23.1983C32.9607 24.57 32.9607 25.6454 32.8901 26.5097C32.8182 27.3898 32.6693 28.1169 32.334 28.7751C31.7827 29.857 30.9031 30.7366 29.8211 31.2879C29.163 31.6232 28.4359 31.7721 27.5558 31.844C26.6914 31.9146 25.616 31.9146 24.2444 31.9146H24.2443H24.2443H24.2107H19.75H19.7164H19.7164H19.7163C18.3447 31.9146 17.2693 31.9146 16.4049 31.844C15.5248 31.7721 14.7977 31.6232 14.1396 31.2879C13.0576 30.7366 12.178 29.857 11.6267 28.7751C11.2914 28.1169 11.1425 27.3898 11.0706 26.5097C11 25.6453 11 24.5699 11 23.1982V23.1982V23.1646V20.75V20.7164V20.7164C11 19.3447 11 18.2693 11.0706 17.4049C11.1425 16.5248 11.2914 15.7977 11.6267 15.1396C12.178 14.0576 13.0576 13.178 14.1396 12.6267C14.7977 12.2914 15.5248 12.1425 16.4049 12.0706C17.2693 12 18.3447 12 19.7164 12H19.7164ZM16.2583 17.2413C15.9137 17.0115 15.448 17.1047 15.2182 17.4493C14.9885 17.794 15.0816 18.2596 15.4263 18.4894L16.4493 19.1714L16.5737 19.2544C18.1756 20.3226 19.1292 20.9584 20.1651 21.2477C21.3527 21.5793 22.6083 21.5793 23.7958 21.2477C24.8318 20.9584 25.7854 20.3226 27.3873 19.2544L27.5117 19.1714L28.5347 18.4894C28.8794 18.2596 28.9725 17.794 28.7427 17.4493C28.513 17.1047 28.0473 17.0115 27.7027 17.2413L26.6796 17.9233C24.915 19.0998 24.1697 19.5859 23.3924 19.8029C22.4688 20.0608 21.4922 20.0608 20.5686 19.8029C19.7913 19.5859 19.046 19.0998 17.2813 17.9233L16.2583 17.2413Z" fill="black"/>
</svg>
