<?xml version="1.0" encoding="UTF-8"?>
<svg width="24px" height="24px" viewBox="0 0 24 24" version="1.1" xmlns="http://www.w3.org/2000/svg" xmlns:xlink="http://www.w3.org/1999/xlink">
    <!-- Generator: Sketch 54.1 (76490) - https://sketchapp.com -->
    <title>Explorar</title>
    <desc>Created with Sketch.</desc>
    <g id="Page-1" stroke="none" stroke-width="1" fill="currentColor" fill-rule="evenodd">
        <g id="Ranking" transform="translate(-124.000000, -595.000000)" fill="currentColor">
            <g id="Nav-Bar" transform="translate(1.000000, 584.000000)">
                <g id="Ranking-Copy" transform="translate(90.000000, 11.000000)">
                    <g id="explore" transform="translate(33.000000, 0.000000)">
                        <g id="Group" transform="translate(0.000000, -1.000000)">
                            <path d="M12.1578957,11.1544793 C13.0000779,11.1544793 13.685124,11.8569534 13.685124,12.7205613 C13.685124,13.5841693 13.0000779,14.2863551 12.1578957,14.2863551 C11.3157135,14.2863551 10.6306674,13.5841693 10.6306674,12.7205613 C10.6306674,11.8569534 11.3157135,11.1544793 12.1578957,11.1544793 M12.1578957,15.3105203 C13.550476,15.3105203 14.6833179,14.1485699 14.6833179,12.7205613 C14.6833179,11.2925528 13.550476,10.1306024 12.1578957,10.1306024 C10.7650343,10.1306024 9.63219236,11.2925528 9.63219236,12.7205613 C9.63219236,14.1485699 10.7650343,15.3105203 12.1578957,15.3105203" id="Fill-130"></path>
                            <path d="M23.1133201,12.2086805 L21.1352039,12.2086805 C20.8841796,7.53118866 17.2183257,3.77178466 12.6571613,3.51495066 L12.6571613,1.48622152 C12.6571613,1.2034447 12.433404,0.974283056 12.1579238,0.974283056 C11.8821625,0.974283056 11.6584052,1.2034447 11.6584052,1.48622152 L11.6584052,4.01218819 C11.6584052,4.29496502 11.8821625,4.52412666 12.1579238,4.52412666 C16.5653253,4.52412666 20.1507839,8.20109013 20.1507839,12.7203307 C20.1507839,17.2398596 16.5653253,20.9168231 12.1579238,20.9168231 C7.7505223,20.9168231 4.16478256,17.2398596 4.16478256,12.7203307 C4.16478256,9.58211333 5.94978157,6.67795788 8.71217295,5.32258925 C8.9609484,5.20065796 9.06608063,4.89482085 8.94689329,4.63971637 C8.82798706,4.38490015 8.52973762,4.27709329 8.28124327,4.39902458 C6.77256773,5.13954819 5.49608261,6.29458054 4.5898091,7.74017255 C3.74847019,9.081705 3.26694211,10.6172322 3.18148704,12.2086805 L1.20224641,12.2086805 C0.926485143,12.2086805 0.703008889,12.4378422 0.703008889,12.7203307 C0.703008889,13.0031076 0.926485143,13.2325575 1.20224641,13.2325575 L3.18036263,13.2325575 C3.4313869,17.9094728 7.09724077,21.6688768 11.6584052,21.9262873 L11.6584052,23.9547282 C11.6584052,24.2372168 11.8821625,24.4666667 12.1579238,24.4666667 C12.433404,24.4666667 12.6571613,24.2372168 12.6571613,23.9547282 L12.6571613,21.9262873 C17.2183257,21.6688768 20.8841796,17.9094728 21.1352039,13.2325575 L23.1133201,13.2325575 C23.3890813,13.2325575 23.6125576,13.0031076 23.6125576,12.7203307 C23.6125576,12.4378422 23.3890813,12.2086805 23.1133201,12.2086805" id="Fill-131"></path>
                        </g>
                    </g>
                </g>
            </g>
        </g>
    </g>
</svg>