<?xml version="1.0" encoding="UTF-8"?>
<svg width="37px" height="38px" viewBox="0 0 37 38" version="1.1" xmlns="http://www.w3.org/2000/svg" xmlns:xlink="http://www.w3.org/1999/xlink">
    <!-- Generator: Sketch 54.1 (76490) - https://sketchapp.com -->
    <title>FIFA LOGO</title>
    <desc>Created with Sketch.</desc>
    <g id="Page-1" stroke="none" stroke-width="1" fill="none" fill-rule="evenodd">
        <g id="Public-Match-Feed" transform="translate(-24.000000, -386.000000)" fill="#3DF9DF">
            <g id="Reta-FIFA-19" transform="translate(8.000000, 372.000000)">
                <g id="FIFA" transform="translate(16.000000, 14.000000)">
                    <path d="M7.67971479,7.69443404 C9.27514437,6.04426383 11.1613627,4.80454752 13.2208556,4.02406525 L12.8083838,4.94684539 C12.5371373,5.54406525 12.7807641,6.25986667 13.3506162,6.55254752 L17.9289754,8.90989504 C18.262757,9.08076028 18.6559472,9.08076028 18.986081,8.90585248 L23.5448979,6.51158298 C24.1183979,6.21081702 24.3542077,5.49555461 24.0790528,4.89806525 L23.6585035,3.97932766 C25.76125,4.75576738 27.6907218,6.0116539 29.3176796,7.69443404 C29.6280106,8.01568227 29.9229683,8.3450156 30.2020317,8.6864766 L29.2311725,8.59700142 C28.5948768,8.54013617 28.0289331,9.01554043 27.9580599,9.67420709 L27.3764824,14.9297957 C27.3332289,15.3119518 27.4705458,15.6941078 27.7417923,15.9582213 L31.4714965,19.5757674 C31.9389472,20.0271858 32.6661796,20.0147887 33.1179965,19.543427 L33.8017148,18.827895 L33.8017148,18.8807177 C33.8017148,21.9740794 32.9488908,24.9370014 31.3573697,27.4735688 L31.153088,26.4817957 C31.019419,25.8355262 30.4141303,25.4169872 29.7853908,25.5388028 L24.7549542,26.5020085 C24.3896444,26.5712709 24.0754049,26.8192142 23.9102077,27.1647177 L21.6581585,31.9163348 C21.3754472,32.5097816 21.6034401,33.225044 22.1691232,33.5341645 L23.037581,34.0057957 C21.5875458,34.4690723 20.0588204,34.708661 18.4985669,34.708661 C16.9385739,34.708661 15.4098486,34.4690723 13.9598134,34.0057957 L14.8282711,33.5341645 C15.3939542,33.229356 15.6219472,32.5097816 15.3392359,31.9163348 L13.0871866,27.1687603 C12.92225,26.8232567 12.6116585,26.5753135 12.2424401,26.5063206 L7.21200352,25.5428454 C6.58326408,25.4207603 5.97797535,25.8395688 5.84430634,26.4861078 L5.64002465,27.4776113 C4.04824296,24.9413135 3.19567958,21.9821645 3.19567958,18.8847603 L3.19567958,18.8319376 L3.87939789,19.5472 C4.3275669,20.0188312 5.05818662,20.0309589 5.52589789,19.5800794 L9.25560211,15.9622638 C9.52684859,15.6978809 9.66416549,15.3159943 9.62091197,14.9338383 L9.03959507,9.67798014 C8.96872183,9.01958298 8.40277817,8.54390922 7.76622183,8.60104397 L6.79536268,8.69024965 C7.07442606,8.34905816 7.3693838,8.01568227 7.67971479,7.69443404 M5.59677113,32.2292284 C7.27115141,33.9610582 9.22407394,35.3228596 11.3974331,36.2739376 C13.6492218,37.257356 16.038588,37.7575546 18.4985669,37.7575546 C20.9588063,37.7575546 23.352081,37.257356 25.5999613,36.2739376 C27.7733204,35.3228596 29.7225951,33.9610582 31.4006232,32.2292284 C33.074743,30.4976681 34.3913697,28.4774695 35.3108979,26.2298099 C36.2616937,23.9007603 36.7452993,21.4294128 36.7452993,18.8847603 C36.7452993,16.3360652 36.2616937,13.8649872 35.3108979,11.5399801 C34.3913697,9.29205106 33.074743,7.27589504 31.4006232,5.5402922 C29.726243,3.80873191 27.7733204,2.4469305 25.5999613,1.49585248 C23.352081,0.512164539 20.9629754,0.012235461 18.4985669,0.012235461 C16.034419,0.012235461 13.6453134,0.512164539 11.3974331,1.49585248 C9.22407394,2.4469305 7.27115141,3.80873191 5.59677113,5.5402922 C3.92265141,7.27185248 2.60602465,9.29205106 1.68649648,11.5399801 C0.735700704,13.8649872 0.25209507,16.3403773 0.25209507,18.8847603 C0.25209507,21.4334553 0.735700704,23.9048028 1.68649648,26.2298099 C2.60602465,28.4817816 3.92265141,30.4976681 5.59677113,32.2292284" id="Fill-52"></path>
                    <path d="M23.4766303,17.7616043 C24.8727289,17.7616043 26.0046162,18.9323277 26.0046162,20.3763277 C26.0046162,21.8205972 24.8727289,22.9910511 23.4766303,22.9910511 C22.0805317,22.9910511 20.9486444,21.8205972 20.9486444,20.3763277 C20.9486444,18.9323277 22.0805317,17.7616043 23.4766303,17.7616043" id="Fill-54"></path>
                    <path d="M10.9927521,20.3763546 C10.9927521,21.8203546 12.1246394,22.991078 13.520738,22.991078 C14.9170972,22.991078 16.0487239,21.8203546 16.0487239,20.3763546 C16.0487239,18.9323546 14.9170972,17.7616312 13.520738,17.7616312 C12.1246394,17.7616312 10.9927521,18.9323546 10.9927521,20.3763546" id="Fill-56"></path>
                    <path d="M16.5645613,14.5325475 C16.5645613,15.6375121 17.4304134,16.5330723 18.4987232,16.5330723 C19.5667725,16.5330723 20.4328852,15.6375121 20.4328852,14.5325475 C20.4328852,13.427583 19.5667725,12.5320227 18.4987232,12.5320227 C17.4304134,12.5320227 16.5645613,13.427583 16.5645613,14.5325475" id="Fill-58"></path>
                    <path d="M17.1953592,23.6706851 C18.2188521,25.0033801 19.3434437,24.1328837 19.7913521,23.6825433 C19.8716056,23.6014227 19.8161056,23.4604723 19.7035423,23.4604723 L17.2935915,23.4604723 C17.1888451,23.4604723 17.1302183,23.586061 17.1953592,23.6706851" id="Fill-60"></path>
                </g>
            </g>
        </g>
    </g>
</svg>