<svg width="64" height="64" viewBox="0 0 64 64" fill="none" xmlns="http://www.w3.org/2000/svg">
<path fill-rule="evenodd" clip-rule="evenodd" d="M35.3333 3.36073C34.429 3.33398 33.3523 3.33398 31.9919 3.33398H30C22.5326 3.33398 18.7989 3.33398 15.9468 4.78723C13.438 6.06554 11.3982 8.10528 10.1199 10.6141C8.66666 13.4663 8.66666 17.2 8.66666 24.6673V39.334C8.66666 46.8013 8.66666 50.535 10.1199 53.3872C11.3982 55.896 13.438 57.9358 15.9468 59.2141C18.7989 60.6673 22.5326 60.6673 30 60.6673H34C41.4674 60.6673 45.201 60.6673 48.0532 59.2141C50.562 57.9358 52.6018 55.896 53.8801 53.3872C55.3333 50.535 55.3333 46.8013 55.3333 39.334V26.6754C55.3333 25.315 55.3333 24.2383 55.3066 23.334H45.7855C44.3611 23.334 43.1721 23.3341 42.2009 23.2547C41.1878 23.1719 40.2368 22.993 39.3374 22.5347C37.9575 21.8317 36.8357 20.7098 36.1326 19.3299C35.6744 18.4306 35.4954 17.4795 35.4126 16.4665C35.3333 15.4952 35.3333 14.3062 35.3333 12.8818V3.36073ZM33.4142 27.9198C32.6332 27.1388 31.3668 27.1388 30.5858 27.9198L23.9191 34.5865C23.1381 35.3675 23.1381 36.6338 23.9191 37.4149C24.7002 38.1959 25.9665 38.1959 26.7475 37.4149L30 34.1624V45.334C30 46.4386 30.8954 47.334 32 47.334C33.1046 47.334 34 46.4386 34 45.334V34.1624L37.2524 37.4149C38.0335 38.1959 39.2998 38.1959 40.0809 37.4149C40.8619 36.6338 40.8619 35.3675 40.0809 34.5865L33.4142 27.9198Z" fill="white"/>
<path d="M54.7104 19.334C54.3843 18.3047 53.9339 17.3177 53.3685 16.3951C52.544 15.0495 51.391 13.8965 49.085 11.5905L47.0768 9.58237C44.7708 7.27636 43.6178 6.12334 42.2722 5.29878C41.3496 4.7334 40.3626 4.28305 39.3333 3.95689V12.8007C39.3333 14.3272 39.3349 15.3517 39.3993 16.1407C39.4619 16.9064 39.5736 17.2725 39.6966 17.514C40.0162 18.1412 40.5261 18.6511 41.1534 18.9707C41.3949 19.0938 41.7609 19.2054 42.5266 19.268C43.3156 19.3325 44.3402 19.334 45.8667 19.334H54.7104Z" fill="white"/>
</svg>
