<svg width="25" height="24" viewBox="0 0 25 24" fill="none" xmlns="http://www.w3.org/2000/svg">
<path fill-rule="evenodd" clip-rule="evenodd" d="M13.4 2.00081L12.8958 1.94212C12.2763 1.8702 10.7784 1.98104 9.96124 2.15924C6.20273 2.97901 3.12566 6.05601 2.3036 9.81673C1.04384 15.58 4.85529 21.0635 10.7687 21.9955C11.521 22.114 21.7803 22.105 21.9402 21.9857C21.9873 21.9505 22.0263 21.9351 22.0586 21.9107C22.231 21.7807 22.2114 21.396 22.2114 16.382C22.2114 11.6626 22.217 10.9712 22.094 10.3034C22.0666 10.1548 22.0328 10.0073 21.9911 9.81673C21.0945 5.71482 17.5425 2.4833 13.4 2.00081ZM11.4119 16.1497H9.85914V10.0787H7.67915V8.81258H13.597V10.0787H11.4119V16.1497ZM16.2902 16.1955C16.1668 16.209 16.0297 16.2158 15.8789 16.2158C15.231 16.2158 14.758 16.0938 14.4598 15.8497C14.1616 15.6023 14.0125 15.1972 14.0125 14.6345V11.7464H13.2002V10.6278H14.0125V9.29562H15.5293V10.6278H16.6141V11.7464H15.5293V14.3853C15.5293 14.6396 15.5858 14.8209 15.6989 14.9294C15.8155 15.0345 15.9937 15.087 16.2336 15.087C16.3159 15.087 16.3844 15.0853 16.4393 15.0819C16.4976 15.0752 16.5558 15.0701 16.6141 15.0667V16.1599C16.525 16.1734 16.417 16.1853 16.2902 16.1955Z" fill="white"/>
</svg>
