<svg width="44" height="44" viewBox="0 0 44 44" fill="none" xmlns="http://www.w3.org/2000/svg">
<circle cx="22" cy="22" r="22" fill="white"/>
<path fill-rule="evenodd" clip-rule="evenodd" d="M31.62 22.7159C31.62 22.0423 31.5595 21.3945 31.4473 20.7727H22.5V24.4475H27.6127C27.3925 25.635 26.7232 26.6411 25.717 27.3148V29.6984H28.7873C30.5836 28.0445 31.62 25.6091 31.62 22.7159Z" fill="#4285F4"/>
<path fill-rule="evenodd" clip-rule="evenodd" d="M31.62 22.7159C31.62 22.0423 31.5595 21.3945 31.4473 20.7727H22.5V24.4475H27.6127C27.3925 25.635 26.7232 26.6411 25.717 27.3148V29.6984H28.7873C30.5836 28.0445 31.62 25.6091 31.62 22.7159Z" fill="black"/>
<path fill-rule="evenodd" clip-rule="evenodd" d="M22.5 32C25.065 32 27.2155 31.1493 28.7873 29.6984L25.7171 27.3148C24.8664 27.8848 23.7782 28.2216 22.5 28.2216C20.0257 28.2216 17.9314 26.5504 17.1844 24.305H14.0105V26.7664C15.5737 29.8711 18.7864 32 22.5 32Z" fill="#34A853"/>
<path fill-rule="evenodd" clip-rule="evenodd" d="M22.5 32C25.065 32 27.2155 31.1493 28.7873 29.6984L25.7171 27.3148C24.8664 27.8848 23.7782 28.2216 22.5 28.2216C20.0257 28.2216 17.9314 26.5504 17.1844 24.305H14.0105V26.7664C15.5737 29.8711 18.7864 32 22.5 32Z" fill="black"/>
<path fill-rule="evenodd" clip-rule="evenodd" d="M17.1843 24.305C16.9943 23.735 16.8864 23.1261 16.8864 22.5C16.8864 21.8739 16.9943 21.265 17.1843 20.695V18.2336H14.0105C13.367 19.5161 13 20.9671 13 22.5C13 24.033 13.367 25.4839 14.0105 26.7664L17.1843 24.305Z" fill="#FBBC05"/>
<path fill-rule="evenodd" clip-rule="evenodd" d="M17.1843 24.305C16.9943 23.735 16.8864 23.1261 16.8864 22.5C16.8864 21.8739 16.9943 21.265 17.1843 20.695V18.2336H14.0105C13.367 19.5161 13 20.9671 13 22.5C13 24.033 13.367 25.4839 14.0105 26.7664L17.1843 24.305Z" fill="black"/>
<path fill-rule="evenodd" clip-rule="evenodd" d="M22.5 16.7784C23.8948 16.7784 25.1471 17.2577 26.1316 18.1991L28.8564 15.4743C27.2112 13.9414 25.0607 13 22.5 13C18.7864 13 15.5737 15.1289 14.0105 18.2336L17.1844 20.695C17.9314 18.4495 20.0257 16.7784 22.5 16.7784Z" fill="#EA4335"/>
<path fill-rule="evenodd" clip-rule="evenodd" d="M22.5 16.7784C23.8948 16.7784 25.1471 17.2577 26.1316 18.1991L28.8564 15.4743C27.2112 13.9414 25.0607 13 22.5 13C18.7864 13 15.5737 15.1289 14.0105 18.2336L17.1844 20.695C17.9314 18.4495 20.0257 16.7784 22.5 16.7784Z" fill="black"/>
</svg>
