<?xml version="1.0" encoding="UTF-8"?>
<svg width="37px" height="37px" viewBox="0 0 37 37" version="1.1" xmlns="http://www.w3.org/2000/svg" xmlns:xlink="http://www.w3.org/1999/xlink">
    <!-- Generator: Sketch 54.1 (76490) - https://sketchapp.com -->
    <title>GOW LOGO</title>
    <desc>Created with Sketch.</desc>
    <g id="Page-1" stroke="none" stroke-width="1" fill="none" fill-rule="evenodd">
        <g id="Public-Match-Feed" transform="translate(-24.000000, -258.000000)">
            <g id="Reta-GOW4" transform="translate(8.000000, 246.000000)">
                <g id="GOW" transform="translate(16.000000, 12.000000)">
                    <path d="M22.247851,28.751896 C16.5943221,30.8211921 10.334776,27.9149133 8.26547981,22.2613844 C6.19661058,16.6091363 9.10075481,10.3487363 14.7544971,8.27944019 C20.4082394,6.20993058 26.6690663,9.1157825 28.7379356,14.7678171 C30.8074452,20.4215594 27.9015933,26.6825998 22.247851,28.751896 M35.2301548,10.1826633 C34.9949202,9.70920558 34.2819587,9.54846904 33.7854471,9.73033827 C32.176374,10.3190652 30.4040029,9.89897288 29.2707356,8.65555942 C28.1116394,7.3841825 27.8678663,5.49547481 28.6627971,3.95641712 C28.9146817,3.47335365 28.7490356,2.87971712 28.2860375,2.59303827 C27.0793394,1.85040558 25.7985702,1.24823058 24.4772433,0.803803654 C23.960026,0.628338269 23.3894433,0.888974808 23.1821721,1.40021519 C22.5601452,2.9414075 20.838151,4.05887865 19.1650394,3.98459404 C17.422126,3.90283827 15.9080433,2.72004788 15.398724,1.04181327 C15.2418298,0.514136346 14.6992106,0.203122885 14.1627817,0.332053654 C12.7955606,0.6603575 11.4716721,1.13979212 10.2101144,1.76694212 C9.72214135,2.00922096 9.5048375,2.58642096 9.70826635,3.09040365 C10.3614587,4.69691519 9.94819712,6.55424404 8.67532596,7.71376712 C7.45496635,8.82483442 5.43327212,9.08141519 3.96785865,8.31444788 C3.48500865,8.06234981 2.89137212,8.22820942 2.60191827,8.68864596 C1.85373558,9.89918635 1.24344904,11.1951113 0.790910577,12.5362902 C0.614804808,13.0571363 0.875868269,13.6243037 1.38369327,13.8311479 C3.01091058,14.4903171 4.04812019,16.106221 3.96913942,17.8514825 C3.89122596,19.5152017 2.73341058,20.9944902 1.01803365,21.622494 C0.454068269,21.8082056 0.194499038,22.3264902 0.319374038,22.8558748 C0.6470375,24.2303537 1.13735865,25.574521 1.77219327,26.8484594 C2.00998942,27.3244787 2.7366125,27.4751825 3.23910096,27.2909652 C4.7540375,26.6934863 6.56675288,27.1024787 7.73097212,28.3738556 C8.89241635,29.6462998 9.13554904,31.5335133 8.33976442,33.074919 C8.08937404,33.5573421 8.2533125,34.1514056 8.7167375,34.4344556 C9.91126827,35.1766613 11.1935317,35.7779825 12.5206221,36.2288133 C13.0412548,36.4051325 13.6105567,36.1449229 13.8178279,35.633469 C14.4430567,34.0875806 16.1654779,32.9701094 17.8345337,33.0478094 C19.5819298,33.1278575 21.0938779,34.3095806 21.6029837,35.9876017 C21.7624394,36.5165594 22.3048452,36.8275729 22.8395663,36.6988556 C23.5390798,36.5306479 24.2289875,36.3229498 24.9045933,36.0757613 C25.5466856,35.8405267 26.1761837,35.5704979 26.7922337,35.2641806 C27.281701,35.0212613 27.497724,34.4447017 27.2942952,33.9409325 C26.6393952,32.3348479 27.0543644,30.4770921 28.3257413,29.3177825 C29.553999,28.2003113 31.5699298,27.9514152 33.033849,28.7151806 C33.5201144,28.9659979 34.1088413,28.8020594 34.4000029,28.3409825 C35.1477587,27.1342844 35.7569779,25.8402806 36.2114375,24.4948325 C36.3875433,23.9739863 36.127974,23.4061787 35.6182279,23.1984806 C33.991651,22.5405921 32.9508125,20.9246883 33.0319279,19.1802806 C33.1077067,17.5394017 34.199776,16.0552037 35.7516413,15.486969 L35.9708663,15.4137517 C36.4900048,15.2703056 36.810624,14.7121037 36.6836144,14.1767421 C36.355524,12.800769 35.8658433,11.458096 35.2301548,10.1826633" id="Fill-39" fill="#3DF9DF"></path>
                    <path d="M16.6738792,10.1928454 C12.7026408,11.0447704 10.1714138,14.9547454 11.0216312,18.9281185 L11.7474004,22.3183146 C11.7858235,22.4976223 11.9055754,22.6474723 12.0718619,22.7253858 L15.6669812,24.4106646 L16.08131,26.3461204 C16.1489773,26.6624704 16.4591369,26.8633377 16.7757004,26.7954569 L17.2350696,26.6972646 C17.5516331,26.6295973 17.7525004,26.3194377 17.6846196,26.0026608 L17.5166254,25.2173358 C17.4737196,25.0168954 17.6011562,24.8202973 17.8011696,24.7773915 C18.00161,24.7344858 18.1984215,24.8621358 18.2411138,25.0621492 L18.4093215,25.8476877 C18.4769888,26.1642512 18.7871485,26.3651185 19.1037119,26.2972377 L19.1229235,26.2933954 C19.4392735,26.2255146 19.6401408,25.915355 19.57226,25.5987915 L19.4042658,24.8132531 C19.36136,24.6130262 19.4887965,24.4162146 19.6890235,24.3735223 L19.7272331,24.3654108 C19.9272465,24.3222915 20.1240581,24.4497281 20.1669638,24.6501685 L20.3349581,25.4354935 C20.4028388,25.7520569 20.7129985,25.9529242 21.0295619,25.8852569 L21.04856,25.8809877 C21.3651235,25.8133204 21.5659908,25.5031608 21.4983235,25.1865973 L21.3299023,24.4010588 C21.28721,24.2008319 21.4146465,24.0040204 21.61466,23.9613281 C21.8148869,23.9184223 22.0116985,24.0456454 22.0546042,24.2458723 L22.2225985,25.0316242 C22.2904792,25.3479742 22.6006388,25.5488415 22.9172023,25.4811742 L23.3784927,25.3823415 C23.6952696,25.3146742 23.8959235,25.0045146 23.8282562,24.6879512 L23.4135004,22.7505742 L26.0038562,19.7414069 C26.1238215,19.60223 26.1716369,19.4165185 26.1332138,19.2372108 L25.4076581,15.8470146 C24.5557331,11.8759896 20.6457581,9.34454923 16.6738792,10.1928454" id="Fill-41" fill="#3DF9DF"></path>
                    <path d="M21.3166677,18.4974171 C22.0849158,18.3328383 22.8409965,18.8223056 23.0053619,19.5905537 C23.1697273,20.3588017 22.68026,21.1148825 21.9120119,21.2792479 C21.1437638,21.4438267 20.3876831,20.9543594 20.2235312,20.1858979 C20.0589523,19.4178633 20.5484196,18.6617825 21.3166677,18.4974171" id="Fill-43" fill="#0D1021"></path>
                    <path d="M14.745425,21.3585062 C14.9100038,22.1267542 15.6658712,22.6162215 16.4341192,22.4516427 C17.2023673,22.2874908 17.6918346,21.53141 17.5274692,20.7631619 C17.3631038,19.9947004 16.6070231,19.5052331 15.838775,19.6698119 C15.0705269,19.8341773 14.5810596,20.5902581 14.745425,21.3585062" id="Fill-45" fill="#0D1021"></path>
                    <path d="M17.1458213,17.593749 C17.2717637,18.1814087 17.850031,18.5558202 18.437904,18.4300913 C19.0255637,18.304149 19.4001887,17.7258817 19.2742463,17.1380087 C19.1485175,16.550349 18.5700367,16.175724 17.9823771,16.3016663 C17.394504,16.4273952 17.0200925,17.005876 17.1458213,17.593749" id="Fill-47" fill="#0D1021"></path>
                </g>
            </g>
        </g>
    </g>
</svg>