<?xml version="1.0" encoding="UTF-8"?>
<svg width="20px" height="16px" viewBox="0 0 20 16" version="1.1" xmlns="http://www.w3.org/2000/svg" xmlns:xlink="http://www.w3.org/1999/xlink">
    <title>half life</title>
    <g id="UI" stroke="none" stroke-width="1" fill="none" fill-rule="evenodd">
        <g id="Profile" transform="translate(-135.000000, -690.000000)" fill-rule="nonzero">
            <g id="Slide-Up-Modal" transform="translate(0.000000, 570.000000)">
                <g id="half-life" transform="translate(135.000000, 118.000000)">
                    <path d="M6.25,2.5 C7.70540833,2.5 9.02675,3.074 10,4.007975 L10,4.007975 L10,17.3257917 C9.66529167,17.3257917 9.33058333,17.2601667 9.0115,17.1289167 C6.64195,16.1541667 0.833333333,13.2235833 0.833333333,7.91666667 C0.833333333,4.925125 3.25845833,2.5 6.25,2.5 Z" id="Combined-Shape" fill="#FFD632"></path>
                    <path d="M15.4166667,2.5 C16.872075,2.5 18.1934167,3.074 19.1666667,4.007975 L19.1666667,4.007975 L19.1666667,17.3257917 C18.8319583,17.3257917 18.49725,17.2601667 18.1781667,17.1289167 C15.8086167,16.1541667 10,13.2235833 10,7.91666667 C10,4.925125 12.425125,2.5 15.4166667,2.5 Z" id="Combined-Shape-Copy" fill="#FFFFFF" opacity="0.246907552" transform="translate(14.583542, 9.912896) scale(-1, 1) translate(-14.583542, -9.912896) "></path>
                </g>
            </g>
        </g>
    </g>
</svg>