<svg xmlns="http://www.w3.org/2000/svg" viewBox="0 0 215.59 260.09"><defs><style>.cls-1{fill:#3df9df;}</style></defs><title>halo-5</title><g id="Layer_2" data-name="Layer 2"><g id="Primarios" fill='#3df9df'><path class="cls-1" d="M107.43.33c4.81,0,9.67.42,14.42-.08,11.05-1.17,21,1.89,30.64,6.8,6,3,12.43,5.31,18.49,8.28a9.23,9.23,0,0,1,4.19,4.51c3.63,9.45,6.83,19.06,10.4,28.54a12.22,12.22,0,0,0,3.55,4.84c4,3.33,8.17,6.44,12.38,9.49a6.79,6.79,0,0,1,3,5.85c.75,19.48,1.71,39,2.52,58.44.16,3.89.62,7.47,4.29,9.77,3.31,2.08,4.13,5.15,4.08,9-.14,10.66,0,21.32.21,32a8,8,0,0,1-2.7,6.46c-24.16,23.26-48.38,46.45-72.23,70-4.39,4.34-8.63,6-14.63,5.86-12.86-.39-25.74-.3-38.61,0a14.39,14.39,0,0,1-11.5-4.65c-16.47-16.24-33.35-32.07-50.07-48.05-7.9-7.54-15.85-15-23.59-22.73A8.37,8.37,0,0,1,0,179.29c-.12-11.31.18-22.62.06-33.93,0-3.32.84-5.8,3.57-7.63,3.18-2.14,4.1-5,4.23-8.93C8.58,108.54,9.68,88.29,10.53,68c.12-2.75,1-4.69,3.57-5.85C25.18,57.3,31.77,48.85,34.21,37c.59-2.89,2.35-5.56,2.9-8.45,1.55-8.24,6.56-12.75,14.23-15.61,7.28-2.72,14.21-6.4,21.13-10A23.07,23.07,0,0,1,84,.28C91.82.47,99.63.34,107.43.33ZM188.8,87.64H29.68c0,4.8-.29,9.34.06,13.82C30.58,112.19,31,123,32.86,133.6c4.8,27.76,21.9,44.72,49.42,49.51,4,.7,6.56,2.07,8.35,5.7a5.61,5.61,0,0,0,4.19,2.37c8.32.22,16.64-.07,25,.19a9.48,9.48,0,0,0,7.87-3.23,11.3,11.3,0,0,1,7.13-4.09c22.16-3.07,37.77-14.85,46.28-35.74C189,128.92,189.17,108.57,188.8,87.64Zm-106.16,150,1.57-.28c0-7.92.1-15.84,0-23.75-.07-3.54,1-5.1,4.84-5.07,12.21.07,24.42-.28,36.63-.34,7.62,0,7.7.13,7.72,7.87,0,6.95,0,13.9,0,20.85l1.49.12,4.9-40.33a14.88,14.88,0,0,0-2.51,1.8c-2.38,3.31-5.6,3.94-9.53,3.87-12.2-.21-24.43-.33-36.62.11-4.72.17-8.71,0-11.72-4.06-.44-.59-1.39-.81-3.26-1.84C78.39,211,80.51,224.35,82.64,237.68Zm123-65.68c.05-3.67-2.48-6.84-5.48-6.88-3.22,0-5.82,3.11-5.8,7,0,3.66,2.25,6,5.67,6S205.59,175.62,205.64,172Zm-10.17-21.3c.08,3.37,2.44,6.1,5.33,6.14s5.15-2.87,5.06-6.27-2.19-5.49-5.32-5.48S195.4,147.33,195.47,150.7Zm-176.94.35c0-3-2.41-5.8-5-5.87-2.9-.09-5.36,2.66-5.32,5.92a5,5,0,0,0,5.2,5.07A5,5,0,0,0,18.53,151.05Zm-4.48,15.21a4.71,4.71,0,0,0-4.8,5.34c.23,3.18,1.89,5,5.24,5s4.67-1.94,4.85-4.87A5.12,5.12,0,0,0,14.05,166.26Z"/><circle class="cls-1" cx="140.59" cy="146.64" r="16.65"/><circle class="cls-1" cx="75" cy="146.64" r="16.65"/><circle class="cls-1" cx="107.8" cy="109.42" r="12.74"/><path class="cls-1" d="M99.21,167.62c6.74,8.49,14.15,2.95,17.1.08a.83.83,0,0,0-.58-1.42H99.86A.83.83,0,0,0,99.21,167.62Z"/></g></g></svg>