<svg width="31" height="31" viewBox="0 0 31 31" fill="none" xmlns="http://www.w3.org/2000/svg">
<g clip-path="url(#clip0_9318_134550)">
<circle cx="15.2439" cy="15.2439" r="15.2439" fill="#FFF733"/>
<path d="M11.6519 22.906C14.0205 23.6909 16.5831 22.3503 17.3757 19.9118L8.79833 17.0696C8.00576 19.5081 9.28336 22.1212 11.6519 22.906Z" fill="black"/>
<ellipse cx="17.4692" cy="14.7987" rx="2.11412" ry="2.11412" fill="white"/>
<ellipse cx="16.2452" cy="14.6875" rx="0.890155" ry="0.890154" fill="black"/>
<circle cx="11.2382" cy="13.0184" r="2.11412" fill="white"/>
<circle cx="10.0143" cy="12.9072" r="0.890155" fill="black"/>
<path fill-rule="evenodd" clip-rule="evenodd" d="M19.8679 29.7896C26.0153 27.8249 30.4666 22.0655 30.4666 15.2664C30.4666 6.84739 23.6416 0.0224609 15.2227 0.0224609C11.8659 0.0224609 8.76259 1.10743 6.24421 2.9458C7.70879 2.47774 9.26963 2.22509 10.8895 2.22509C19.3085 2.22509 26.1334 9.05001 26.1334 17.469C26.1334 22.5312 23.6659 27.0171 19.8679 29.7896Z" fill="#010201" fill-opacity="0.05"/>
<ellipse cx="12.5633" cy="21.018" rx="1.73805" ry="0.982782" transform="rotate(22.8693 12.5633 21.018)" fill="#FA1926"/>
</g>
<defs>
<clipPath id="clip0_9318_134550">
<rect width="30.4878" height="30.4878" fill="white"/>
</clipPath>
</defs>
</svg>
