<?xml version="1.0" encoding="UTF-8"?>
<svg width="73px" height="53px" viewBox="0 0 73 53" version="1.1" xmlns="http://www.w3.org/2000/svg" xmlns:xlink="http://www.w3.org/1999/xlink">
    <!-- Generator: Sketch 54.1 (76490) - https://sketchapp.com -->
    <title>HEARTH LOGO</title>
    <desc>Created with Sketch.</desc>
    <g id="Page-1" stroke="none" stroke-width="1" fill="none" fill-rule="evenodd">
        <g id="Ranking" transform="translate(-227.000000, -192.000000)" fill="#3DF9DF">
            <g id="HEARTH-STONE" transform="translate(210.000000, 168.000000)">
                <g id="HEARTH-LOGO" transform="translate(17.333333, 24.000000)">
                    <path d="M16.3509,34.1230333 C17.1662333,34.2457 17.9695667,34.3667 18.7169,34.4793667 C18.9195667,35.7353667 18.3115667,36.7017 17.7972333,37.6790333 C17.5895667,38.0737 17.2139,38.3803667 16.9082333,38.7217 C16.8659,38.7687 16.7892333,38.7953667 16.7239,38.8097 C15.1585667,39.1527 13.6495667,39.0157 12.2425667,38.2137 C11.7489,37.9323667 11.2962333,37.5783667 10.8319,37.2470333 C10.7615667,37.1967 10.7082333,37.0940333 10.6882333,37.0060333 C10.4592333,36.0220333 10.2295667,35.0380333 10.0242333,34.0487 C9.9849,33.8607 10.0162333,33.6393667 10.0755667,33.4523667 C10.4525667,32.2593667 10.8919,31.0830333 10.9442333,29.8127 C10.9475667,29.7307 10.9465667,29.6293667 10.9919,29.5720333 C11.5639,28.8487 11.9959,27.9820333 12.9445667,27.6403667 C12.9965667,27.6217 13.0522333,27.5877 13.1025667,27.5930333 C14.3309,27.7217 15.2935667,26.9620333 16.3855667,26.6343667 C17.0679,26.4297 17.8025667,26.2893667 18.5105667,26.3023667 C19.5029,26.3210333 20.4569,26.2327 21.3855667,25.8957 C21.7605667,25.7600333 22.0782333,25.8227 22.4619,25.9470333 C23.8975667,26.4117 25.1375667,27.2593667 26.4902333,27.8807 C26.8079,28.0267 27.1912333,28.0463667 27.5485667,28.0850333 C27.8919,28.1223667 27.9905667,28.2713667 28.0179,28.6197 C28.0802333,29.4217 28.1355667,30.2400333 28.3462333,31.0100333 C28.5345667,31.6993667 28.9412333,32.3267 29.2222333,32.9940333 C29.3719,33.3487 29.5165667,33.7223667 29.5639,34.1000333 C29.8042333,36.0350333 30.0635667,37.9707 30.2035667,39.9143667 C30.2502333,40.5660333 29.9792333,41.2447 29.8249,41.9043667 C29.7672333,42.1510333 29.5772333,42.2593667 29.2945667,42.2743667 C28.6532333,42.3087 28.4872333,42.4217 28.5085667,43.0437 C28.5405667,43.9930333 28.1872333,44.5583667 27.2562333,44.8230333 C26.9895667,44.8990333 26.7429,45.2003667 26.5812333,45.4577 C26.2635667,45.9650333 26.0265667,46.5220333 25.7232333,47.0393667 C25.6382333,47.1843667 25.4475667,47.3377 25.2899,47.3557 C24.9655667,47.3933667 24.7815667,47.5530333 24.6629,47.8280333 C24.5425667,48.1053667 24.3575667,48.3107 24.0362333,48.2950333 C23.5662333,48.2723667 23.3619,48.5633667 23.2315667,48.9403667 C23.1589,49.1497 23.0739,49.3730333 23.0789,49.5880333 C23.0902333,50.0850333 22.7985667,50.2247 22.3869,50.3497 C20.2739,50.9930333 18.1079,51.3713667 15.9265667,51.6733667 C15.7649,51.6957 15.5855667,51.6903667 15.4309,51.6437 C14.6749,51.4147 13.9329,51.1347 13.1692333,50.9357 C12.3642333,50.7260333 11.5442333,50.5650333 10.7235667,50.4247 C10.1375667,50.3243667 9.6259,50.1263667 9.23356667,49.6633667 C9.14523333,49.5587 9.03723333,49.4627 8.92056667,49.3907 C8.15256667,48.9150333 7.36256667,48.4730333 6.61323333,47.9697 C5.74323333,47.3857 5.05623333,46.6270333 4.66123333,45.6343667 C4.3239,44.7880333 3.65556667,44.2567 2.92356667,43.7700333 C2.53323333,43.5110333 2.17056667,43.1997 1.8399,42.8677 C1.7089,42.7367 1.69123333,42.4880333 1.63456667,42.2893667 C1.24256667,40.9240333 0.8289,39.5647 0.475566667,38.1897 C0.3109,37.5493667 0.207233333,36.8803667 0.181566667,36.2203667 C0.145566667,35.2887 0.195566667,34.3520333 0.2359,33.4187 C0.2459,33.1947 0.3329,32.9593667 0.438233333,32.7570333 C0.643233333,32.3623667 0.887233333,31.9883667 1.11356667,31.6047 C1.41423333,31.0937 1.5329,30.5610333 1.57423333,29.9497 C1.6529,28.7777 1.87223333,27.6247 2.35556667,26.5120333 C2.6249,25.8907 2.88523333,25.4270333 3.48223333,25.0567 C3.91123333,24.7903667 4.2079,24.2570333 4.4709,23.7907 C4.78356667,23.2367 5.11923333,22.7310333 5.6129,22.3163667 C5.94956667,22.0343667 6.25856667,21.6943667 6.4959,21.3263667 C6.7129,20.9890333 6.99623333,20.8630333 7.35156667,20.8107 C7.61356667,20.7723667 7.8829,20.7653667 8.1379,20.7013667 C8.4229,20.6300333 8.52823333,20.7293667 8.53323333,21.0013667 C8.5459,21.7253667 8.62823333,22.4553667 8.5579,23.1710333 C8.48756667,23.8863667 8.29056667,24.5937 8.10256667,25.2920333 C7.91623333,25.9833667 7.99056667,26.6433667 8.20256667,27.3067 C8.25723333,27.4787 8.2959,27.6560333 8.34156667,27.8313667 C8.54023333,28.5950333 8.20023333,29.2847 7.98656667,29.9693667 C7.53556667,31.4153667 7.5039,32.9067 7.3889,34.3900333 C7.37023333,34.6320333 7.4469,34.8883667 7.51356667,35.1290333 C7.8699,36.4167 8.18623333,37.7187 8.62123333,38.9797 C8.84856667,39.6400333 9.29423333,40.2243667 9.63523333,40.8463667 C9.8159,41.1760333 9.97723333,41.5157 10.1582333,41.8450333 C10.2172333,41.9517 10.2905667,42.0780333 10.3912333,42.1293667 C11.0225667,42.4520333 11.6619,42.7590333 12.3012333,43.0657 C13.0655667,43.4327 13.8365667,43.7867 14.5972333,44.1610333 C15.1832333,44.4493667 15.7302333,44.8557 16.4109,44.8693667 C17.1062333,44.8827 17.8022333,44.8397 18.4975667,44.8170333 C18.7902333,44.8073667 19.0862333,44.7493667 19.3745667,44.7777 C20.1829,44.8567 20.7619,44.5403667 21.2972333,43.9327 C22.2535667,42.8460333 22.9535667,41.6060333 23.4745667,40.2883667 C23.8125667,39.4333667 23.8815667,38.4717 24.0629,37.5563667 C24.0835667,37.4507 24.0685667,37.3300333 24.0399,37.2247 C23.7959,36.3257 23.5485667,35.4277 23.2909,34.5327 C23.2545667,34.4053667 23.1845667,34.2617 23.0845667,34.1827 C22.2242333,33.5020333 21.4069,32.7433667 20.4679,32.1940333 C19.7995667,31.8033667 19.0159,31.4657 18.1595667,31.6617 C17.7655667,31.7517 17.3639,31.8083667 16.9685667,31.8920333 C16.6389,31.9617 16.4679,32.1823667 16.4452333,32.5123667 C16.4105667,33.0260333 16.3845667,33.5400333 16.3509,34.1230333" id="Fill-40"></path>
                    <path d="M60.1823,23.4451333 C66.5683,23.4451333 71.7453,28.6221333 71.7453,35.0081333 C71.7453,41.3944667 66.5683,46.5711333 60.1823,46.5711333 C53.7963,46.5711333 48.6193,41.3944667 48.6193,35.0081333 C48.6193,28.6221333 53.7963,23.4451333 60.1823,23.4451333" id="Fill-41"></path>
                    <path d="M28.5667333,9.16586667 C28.5667333,14.0515333 32.5274,18.0125333 37.4134,18.0125333 C42.2990667,18.0125333 46.2600667,14.0515333 46.2600667,9.16586667 C46.2600667,4.27986667 42.2990667,0.3192 37.4134,0.3192 C32.5274,0.3192 28.5667333,4.27986667 28.5667333,9.16586667" id="Fill-42"></path>
                    <path d="M31.4521333,49.5771333 C36.1324667,55.4704667 41.2781333,51.6208 43.3258,49.6288 C43.6941333,49.2708 43.4384667,48.6468 42.9248,48.6468 L31.9008,48.6468 C31.4214667,48.6468 31.1538,49.2018 31.4521333,49.5771333" id="Fill-43"></path>
                </g>
            </g>
        </g>
    </g>
</svg>