<svg width="24" height="24" viewBox="0 0 24 24" fill="none" xmlns="http://www.w3.org/2000/svg">
<path opacity="0.32" d="M7.65 1.25C5.40979 1.25 4.28969 1.25 3.43404 1.68597C2.68139 2.06947 2.06947 2.68139 1.68597 3.43404C1.25 4.28969 1.25 5.40979 1.25 7.65V10.35C1.25 12.5902 1.25 13.7103 1.68597 14.566C2.06947 15.3186 2.68139 15.9305 3.43404 16.314C4.28969 16.75 5.40979 16.75 7.65 16.75H16.35C18.5902 16.75 19.7103 16.75 20.566 16.314C21.3186 15.9305 21.9305 15.3186 22.314 14.566C22.75 13.7103 22.75 12.5902 22.75 10.35V7.65C22.75 5.40979 22.75 4.28969 22.314 3.43404C21.9305 2.68139 21.3186 2.06947 20.566 1.68597C19.7103 1.25 18.5902 1.25 16.35 1.25H7.65Z" fill="#2F384C"/>
<path fill-rule="evenodd" clip-rule="evenodd" d="M6 6C5.44772 6 5 6.44772 5 7C5 7.55228 5.44772 8 6 8C6.55228 8 7 7.55228 7 7C7 6.44772 6.55228 6 6 6ZM10 6C9.44772 6 9 6.44772 9 7C9 7.55228 9.44772 8 10 8C10.5523 8 11 7.55228 11 7C11 6.44772 10.5523 6 10 6ZM14 6C13.4477 6 13 6.44772 13 7C13 7.55228 13.4477 8 14 8C14.5523 8 15 7.55228 15 7C15 6.44772 14.5523 6 14 6ZM18 6C17.4477 6 17 6.44772 17 7C17 7.55228 17.4477 8 18 8C18.5523 8 19 7.55228 19 7C19 6.44772 18.5523 6 18 6ZM6 10C5.44772 10 5 10.4477 5 11C5 11.5523 5.44772 12 6 12C6.55228 12 7 11.5523 7 11C7 10.4477 6.55228 10 6 10ZM18 10C17.4477 10 17 10.4477 17 11C17 11.5523 17.4477 12 18 12C18.5523 12 19 11.5523 19 11C19 10.4477 18.5523 10 18 10ZM9.99995 10.25C9.58574 10.25 9.24995 10.5858 9.24995 11C9.24995 11.4142 9.58574 11.75 9.99995 11.75H14C14.4142 11.75 14.75 11.4142 14.75 11C14.75 10.5858 14.4142 10.25 14 10.25H9.99995ZM11.6137 21.3604C11.8648 21.442 12.1352 21.442 12.3863 21.3604C12.4829 21.329 12.6096 21.2615 12.8292 21.0751C13.0556 20.883 13.3276 20.6117 13.7324 20.2069L14.4697 19.4697C14.7626 19.1768 15.2374 19.1768 15.5303 19.4697C15.8232 19.7626 15.8232 20.2374 15.5303 20.5303L14.7931 21.2676L14.7715 21.2891L14.7715 21.2891C14.3938 21.6668 14.0786 21.9821 13.8 22.2186C13.5094 22.4653 13.2098 22.67 12.8498 22.787C12.2975 22.9664 11.7025 22.9664 11.1502 22.787C10.7902 22.67 10.4906 22.4653 10.2 22.2186C9.9214 21.9821 9.60615 21.6668 9.22845 21.2891L9.20693 21.2676L8.46967 20.5303C8.17678 20.2374 8.17678 19.7626 8.46967 19.4697C8.76256 19.1768 9.23744 19.1768 9.53033 19.4697L10.2676 20.2069C10.6724 20.6117 10.9445 20.883 11.1708 21.0751C11.3904 21.2615 11.5171 21.329 11.6137 21.3604Z" fill="#2F384C"/>
</svg>
