<svg xmlns="http://www.w3.org/2000/svg" viewBox="0 0 108.63 106.34"><defs><style>.cls-1{fill:#0d1022;}.cls-2{fill:#3dfce1;}.cls-3{fill:#28b8c4;}</style></defs><g id="Layer_2" data-name="Layer 2"><g id="Layer_3" data-name="Layer 3"><path fill="#0d1022" d="M94.55,57.42c.52-.29,1-.6,1.56-.87a10,10,0,0,1,11,.82,3.46,3.46,0,0,1,.34,5.52A50.49,50.49,0,0,0,97,75.38a50.15,50.15,0,0,1-7.41,9.2c-.5.49-1,1-1.57,1.39a.57.57,0,0,0-.19.75c1,2.59,1.89,5.2,2.9,7.78a3.23,3.23,0,0,1-.39,3.44,12.76,12.76,0,0,1-2.52,2.46,34.42,34.42,0,0,1-16,5.87,8.42,8.42,0,0,1-3.79-.36,3.45,3.45,0,0,1-2.14-2.2q-3.3-9.06-6.66-18.09a1.24,1.24,0,0,0-.31-.48,23.62,23.62,0,0,1-3.73-4.43,3.15,3.15,0,0,0-.25-.29c-.27.74-.53,1.39-.75,2.06a14.36,14.36,0,0,1-2.69,4.85A13.2,13.2,0,0,1,28.71,75.71a.8.8,0,0,0-.29-.9,44,44,0,0,1-8.76-10.24,58.78,58.78,0,0,0-8.33-10.78C10.67,53.14,10,52.54,9.24,52a3.58,3.58,0,0,1,.2-5.85c3.65-2.55,7.69-2.51,11.67.11.34.22.67.46,1.15.78-.12-.34-.18-.55-.25-.75-2.18-6-4.38-12-6.54-18A6.24,6.24,0,0,1,21,19.71l.65-.05c-.37-1-.72-2-1.05-2.9a6.25,6.25,0,0,1,11.65-4.51c.16.39.3.79.49,1.27a6.35,6.35,0,0,1,6.74-1.19c2.46,1,3.47,3.11,4.1,5.42a17.5,17.5,0,0,1,2.45-1,5.49,5.49,0,0,1,6.44,3.67c1.29,3.48,2.55,7,3.82,10.47l1.41,3.87a1.3,1.3,0,0,0,.36.56c.13-1,.27-2,.37-2.94a5.56,5.56,0,0,1,11.12.33c0,1.49-.19,3-.29,4.46a2.56,2.56,0,0,0,.06,1c.09-.21.18-.43.26-.64q1.84-5.1,3.7-10.21a6.18,6.18,0,0,1,5-4.26,6.07,6.07,0,0,1,4.77,1.19l.53.41.5-1.25A6.24,6.24,0,0,1,95.9,27.54c-.33,1.09-.76,2.15-1.16,3.29.21,0,.37.06.53.07a6.22,6.22,0,0,1,5.7,8.43c-2.08,5.81-4.21,11.6-6.32,17.4-.07.2-.14.4-.2.59Zm10.18,2.82a6.37,6.37,0,0,0-6.87-.4,17.77,17.77,0,0,0-6,5.61,4.45,4.45,0,0,0-.65,4.07,1.89,1.89,0,0,1-1.09,2.34,1.75,1.75,0,0,1-2.32-.94,6.89,6.89,0,0,1-.49-2.19,14.18,14.18,0,0,1,1-5.45c1.63-4.55,3.3-9.09,5-13.63,1.4-3.86,2.81-7.71,4.2-11.57a2.44,2.44,0,0,0-.62-2.78,2.39,2.39,0,0,0-2.69-.49,2.55,2.55,0,0,0-1.46,1.63q-3.18,8.73-6.37,17.45a4.26,4.26,0,0,0-.18,2.4,1.84,1.84,0,0,1-1.22,2.16,1.8,1.8,0,0,1-2.26-1,3.74,3.74,0,0,1-.26-.94,7.48,7.48,0,0,1,.38-3.72q3.36-9.24,6.73-18.49c.91-2.51,1.84-5,2.73-7.53a2.52,2.52,0,0,0-2.3-3.5,2.59,2.59,0,0,0-2.53,1.94q-2.74,7.57-5.5,15.16c-1.28,3.51-2.59,7-3.81,10.54a5.19,5.19,0,0,0-.22,2.22,2,2,0,0,1-1.44,2.39,1.89,1.89,0,0,1-2.23-1.68,7.52,7.52,0,0,1,.36-4.17c.92-2.57,1.86-5.13,2.79-7.69,1.42-4,2.86-7.89,4.28-11.85a2.49,2.49,0,0,0-1.44-3.19A2.52,2.52,0,0,0,77,28.22c-.13.28-.23.57-.34.86Q73.77,37,70.9,44.9c-.82,2.24-1.64,4.47-2.44,6.71a2.69,2.69,0,0,0,0,2.3,1.85,1.85,0,0,1-3.13,2,4.91,4.91,0,0,1-.8-3.27c.11-2,.25-4.09.4-6.14.32-4.55.66-9.11,1-13.67a1.81,1.81,0,0,0-1.58-2,1.77,1.77,0,0,0-2,1.54c-.19,1.06-.3,2.14-.43,3.22-.68,5.53-1.34,11.06-2,16.59a14.26,14.26,0,0,1-.46,2.79c-.82,2.46-1.76,4.88-2.64,7.32a18.21,18.21,0,0,0-1.07,8.56,18.46,18.46,0,0,0,4.7,10.46.66.66,0,0,0,.93.2,15.25,15.25,0,0,1,5.28-1.27,1.79,1.79,0,0,1,1.9,2,1.9,1.9,0,0,1-1.77,1.7c-1.23.22-2.45.49-3.78.75,1.82,5,3.58,9.72,5.35,14.52A36.17,36.17,0,0,1,86,92.6a2.44,2.44,0,0,0-.08-.34c-.71-2-1.41-3.9-2.16-5.82a2.09,2.09,0,0,0-.78-.89,4.37,4.37,0,0,0-1.37-.63c-1.37-.34-2.74-.64-4.13-.92a1.91,1.91,0,0,1-1.69-2.06,1.81,1.81,0,0,1,2-1.62A20,20,0,0,1,84.22,82c.56.27,1.08.65,1.64,1,.2-.17.39-.33.57-.5a43.52,43.52,0,0,0,7.26-8.8A63.91,63.91,0,0,1,102,62.83C102.83,62,103.76,61.14,104.73,60.24ZM52,77.85l-.12-.13c-.17.07-.34.15-.51.21-.76.29-1.51.62-2.29.84a1.82,1.82,0,0,1-2.33-2,1.94,1.94,0,0,1,1.37-1.57c1.21-.5,2.4-1.08,3.6-1.6a.7.7,0,0,0,.44-.92,20.7,20.7,0,0,1,.58-10.16c.87-2.76,1.93-5.47,2.91-8.2a4.62,4.62,0,0,0,.26-1c.38-3,.75-6,1.09-8.93a2.83,2.83,0,0,0-.14-1.19c-1.52-4.24-3.07-8.48-4.61-12.71Q50.62,26.09,49,21.64a1.83,1.83,0,1,0-3.45,1.19q2.61,7.23,5.25,14.45a.92.92,0,0,0,.65.66,1.82,1.82,0,0,1,1.28,2.12,1.85,1.85,0,0,1-2.06,1.47,3.39,3.39,0,0,1-3.1-2.33c-1.39-3.8-2.81-7.59-4.2-11.38-1.26-3.45-2.5-6.91-3.76-10.37a2.56,2.56,0,0,0-3.29-1.76,2.52,2.52,0,0,0-1.46,3.46c.31.88.63,1.75.95,2.62q2.94,8.07,5.87,16.14c.12.32.23.55.64.63a1.79,1.79,0,0,1,1.44,1.91,1.85,1.85,0,0,1-1.61,1.73A3.09,3.09,0,0,1,38.5,40q-3.73-10.12-7.44-20.27c-.72-2-1.41-3.93-2.14-5.89a2.54,2.54,0,1,0-4.73,1.81q1.61,4.39,3.22,8.78,3,8.15,5.92,16.31a.81.81,0,0,0,.76.64,1.75,1.75,0,0,1,1.44,1.48,1.64,1.64,0,0,1-.84,1.83,3.73,3.73,0,0,1-1.87.41A3,3,0,0,1,30.2,43Q27,34.28,23.84,25.62a4.87,4.87,0,0,0-.53-1.16,2.52,2.52,0,0,0-4.42,2.28c.38,1.16.83,2.3,1.25,3.44C22.76,37.42,25.4,44.66,28,51.9a.85.85,0,0,0,.95.65,23.79,23.79,0,0,1,4.56.37c5.13,1.18,8.17,4.66,9.9,9.46a1.8,1.8,0,0,1-1.09,2.28,1.85,1.85,0,0,1-2.37-1c-.12-.26-.21-.53-.32-.8-2.31-5.64-7.08-7.45-12.37-6.34a2.07,2.07,0,0,1-2.39-.94c-1.19-1.55-2.38-3.11-3.71-4.53a9.37,9.37,0,0,0-5.06-3,5.5,5.5,0,0,0-4.4,1c.95.89,1.9,1.72,2.78,2.62a65,65,0,0,1,8.33,10.92,45.38,45.38,0,0,0,5.74,7.29A19.14,19.14,0,0,0,37,75.3c1,.3,2.07.46,3.1.72a1.81,1.81,0,0,1,1.39,1.73,1.75,1.75,0,0,1-1.24,1.77,3.5,3.5,0,0,1-1.37,0,20.35,20.35,0,0,1-6.07-1.91l-.62-.27a18.94,18.94,0,0,0,0,2.39,9.09,9.09,0,0,0,6.17,7.82,9.14,9.14,0,0,0,9.76-2C50.4,83.5,50.86,80.5,52,77.85Zm34.7,18.72c-3.35-.82-15.14,3.56-16.44,6.12A30.85,30.85,0,0,0,86.69,96.57Z"/><path fill="#3dfce1" d="M104.73,60.24c-1,.9-1.9,1.71-2.77,2.59a63.91,63.91,0,0,0-8.27,10.82,43.52,43.52,0,0,1-7.26,8.8c-.18.17-.37.33-.57.5-.56-.34-1.08-.72-1.64-1a20,20,0,0,0-6.38-1.64,1.81,1.81,0,0,0-2,1.62A1.91,1.91,0,0,0,77.48,84c1.39.28,2.76.58,4.13.92a4.37,4.37,0,0,1,1.37.63,2.09,2.09,0,0,1,.78.89c.75,1.92,1.45,3.87,2.16,5.82a2.44,2.44,0,0,1,.08.34,36.17,36.17,0,0,0-17.75,6.56c-1.77-4.8-3.53-9.57-5.35-14.52,1.33-.26,2.55-.53,3.78-.75a1.9,1.9,0,0,0,1.77-1.7,1.79,1.79,0,0,0-1.9-2,15.25,15.25,0,0,0-5.28,1.27.66.66,0,0,1-.93-.2,18.46,18.46,0,0,1-4.7-10.46,18.21,18.21,0,0,1,1.07-8.56c.88-2.44,1.82-4.86,2.64-7.32a14.26,14.26,0,0,0,.46-2.79c.68-5.53,1.34-11.06,2-16.59.13-1.08.24-2.16.43-3.22a1.77,1.77,0,0,1,2-1.54,1.81,1.81,0,0,1,1.58,2c-.32,4.56-.66,9.12-1,13.67-.15,2.05-.29,4.1-.4,6.14a4.91,4.91,0,0,0,.8,3.27,1.85,1.85,0,0,0,3.13-2,2.69,2.69,0,0,1,0-2.3c.8-2.24,1.62-4.47,2.44-6.71q2.88-7.9,5.75-15.82c.11-.29.21-.58.34-.86a2.52,2.52,0,0,1,3.22-1.3,2.49,2.49,0,0,1,1.44,3.19c-1.42,4-2.86,7.9-4.28,11.85-.93,2.56-1.87,5.12-2.79,7.69a7.52,7.52,0,0,0-.36,4.17,1.89,1.89,0,0,0,2.23,1.68,2,2,0,0,0,1.44-2.39,5.19,5.19,0,0,1,.22-2.22c1.22-3.53,2.53-7,3.81-10.54q2.76-7.58,5.5-15.16A2.59,2.59,0,0,1,90,23.25a2.52,2.52,0,0,1,2.3,3.5c-.89,2.52-1.82,5-2.73,7.53q-3.37,9.26-6.73,18.49a7.48,7.48,0,0,0-.38,3.72,3.74,3.74,0,0,0,.26.94,1.8,1.8,0,0,0,2.26,1,1.84,1.84,0,0,0,1.22-2.16,4.26,4.26,0,0,1,.18-2.4q3.19-8.73,6.37-17.45a2.55,2.55,0,0,1,1.46-1.63,2.39,2.39,0,0,1,2.69.49,2.44,2.44,0,0,1,.62,2.78c-1.39,3.86-2.8,7.71-4.2,11.57-1.66,4.54-3.33,9.08-5,13.63a14.18,14.18,0,0,0-1,5.45,6.89,6.89,0,0,0,.49,2.19,1.75,1.75,0,0,0,2.32.94,1.89,1.89,0,0,0,1.09-2.34,4.45,4.45,0,0,1,.65-4.07,17.77,17.77,0,0,1,6-5.61A6.37,6.37,0,0,1,104.73,60.24Z"/><path fill="#28b8c4" d="M52,77.85c-1.13,2.65-1.59,5.65-3.9,7.72a9.14,9.14,0,0,1-9.76,2,9.09,9.09,0,0,1-6.17-7.82,18.94,18.94,0,0,1,0-2.39l.62.27a20.35,20.35,0,0,0,6.07,1.91,3.5,3.5,0,0,0,1.37,0,1.75,1.75,0,0,0,1.24-1.77A1.81,1.81,0,0,0,40.06,76c-1-.26-2.08-.42-3.1-.72a19.14,19.14,0,0,1-8.4-5.4,45.38,45.38,0,0,1-5.74-7.29,65,65,0,0,0-8.33-10.92c-.88-.9-1.83-1.73-2.78-2.62a5.5,5.5,0,0,1,4.4-1,9.37,9.37,0,0,1,5.06,3c1.33,1.42,2.52,3,3.71,4.53a2.07,2.07,0,0,0,2.39.94c5.29-1.11,10.06.7,12.37,6.34.11.27.2.54.32.8a1.85,1.85,0,0,0,2.37,1,1.8,1.8,0,0,0,1.09-2.28c-1.73-4.8-4.77-8.28-9.9-9.46A23.79,23.79,0,0,0,29,52.55.85.85,0,0,1,28,51.9c-2.61-7.24-5.25-14.48-7.87-21.72-.42-1.14-.87-2.28-1.25-3.44a2.52,2.52,0,0,1,4.42-2.28,4.87,4.87,0,0,1,.53,1.16Q27,34.28,30.2,43a3,3,0,0,0,2.62,2.16,3.73,3.73,0,0,0,1.87-.41,1.64,1.64,0,0,0,.84-1.83,1.75,1.75,0,0,0-1.44-1.48.81.81,0,0,1-.76-.64q-3-8.16-5.92-16.31Q25.81,20,24.19,15.66a2.54,2.54,0,1,1,4.73-1.81c.73,2,1.42,3.93,2.14,5.89Q34.78,29.88,38.5,40a3.09,3.09,0,0,0,3.63,2.17,1.85,1.85,0,0,0,1.61-1.73,1.79,1.79,0,0,0-1.44-1.91c-.41-.08-.52-.31-.64-.63q-2.92-8.07-5.87-16.14c-.32-.87-.64-1.74-.95-2.62a2.52,2.52,0,0,1,1.46-3.46,2.56,2.56,0,0,1,3.29,1.76c1.26,3.46,2.5,6.92,3.76,10.37,1.39,3.79,2.81,7.58,4.2,11.38a3.39,3.39,0,0,0,3.1,2.33,1.85,1.85,0,0,0,2.06-1.47,1.82,1.82,0,0,0-1.28-2.12.92.92,0,0,1-.65-.66q-2.62-7.22-5.25-14.45A1.83,1.83,0,1,1,49,21.64q1.65,4.44,3.26,8.89c1.54,4.23,3.09,8.47,4.61,12.71A2.83,2.83,0,0,1,57,44.43c-.34,3-.71,6-1.09,8.93a4.62,4.62,0,0,1-.26,1c-1,2.73-2,5.44-2.91,8.2a20.7,20.7,0,0,0-.58,10.16.7.7,0,0,1-.44.92c-1.2.52-2.39,1.1-3.6,1.6a1.94,1.94,0,0,0-1.37,1.57,1.82,1.82,0,0,0,2.33,2c.78-.22,1.53-.55,2.29-.84.17-.06.34-.14.51-.21Z"/><path fill="#28b8c4" d="M86.69,96.57a30.85,30.85,0,0,1-16.44,6.12C71.55,100.13,83.34,95.75,86.69,96.57Z"/><rect fill="#0d1022" x="13" y="87.13" width="11.13" height="2.8" rx="1.4" transform="translate(-71.87 86.15) rotate(-76.65)"/><rect fill="#0d1022" x="6.63" y="81.48" width="10.74" height="2.8" rx="1.4" transform="translate(-58.84 38.23) rotate(-49.54)"/><rect fill="#0d1022" x="-0.3" y="75.82" width="11.37" height="2.8" rx="1.4" transform="translate(-27.9 7.34) rotate(-21.48)"/><rect fill="#0d1022" x="61.6" y="4.1" width="11.22" height="2.8" rx="1.4" transform="translate(46.6 69.71) rotate(-76.88)"/><rect fill="#0d1022" x="68.38" y="9.78" width="10.84" height="2.8" rx="1.4" transform="translate(17.5 60.19) rotate(-49.65)"/><rect fill="#0d1022" x="74.71" y="15.43" width="11.22" height="2.8" rx="1.4" transform="translate(-0.34 31.94) rotate(-22.45)"/></g></g></svg>