<svg width="24" height="25" viewBox="0 0 24 25" fill="none" xmlns="http://www.w3.org/2000/svg">
<path fill-rule="evenodd" clip-rule="evenodd" d="M0 6.76405C0 3.57307 2.6863 0.986267 6 0.986267H18C21.3137 0.986267 24 3.57307 24 6.76405V18.3196C24 21.5106 21.3137 24.0974 18 24.0974H6C2.6863 24.0974 0 21.5106 0 18.3196V6.76405ZM15.6 12.5418C15.6 14.4565 13.9883 16.0085 12 16.0085C10.0117 16.0085 8.4 14.4565 8.4 12.5418C8.4 10.6272 10.0117 9.07516 12 9.07516C13.9883 9.07516 15.6 10.6272 15.6 12.5418ZM20.4005 5.60869C20.4005 6.24688 19.8633 6.76425 19.2005 6.76425C18.5377 6.76425 18.0005 6.24688 18.0005 5.60869C18.0005 4.9705 18.5377 4.45313 19.2005 4.45313C19.8633 4.45313 20.4005 4.9705 20.4005 5.60869Z" fill="white"/>
<path opacity="0.44" fill-rule="evenodd" clip-rule="evenodd" d="M17.9999 12.5419C17.9999 15.7329 15.3136 18.3197 11.9999 18.3197C8.68623 18.3197 5.99994 15.7329 5.99994 12.5419C5.99994 9.35096 8.68623 6.76416 11.9999 6.76416C15.3136 6.76416 17.9999 9.35096 17.9999 12.5419ZM15.5999 12.5419C15.5999 14.4566 13.9882 16.0086 11.9999 16.0086C10.0117 16.0086 8.39994 14.4566 8.39994 12.5419C8.39994 10.6273 10.0117 9.07527 11.9999 9.07527C13.9882 9.07527 15.5999 10.6273 15.5999 12.5419Z" fill="#C4C4C4"/>
</svg>
