<svg width="54" height="53" viewBox="0 0 54 53" fill="none" xmlns="http://www.w3.org/2000/svg">
<g filter="url(#filter0_d_2065_20742)">
<path fill-rule="evenodd" clip-rule="evenodd" d="M28.1785 11.9875C27.4327 11.6337 26.5674 11.6337 25.8216 11.9875C25.3053 12.2323 24.9391 12.6959 24.6146 13.2197C24.2883 13.7465 23.9303 14.4624 23.4845 15.354L23.4845 15.354L23.467 15.389L23.1077 16.1075C22.8021 16.7189 22.7132 16.8791 22.6016 16.9959C22.4865 17.1164 22.3484 17.2127 22.1956 17.279C22.0474 17.3434 21.8663 17.3714 21.187 17.4469L20.8608 17.4831L20.8217 17.4875L20.8217 17.4875C19.7507 17.6064 18.8952 17.7015 18.2475 17.8332C17.6087 17.9632 17.0134 18.1555 16.5967 18.5807C16.0005 19.189 15.7198 20.0392 15.8366 20.883C15.9183 21.4726 16.2821 21.9816 16.718 22.4663C17.16 22.9578 17.7908 23.5435 18.5804 24.2767L18.6092 24.3035L18.9536 24.6232C19.5517 25.1786 19.7051 25.3358 19.791 25.5031C19.8797 25.6758 19.9269 25.8668 19.929 26.061C19.9309 26.2488 19.8672 26.4632 19.5933 27.2438L19.5804 27.2807L19.5804 27.2808C19.1761 28.4328 18.856 29.3452 18.6742 30.055C18.4977 30.7445 18.3987 31.4216 18.6289 32.0079C18.9529 32.833 19.6546 33.4514 20.5139 33.6689C21.1228 33.823 21.7763 33.6435 22.4322 33.3847C23.1055 33.1191 23.9582 32.6928 25.0332 32.1553L25.0684 32.1377L25.9044 31.7197C26.468 31.4379 26.6218 31.3686 26.7695 31.3409C26.9219 31.3123 27.0782 31.3123 27.2305 31.3409C27.3783 31.3686 27.5321 31.4379 28.0957 31.7197L28.9316 32.1377L28.9669 32.1553C30.0419 32.6928 30.8945 33.1191 31.5678 33.3847C32.2238 33.6435 32.8772 33.823 33.4861 33.6689C34.3454 33.4514 35.0472 32.833 35.3711 32.0079C35.6013 31.4216 35.5024 30.7445 35.3258 30.055C35.144 29.3452 34.8239 28.4328 34.4197 27.2808L34.4196 27.2806L34.4067 27.2438C34.1328 26.4632 34.0691 26.2488 34.0711 26.061C34.0731 25.8668 34.1204 25.6758 34.2091 25.5031C34.295 25.3358 34.4483 25.1786 35.0465 24.6232L35.3908 24.3035L35.4197 24.2766L35.4197 24.2766C36.2093 23.5435 36.8401 22.9578 37.282 22.4663C37.7179 21.9816 38.0817 21.4726 38.1634 20.883C38.2803 20.0392 37.9996 19.189 37.4033 18.5807C36.9866 18.1555 36.3913 17.9632 35.7525 17.8332C35.1048 17.7015 34.2493 17.6064 33.1784 17.4875L33.1392 17.4831L32.8131 17.4469C32.1337 17.3714 31.9527 17.3434 31.8045 17.279C31.6516 17.2127 31.5136 17.1164 31.3985 16.9959C31.2869 16.8791 31.198 16.7189 30.8923 16.1075L30.533 15.389L30.5155 15.354C30.0698 14.4624 29.7118 13.7465 29.3855 13.2197C29.061 12.6959 28.6948 12.2323 28.1785 11.9875Z" fill="url(#paint0_linear_2065_20742)"/>
</g>
<defs>
<filter id="filter0_d_2065_20742" x="0.810608" y="0.722168" width="52.3788" height="52.0038" filterUnits="userSpaceOnUse" color-interpolation-filters="sRGB">
<feFlood flood-opacity="0" result="BackgroundImageFix"/>
<feColorMatrix in="SourceAlpha" type="matrix" values="0 0 0 0 0 0 0 0 0 0 0 0 0 0 0 0 0 0 127 0" result="hardAlpha"/>
<feOffset dy="4"/>
<feGaussianBlur stdDeviation="7.5"/>
<feComposite in2="hardAlpha" operator="out"/>
<feColorMatrix type="matrix" values="0 0 0 0 0.647059 0 0 0 0 0.956863 0 0 0 0 0.980392 0 0 0 0.35 0"/>
<feBlend mode="normal" in2="BackgroundImageFix" result="effect1_dropShadow_2065_20742"/>
<feBlend mode="normal" in="SourceGraphic" in2="effect1_dropShadow_2065_20742" result="shape"/>
</filter>
<linearGradient id="paint0_linear_2065_20742" x1="16.9379" y1="31.5251" x2="33.985" y2="11.4658" gradientUnits="userSpaceOnUse">
<stop stop-color="#ECC2FF"/>
<stop offset="1" stop-color="#94FFF9"/>
</linearGradient>
</defs>
</svg>
