<svg width="16" height="16" viewBox="0 0 16 16" fill="none" xmlns="http://www.w3.org/2000/svg">
<path fill-rule="evenodd" clip-rule="evenodd" d="M8.78528 0.658308C8.28807 0.422492 7.71123 0.422491 7.21402 0.658306C6.86982 0.821556 6.62568 1.13057 6.40934 1.47982C6.19181 1.83097 5.95316 2.30828 5.65597 2.90267L5.65596 2.90269L5.64432 2.92597L5.4048 3.40502C5.20101 3.8126 5.14174 3.91941 5.06734 3.99728C4.9906 4.0776 4.89858 4.14177 4.79668 4.18601C4.69789 4.2289 4.57717 4.24759 4.12427 4.29791L3.90683 4.32207L3.88074 4.32497L3.88073 4.32497C3.16677 4.40429 2.59644 4.46766 2.16464 4.55549C1.73878 4.64211 1.34191 4.77033 1.06409 5.05377C0.666606 5.45931 0.479478 6.02615 0.557397 6.58863C0.611856 6.98177 0.85439 7.32107 1.14498 7.64421C1.43962 7.97185 1.86014 8.36233 2.38655 8.85113L2.40578 8.86899L2.63534 9.08215C3.0341 9.45243 3.13633 9.55717 3.19361 9.6687C3.25276 9.78386 3.28426 9.91121 3.28562 10.0407C3.28693 10.1659 3.24447 10.3088 3.06186 10.8292L3.05323 10.8538L3.05321 10.8539C2.78372 11.6219 2.5703 12.2301 2.44913 12.7033C2.33141 13.163 2.26546 13.6144 2.41892 14.0053C2.63487 14.5553 3.10271 14.9676 3.67556 15.1126C4.0815 15.2153 4.51715 15.0956 4.95443 14.9232C5.40333 14.7461 5.97176 14.4619 6.68843 14.1035L6.71192 14.0918L7.2692 13.8132C7.64494 13.6253 7.74749 13.5791 7.84599 13.5606C7.94754 13.5415 8.05176 13.5415 8.15332 13.5606C8.25181 13.5791 8.35436 13.6253 8.7301 13.8132L9.28738 14.0918L9.3109 14.1036C10.0276 14.4619 10.596 14.7461 11.0449 14.9232C11.4821 15.0956 11.9178 15.2153 12.3237 15.1126C12.8966 14.9676 13.3644 14.5553 13.5804 14.0053C13.7338 13.6144 13.6679 13.163 13.5502 12.7033C13.429 12.2301 13.2156 11.6219 12.9461 10.8538L12.946 10.8538L12.9374 10.8292C12.7548 10.3088 12.7124 10.1659 12.7137 10.0407C12.715 9.91121 12.7465 9.78386 12.8057 9.6687C12.863 9.55717 12.9652 9.45243 13.364 9.08215L13.5935 8.86899L13.6128 8.8511L13.6128 8.85109C14.1392 8.3623 14.5597 7.97184 14.8543 7.64421C15.1449 7.32107 15.3874 6.98177 15.4419 6.58863C15.5198 6.02615 15.3327 5.45931 14.9352 5.05377C14.6574 4.77033 14.2605 4.64211 13.8347 4.55549C13.4029 4.46766 12.8325 4.40429 12.1186 4.32497L12.0925 4.32207L11.875 4.29791C11.4221 4.24759 11.3014 4.2289 11.2026 4.18601C11.1007 4.14177 11.0087 4.0776 10.9319 3.99728C10.8576 3.91941 10.7983 3.8126 10.5945 3.40502L10.355 2.92597L10.3433 2.90268C10.0461 2.30828 9.80749 1.83097 9.58996 1.47982C9.37362 1.13057 9.12949 0.821557 8.78528 0.658308Z" fill="url(#paint0_linear_4578_53345)"/>
<defs>
<linearGradient id="paint0_linear_4578_53345" x1="1.29155" y1="13.6834" x2="12.6563" y2="0.310563" gradientUnits="userSpaceOnUse">
<stop stop-color="#ECC2FF"/>
<stop offset="1" stop-color="#94FFF9"/>
</linearGradient>
</defs>
</svg>
