<svg width="65" height="64" viewBox="0 0 65 64" fill="none" xmlns="http://www.w3.org/2000/svg">
<g filter="url(#filter0_d_2997_1321)">
<path fill-rule="evenodd" clip-rule="evenodd" d="M34.2677 11.4812C33.149 10.9506 31.8511 10.9506 30.7324 11.4812C29.9579 11.8485 29.4086 12.5438 28.9218 13.3296C28.4324 14.1197 27.8954 15.1936 27.2268 16.531L27.2267 16.531L27.2006 16.5834L26.6616 17.6613C26.2031 18.5783 26.0697 18.8187 25.9023 18.9939C25.7297 19.1746 25.5226 19.319 25.2934 19.4185C25.0711 19.515 24.7995 19.5571 23.7804 19.6703L23.2912 19.7247L23.2325 19.7312L23.2325 19.7312C21.6261 19.9097 20.3428 20.0522 19.3713 20.2499C18.4131 20.4447 17.5201 20.7332 16.895 21.371C16.0007 22.2834 15.5796 23.5588 15.755 24.8244C15.8775 25.709 16.4232 26.4724 17.077 27.1995C17.74 27.9367 18.6861 28.8152 19.8706 29.915L19.9138 29.9552L20.4303 30.4348C21.3275 31.268 21.5576 31.5036 21.6865 31.7546C21.8195 32.0137 21.8904 32.3002 21.8935 32.5915C21.8964 32.8732 21.8009 33.1948 21.39 34.3657L21.3706 34.4211L21.3705 34.4212C20.7642 36.1492 20.284 37.5178 20.0114 38.5825C19.7465 39.6168 19.5981 40.6324 19.9434 41.5119C20.4293 42.7495 21.4819 43.677 22.7708 44.0033C23.6842 44.2345 24.6644 43.9652 25.6483 43.5771C26.6583 43.1787 27.9373 42.5392 29.5498 41.733L29.6026 41.7065L30.8565 41.0796C31.7019 40.6569 31.9327 40.5529 32.1543 40.5113C32.3828 40.4684 32.6173 40.4684 32.8458 40.5113C33.0674 40.5529 33.2981 40.6569 34.1435 41.0796L35.3974 41.7065L35.4503 41.733C37.0628 42.5392 38.3418 43.1787 39.3518 43.5771C40.3356 43.9652 41.3158 44.2345 42.2292 44.0033C43.5181 43.677 44.5708 42.7495 45.0567 41.5119C45.4019 40.6324 45.2536 39.6168 44.9887 38.5825C44.7161 37.5178 44.2358 36.1492 43.6295 34.4211L43.6294 34.4209L43.6101 34.3657C43.1992 33.1948 43.1036 32.8732 43.1066 32.5915C43.1097 32.3002 43.1805 32.0137 43.3136 31.7546C43.4425 31.5036 43.6725 31.268 44.5697 30.4348L45.0862 29.9552L45.1296 29.915L45.1296 29.915C46.314 28.8152 47.2601 27.9366 47.923 27.1995C48.5769 26.4724 49.1226 25.709 49.2451 24.8244C49.4204 23.5588 48.9994 22.2834 48.105 21.371C47.4799 20.7332 46.587 20.4447 45.6288 20.2499C44.6573 20.0522 43.374 19.9097 41.7676 19.7312L41.7089 19.7247L41.2196 19.6703C40.2006 19.5571 39.929 19.515 39.7067 19.4185C39.4774 19.319 39.2704 19.1746 39.0977 18.9939C38.9303 18.8187 38.797 18.5783 38.3384 17.6613L37.7995 16.5834L37.7733 16.531C37.1046 15.1936 36.5677 14.1197 36.0782 13.3296C35.5915 12.5438 35.0422 11.8485 34.2677 11.4812Z" fill="url(#paint0_linear_2997_1321)"/>
</g>
<defs>
<filter id="filter0_d_2997_1321" x="0.715912" y="0.083252" width="63.5682" height="63.0056" filterUnits="userSpaceOnUse" color-interpolation-filters="sRGB">
<feFlood flood-opacity="0" result="BackgroundImageFix"/>
<feColorMatrix in="SourceAlpha" type="matrix" values="0 0 0 0 0 0 0 0 0 0 0 0 0 0 0 0 0 0 127 0" result="hardAlpha"/>
<feOffset dy="4"/>
<feGaussianBlur stdDeviation="7.5"/>
<feComposite in2="hardAlpha" operator="out"/>
<feColorMatrix type="matrix" values="0 0 0 0 0.647059 0 0 0 0 0.956863 0 0 0 0 0.980392 0 0 0 0.35 0"/>
<feBlend mode="normal" in2="BackgroundImageFix" result="effect1_dropShadow_2997_1321"/>
<feBlend mode="normal" in="SourceGraphic" in2="effect1_dropShadow_2997_1321" result="shape"/>
</filter>
<linearGradient id="paint0_linear_2997_1321" x1="17.4068" y1="40.7876" x2="42.9775" y2="10.6988" gradientUnits="userSpaceOnUse">
<stop stop-color="#ECC2FF"/>
<stop offset="1" stop-color="#94FFF9"/>
</linearGradient>
</defs>
</svg>
