<?xml version="1.0" encoding="UTF-8"?>
<svg width="86px" height="107px" viewBox="0 0 86 107" version="1.1" xmlns="http://www.w3.org/2000/svg" xmlns:xlink="http://www.w3.org/1999/xlink">
    <!-- Generator: Sketch 54.1 (76490) - https://sketchapp.com -->
    <title>Lighting</title>
    <desc>Created with Sketch.</desc>
    <g id="Page-1" stroke="none" stroke-width="1" fill="none" fill-rule="evenodd">
        <g id="Tipo-de-Reta" transform="translate(-138.000000, -190.000000)" fill-rule="nonzero">
            <g id="Lighting" transform="translate(138.000000, 190.000000)">
                <path d="M74.0793297,49.1665988 C73.7418856,48.6517589 73.169343,48.3414129 72.5567738,48.3414129 L43.5993547,48.3414129 L43.5993547,1.83567688 C43.5993547,0.954878596 42.9778503,0.197888038 42.1186488,0.0310506992 C41.2629577,-0.128622691 40.4046224,0.339605635 40.0814018,1.1575816 L13.1291356,69.5340717 C12.9056621,70.0991511 12.975093,70.7395438 13.3152268,71.2436378 C13.6544488,71.7477318 14.218968,72.0490769 14.8235591,72.0490769 L47.3523606,72.0490769 L47.3523606,105.145738 C47.3523606,106.017536 47.9613738,106.769199 48.8090415,106.944991 C48.9319018,106.970111 49.0548077,106.982648 49.1767562,106.982648 C49.89354,106.982648 50.5604503,106.553913 50.8515768,105.868654 L74.2324606,50.9012846 C74.4746709,50.3344142 74.4168194,49.6832297 74.0793297,49.1665988 Z M50.9994194,96.1943387 L50.9994194,70.2121211 C50.9994194,69.1968151 50.1829341,68.3752112 49.17589,68.3752112 L17.5098459,68.3752112 L39.9522959,11.4400061 L39.9522959,50.1783687 C39.9522959,51.1936747 40.7687812,52.0152786 41.7758253,52.0152786 L69.7912091,52.0152786 L50.9994194,96.1943387 Z" id="Shape" fill="#FFFFFF"></path>
                <path d="M61.8065422,22 C61.3441241,22 60.8818867,21.8235868 60.5290778,21.4707152 C59.8236407,20.7654689 59.8236407,19.6213575 60.5290778,18.9161111 L66.9159934,12.5291041 C67.6218821,11.8234062 68.7654851,11.8238578 69.4709222,12.5291041 C70.1763593,13.2343505 70.1763593,14.3784619 69.4709222,15.0837082 L63.0840066,21.4707152 C62.7311978,21.8235868 62.2687797,22 61.8065422,22 Z" id="Shape" fill="#6D7DDE"></path>
                <path d="M68.1934578,22 C67.7310397,22 67.2688022,21.8235948 66.9159934,21.4707391 L60.5290778,15.0835689 C59.8236407,14.3783545 59.8236407,13.2342947 60.5290778,12.5290802 C61.2349666,11.8234141 62.3785695,11.8238658 63.0840066,12.5290802 L69.4709222,18.9162504 C70.1763593,19.6214649 70.1763593,20.7655247 69.4709222,21.4707391 C69.1181133,21.8235948 68.65565,22 68.1934578,22 Z" id="Shape" fill="#6D7DDE"></path>
                <path d="M79.5,88 C75.9158536,88 73,85.0841464 73,81.5 C73,77.9158536 75.9158536,75 79.5,75 C83.0841464,75 86,77.9158536 86,81.5 C86,85.0841464 83.0841464,88 79.5,88 Z M79.5,78.7142857 C77.9638643,78.7142857 76.7142857,79.9638643 76.7142857,81.5 C76.7142857,83.0361357 77.9638643,84.2857143 79.5,84.2857143 C81.0361357,84.2857143 82.2857143,83.0361357 82.2857143,81.5 C82.2857143,79.9638643 81.0361357,78.7142857 79.5,78.7142857 Z" id="Shape" fill="#3DF9DF"></path>
                <path d="M6.99990858,39 C6.53187974,39 6.06403375,38.8214575 5.70694406,38.4643268 L0.535497395,33.2929476 C-0.178499132,32.579189 -0.178499132,31.4212681 0.535497395,30.7075095 L5.70694406,25.5356732 C6.0497721,25.1928497 6.51492118,25 6.99990858,25 C7.48489598,25 7.94981651,25.1928497 8.29287309,25.5356732 L13.4645483,30.7075095 C13.8073764,31.050333 14,31.515476 14,32.0002285 C14,32.4849811 13.8073764,32.9501241 13.4643198,33.2929476 L8.29264454,38.4643268 C7.93578341,38.8214118 7.46770886,39 6.99990858,39 Z M4.4142081,32.0002285 L6.99990858,34.5856667 L9.58583761,32.0002285 L6.99990858,29.4143333 L4.4142081,32.0002285 Z" id="Shape" fill="#FA2D79"></path>
            </g>
        </g>
    </g>
</svg>