<?xml version="1.0" encoding="UTF-8"?>
<svg width="20px" height="19px" viewBox="0 0 20 19" version="1.1" xmlns="http://www.w3.org/2000/svg" xmlns:xlink="http://www.w3.org/1999/xlink">
    <!-- Generator: Sketch 55.2 (78181) - https://sketchapp.com -->
    <title>Path</title>
    <desc>Created with Sketch.</desc>
    <g id="Symbols" stroke="none" stroke-width="1" fill="none" fill-rule="evenodd">
        <g id="Logros-Star-Activo" transform="translate(-2.000000, -3.000000)" fill="currentColor" fill-rule="nonzero">
            <path d="M17.3907228,14.7364906 C17.3275828,14.5477945 17.3974164,14.3422046 17.5646575,14.2250928 L21.3033044,11.6046324 C21.8985387,11.1874395 22.1358132,10.4844823 21.90763,9.81378567 C21.6795468,9.14299363 21.0551402,8.70747512 20.3169418,8.70422997 L15.6800485,8.68370915 C15.4726457,8.68275469 15.2896196,8.55581198 15.2246813,8.3676886 L13.7713625,4.16082606 C13.5399824,3.49108392 12.9135777,3.05833333 12.1753793,3.05833333 L12.1753793,3.05833333 C11.4371808,3.05833333 10.8106763,3.49108392 10.5792962,4.16073061 L9.92421872,6.05618581 C9.82041737,6.35645783 9.9910552,6.68040037 10.3054564,6.77947295 C10.6198576,6.87883188 10.9587355,6.71561981 11.0626368,6.41525235 L11.7177142,4.51979715 C11.819018,4.22649266 12.093557,4.20368115 12.1753793,4.20368115 C12.2571016,4.20368115 12.5316407,4.22649266 12.6329444,4.51979715 L14.0862632,8.72675514 C14.3130477,9.38294399 14.9512412,9.82590726 15.6744539,9.82915242 L20.3113471,9.84967323 C20.6346399,9.85110492 20.7422376,10.0935369 20.7674137,10.1677936 C20.7926896,10.2420503 20.8548306,10.4985128 20.5941783,10.6811957 L16.8554315,13.3016561 C16.2722857,13.7104498 16.0285174,14.4272467 16.248808,15.0854399 L17.6617652,19.3062375 C17.7602716,19.6004964 17.5521693,19.7731576 17.4860322,19.8189715 C17.4198951,19.8648809 17.1838194,20.0007001 16.9213688,19.8202123 L13.1572461,17.2322989 C12.5700042,16.8286593 11.7809541,16.8286593 11.1937122,17.2322989 L7.4288902,19.8206896 C7.16643963,20.0010818 6.93026408,19.8653581 6.86422684,19.8195442 C6.7980897,19.7736349 6.58998747,19.6010691 6.68839395,19.3069056 L8.1009515,15.0854399 C8.32124214,14.4273421 8.0773739,13.7105453 7.49432801,13.3017516 L3.75578102,10.6812912 C3.49512873,10.4986082 3.55726968,10.2420503 3.58254566,10.167889 C3.60782163,10.0936323 3.71541938,9.85120036 4.03861222,9.84976868 L8.67580517,9.82924786 C9.00679061,9.82772073 9.27393673,9.57020836 9.27243815,9.25390147 C9.27083967,8.93854904 9.00279441,8.68390004 8.67300783,8.68390004 C8.67210869,8.68390004 8.67110964,8.68390004 8.67021049,8.68390004 L4.03301754,8.70442086 C3.2948191,8.70766601 2.67041252,9.14318452 2.44232928,9.81397656 C2.21424605,10.4847686 2.45142064,11.1877258 3.04655505,11.6049188 L6.78510204,14.2253791 C6.9522432,14.3425864 7.02217673,14.5480809 6.95903674,14.7367769 L5.5465791,18.9582427 C5.32179273,19.6299892 5.562464,20.3318965 6.15969641,20.7463215 C6.45941157,20.9542976 6.80328476,21.0583333 7.14735776,21.0583333 C7.48893314,21.0583333 7.83070833,20.9557293 8.12932453,20.7505211 L11.8940467,18.1621305 C12.0623867,18.0463549 12.2886716,18.0463549 12.4570116,18.1621305 L16.2211343,20.7500439 C16.8203648,21.1619873 17.5934301,21.1604602 18.1907624,20.7458443 C18.7880948,20.3313238 19.0286661,19.6294165 18.8037798,18.9575745 L17.3907228,14.7364906 Z" id="Path"></path>
        </g>
    </g>
</svg>