<?xml version="1.0" encoding="UTF-8"?>
<svg width="19px" height="19px" viewBox="0 0 19 19" version="1.1" xmlns="http://www.w3.org/2000/svg" xmlns:xlink="http://www.w3.org/1999/xlink">
    <!-- Generator: Sketch 54.1 (76490) - https://sketchapp.com -->
    <title>Explorar</title>
    <desc>Created with Sketch.</desc>
    <g id="Page-1" stroke="none" stroke-width="1" fill="none" fill-rule="evenodd">
        <g id="Ranking" transform="translate(-217.000000, -603.000000)" fill="currentColor">
            <g id="Nav-Bar" transform="translate(1.000000, 584.000000)">
                <g id="Ranking" transform="translate(180.000000, 16.000000)">
                    <g id="Torneos-Active" transform="translate(33.000000, 0.000000)">
                        <path d="M18.3811709,9.69196897 L18.3811709,3.80384688 C19.8377775,3.99321249 20.9645141,5.23861223 20.9645141,6.74678209 C20.9645141,8.25495195 19.8355258,9.50012652 18.3811709,9.69196897 L18.3811709,9.69196897 Z M6.36107069,9.69196897 C4.90468928,9.50012652 3.77592615,8.25495195 3.77592615,6.74678209 C3.77592615,5.23861223 4.90468928,3.99321249 6.36107069,3.80384688 L6.36107069,9.69196897 Z M18.3811709,3.01936438 L18.3811709,3 L10.1058263,3 C9.8914671,3 9.7178632,3.17382907 9.7178632,3.38796307 C9.7178632,3.60209707 9.8914671,3.77570098 10.1058263,3.77570098 L17.6056951,3.77570098 L17.6056951,11.2066687 C17.6056951,14.060888 15.3067381,16.3900175 12.4617506,16.4391039 C9.53345127,16.4895414 7.13677167,14.0165301 7.13677167,11.0877804 L7.13677167,3.77570098 L7.13879817,3.77570098 C7.13879817,3.34720781 6.79159036,3 6.36332236,3 L6.36107069,3 L6.36107069,3.01936438 C4.47597095,3.2134585 3,4.8119204 3,6.74678209 C3,8.68344511 4.47597095,10.2801057 6.36107069,10.4760011 L6.36107069,11.2066687 C6.36107069,14.3887314 8.8496185,16.9959424 11.9823697,17.196116 L11.9823697,20.5765511 L7.79966388,20.5765511 C7.6066956,20.5765511 7.42881352,20.7103004 7.39999212,20.9007918 C7.3630647,21.1439724 7.54995347,21.3500004 7.78322668,21.3500004 L16.829769,21.3500004 C17.0630422,21.3500004 17.2501561,21.1439724 17.2132287,20.9007918 C17.1841821,20.7103004 17.0065252,20.5765511 16.8133318,20.5765511 L12.7578455,20.5765511 L12.7578455,17.196116 C15.8903715,16.9959424 18.3811709,14.3887314 18.3811709,11.2066687 L18.3811709,10.4760011 C20.2642442,10.2801057 21.73999,8.68344511 21.73999,6.74678209 C21.73999,4.8119204 20.2642442,3.2134585 18.3811709,3.01936438 L18.3811709,3.01936438 Z" id="Mask"></path>
                    </g>
                </g>
            </g>
        </g>
    </g>
</svg>