<?xml version="1.0" encoding="UTF-8"?>
<svg width="30px" height="21px" viewBox="0 0 30 21" version="1.1" xmlns="http://www.w3.org/2000/svg" xmlns:xlink="http://www.w3.org/1999/xlink">
    <title>Events</title>
    <g id="UI" stroke="none" stroke-width="1" fill="none" fill-rule="evenodd">
        <g id="Profile" transform="translate(-48.000000, -749.000000)" fill="#FFFFFF">
            <g id="Bottom-Nav-Bar" transform="translate(0.000000, 731.000000)">
                <g id="Events" transform="translate(0.000000, 12.000000)">
                    <g id="controller-play" transform="translate(48.000000, 0.000000)">
                        <g id="Controller" transform="translate(0.000000, 6.250000)">
                            <path d="M1.81575,5.4747875 C2.2067125,2.3471 4.8654625,0 8.0174875,0 L21.98275,0 C25.13475,0 27.7935,2.3471 28.1845,5.4747875 L29.1525,13.219625 C29.602625,16.82 26.795375,20 23.167,20 C21.162625,20 19.375625,19.01925 18.2765,17.5 L11.723675,17.5 C10.624625,19.01925 8.8376125,20 6.8332,20 C3.204875,20 0.3976025,16.82 0.84764,13.219625 L1.81575,5.4747875 Z" id="Path" fill-rule="nonzero" opacity="0.25"></path>
                            <path d="M10,5 C9.30965,5 8.75,5.55965 8.75,6.25 L8.75,7.5 L7.5,7.5 C6.80965,7.5 6.25,8.059625 6.25,8.75 C6.25,9.440375 6.80965,10 7.5,10 L8.75,10 L8.75,11.25 C8.75,11.940375 9.30965,12.5 10,12.5 C10.6903625,12.5 11.25,11.940375 11.25,11.25 L11.25,10 L12.5,10 C13.190375,10 13.75,9.440375 13.75,8.75 C13.75,8.059625 13.190375,7.5 12.5,7.5 L11.25,7.5 L11.25,6.25 C11.25,5.55965 10.6903625,5 10,5 Z" id="Path" fill-rule="nonzero"></path>
                            <path d="M22.5,7.5 C23.190375,7.5 23.75,6.9403625 23.75,6.25 C23.75,5.5596375 23.190375,5 22.5,5 C21.809625,5 21.25,5.5596375 21.25,6.25 C21.25,6.9403625 21.809625,7.5 22.5,7.5 Z" id="Path" fill-rule="nonzero"></path>
                            <path d="M20,12.5 C20.690375,12.5 21.25,11.940375 21.25,11.25 C21.25,10.559625 20.690375,10 20,10 C19.309625,10 18.75,10.559625 18.75,11.25 C18.75,11.940375 19.309625,12.5 20,12.5 Z" id="Path" fill-rule="nonzero"></path>
                        </g>
                    </g>
                </g>
            </g>
        </g>
    </g>
</svg>