<?xml version="1.0" encoding="UTF-8"?>
<svg width="83px" height="60px" viewBox="0 0 83 60" version="1.1" xmlns="http://www.w3.org/2000/svg" xmlns:xlink="http://www.w3.org/1999/xlink">
    <!-- Generator: Sketch 54.1 (76490) - https://sketchapp.com -->
    <title>LOL</title>
    <desc>Created with Sketch.</desc>
    <g id="Page-1" stroke="none" stroke-width="1" fill="none" fill-rule="evenodd">
        <g id="Ranking" transform="translate(-57.000000, -365.000000)" fill="#3DF9DF">
            <g id="LOL" transform="translate(45.000000, 342.000000)">
                <g transform="translate(12.000000, 23.554502)">
                    <path d="M65.861504,49.7893376 C64.8310323,48.9378152 63.7975484,48.0833096 62.7125242,47.1860455 C63.278129,46.1266972 63.7607339,45.2224725 64.4056573,44.0136354 C61.1131008,43.5532365 58.0307218,43.1220062 54.9516895,42.6914388 C54.9098548,42.5267028 54.7933871,42.2970006 54.8472702,42.2462871 C56.9925524,40.2426073 56.1511734,38.3612365 55.0102581,36.1225511 C52.964375,32.1078994 51.5600685,27.7660961 49.4224839,23.8071298 C48.2972984,21.7232365 46.4743105,19.6963545 44.4538629,18.4762478 C41.7714234,16.8567309 38.6903831,17.829568 36.7100968,20.5283208 C35.2458831,22.523714 34.1354234,24.8025062 33.0688065,27.0494781 C31.4794234,30.3962365 30.2424556,33.9170118 28.5108347,37.1848826 C27.556,38.9857084 27.5750766,40.2508938 28.9492621,41.6592702 C29.4285202,42.1504949 29.7183508,42.8230287 30.2354274,43.6331185 C26.8002984,44.1147309 23.63425,44.5582253 20.2319194,45.0348657 C20.7379516,46.0806242 21.1445847,46.9212084 21.6004153,47.8625567 C20.5374798,48.9716242 19.4497782,50.106214 18.2054476,51.404214 C13.1022863,44.6361185 9.78998387,37.4321522 8.32744355,28.9560399 C9.48208065,30.3057478 10.375,31.349186 11.2679194,32.3932871 C11.3576129,32.2517534 11.4466371,32.1105511 11.535996,31.9693489 C10.5744677,26.6769163 9.61260484,21.3844837 8.56138306,15.5975118 C12.6568306,16.1785624 15.6518589,15.7668882 16.6662661,11.6063938 C17.8788024,17.5299275 18.5752661,23.3543545 22.6710484,28.491332 C22.0860323,24.0457815 21.5629315,20.0705736 21.0016774,15.8083208 L29.3461895,15.8083208 C30.0182218,13.7095118 30.615621,11.8440511 31.3147621,9.6603882 C33.0457137,10.9414837 34.3860968,11.9335455 35.8760806,13.0366466 C37.20475,10.8639219 38.824254,9.03956236 41.5408306,9.06210169 C44.1576734,9.08397809 45.8856129,10.610023 47.1148831,13.0754275 C48.6075444,11.9975174 50.0101774,10.9849051 51.8017056,9.69055112 C52.4908065,11.8235006 53.0932258,13.6882983 53.7488589,15.7171691 L57.5313831,15.7171691 L61.8862056,15.7171691 C61.7195363,17.9044781 61.6402177,19.9505848 61.387871,21.9754781 C61.1405444,23.9592702 60.7175121,25.9218489 60.362754,27.9440904 C62.1127823,26.7017758 63.4140081,24.4992197 64.4735968,20.4225848 C65.216246,17.5653938 65.6837903,14.6379331 66.432129,10.968332 C67.6362984,15.1884893 70.0908226,16.5564275 73.9724113,15.5312197 C74.1156532,21.3907815 72.9315645,26.6636579 71.5349556,32.0956354 C72.4074597,31.0946242 73.279629,30.0932815 74.2150524,29.0193489 C75.0306613,32.9073826 70.2213468,44.8217365 65.861504,49.7893376" id="Fill-75"></path>
                    <path d="M52.0268097,6.03265056 C50.5478702,7.15597079 49.390221,8.03533596 48.6676524,8.58390337 C46.0966605,7.67735843 43.8720597,6.28953258 41.6374185,6.27428539 C39.4004347,6.25837528 37.1537452,7.61371798 34.409725,8.53650449 C33.7845476,8.06815056 32.5616363,7.15066742 31.1164992,6.06712247 C30.1914508,7.29617865 29.1847411,8.44270112 28.3959065,9.72081348 C26.7620113,12.3685213 23.1689145,12.7470494 21.0530839,10.4003079 C19.6621645,8.85735843 18.2913258,7.29684157 16.9322008,5.76748202 C16.6587694,5.96337528 16.5590355,5.99585843 16.5406282,6.05320112 C14.8394629,11.3907124 10.942479,12.6900382 5.82492661,11.819291 C5.12277339,11.6996337 4.38213226,11.802718 3.39316048,11.802718 C3.28874113,27.0472573 6.05518468,41.2397404 15.8230798,53.7835382 C15.0466282,54.412982 14.3749306,54.9579034 13.492721,55.673527 C2.50593065,41.9089596 -0.0279120968,25.9183022 0.340233065,8.68168427 C2.55512823,8.68168427 4.75128145,8.41883596 6.85640242,8.74035281 C10.4143581,9.28361685 12.4763056,7.8908191 13.741721,4.69951573 C14.3230556,3.23346517 15.3096847,1.92518989 16.2805839,0.256285393 C18.4402573,2.73693708 20.4349347,5.0495382 22.4540435,7.34092584 C24.1418218,9.25643708 24.8228903,9.17191461 26.3319508,7.16889775 C27.686725,5.3707236 29.1740315,3.67033034 30.8685032,1.60301011 C33.1687411,5.01374045 35.8659065,4.69354944 39.2274065,3.45885843 C41.123354,2.76279101 43.8134911,3.2669427 45.8208863,4.04952135 C47.7847734,4.81453258 49.0689306,4.84071798 50.4531565,3.32958876 C50.9347573,2.8042236 51.6014347,2.44525169 52.4337774,1.8231 C53.9585677,3.7094427 55.5720476,5.49303258 56.9305032,7.44964494 C58.1166,9.15832472 59.1527613,9.06849888 60.3924065,7.65216742 C62.4630556,5.28520674 64.529354,2.91493146 66.832604,0.276835955 C68.2338984,2.68688652 69.5766242,4.83508315 70.7466565,7.07177978 C71.4016202,8.32370674 72.2537089,8.74863933 73.6409468,8.70786966 C76.6299508,8.62036404 79.6236403,8.68102135 82.7886847,8.68102135 C83.0885556,25.0286618 80.951975,40.4216955 70.9012774,53.9210944 C70.1603016,53.3234708 69.4775597,52.7732461 68.5769427,52.0470157 C77.3411403,40.0885775 79.7625315,26.4370382 79.7514871,11.8023865 C77.1450194,11.8023865 74.7206161,11.6770944 72.3166282,11.8434876 C70.5023419,11.9687798 69.4454306,11.3426506 68.718846,9.73274607 C68.1257976,8.41850449 67.2988097,7.20767865 66.3453137,5.5510382 C64.7626242,7.3488809 63.336229,9.02507753 61.8479185,10.6452573 C59.9559871,12.704291 56.2527815,12.2246674 54.8063056,9.85372921 C54.0164669,8.5600382 53.0231444,7.38832472 52.0268097,6.03265056" id="Fill-76"></path>
                    <path d="M45.9004726,38.5772826 C44.6835855,38.5772826 43.6996339,37.6027882 43.6996339,36.3975972 C43.6996339,35.1924062 44.6835855,34.2175803 45.9004726,34.2175803 C47.1173597,34.2175803 48.101646,35.1924062 48.101646,36.3975972 C48.101646,37.6027882 47.1173597,38.5772826 45.9004726,38.5772826 M41.5664,33.1933669 C40.6363315,33.1933669 39.884646,32.4455916 39.884646,31.5274455 C39.884646,30.6059848 40.6363315,29.8578781 41.5664,29.8578781 C42.4971379,29.8578781 43.2484887,30.6059848 43.2484887,31.5274455 C43.2484887,32.4455916 42.4971379,33.1933669 41.5664,33.1933669 M42.6902468,39.1513725 C42.3036944,39.5269174 41.3230895,40.2538107 40.4321782,39.1444118 C40.3749484,39.0734792 40.4248153,38.9670803 40.5178556,38.9670803 L42.615279,38.9670803 C42.7116661,38.9670803 42.7618677,39.084086 42.6902468,39.1513725 M37.2326621,38.5772826 C36.015775,38.5772826 35.0318234,37.6027882 35.0318234,36.3975972 C35.0318234,35.1924062 36.015775,34.2175803 37.2326621,34.2175803 C38.4495492,34.2175803 39.4335008,35.1924062 39.4335008,36.3975972 C39.4335008,37.6027882 38.4495492,38.5772826 37.2326621,38.5772826 M60.3086702,47.9841365 C60.6557306,47.0696365 60.9529242,46.2827489 61.2822468,45.4143219 C57.8896218,44.9572376 54.6827427,44.5246815 51.0789363,44.035777 C51.6120774,43.2701028 51.8450129,42.7241871 52.25265,42.383777 C54.4752427,40.5193107 54.5826742,38.5736365 52.968525,36.1811534 C51.9487629,34.6677039 51.4045774,32.8353893 50.6495452,31.1446084 C49.4363395,28.425968 48.3449565,25.6509792 46.9777992,23.010232 C45.9362831,21.000586 44.2257468,19.6962882 41.4412306,19.7423612 L41.4412306,26.7461253 C35.8547952,25.593968 31.1596056,31.2228331 31.2633556,38.084732 C33.5428435,39.7824736 36.223275,40.9200466 37.5261742,42.9296927 C40.2889363,47.2008949 44.0466944,47.8243725 48.5092831,47.313923 C48.9892105,47.2572433 49.5223516,47.1899567 49.9657992,47.3281758 C51.83765,47.9132039 53.963521,48.1966028 55.4916581,49.2851197 C59.0489444,51.8154904 62.4670048,54.5874961 65.6484484,57.5679904 C67.7455371,59.5352096 69.7211379,58.9220073 72.2727185,58.4012826 C68.0999605,54.7644961 64.2026419,51.372659 60.3086702,47.9841365" id="Fill-77"></path>
                </g>
            </g>
        </g>
    </g>
</svg>