<svg width="44" height="44" viewBox="0 0 44 44" fill="none" xmlns="http://www.w3.org/2000/svg">
<g opacity="0.8">
<path d="M40.3337 21.9997C40.3337 32.127 32.1258 40.333 22.0003 40.333C11.8748 40.333 3.66699 32.127 3.66699 21.9997C3.66699 11.876 11.8748 3.66632 22.0003 3.66632C32.1258 3.66632 40.3337 11.876 40.3337 21.9997Z" fill="#4040FF"/>
<path fill-rule="evenodd" clip-rule="evenodd" d="M13.7886 19.8065C12.5768 19.8065 11.5923 20.791 11.5923 21.9991C11.5923 23.2091 12.5768 24.1955 13.7886 24.1955C15.0005 24.1955 15.985 23.2091 15.985 21.9991C15.985 20.791 15.0005 19.8065 13.7886 19.8065ZM22.0003 19.8065C20.7885 19.8065 19.804 20.791 19.804 21.9991C19.804 23.2091 20.7885 24.1955 22.0003 24.1955C23.2121 24.1955 24.1966 23.2091 24.1966 21.9991C24.1966 20.791 23.2121 19.8065 22.0003 19.8065ZM28.0162 21.9991C28.0162 20.791 29.0007 19.8065 30.2125 19.8065C31.4244 19.8065 32.4089 20.791 32.4089 21.9991C32.4089 23.2091 31.4244 24.1955 30.2125 24.1955C29.0007 24.1955 28.0162 23.2091 28.0162 21.9991Z" fill="white"/>
</g>
</svg>
