<?xml version="1.0" encoding="UTF-8"?>
<svg width="20px" height="21px" viewBox="0 0 20 21" version="1.1" xmlns="http://www.w3.org/2000/svg" xmlns:xlink="http://www.w3.org/1999/xlink">
    <!-- Generator: Sketch 54.1 (76490) - https://sketchapp.com -->
    <title>Notifications</title>
    <desc>Created with Sketch.</desc>
    <g id="Page-1" stroke="none" stroke-width="1" fill="none" fill-rule="evenodd">
        <g id="Public-Match-Feed" transform="translate(-18.000000, -16.000000)" fill="#FFFFFF">
            <g id="Top-Bar" transform="translate(18.000000, 16.000000)">
                <g id="NOTIFICACIONES">
                    <g id="Notifications">
                        <path d="M0.911977819,16.9971407 L18.3643183,16.9971407 C18.1728887,15.7726111 17.1924518,14.7901517 15.9399698,14.6349587 L15.5729778,14.5898445 L15.5729778,8.93896274 C15.5729778,5.64278694 12.9106219,2.96068048 9.63789215,2.96068048 C6.36567428,2.96068048 3.7035743,5.64278694 3.7035743,8.93896274 L3.7035743,14.5895867 L3.33658224,14.6344431 C2.08384436,14.7898939 1.10340743,15.7723533 0.911977819,16.9971407 L0.911977819,16.9971407 Z M19.2365003,17.8393592 L0.040051783,17.8393592 L0.0420991585,17.4160587 C0.0508005043,15.7045531 1.24186119,14.2376955 2.86747733,13.8633762 L2.86747733,8.93896274 C2.86747733,5.17823909 5.90450295,2.11871973 9.63789215,2.11871973 C13.3715373,2.11871973 16.4090747,5.17823909 16.4090747,8.93896274 L16.4090747,13.8633762 C18.0346909,14.2382111 19.2252397,15.7045531 19.2344529,17.4160587 L19.2365003,17.8393592 Z" id="Fill-117"></path>
                        <path d="M8.47116964,2.74524062 L7.63507267,2.74524062 L7.63507267,2.24150782 C7.63507267,1.12860379 8.53335867,0.223740887 9.63817367,0.223740887 C10.7424768,0.223740887 11.6410187,1.12860379 11.6410187,2.24150782 L11.6410187,2.73673336 L10.8049218,2.73673336 L10.8049218,2.24150782 C10.8049218,1.59366723 10.2815614,1.06595944 9.63817367,1.06595944 C8.99478592,1.06595944 8.47116964,1.59366723 8.47116964,2.24150782 L8.47116964,2.74524062 Z" id="Fill-118"></path>
                        <path d="M9.63244101,20.3658602 C7.98507151,20.3658602 6.54960537,19.1872183 6.219722,17.5631054 L7.03867219,17.3947648 C7.28947569,18.628575 8.37995906,19.5241573 9.63244101,19.5241573 C10.9107711,19.5241573 12.0053492,18.6066624 12.2356789,17.3429478 L13.0579561,17.4947895 C12.7549446,19.158603 11.3146159,20.3658602 9.63244101,20.3658602" id="Fill-119"></path>
                        <polygon id="Fill-120" points="3.28552582 14.6378976 4.82464034 14.6378976 4.82464034 13.795679 3.28552582 13.795679"></polygon>
                        <polygon id="Fill-121" points="7.23465721 14.6378976 15.9907703 14.6378976 15.9907703 13.795679 7.23465721 13.795679"></polygon>
                    </g>
                </g>
            </g>
        </g>
    </g>
</svg>