<?xml version="1.0" encoding="UTF-8"?>
<svg width="20px" height="24px" viewBox="0 0 20 24" version="1.1" xmlns="http://www.w3.org/2000/svg" xmlns:xlink="http://www.w3.org/1999/xlink">
    <title>Notifications</title>
    <g id="UI" stroke="none" stroke-width="1" fill="none" fill-rule="evenodd">
        <g id="Profile" transform="translate(-297.000000, -50.000000)" fill="#FFFFFF">
            <g id="Top-Nav-Bar" transform="translate(24.000000, 42.000000)">
                <g id="bell-notifications" transform="translate(271.000000, 8.000000)">
                    <g id="bell-notification" transform="translate(2.000000, 0.000000)">
                        <path d="M9.88,18.29 L3,18.29 C1.8749323,18.4156016 0.806734328,17.7664659 0.4,16.71 C0.05,15.71 0.4,14.93 1.4,14.03 C1.95910309,13.5557636 2.27193436,12.8528133 2.25,12.12 C2.24549933,10.4091047 2.34233555,8.69944456 2.54,7 C3.12,3 7.68,0.19 11.6,1.09 C15.2746873,1.91726307 17.8459288,5.23512932 17.73,9 C17.68,10 17.73,11.07 17.73,12.11 C17.7044826,12.9027003 18.0805293,13.6547937 18.73,14.11 C19.6122799,14.7121594 19.9878616,15.8266574 19.65,16.84 C19.2507027,17.7635304 18.3254641,18.3472646 17.32,18.31 C14.81,18.3 12.35,18.29 9.88,18.29 Z" id="Path" fill-rule="nonzero"></path>
                        <path d="M12.89,20.12 C12.9065125,20.9205974 12.5957473,21.6932908 12.0295191,22.2595191 C11.4632908,22.8257473 10.6905974,23.1365125 9.89,23.12 C8.32357907,22.9995601 7.11537659,21.6910375 7.11998678,20.12 C7.11998678,19.62 7.37,19.33 7.89,19.33 C9.32,19.33 10.74,19.33 12.17,19.33 C12.89,19.27 12.9,19.8 12.89,20.12 Z" id="Path" fill-rule="nonzero"></path>
                    </g>
                </g>
            </g>
        </g>
    </g>
</svg>