<?xml version="1.0" encoding="UTF-8"?>
<svg width="79px" height="79px" viewBox="0 0 79 79" version="1.1" xmlns="http://www.w3.org/2000/svg" xmlns:xlink="http://www.w3.org/1999/xlink">
    <!-- Generator: Sketch 54.1 (76490) - https://sketchapp.com -->
    <title>OVERW LOGO</title>
    <desc>Created with Sketch.</desc>
    <g id="Page-1" stroke="none" stroke-width="1" fill="none" fill-rule="evenodd">
        <g id="Ranking" transform="translate(-59.000000, -182.000000)">
            <g id="OVERWATCH" transform="translate(45.000000, 168.000000)">
                <g id="OVERW-LOGO" transform="translate(14.000000, 14.000000)">
                    <path d="M78.974325,39.5104441 C78.974325,50.3428169 74.5630453,60.1501983 67.4326258,67.247478 C60.3005326,74.3467661 50.4489648,78.737961 39.5650411,78.737961 C17.8008758,78.737961 0.155757203,61.1755246 0.155757203,39.5104441 C0.155757203,28.0403805 5.10363432,17.7205034 12.9872318,10.5479059 L19.9559691,19.1187364 C14.5488208,24.2537364 11.1792699,31.4906051 11.1792699,39.5104441 C11.1792699,44.55205 12.5132318,49.2826771 14.844736,53.3779568 L14.923736,53.3779568 C19.7537826,62.0572449 29.0208843,67.9310288 39.6607784,67.9310288 C55.2847021,67.9310288 67.9508123,55.2649186 67.9508123,39.6409949 L67.9508123,39.5619949 C67.9508123,39.4662576 67.9488038,39.3708551 67.9488038,39.2751178 C67.8845326,31.3493424 64.5297106,24.2041941 59.1757869,19.1187364 L66.1448589,10.5479059 C74.0284564,17.7205034 78.974325,28.0403805 78.974325,39.5104441" id="Fill-23" fill="#3DF9DF"></path>
                    <path d="M39.565878,0.282123729 L39.565878,0.282123729 C48.7231831,0.282123729 57.1507424,3.39191186 63.8419754,8.60725085 L56.885289,17.1650263 C52.0927339,13.491861 46.0867254,11.3056364 39.565878,11.3056364 C33.0450305,11.3056364 27.039022,13.491861 22.2464669,17.1650263 L15.2897805,8.60725085 C21.9810136,3.39191186 30.4085729,0.282123729 39.565878,0.282123729" id="Fill-24" fill="#2C8B91"></path>
                    <path d="M51.6961606,37.8731691 C55.0985165,37.8731691 57.8568216,40.6314742 57.8568216,44.0338301 C57.8568216,47.436186 55.0985165,50.1944911 51.6961606,50.1944911 C48.2934699,50.1944911 45.5354996,47.436186 45.5354996,44.0338301 C45.5354996,40.6314742 48.2934699,37.8731691 51.6961606,37.8731691" id="Fill-25" fill="#3DF9DF"></path>
                    <path d="M21.273361,44.0339305 C21.273361,47.4362864 24.0316661,50.1945915 27.434022,50.1945915 C30.836378,50.1945915 33.5946831,47.4362864 33.5946831,44.0339305 C33.5946831,40.6312398 30.836378,37.8732695 27.434022,37.8732695 C24.0316661,37.8732695 21.273361,40.6312398 21.273361,44.0339305" id="Fill-26" fill="#3DF9DF"></path>
                    <path d="M34.8516534,30.2654021 C34.8516534,32.8683852 36.9618907,34.9789572 39.5652085,34.9789572 C42.1681915,34.9789572 44.2784288,32.8683852 44.2784288,30.2654021 C44.2784288,27.6620843 42.1681915,25.551847 39.5652085,25.551847 C36.9618907,25.551847 34.8516534,27.6620843 34.8516534,30.2654021" id="Fill-27" fill="#3DF9DF"></path>
                    <path d="M36.3890403,51.7960153 C38.8825614,54.9359305 41.6241292,52.8849432 42.7150657,51.8237992 C42.9112267,51.6326593 42.7753199,51.3002568 42.5014979,51.3002568 L36.6280487,51.3002568 C36.3726377,51.3002568 36.230036,51.596172 36.3890403,51.7960153" id="Fill-28" fill="#3DF9DF"></path>
                </g>
            </g>
        </g>
    </g>
</svg>