<?xml version="1.0" encoding="UTF-8"?>
<svg width="18px" height="18px" viewBox="0 0 18 18" version="1.1" xmlns="http://www.w3.org/2000/svg" xmlns:xlink="http://www.w3.org/1999/xlink">
    <!-- Generator: Sketch 54.1 (76490) - https://sketchapp.com -->
    <title>Retas</title>
    <desc>Created with Sketch.</desc>
    <g id="Page-1" stroke="none" stroke-width="1" fill="currentColor" fill-rule="evenodd">
        <g id="Ranking" transform="translate(-37.000000, -603.000000)" fill="currentColor">
            <g id="Nav-Bar" transform="translate(1.000000, 584.000000)">
                <g id="RETAS" transform="translate(0.000000, 16.000000)">
                    <g id="Retas" transform="translate(33.000000, 0.000000)">
                        <path d="M19.7853551,7.82233231 C19.1631181,6.6146761 18.2559254,5.54799313 17.1614511,4.73816078 C17.0009863,4.61922825 16.7744606,4.65327132 16.6558563,4.81388479 C16.5370338,4.97449827 16.5710454,5.20123387 16.7315102,5.3201664 C17.7372492,6.0645313 18.5709683,7.04457902 19.142624,8.15425228 C19.7417506,9.31717241 20.0454563,10.5745839 20.0454563,11.8926619 C20.0454563,16.3968224 16.3841999,20.0612537 11.8842099,20.0612537 C7.3842199,20.0612537 3.72318153,16.3968224 3.72318153,11.8924436 C3.72318153,7.38828313 7.3842199,3.72385176 11.8842099,3.72385176 C12.0839187,3.72385176 12.2459097,3.56192894 12.2459097,3.36203499 C12.2459097,3.16214105 12.0839187,3 11.8842099,3 C6.98545625,3 3,6.98936813 3,11.8924436 C3,16.7959556 6.98545625,20.7851055 11.8842099,20.7851055 C16.7829635,20.7851055 20.7686378,16.7959556 20.7686378,11.8924436 C20.7686378,10.4783467 20.4287403,9.0710148 19.7853551,7.82233231" id="Circle"></path>
                        <path d="M8.91729622,7.63476541 C8.80414241,7.69914174 8.73437512,7.81938362 8.73437512,7.94922739 L8.73437512,15.8921748 C8.73437512,16.0920687 8.89636604,16.2539916 9.09585687,16.2539916 C9.29556573,16.2539916 9.45755665,16.0920687 9.45755665,15.8921748 L9.45755665,8.58600745 L14.8111058,11.776018 L10.8742686,14.3146275 C10.7066091,14.422867 10.65799,14.6469839 10.7661293,14.8147988 C10.8744866,14.9830501 11.098178,15.0317143 11.2660555,14.9230383 L15.6934439,12.0680029 C15.7985309,12.0001349 15.8613215,11.88273 15.8591412,11.7574689 C15.856961,11.6319896 15.790028,11.5167669 15.6825428,11.4528271 L9.28095821,7.63847523 C9.16911252,7.57191666 9.03045004,7.57038909 8.91729622,7.63476541" id="Play"></path>
                    </g>
                </g>
            </g>
        </g>
    </g>
</svg>