<?xml version="1.0" encoding="UTF-8"?>
<svg width="24px" height="24px" viewBox="0 0 24 24" version="1.1" xmlns="http://www.w3.org/2000/svg" xmlns:xlink="http://www.w3.org/1999/xlink">
    <title>DBBD4D6E-CCA3-428B-9D12-FD960179FBB8</title>
    <g id="UI" stroke="none" stroke-width="1" fill="none" fill-rule="evenodd">
        <g id="Profile-Store" transform="translate(-149.000000, -259.000000)">
            <g id="Bits-Module" transform="translate(24.000000, 188.000000)">
                <g id="plus-square" transform="translate(125.000000, 71.000000)">
                    <path d="M5.450208,0.442788 C2.814048,0.790944 0.790944,2.814048 0.442788,5.450208 C0.203436,7.262496 0,9.529524 0,12 C0,14.47044 0.203436,16.73748 0.442788,18.54984 C0.790944,21.186 2.814048,23.20908 5.450208,23.5572 C7.262496,23.7966 9.529524,24 12,24 C14.47044,24 16.73748,23.7966 18.54984,23.5572 C21.186,23.20908 23.20908,21.186 23.5572,18.54984 C23.7966,16.73748 24,14.47044 24,12 C24,9.529524 23.7966,7.262496 23.5572,5.450208 C23.20908,2.814048 21.186,0.790944 18.54984,0.442788 C16.73748,0.203436 14.47044,0 12,0 C9.529524,0 7.262496,0.203436 5.450208,0.442788 Z" id="Path" fill="#6C77ED"></path>
                    <path d="M12,18 C12.66276,18 13.2,17.46276 13.2,16.8 L13.2,13.2 L16.8,13.2 C17.46276,13.2 18,12.66276 18,12 C18,11.33724 17.46276,10.8 16.8,10.8 L13.2,10.8 L13.2,7.2 C13.2,6.537264 12.66276,6 12,6 C11.33724,6 10.8,6.537264 10.8,7.2 L10.8,10.8 L7.2,10.8 C6.537264,10.8 6,11.33724 6,12 C6,12.66276 6.537252,13.2 7.2,13.2 L10.8,13.2 L10.8,16.8 C10.8,17.46276 11.33724,18 12,18 Z" id="Path" fill="#FFFFFF"></path>
                </g>
            </g>
        </g>
    </g>
</svg>