<svg width="32" height="32" viewBox="0 0 32 32" fill="none" xmlns="http://www.w3.org/2000/svg">
<path fill-rule="evenodd" clip-rule="evenodd" d="M16.076 22.4559C16.7951 22.4569 17.3777 21.8744 17.3777 21.1542L17.3777 17.3837L21.1492 17.3826C21.8684 17.3837 22.4615 16.7906 22.4615 16.0704C22.4626 15.3491 21.88 14.7666 21.1482 14.7571L17.3893 14.7666L17.3883 10.9971C17.3787 10.2652 16.7962 9.68271 16.0749 9.68377C15.3547 9.68378 14.7616 10.2769 14.7626 10.996L14.7616 14.7676L11.0016 14.757C10.2708 14.7676 9.68832 15.3501 9.68938 16.0693C9.68938 16.4294 9.8366 16.7694 10.0696 17.0024C10.3132 17.246 10.6426 17.3826 11.0027 17.3826L14.7616 17.3943L14.7733 21.1532C14.7616 21.5249 14.9099 21.8426 15.1429 22.0757C15.3865 22.3193 15.7159 22.4559 16.076 22.4559Z" fill="white"/>
</svg>
