<svg width="16" height="16" viewBox="0 0 16 16" fill="none" xmlns="http://www.w3.org/2000/svg">
<path fill-rule="evenodd" clip-rule="evenodd" d="M0.833344 8.00065C0.833344 4.04261 4.04197 0.833984 8.00001 0.833984C11.9581 0.833984 15.1667 4.04261 15.1667 8.00065C15.1667 11.9587 11.9581 15.1673 8.00001 15.1673C4.04197 15.1673 0.833344 11.9587 0.833344 8.00065ZM8.75001 5.33398C8.75001 4.91977 8.41422 4.58398 8.00001 4.58398C7.5858 4.58398 7.25001 4.91977 7.25001 5.33398V7.25065H5.33334C4.91913 7.25065 4.58334 7.58644 4.58334 8.00065C4.58334 8.41486 4.91913 8.75065 5.33334 8.75065H7.25001V10.6673C7.25001 11.0815 7.5858 11.4173 8.00001 11.4173C8.41422 11.4173 8.75001 11.0815 8.75001 10.6673V8.75065H10.6667C11.0809 8.75065 11.4167 8.41486 11.4167 8.00065C11.4167 7.58644 11.0809 7.25065 10.6667 7.25065H8.75001V5.33398Z" fill="white"/>
</svg>
