<?xml version="1.0" encoding="UTF-8"?>
<svg width="24px" height="28px" viewBox="0 0 24 28" version="1.1" xmlns="http://www.w3.org/2000/svg" xmlns:xlink="http://www.w3.org/1999/xlink">
    <title>Profile</title>
    <g id="UI" stroke="none" stroke-width="1" fill="none" fill-rule="evenodd">
        <g id="Events-(Waiting-Aproval)" transform="translate(-301.000000, -744.000000)" fill="#FFFFFF">
            <g id="Bottom-Nav-Bar" transform="translate(0.000000, 732.000000)">
                <g id="Profile" transform="translate(250.000000, 11.000000)">
                    <g id="user-profile" transform="translate(48.000000, 0.000000)">
                        <g id="User" transform="translate(3.750000, 1.250000)">
                            <path d="M17.5,6.25 C17.5,9.701775 14.70175,12.5 11.25,12.5 C7.798225,12.5 5,9.701775 5,6.25 C5,2.798225 7.798225,0 11.25,0 C14.70175,0 17.5,2.798225 17.5,6.25 Z" id="Path" fill-rule="nonzero"></path>
                            <path d="M19.7725,16.406 C19.002,15.512625 17.6785,15.558625 16.643625,16.125125 C15.04225,17.001625 13.204375,17.5 11.25,17.5 C9.295625,17.5 7.457725,17.001625 5.8563125,16.125125 C4.8214625,15.558625 3.4980125,15.512625 2.7275,16.406 C1.027775,18.37675 0,20.943375 0,23.75 L0,25 C0,26.380625 1.1192875,27.5 2.5,27.5 L20,27.5 C21.38075,27.5 22.5,26.380625 22.5,25 L22.5,23.75 C22.5,20.943375 21.47225,18.37675 19.7725,16.406 Z" id="Path" opacity="0.25"></path>
                        </g>
                    </g>
                </g>
            </g>
        </g>
    </g>
</svg>