<?xml version="1.0" encoding="UTF-8"?>
<svg width="19px" height="19px" viewBox="0 0 19 19" version="1.1" xmlns="http://www.w3.org/2000/svg" xmlns:xlink="http://www.w3.org/1999/xlink">
    <!-- Generator: Sketch 54.1 (76490) - https://sketchapp.com -->
    <title>Profile Active</title>
    <desc>Created with Sketch.</desc>
    <g id="Page-1" stroke="none" stroke-width="1" fill="currentColor" fill-rule="evenodd">
        <g id="Ranking" transform="translate(-307.000000, -603.000000)" fill="currentColor">
            <g id="Nav-Bar" transform="translate(1.000000, 584.000000)">
                <g id="PERFIL" transform="translate(269.000000, 16.000000)">
                    <g id="Profile-Active" transform="translate(34.000000, 0.000000)">
                        <path d="M18.6637302,5.68431152 C15.0861066,2.10522949 9.26467489,2.10522949 5.68705129,5.68431152 C4.43178819,6.93978217 3.57311351,8.51745125 3.20375961,10.2464253 C2.84430916,11.9296926 2.96202524,13.6739772 3.54430346,15.290148 C3.61430289,15.4842326 3.82835259,15.5851025 4.02214523,15.515079 C4.21638802,15.4450554 4.31699813,15.2309319 4.2469987,15.0368473 C3.71198698,13.5517174 3.60394927,11.9492812 3.93436459,10.4024585 C4.27310781,8.81488251 5.06200814,7.36600274 6.21508557,6.21252783 C9.50168261,2.92479785 14.849324,2.92479785 18.1356959,6.21252783 C19.7006671,7.77826364 20.5768979,9.85938185 20.6025569,12.0728919 C20.6284409,14.2823491 19.8051036,16.3801289 18.284923,17.9796381 C18.2669167,17.9987764 18.2491355,18.0176895 18.2313543,18.0368278 C18.1998433,18.0706012 18.1685574,18.1043746 18.1356959,18.1372474 C14.849324,21.4247522 9.50168261,21.4247522 6.21508557,18.1372474 C6.19752945,18.1194601 6.18064855,18.1016727 6.16376766,18.0838854 C6.16286735,18.0496617 6.16196703,18.0156631 6.16196703,17.9821148 C6.16196703,17.9069127 6.16354258,17.8319357 6.16624353,17.7571838 C6.16714384,17.7324167 6.16894447,17.7074243 6.17029494,17.6826571 C6.1727708,17.6328976 6.17502159,17.5835884 6.17862285,17.5340541 C6.18087363,17.5045586 6.18402473,17.4755135 6.1865006,17.446018 C6.19055201,17.4016623 6.19437835,17.3570814 6.199105,17.3127256 C6.20248117,17.2816541 6.20698274,17.2505825 6.21080908,17.2192858 C6.21621097,17.1774068 6.22116269,17.1350774 6.22746489,17.0934235 C6.23219154,17.0614514 6.23781851,17.0301546 6.24299531,16.9981825 C6.24974767,16.9574292 6.25604987,16.916676 6.26370254,16.8761478 C6.26977966,16.8439505 6.27630694,16.8124287 6.28283422,16.7804565 C6.29071197,16.7406039 6.29858972,16.7009764 6.30781794,16.6613489 C6.31479537,16.6291516 6.32267312,16.5974045 6.33032579,16.5654324 C6.33977909,16.5264804 6.34900731,16.4875283 6.35913585,16.4490266 C6.36746375,16.4170545 6.3764669,16.3853075 6.38547004,16.3535604 C6.39604873,16.3155091 6.40662742,16.2772325 6.41810643,16.2394063 C6.42755973,16.2074341 6.43791334,16.1761374 6.44804188,16.1446155 C6.45974596,16.1072396 6.47167512,16.0696385 6.4845046,16.0324878 C6.49508329,16.0011911 6.50611214,15.9701195 6.51736607,15.939048 C6.53087078,15.9021224 6.54392534,15.8651968 6.55810529,15.8287215 C6.57003445,15.7976499 6.58196361,15.7670287 6.59434294,15.7364075 C6.60874796,15.7001573 6.62360315,15.6639072 6.63868341,15.6281074 C6.65173797,15.5974861 6.6650176,15.5675404 6.67852231,15.5371443 C6.69405273,15.5015696 6.71025839,15.4659949 6.72668912,15.4308706 C6.74041892,15.4009248 6.75482394,15.3712042 6.76922897,15.3417087 C6.78633494,15.3065844 6.80366599,15.2716852 6.8214472,15.2372363 C6.83630238,15.207966 6.8518328,15.1786957 6.86713814,15.1496506 C6.8853695,15.1154268 6.90405102,15.0809779 6.92295762,15.0469794 C6.9389382,15.0183845 6.95514386,14.9897897 6.97157459,14.9616452 C6.99115642,14.9278718 7.01118842,14.8943235 7.03122041,14.8610004 C7.04832638,14.833081 7.06543235,14.8051617 7.08298847,14.7774675 C7.1036957,14.7443695 7.12462801,14.7114967 7.14623555,14.6788491 C7.16401675,14.6516052 7.18202304,14.6243613 7.20047948,14.5973425 C7.22253718,14.5649201 7.24504503,14.533173 7.26755289,14.5009757 C7.28645949,14.4744073 7.30536609,14.448064 7.32449776,14.4217207 C7.34790593,14.3901989 7.37153918,14.358677 7.39539751,14.3278306 C7.41497934,14.3017125 7.43478625,14.2760447 7.45481825,14.2506021 C7.47957689,14.2197557 7.50433553,14.1891345 7.52954432,14.1587384 C7.55002647,14.133746 7.57050862,14.1089789 7.59144093,14.0844368 C7.61709988,14.0540408 7.64343407,14.024095 7.66976826,13.9943744 C7.69115073,13.9705078 7.71230811,13.946191 7.73391565,13.9227747 C7.76115016,13.8930541 7.78860974,13.8642341 7.8162944,13.835189 C7.83812702,13.8122231 7.86018472,13.7888068 7.88269258,13.7660661 C7.91105247,13.7372461 7.93963745,13.7091016 7.96867258,13.680957 C7.99140552,13.6586666 8.01391337,13.636151 8.03687138,13.614536 C8.06658175,13.5863915 8.09719244,13.5589224 8.12735296,13.5314534 C8.15053605,13.5105138 8.17349407,13.489124 8.19690224,13.4684096 C8.22818815,13.4409406 8.26014931,13.414147 8.29211046,13.3871283 C8.31551863,13.3675397 8.33870172,13.3475008 8.36233497,13.3279122 C8.39542152,13.3008935 8.42940838,13.2747754 8.46317016,13.2484321 C8.48657833,13.2299693 8.50976143,13.2112813 8.53361975,13.1932688 C8.56895708,13.1660249 8.60541981,13.140132 8.64165746,13.1140139 C8.66439039,13.0975775 8.68689825,13.0806908 8.70985626,13.0642544 C8.74992024,13.0361099 8.79088454,13.0090911 8.83162376,12.9818472 C8.85165575,12.968563 8.87146266,12.9546033 8.89171973,12.9413191 C8.94483827,12.9068702 8.9990822,12.8735471 9.05332613,12.8404492 C9.06187912,12.8352706 9.06998194,12.8296417 9.07853493,12.8246882 C9.14155692,12.7870872 9.20547923,12.7503867 9.27007678,12.714812 C9.29213448,12.7026536 9.31486741,12.6911706 9.33715019,12.6792374 C9.38014019,12.6564966 9.42268004,12.6333055 9.46657036,12.6114654 C9.4944801,12.5972805 9.52306507,12.5842215 9.55142497,12.570487 C9.58698738,12.5533751 9.62232472,12.5358129 9.65833728,12.5191514 C10.3351485,13.1660249 11.2383887,13.5321288 12.1756158,13.5321288 C13.1128429,13.5321288 14.0158581,13.1660249 14.6926693,12.5189262 C16.0141055,13.1306754 17.0953828,14.2283116 17.6828379,15.5632624 C17.7656668,15.7521684 17.9860187,15.8379529 18.1748596,15.7548703 C18.3637005,15.6715625 18.4494554,15.4513598 18.3664014,15.2624538 C17.7240272,13.8023162 16.605837,12.6355571 15.1907681,11.9312687 C15.6015365,11.3285257 15.8234639,10.6170323 15.8234639,9.88279809 C15.8234639,7.87080281 14.1869178,6.23346735 12.1756158,6.23346735 C11.9692188,6.23346735 11.8022105,6.40098352 11.8022105,6.60722654 C11.8022105,6.81369473 11.9692188,6.98098574 12.1756158,6.98098574 C13.7752491,6.98098574 15.0764282,8.28261339 15.0764282,9.88279809 C15.0764282,10.5983443 14.8108355,11.2875473 14.328042,11.8229686 L14.327817,11.8231937 C13.7768247,12.4342675 12.9924259,12.7850608 12.1753907,12.7850608 C11.3585807,12.7850608 10.5739568,12.4342675 10.0227395,11.8231937 L10.0225144,11.8229686 C9.54017104,11.2873221 9.27412819,10.5983443 9.27412819,9.88279809 C9.27412819,9.10195659 9.58000995,8.36929851 10.1348286,7.81991752 C10.2818049,7.67491697 10.2829303,7.43827786 10.1377546,7.29170121 C9.99280401,7.14467425 9.75647153,7.14354847 9.60949524,7.28877418 C8.91175172,7.97910291 8.52731755,8.90044185 8.52731755,9.88257294 C8.52731755,10.6161316 8.74879485,11.3271747 9.15888797,11.9294674 C9.15528672,11.9312687 9.15168546,11.9332951 9.1480842,11.9350963 C9.11904907,11.9497315 9.09046409,11.9652672 9.06165404,11.9801276 C9.01731356,12.0028683 8.97297309,12.0256091 8.92930785,12.0497008 C8.89847209,12.0663624 8.86808648,12.0841497 8.83770088,12.1012616 C8.79696166,12.1244526 8.75599736,12.1474186 8.71593338,12.1712851 C8.68464746,12.1899731 8.65403678,12.2091113 8.62320102,12.2277993 C8.5844875,12.2516659 8.54599907,12.2753073 8.5079608,12.3000744 C8.47689996,12.3201133 8.44628927,12.3403774 8.41567859,12.3608666 C8.37876571,12.3856338 8.3420779,12.4101758 8.3053901,12.4353933 C8.27500449,12.4567831 8.24484397,12.4786232 8.21468344,12.5002382 C8.17912103,12.525906 8.1437837,12.5515738 8.10867144,12.5776919 C8.07896107,12.6002076 8.04947578,12.6229483 8.01976541,12.6459143 C7.98577855,12.6724827 7.95156661,12.6992763 7.91802991,12.7265202 C7.88899477,12.7501616 7.85995964,12.7738029 7.83114959,12.7978947 C7.79828812,12.8255889 7.76542665,12.8535082 7.73301534,12.8818779 C7.70488052,12.9061948 7.6767457,12.9309619 7.64883596,12.9559543 C7.6168748,12.9847743 7.58513873,13.0138194 7.55385281,13.0433149 C7.52684338,13.0685323 7.49960888,13.093975 7.47282453,13.1196428 C7.44198877,13.1498137 7.41137808,13.1802098 7.3807674,13.210831 C7.35465829,13.2369491 7.32877426,13.2628421 7.3031153,13.2894105 C7.27317985,13.3207072 7.24346948,13.3526794 7.21375911,13.3844264 C7.18922555,13.4109948 7.16424183,13.4377884 7.13993335,13.4648071 C7.11044806,13.4976799 7.081638,13.5312282 7.05260287,13.5645513 C7.02964486,13.5915701 7.00601161,13.6181385 6.98327868,13.6453824 C6.95401846,13.6805067 6.92565857,13.7163066 6.89707359,13.7516561 C6.87591621,13.7782245 6.85408359,13.8043426 6.83315128,13.8313613 C6.80344091,13.869863 6.77440578,13.9092654 6.74514557,13.9484425 C6.7269142,13.9729846 6.7080076,13.9973014 6.6902264,14.0222938 C6.65331352,14.0734042 6.61752603,14.124965 6.58218869,14.1772012 C6.57296047,14.1907105 6.56305702,14.2042199 6.5538288,14.2179544 C6.50993848,14.2837 6.46717355,14.3501211 6.42553402,14.4174428 C6.41112899,14.440859 6.39762428,14.4642753 6.38344433,14.4879167 C6.35665998,14.5324976 6.32942548,14.5773036 6.30354144,14.62256 C6.28756087,14.6509297 6.27203045,14.6797497 6.25627495,14.7083445 C6.23354201,14.7495481 6.21080908,14.7903014 6.18897646,14.8319552 C6.1727708,14.8630268 6.15769054,14.8938732 6.14170996,14.9251699 C6.12145289,14.9652477 6.10119582,15.0051003 6.08183907,15.0456284 C6.06608357,15.0780509 6.05145346,15.1106985 6.0363732,15.143121 C6.01791676,15.1831988 5.99946032,15.2230515 5.98167911,15.2635796 C5.96727409,15.2966775 5.95331921,15.3304509 5.93936434,15.3639992 C5.92248345,15.4043022 5.90560256,15.4446051 5.88962198,15.4851332 C5.87634235,15.5193569 5.86328779,15.5535807 5.85023324,15.5878044 C5.8349279,15.6285577 5.81984763,15.6695361 5.80521753,15.7102893 C5.79283821,15.7454137 5.78113412,15.7803129 5.76920496,15.8152121 C5.75525009,15.8564157 5.74174537,15.8976193 5.72869082,15.9392731 C5.71743689,15.9746227 5.7068582,16.0099722 5.69627951,16.0455468 C5.68367511,16.0874259 5.67174594,16.1295301 5.66026694,16.1716343 C5.65036348,16.207209 5.6406851,16.2430088 5.63145688,16.2788086 C5.62042803,16.3213631 5.60984934,16.3643679 5.59972081,16.4071476 C5.59116782,16.4431726 5.58261484,16.4787473 5.57473709,16.5149974 C5.56528379,16.5584525 5.55628065,16.6021328 5.54772766,16.6460383 C5.54030007,16.6820633 5.53309756,16.7178631 5.52657028,16.7538881 C5.51846745,16.798469 5.51081478,16.8435002 5.50361226,16.8885314 C5.4979853,16.9241061 5.49190818,16.9594556 5.48673137,16.9950303 C5.47997902,17.0414125 5.47412697,17.0880198 5.46850001,17.1348523 C5.46399844,17.1695263 5.45949687,17.2039752 5.45544545,17.2386492 C5.45026865,17.2877333 5.44599216,17.3370425 5.44194074,17.3863517 C5.43901472,17.4189993 5.43563854,17.4518721 5.43316268,17.4847449 C5.42911126,17.539683 5.42641032,17.5948463 5.42393446,17.6504598 C5.42258399,17.6777037 5.42055828,17.7049476 5.41943289,17.7326418 C5.41673194,17.8154993 5.41493131,17.8985819 5.41493131,17.9821148 C5.41493131,18.0726276 5.41785734,18.1577366 5.42168367,18.2518519 C5.42258399,18.273692 5.42573509,18.2950819 5.4297865,18.3157962 C5.43023666,18.3171472 5.43046174,18.3187232 5.43091189,18.3205245 C5.43563854,18.3407885 5.44194074,18.3603771 5.44959341,18.3792902 C5.45049373,18.3813167 5.45116896,18.3828927 5.45206928,18.3849192 C5.45994703,18.4036071 5.4696254,18.4213944 5.48042917,18.4385063 C5.48177965,18.4403076 5.48290504,18.4425591 5.48425551,18.4445855 C5.49550944,18.4612471 5.50811384,18.4767829 5.52139347,18.491418 C5.52251886,18.4925438 5.5231941,18.4938947 5.52409441,18.4947954 L5.57338662,18.5474819 C5.61074966,18.5873345 5.64788762,18.626962 5.68682621,18.6656889 C7.47552547,20.4552299 9.82534557,21.3500004 12.1751657,21.3500004 C14.5249858,21.3500004 16.8748059,20.4552299 18.6637302,18.6656889 C18.7024437,18.626962 18.7398068,18.5873345 18.7769447,18.5474819 L18.8262369,18.4947954 C20.4812395,16.7532126 21.3772772,14.469679 21.3493675,12.0645611 C21.3216828,9.65448976 20.3675749,7.38851836 18.6637302,5.68431152" id="Profile-Mask"></path>
                    </g>
                </g>
            </g>
        </g>
    </g>
</svg>