<?xml version="1.0" encoding="UTF-8"?>
<svg width="110px" height="107px" viewBox="0 0 110 107" version="1.1" xmlns="http://www.w3.org/2000/svg" xmlns:xlink="http://www.w3.org/1999/xlink">
    <!-- Generator: Sketch 54.1 (76490) - https://sketchapp.com -->
    <title>Prize Icon</title>
    <desc>Created with Sketch.</desc>
    <g id="Page-1" stroke="none" stroke-width="1" fill="none" fill-rule="evenodd">
        <g id="Qaploins-Pública" transform="translate(-124.000000, -200.000000)">
            <g id="Prize-Icon" transform="translate(124.000000, 200.000000)">
                <path d="M78.0931304,60.9393843 L82.1497448,84.5928737 C82.2852244,85.3846548 81.7966095,85.8355148 81.5811747,85.9932047 C81.3635189,86.1497841 80.783844,86.4751584 80.0731313,86.1009225 L58.8317076,74.9349208 C57.7878484,74.385227 56.6451558,74.1109354 55.5002422,74.1109354 C54.356439,74.1109354 53.2126359,74.385227 52.1698872,74.9338103 L30.9284635,86.1009225 C30.2177508,86.4751584 29.6369654,86.1486737 29.4204201,85.9932047 C29.2038749,85.8355148 28.7152599,85.3846548 28.8507395,84.5928737 L32.9084644,60.9393843 C33.3060193,58.6173446 32.5375613,56.2486641 30.8496188,54.6040248 L13.6648095,37.852246 C13.0895765,37.2914473 13.2195036,36.6395883 13.3027903,36.3852855 C13.3849664,36.1298722 13.6625885,35.5257643 14.4576983,35.4113836 L38.206605,31.9588625 C40.5386308,31.6212728 42.5530569,30.1576438 43.5958056,28.0443766 L54.217628,6.52414321 C54.5718738,5.80454409 55.2337249,5.72569913 55.5002422,5.72569913 C55.7678699,5.72569913 56.4286105,5.8034336 56.7850773,6.52414321 L67.4046787,28.0443766 C68.4474274,30.1576438 70.462964,31.6212728 72.7949898,31.959973 L96.542786,35.4113836 C97.3378958,35.5257643 97.6166284,36.1309827 97.6988045,36.3852855 C97.7809807,36.6395883 97.9120183,37.2925578 97.3367853,37.8533565 L80.151976,54.6040248 C78.4640335,56.2486641 77.6955755,58.6173446 78.0931304,60.9393843 L78.0931304,60.9393843 Z M101.333433,41.9521842 C103.298998,40.0376952 103.991943,37.2259283 103.14464,34.6151605 C102.296227,32.0043927 100.081913,30.1387654 97.365658,29.7434301 L73.6167513,26.29313 C73.1514566,26.22539 72.7483493,25.9333304 72.5395775,25.5102328 L61.9188656,3.98999941 C60.7039912,1.52803763 58.2442592,0 55.5002422,0 C52.7551146,0 50.2964931,1.52803763 49.0816187,3.98999941 L38.4609069,25.5102328 C38.252135,25.9333304 37.8490277,26.22539 37.3826225,26.29313 L13.6337158,29.7434301 C10.917461,30.1387654 8.70425744,32.0043927 7.85584424,34.6151605 C7.00743104,37.2259283 7.70148634,40.0376952 9.66705096,41.9521842 L26.8518602,58.703963 C27.1894487,59.0326687 27.3426962,59.506849 27.2638515,59.9710349 L23.207237,83.6245243 C22.7430529,86.3285734 23.8335525,89.0115232 26.0545295,90.6239583 C28.274396,92.2386143 31.163887,92.4473869 33.5925253,91.1703206 L54.8339491,80.0032084 C55.2514927,79.7833309 55.7489916,79.7833309 56.1665352,80.0032084 L77.407959,91.1703206 C78.4640335,91.7255668 79.6078367,91.9998584 80.7460874,91.9998584 C82.223037,91.9998584 83.6922133,91.5367831 84.9459548,90.6239583 C87.1658213,89.0104127 88.2574315,86.3285734 87.7932473,83.6245243 L83.7366328,59.9710349 C83.6566777,59.506849 83.8110356,59.0326687 84.1486241,58.7028525 L101.333433,41.9521842 Z" id="Fill-1" fill="#FFFFFF"></path>
                <path d="M10.90512,63.880675 C10.42112,62.357425 8.82062,61.5238 7.33122,62.0188 L2.46042,63.637675 C0.97102,64.132675 0.15592,65.76955 0.63882,67.2928 C1.02822,68.51905 2.14032,69.29755 3.33602,69.29755 C3.62642,69.29755 3.92232,69.251425 4.21382,69.154675 L9.08462,67.5358 C10.57402,67.041925 11.38912,65.403925 10.90512,63.880675" id="Fill-7" fill="#6D7DDE"></path>
                <path d="M89.2882822,3.55216925 C87.9747936,2.61422187 86.1356815,2.89997644 85.18135,4.19091477 L82.0618146,8.41223827 C81.1074831,9.70205599 81.3982292,11.5107144 82.7117178,12.4464205 C83.2339207,12.820703 83.8382167,13 84.4379519,13 C85.3466762,13 86.2428586,12.5864963 86.8175098,11.8087956 L89.9381854,7.58747212 C90.8925169,6.29653379 90.6017708,4.48899602 89.2882822,3.55216925" id="Fill-3" fill="#6D7DDE"></path>
                <path d="M28.9381854,8.41209156 L25.8175098,4.19063306 C24.8643185,2.9007741 23.0252064,2.61388974 21.7117178,3.55186711 C20.3982292,4.48984448 20.1074831,6.29631942 21.0618146,7.58841968 L24.1824902,11.8087575 C24.7571414,12.5876037 25.6533238,13 26.5631882,13 C27.1617833,13 27.7672194,12.8206973 28.2882822,12.4486441 C29.6017708,11.5106668 29.8925169,9.70307117 28.9381854,8.41209156" id="Fill-5" fill="#FA2D79"></path>
                <path d="M55.8488,96.2045455 C54.1874667,96.2045455 52.8411333,97.4634545 52.8411333,99.0169091 L52.8411333,104.096182 C52.8411333,105.649636 54.1874667,106.909636 55.8488,106.909636 C57.5101333,106.909636 58.8576333,105.649636 58.8576333,104.096182 L58.8576333,99.0169091 C58.8576333,97.4623636 57.5101333,96.2045455 55.8488,96.2045455" id="Fill-10" fill="#3DF9DF"></path>
                <path d="M107.64111,63.6608405 L103.021764,62.13476 C101.609253,61.667809 100.091379,62.4531356 99.6323653,63.8911323 C99.1733516,65.3280676 99.9463723,66.8711282 101.359926,67.3391404 L105.979272,68.8662822 C106.25468,68.9564887 106.535304,69 106.810712,69 C107.944685,69 108.99833,68.2656135 109.367627,67.1088487 C109.826641,65.6719133 109.05362,64.1277915 107.64111,63.6608405" id="Fill-13" fill="#FA2D79"></path>
            </g>
        </g>
    </g>
</svg>