<?xml version="1.0" encoding="UTF-8"?>
<svg width="30px" height="32px" viewBox="0 0 30 32" version="1.1" xmlns="http://www.w3.org/2000/svg" xmlns:xlink="http://www.w3.org/1999/xlink">
    <!-- Generator: Sketch 61 (89581) - https://sketch.com -->
    <title>convertion-money</title>
    <desc>Created with Sketch.</desc>
    <g id="Page-1" stroke="none" stroke-width="1" fill="none" fill-rule="evenodd">
        <g id="PERFIL-360dp-Money-Convert" transform="translate(-187.000000, -79.000000)" fill="#3DFCE1" fill-rule="nonzero">
            <g id="Qaploins" transform="translate(183.000000, 79.000000)">
                <g transform="translate(4.000000, 0.000000)" id="convertion_qaploin">
                    <g>
                        <g id="bill">
                            <g id="convertion-money">
                                <path d="M14.2718447,2.40291262 L14.2718447,2.40291262 C14.2718447,2.02427184 13.9660194,1.7184466 13.6019417,1.7184466 C13.5873786,1.7184466 13.5873786,1.7184466 13.5728155,1.7184466 C6.01456311,2.09708738 0,8.53398058 0,16.3834951 C0,20.9708738 2.02427184,25.3106796 5.54854369,28.0631068 C5.83980583,28.2961165 6.26213592,28.2378641 6.49514563,27.9466019 C6.49514563,27.9320388 6.50970874,27.9320388 6.50970874,27.9174757 L6.55339806,27.8592233 C6.75728155,27.5679612 6.69902913,27.1601942 6.4223301,26.9417476 C3.26213592,24.4660194 1.36893204,20.5194175 1.36893204,16.3834951 C1.36893204,9.26213592 6.80097087,3.4223301 13.6456311,3.07281553 C13.9951456,3.05825243 14.2718447,2.75242718 14.2718447,2.40291262 Z M12.2330097,0.276699029 L12.2184466,0.291262136 C12,0.582524272 12.0582524,1.00485437 12.3349515,1.22330097 L13.2087379,1.90776699 C13.4854369,2.12621359 13.5436893,2.53398058 13.3398058,2.82524272 L12.7427184,3.66990291 C12.5242718,3.96116505 12.5970874,4.38349515 12.8883495,4.60194175 L12.8883495,4.60194175 C13.1796117,4.82038835 13.6019417,4.76213592 13.8349515,4.47087379 C13.8349515,4.47087379 13.8495146,4.45631068 13.8495146,4.44174757 L15.1893204,2.49029126 C15.3932039,2.19902913 15.3349515,1.79126214 15.0436893,1.57281553 L13.1941748,0.145631068 C12.8883495,-0.0873786408 12.4660194,-0.0291262136 12.2330097,0.276699029 C12.2330097,0.262135922 12.2330097,0.262135922 12.2330097,0.276699029 Z M21.6407767,3.13106796 L21.6262136,3.14563107 C21.4660194,3.46601942 21.5825243,3.8592233 21.9029126,4.03398058 C25.9951456,6.37864078 28.5436893,10.8203883 28.5436893,15.6990291 C28.5436893,22.8203883 23.1116505,28.6601942 16.2669903,29.0097087 C15.9029126,29.0242718 15.6262136,29.315534 15.6262136,29.6796117 L15.6262136,29.6941748 C15.6262136,30.0728155 15.9320388,30.3640777 16.2961165,30.3640777 C16.3106796,30.3640777 16.3106796,30.3640777 16.3252427,30.3640777 C23.8834951,29.9854369 29.8980583,23.5485437 29.8980583,15.6990291 C29.8980583,10.2961165 27.1019417,5.46116505 22.5728155,2.85436893 C22.2524272,2.66504854 21.8446602,2.7815534 21.6553398,3.10194175 C21.6553398,3.11650485 21.6553398,3.13106796 21.6407767,3.13106796 Z M16.3980583,29.038835 L16.9951456,28.1213592 C17.184466,27.8300971 17.1262136,27.4223301 16.8349515,27.2184466 L16.8203883,27.2038835 C16.5291262,26.9854369 16.1067961,27.0436893 15.8737864,27.3349515 C15.8737864,27.3349515 15.8592233,27.3495146 15.8592233,27.3640777 L14.5194175,29.315534 C14.315534,29.6067961 14.3737864,30.0145631 14.6650485,30.2330097 L16.6019417,31.6893204 C16.8932039,31.907767 17.315534,31.8495146 17.5485437,31.5582524 L17.5631068,31.5436893 C17.7815534,31.2524272 17.723301,30.8300971 17.4320388,30.5970874 L16.5728155,29.9563107 C16.2669903,29.7378641 16.1941748,29.3446602 16.3980583,29.038835 Z" id="Exch"></path>
                                <path d="M19.1454545,13.5768595 L7.39669421,13.5768595 C7.1785124,13.5768595 7,13.7553719 7,13.9735537 L7,20.6710744 C7,20.8892562 7.1785124,21.0677686 7.39669421,21.0677686 L19.1454545,21.0677686 C19.3636364,21.0677686 19.5421488,20.8892562 19.5421488,20.6710744 L19.5421488,13.9735537 C19.5421488,13.7553719 19.3636364,13.5768595 19.1454545,13.5768595 Z M18.7487603,20.2743802 L7.79338843,20.2743802 L7.79338843,14.3702479 L18.7487603,14.3702479 L18.7487603,20.2743802 Z" id="Shape"></path>
                                <path d="M9.67107438,17.7090909 L10.6561983,17.7090909 C10.8743802,17.7090909 11.0528926,17.5305785 11.0528926,17.3123967 C11.0528926,17.0942149 10.8743802,16.9157025 10.6561983,16.9157025 L9.67107438,16.9157025 C9.45289256,16.9157025 9.27438017,17.0942149 9.27438017,17.3123967 C9.27438017,17.5305785 9.44958678,17.7090909 9.67107438,17.7090909 Z" id="Shape"></path>
                                <path d="M20.8578512,11.7884298 L9.10909091,11.7884298 C8.89090909,11.7884298 8.71239669,11.9669421 8.71239669,12.185124 C8.71239669,12.4033058 8.89090909,12.5818182 9.10909091,12.5818182 L20.461157,12.5818182 L20.461157,18.8826446 C20.461157,19.1008264 20.6396694,19.2793388 20.8578512,19.2793388 C21.0760331,19.2793388 21.2545455,19.1008264 21.2545455,18.8826446 L21.2545455,12.185124 C21.2545455,11.9669421 21.0760331,11.7884298 20.8578512,11.7884298 Z" id="Shape"></path>
                                <path d="M22.5768595,10.0132231 L10.8280992,10.0132231 C10.6099174,10.0132231 10.431405,10.1917355 10.431405,10.4099174 C10.431405,10.6280992 10.6099174,10.8066116 10.8280992,10.8066116 L22.1801653,10.8066116 L22.1801653,17.107438 C22.1801653,17.3256198 22.3586777,17.5041322 22.5768595,17.5041322 C22.7950413,17.5041322 22.9735537,17.3256198 22.9735537,17.107438 L22.9735537,10.4099174 C22.9735537,10.1917355 22.7950413,10.0132231 22.5768595,10.0132231 Z" id="Shape"></path>
                                <path d="M15.8859504,17.7090909 L16.8710744,17.7090909 C17.0892562,17.7090909 17.2677686,17.5305785 17.2677686,17.3123967 C17.2677686,17.0942149 17.0892562,16.9157025 16.8710744,16.9157025 L15.8859504,16.9157025 C15.6677686,16.9157025 15.4892562,17.0942149 15.4892562,17.3123967 C15.4892562,17.5305785 15.6677686,17.7090909 15.8859504,17.7090909 Z" id="Shape"></path>
                                <path d="M12.9603306,17.7157025 L13.5818182,17.7157025 C13.7371901,17.7157025 13.8661157,17.8413223 13.8661157,18 C13.8661157,18.1586777 13.7404959,18.2842975 13.5818182,18.2842975 L12.4677686,18.2842975 C12.2495868,18.2842975 12.0710744,18.4628099 12.0710744,18.6809917 C12.0710744,18.8991736 12.2495868,19.077686 12.4677686,19.077686 L12.8743802,19.077686 L12.8743802,19.338843 C12.8743802,19.5570248 13.0528926,19.7355372 13.2710744,19.7355372 C13.4892562,19.7355372 13.6677686,19.5570248 13.6677686,19.338843 L13.6677686,19.0743802 C14.2198347,19.031405 14.6595041,18.5652893 14.6595041,18 C14.6595041,17.4049587 14.1768595,16.922314 13.5818182,16.922314 L12.9603306,16.922314 C12.8049587,16.922314 12.6760331,16.7966942 12.6760331,16.6380165 C12.6760331,16.4826446 12.8016529,16.353719 12.9603306,16.353719 L14.0545455,16.353719 C14.2727273,16.353719 14.4512397,16.1752066 14.4512397,15.9570248 C14.4512397,15.738843 14.2727273,15.5603306 14.0545455,15.5603306 L13.6677686,15.5603306 L13.6677686,15.3090909 C13.6677686,15.0909091 13.4892562,14.9123967 13.2710744,14.9123967 C13.0528926,14.9123967 12.8743802,15.0909091 12.8743802,15.3090909 L12.8743802,15.5669421 C12.322314,15.6099174 11.8826446,16.0760331 11.8826446,16.6413223 C11.8826446,17.2330579 12.3652893,17.7157025 12.9603306,17.7157025 Z" id="Shape"></path>
                            </g>
                        </g>
                    </g>
                </g>
            </g>
        </g>
    </g>
</svg>