<?xml version="1.0" encoding="UTF-8"?>
<svg width="19px" height="19px" viewBox="0 0 19 19" version="1.1" xmlns="http://www.w3.org/2000/svg" xmlns:xlink="http://www.w3.org/1999/xlink">
    <!-- Generator: Sketch 54.1 (76490) - https://sketchapp.com -->
    <title>Qaploin Gradient</title>
    <desc>Created with Sketch.</desc>
    <defs>
        <polygon id="path-1" points="1.96280371 0.0303432836 18.8745836 0.0303432836 18.8745836 19 1.96280371 19"></polygon>
        <polygon id="path-3" points="8.64008795e-05 0.0303432836 11.9144797 0.0303432836 11.9144797 19 8.64008795e-05 19"></polygon>
    </defs>
    <g id="Page-1" stroke="none" stroke-width="1" fill="none" fill-rule="evenodd">
        <g id="Qaploins-Pública" transform="translate(-140.000000, -414.000000)">
            <g id="Group" transform="translate(140.000000, 414.000000)">
                <g id="Qaploin-Active">
                    <path d="M11.0651531,2.75610252 C11.0525754,2.75610252 11.0397118,2.75553506 11.0268483,2.75383267 C10.8287495,2.73085046 10.6269346,2.71950121 10.4279782,2.71950121 C10.2458874,2.71950121 10.0912389,2.57281226 10.0912389,2.39264303 C10.0912389,2.21190635 10.2313087,2.06521739 10.4131137,2.06521739 L10.4279782,2.06521739 C10.6523758,2.06521739 10.8793462,2.07855275 11.1028862,2.10437228 C11.2838336,2.12480091 11.412755,2.28766254 11.3921733,2.46669684 C11.3724492,2.6335307 11.2300925,2.75610252 11.0651531,2.75610252 M7.89986038,3.3286718 C7.78008636,3.3286718 7.66431435,3.26341365 7.60599955,3.15020496 C7.52367278,2.98904572 7.58799057,2.79213637 7.74921383,2.71013809 C7.9553166,2.60600879 8.16770823,2.51266127 8.38095743,2.43350031 C8.5533291,2.36994455 8.74170875,2.45619879 8.80545482,2.6253025 C8.86862918,2.79440621 8.78258628,2.98280364 8.61221561,3.04607566 C8.42212081,3.1167247 8.23259773,3.19957417 8.0493635,3.29263795 C8.00162541,3.31675509 7.95045704,3.3286718 7.89986038,3.3286718 M13.4955079,3.63878985 C13.433477,3.63878985 13.371446,3.62148225 13.3157039,3.58573214 C13.1433323,3.4739421 12.9638142,3.37123146 12.7820092,3.28072125 C12.6193567,3.19957417 12.5544672,3.00238108 12.6365081,2.84122184 C12.7179773,2.67977887 12.9160761,2.61480445 13.0790145,2.696519 C13.2819728,2.79781099 13.4829302,2.91328953 13.6758835,3.03813119 C13.8285311,3.13658587 13.8714096,3.33945358 13.7722173,3.49068223 C13.7084712,3.58658333 13.6032759,3.63878985 13.4955079,3.63878985 M5.89000098,4.95672062 C5.81710749,4.95672062 5.74307057,4.93288721 5.68189721,4.88323427 C5.54096979,4.76860692 5.52010224,4.56290191 5.63530254,4.42302249 C5.77966024,4.24710924 5.93402293,4.0768706 6.09295933,3.91826494 C6.22159491,3.78973477 6.42969868,3.78945104 6.55890597,3.91627882 C6.68839912,4.04339034 6.68897083,4.25051401 6.56090697,4.37847672 C6.41654927,4.52289583 6.27733699,4.67724552 6.14555699,4.83670238 C6.08066749,4.91586334 5.98576302,4.95672062 5.89000098,4.95672062 M15.3378552,5.45381743 C15.232374,5.45381743 15.1283221,5.4033133 15.064576,5.31024952 C14.948804,5.14001088 14.8233129,4.97346075 14.6921046,4.81542255 C14.5763326,4.6761106 14.5966284,4.46983812 14.7375558,4.35492704 C14.8781974,4.24029969 15.0851577,4.2604446 15.2012156,4.39975655 C15.3455733,4.57368369 15.4827846,4.75697395 15.6102767,4.94338526 C15.7126135,5.09291152 15.6725935,5.29606296 15.521947,5.39763868 C15.4653473,5.43537491 15.4018871,5.45381743 15.3378552,5.45381743 M4.63937734,7.21777343 C4.60421695,7.21777343 4.56848484,7.21181507 4.53361031,7.2001821 C4.36123864,7.14230097 4.26919274,6.95645712 4.32750753,6.78536729 C4.40068688,6.57143407 4.48358536,6.35920324 4.57391612,6.15463315 C4.64766719,5.98921794 4.84004883,5.91317802 5.0078468,5.98666436 C5.17450133,6.05929951 5.25025339,6.2519529 5.1773599,6.41708438 C5.09446142,6.60491434 5.0184235,6.79955385 4.95124714,6.99532828 C4.90465248,7.13180292 4.77687447,7.21777343 4.63937734,7.21777343 M16.3920952,7.81162253 C16.2448789,7.81162253 16.1099545,7.71288413 16.073079,7.56420905 C16.0224823,7.36446238 15.9624524,7.16443199 15.8949901,6.96979248 C15.8355319,6.79841892 15.9278637,6.61257508 16.0993778,6.55384275 C16.2734646,6.49482669 16.4592715,6.58618809 16.518158,6.75699419 C16.5919091,6.96922502 16.6567986,7.1874142 16.7116831,7.4047522 C16.7562768,7.58009799 16.6490805,7.75771363 16.4721351,7.80140822 C16.4458363,7.80878522 16.4189657,7.81162253 16.3920952,7.81162253 M4.22259807,9.76198984 C4.04050727,9.76198984 3.89300515,9.61927311 3.89300515,9.43910389 L3.89300515,9.43115942 C3.89300515,9.21070039 3.90186671,8.98655285 3.91958983,8.76552636 C3.93359682,8.58535713 4.09539178,8.45313846 4.27376645,8.46533889 C4.45499968,8.47952545 4.59078168,8.63671245 4.57648883,8.81688168 C4.56019499,9.02088431 4.552191,9.22772425 4.552191,9.43115942 C4.552191,9.61189611 4.40468888,9.76198984 4.22259807,9.76198984 M16.6093464,10.3847795 C16.6010565,10.3847795 16.592195,10.3844958 16.5836193,10.3836446 C16.4021002,10.3700255 16.2663182,10.2125548 16.2803252,10.0326693 C16.2960473,9.83519245 16.3034796,9.63317593 16.3034796,9.43115942 C16.3034796,9.2509902 16.4506958,9.09351946 16.6330725,9.09351946 C16.8151633,9.09351946 16.9623796,9.22914291 16.9623796,9.41016332 L16.9623796,9.43115942 C16.9623796,9.6501998 16.9543756,9.86924018 16.93751,10.0828897 C16.9237889,10.254547 16.7794312,10.3847795 16.6093464,10.3847795 M4.64366519,12.3135833 C4.50673977,12.3135833 4.37839005,12.2278965 4.33179538,12.0917056 C4.25861604,11.8797585 4.19429825,11.6615693 4.13912788,11.4436638 C4.09539178,11.268318 4.20287395,11.0909861 4.37924762,11.0475753 C4.55590714,11.0030295 4.73456766,11.1102798 4.77887547,11.2856256 C4.82890042,11.485656 4.88835864,11.6859701 4.95524914,11.8808934 C5.0144215,12.051132 4.92208975,12.2375433 4.75000393,12.2957082 C4.71484354,12.3076249 4.67911144,12.3135833 4.64366519,12.3135833 M15.9858926,12.890976 C15.9421565,12.890976 15.8975629,12.8821803 15.8546843,12.8637378 C15.6880298,12.7916701 15.6114202,12.598733 15.6840278,12.433034 C15.7669263,12.2446366 15.8423925,12.0499971 15.9089971,11.8545064 C15.9670261,11.6837003 16.1542623,11.5917714 16.3263481,11.6490851 C16.4990056,11.7069662 16.5919091,11.8922426 16.5335943,12.0633325 C16.4609867,12.2766982 16.3786599,12.488929 16.288615,12.6943503 C16.2343022,12.8174896 16.1133848,12.890976 15.9858926,12.890976 M5.90000597,14.5717988 C5.80452979,14.5717988 5.71019703,14.5306577 5.64502168,14.4520642 C5.50295083,14.2801232 5.36602541,14.0971167 5.23710398,13.9078681 C5.13505309,13.7580581 5.17507304,13.5549066 5.32543374,13.4533309 C5.476652,13.3528901 5.68075378,13.392045 5.78280467,13.541855 C5.90086354,13.7140798 6.02578298,13.8811974 6.15499027,14.0375332 C6.27047643,14.1771288 6.24989474,14.3834013 6.10896732,14.4977449 C6.0475081,14.5473979 5.97318532,14.5717988 5.90000597,14.5717988 M14.5383136,15.0317268 C14.4545576,15.0317268 14.3710874,15.0002327 14.3070554,14.9375281 C14.1775623,14.8101328 14.1764189,14.6032929 14.3041969,14.4747627 C14.4479829,14.3309111 14.5869093,14.1762777 14.7186893,14.0159696 C14.8336037,13.8758065 15.0408499,13.8548104 15.1817773,13.9685865 C15.3232765,14.0826464 15.3444299,14.2886352 15.2295154,14.4287983 C15.0851577,14.605279 14.9310809,14.7755177 14.7727162,14.9346908 C14.7081126,14.9990977 14.6232131,15.0317268 14.5383136,15.0317268 M7.91243808,16.1953079 C7.86241313,16.1953079 7.81124476,16.1836749 7.76379252,16.1595578 C7.56026246,16.0574146 7.35959096,15.941936 7.16749517,15.8168106 C7.01513348,15.718356 6.97282667,15.5154883 7.07230484,15.3645433 C7.17235474,15.2135984 7.37617066,15.1710387 7.52853235,15.2700609 C7.70033231,15.3815672 7.87956454,15.4848453 8.06165534,15.5767742 C8.22430788,15.6584887 8.28862567,15.8551143 8.2062989,16.0159898 C8.14855582,16.1300497 8.0327838,16.1953079 7.91243808,16.1953079 M12.3718047,16.4449912 C12.2385954,16.4449912 12.1131042,16.3644116 12.0633652,16.2333278 C11.9993332,16.0645079 12.0850903,15.8758267 12.2554609,15.8119872 C12.4458416,15.7407707 12.6350788,15.6573538 12.8177413,15.5645737 C12.9795363,15.4814405 13.1782068,15.5449963 13.261677,15.7058718 C13.3445755,15.8661798 13.2808294,16.0633729 13.1190344,16.1456549 C12.9143609,16.2506354 12.7016835,16.3436992 12.4878626,16.4239951 C12.4501294,16.4384654 12.4106812,16.4449912 12.3718047,16.4449912 M10.4559922,16.7971014 L10.4279782,16.7971014 C10.1972917,16.7971014 9.96489014,16.7834824 9.7373481,16.7568116 C9.55697244,16.7352481 9.42776515,16.5726702 9.44949027,16.3930684 C9.47092953,16.2140341 9.62986593,16.0889087 9.81595873,16.1073512 C10.0166302,16.1311847 10.2230189,16.1433851 10.4276924,16.1433851 C10.6097832,16.1433851 10.7710064,16.2897903 10.7710064,16.4702433 C10.7712923,16.65098 10.638083,16.7971014 10.4559922,16.7971014" id="Fill-4" fill="#3DF9DF" fill-rule="evenodd"></path>
                    <path d="M13.2084103,8.53623188 C13.8995053,8.53623188 14.4597334,9.1215701 14.4597334,9.8442029 C14.4597334,10.5665532 13.8995053,11.1521739 13.2084103,11.1521739 C12.5173153,11.1521739 11.9570872,10.5665532 11.9570872,9.8442029 C11.9570872,9.1215701 12.5173153,8.53623188 13.2084103,8.53623188" id="Fill-6" fill="#3DF9DF" fill-rule="evenodd"></path>
                    <path d="M7.0908308,9.8442029 C7.0908308,10.5665532 7.65105888,11.1521739 8.34215388,11.1521739 C9.03324889,11.1521739 9.59347697,10.5665532 9.59347697,9.8442029 C9.59347697,9.1215701 9.03324889,8.53623188 8.34215388,8.53623188 C7.65105888,8.53623188 7.0908308,9.1215701 7.0908308,9.8442029" id="Fill-8" fill="#3DF9DF" fill-rule="evenodd"></path>
                    <path d="M9.87154876,6.9530443 C9.87154876,7.5232017 10.2762925,7.98550725 10.7754209,7.98550725 C11.2745493,7.98550725 11.6790154,7.5232017 11.6790154,6.9530443 C11.6790154,6.3825954 11.2745493,5.92028986 10.7754209,5.92028986 C10.2762925,5.92028986 9.87154876,6.3825954 9.87154876,6.9530443" id="Fill-10" fill="#3DF9DF" fill-rule="evenodd"></path>
                    <path d="M10.1624018,11.3842031 C10.6437545,11.9827553 11.1725999,11.5916674 11.3829647,11.3895292 C11.4209589,11.353261 11.3946982,11.2898551 11.3418975,11.2898551 L10.2084976,11.2898551 C10.1593287,11.2898551 10.1319505,11.3461596 10.1624018,11.3842031" id="Fill-12" fill="#3DF9DF" fill-rule="evenodd"></path>
                    <mask id="mask-2" fill="white">
                        <use xlink:href="#path-1"></use>
                    </mask>
                    <g id="Clip-15"></g>
                    <path d="M10.4186937,0.696307463 C6.12807413,0.696307463 2.63784891,4.65227761 2.63784891,9.51514328 C2.63784891,14.378009 6.12807413,18.3339791 10.4186937,18.3339791 C14.7090257,18.3339791 18.1995384,14.378009 18.1995384,9.51514328 C18.1995384,4.65227761 14.7090257,0.696307463 10.4186937,0.696307463 M10.4186937,19.0001134 C5.75605177,19.0001134 1.96280371,14.7452478 1.96280371,9.51514328 C1.96280371,4.28503881 5.75605177,0.0301731343 10.4186937,0.0301731343 C15.0813356,0.0301731343 18.8745836,4.28503881 18.8745836,9.51514328 C18.8745836,14.7452478 15.0813356,19.0001134 10.4186937,19.0001134" id="Fill-14" fill="#3DF9DF" fill-rule="evenodd" mask="url(#mask-2)"></path>
                    <mask id="mask-4" fill="white">
                        <use xlink:href="#path-3"></use>
                    </mask>
                    <g id="Clip-2"></g>
                    <path d="M0.676029282,9.51514328 C0.676029282,13.8153821 3.41061712,17.4063821 7.01526181,18.179994 C4.03270345,16.6914716 1.99191468,13.3389642 1.99191468,9.51514328 C1.99191468,5.69103881 4.03327946,2.33853134 7.01583782,0.850292537 C3.41061712,1.6236209 0.676029282,5.21490448 0.676029282,9.51514328 Z M8.64008795e-05,9.51514328 C8.64008795e-05,4.28503881 3.79999708,0.0301731343 8.47082863,0.0301731343 C8.80664005,0.0301731343 9.15771562,0.0551283582 9.51368724,0.104471642 L11.9064156,0.434844776 L9.51339924,0.7638 C5.61067151,1.30033731 2.66785756,5.0626209 2.66785756,9.51514328 C2.66785756,13.9676657 5.61095952,17.7299493 9.51339924,18.2667701 L11.9144797,18.5968597 L9.51339924,18.9260985 C9.15656361,18.9751582 8.80548803,19.0001134 8.47082863,19.0001134 C3.79999708,19.0001134 8.64008795e-05,14.7452478 8.64008795e-05,9.51514328 Z" id="Fill-1" fill="#3DF9DF" fill-rule="evenodd" mask="url(#mask-4)"></path>
                </g>
            </g>
        </g>
    </g>
</svg>