<svg width="39" height="40" viewBox="0 0 39 40" fill="none" xmlns="http://www.w3.org/2000/svg">
<g filter="url(#filter0_d_2599_24222)">
<ellipse cx="19.64" cy="16.0012" rx="15" ry="15.0012" fill="#940DFF"/>
<ellipse cx="19.64" cy="16.0012" rx="15" ry="15.0012" fill="#E3E3E3"/>
<ellipse cx="19.64" cy="16.0012" rx="15" ry="15.0012" fill="url(#paint0_linear_2599_24222)"/>
<ellipse cx="19.64" cy="16.0012" rx="15" ry="15.0012" fill="url(#paint1_linear_2599_24222)"/>
<ellipse cx="19.64" cy="16.0012" rx="12.5" ry="12.501" fill="url(#paint2_radial_2599_24222)"/>
<path fill-rule="evenodd" clip-rule="evenodd" d="M27.2542 15.9655C27.2542 11.7467 23.8224 8.31464 19.6044 8.31464C15.386 8.31464 11.9542 11.7467 11.9542 15.9655C11.9542 20.1843 15.386 23.6164 19.6044 23.6164V23.6165C19.6201 23.6165 19.6358 23.6165 19.6516 23.6164H25.8181C26.4299 23.6164 26.9257 23.1205 26.9257 22.5091C26.9257 21.8977 26.4299 21.4022 25.8181 21.4022H24.982C26.3845 20.0146 27.2546 18.0899 27.2546 15.9657H25.0407C25.0407 18.9502 22.6233 21.3809 19.644 21.4022H19.6044C16.6364 21.4022 14.2169 19.012 14.1686 16.0556L14.1681 15.9655C14.1681 12.9678 16.6065 10.5292 19.6044 10.5292V10.5288C22.6019 10.5288 25.0407 12.9678 25.0407 15.9655H27.2542Z" fill="#00FFDD"/>
</g>
<defs>
<filter id="filter0_d_2599_24222" x="0" y="0" width="40" height="40.0027" filterUnits="userSpaceOnUse" color-interpolation-filters="sRGB">
<feFlood flood-opacity="0" result="BackgroundImageFix"/>
<feColorMatrix in="SourceAlpha" type="matrix" values="0 0 0 0 0 0 0 0 0 0 0 0 0 0 0 0 0 0 127 0" result="hardAlpha"/>
<feOffset dy="4"/>
<feGaussianBlur stdDeviation="2"/>
<feColorMatrix type="matrix" values="0 0 0 0 0 0 0 0 0 0 0 0 0 0 0 0 0 0 0.25 0"/>
<feBlend mode="normal" in2="BackgroundImageFix" result="effect1_dropShadow_2599_24222"/>
<feBlend mode="normal" in="SourceGraphic" in2="effect1_dropShadow_2599_24222" result="shape"/>
</filter>
<linearGradient id="paint0_linear_2599_24222" x1="34.64" y1="0.999942" x2="10.1664" y2="27.6565" gradientUnits="userSpaceOnUse">
<stop offset="0.42003" stop-color="#FFF394"/>
<stop offset="1" stop-color="#A46CFF"/>
</linearGradient>
<linearGradient id="paint1_linear_2599_24222" x1="29.64" y1="5.06244" x2="12.2269" y2="29.0928" gradientUnits="userSpaceOnUse">
<stop stop-color="#FFD3FB"/>
<stop offset="0.484375" stop-color="#F5FFCB"/>
<stop offset="1" stop-color="#9FFFDD"/>
</linearGradient>
<radialGradient id="paint2_radial_2599_24222" cx="0" cy="0" r="1" gradientUnits="userSpaceOnUse" gradientTransform="translate(19.6401 16.0012) rotate(49.395) scale(11.5234)">
<stop offset="0.354167" stop-color="#20225C"/>
<stop offset="1" stop-color="#0D0E2C"/>
</radialGradient>
</defs>
</svg>
