<?xml version="1.0" encoding="UTF-8"?>
<svg width="30px" height="32px" viewBox="0 0 30 32" version="1.1" xmlns="http://www.w3.org/2000/svg" xmlns:xlink="http://www.w3.org/1999/xlink">
    <!-- Generator: Sketch 61 (89581) - https://sketch.com -->
    <title>Layer_2</title>
    <desc>Created with Sketch.</desc>
    <g id="Page-1" stroke="none" stroke-width="1" fill="none" fill-rule="evenodd">
        <g id="PERFIL-360dp-Qaploins-Convert" transform="translate(-187.000000, -79.000000)" fill="#3DFCE1" fill-rule="nonzero">
            <g id="Qaploins" transform="translate(183.000000, 79.000000)">
                <g transform="translate(4.000000, 0.000000)" id="convertion_qaploin">
                    <g>
                        <path d="M14.1262136,23.7815534 C10.3106796,23.7815534 7.20873786,20.2572816 7.20873786,15.9174757 C7.20873786,11.5776699 10.3106796,8.05339806 14.1262136,8.05339806 C14.4174757,8.05339806 14.6941748,8.06796117 14.9708738,8.11165049 L16.9223301,8.38834951 L14.9708738,8.66504854 C11.7961165,9.10194175 9.37864078,12.2184466 9.37864078,15.9174757 C9.37864078,19.6165049 11.7961165,22.7184466 14.9854369,23.1699029 L16.9514563,23.4466019 L14.9854369,23.723301 C14.6941748,23.7524272 14.4174757,23.7815534 14.1262136,23.7815534 Z M12.9320388,8.72330097 C9.99029126,9.36407767 7.74757282,12.3495146 7.74757282,15.9174757 C7.74757282,19.4854369 9.97572816,22.4708738 12.9320388,23.1116505 C10.5,21.8737864 8.82524272,19.092233 8.82524272,15.9174757 C8.82524272,12.7427184 10.5,9.94660194 12.9320388,8.72330097 Z M15.815534,22.0194175 L15.7864078,22.0194175 C15.5970874,22.0194175 15.407767,22.0048544 15.2184466,21.9902913 C15.0728155,21.9757282 14.9563107,21.8446602 14.9854369,21.684466 C15,21.538835 15.131068,21.4223301 15.2912621,21.4514563 L15.2912621,21.4514563 C15.4514563,21.4660194 15.6262136,21.4805825 15.8009709,21.4805825 C15.9466019,21.4805825 16.0776699,21.5970874 16.0776699,21.7572816 C16.0776699,21.8883495 15.961165,22.0048544 15.815534,22.0194175 C15.815534,22.0194175 15.815534,22.0194175 15.815534,22.0194175 L15.815534,22.0194175 Z M17.3883495,21.7281553 C17.2427184,21.7281553 17.1116505,21.6116505 17.1116505,21.4660194 C17.1116505,21.3495146 17.184466,21.2475728 17.2864078,21.2038835 C17.4466019,21.1456311 17.592233,21.0728155 17.7524272,21 C17.8834951,20.9271845 18.0436893,20.9854369 18.1165049,21.1165049 C18.1893204,21.2475728 18.131068,21.407767 18,21.4805825 C17.8252427,21.5679612 17.6504854,21.6407767 17.4757282,21.7135922 C17.4466019,21.7135922 17.4174757,21.7281553 17.3883495,21.7281553 L17.3883495,21.7281553 Z M13.7184466,21.5097087 C13.6747573,21.5097087 13.631068,21.4951456 13.6019417,21.4805825 C13.4271845,21.3932039 13.2669903,21.2912621 13.1067961,21.1893204 C12.9757282,21.1165049 12.9174757,20.9563107 12.9902913,20.8252427 C13.0631068,20.6941748 13.223301,20.6359223 13.3543689,20.7087379 C13.368932,20.723301 13.3834951,20.723301 13.3980583,20.7378641 C13.5436893,20.8252427 13.6893204,20.9126214 13.8349515,20.9854369 C13.9660194,21.0582524 14.0242718,21.2184466 13.9514563,21.3495146 C13.907767,21.4514563 13.8058252,21.5097087 13.7184466,21.5097087 L13.7184466,21.5097087 Z M19.1650485,20.5485437 C19.0194175,20.5485437 18.8883495,20.4320388 18.8883495,20.2718447 C18.8883495,20.1990291 18.9174757,20.1262136 18.961165,20.0825243 C19.0776699,19.9660194 19.1941748,19.8349515 19.2961165,19.7038835 C19.3834951,19.5873786 19.5582524,19.5728155 19.6747573,19.6601942 C19.7912621,19.7475728 19.8058252,19.9223301 19.7184466,20.038835 C19.6019417,20.184466 19.4708738,20.3300971 19.3398058,20.461165 C19.3106796,20.5194175 19.2378641,20.5485437 19.1650485,20.5485437 L19.1650485,20.5485437 Z M12.0582524,20.1553398 C11.9708738,20.1553398 11.8980583,20.1262136 11.8543689,20.0533981 C11.7378641,19.907767 11.6213592,19.7621359 11.5194175,19.6019417 C11.4320388,19.4708738 11.4757282,19.3106796 11.592233,19.223301 C11.723301,19.1359223 11.8834951,19.1796117 11.9708738,19.2961165 L11.9708738,19.2961165 C12.0728155,19.4417476 12.1747573,19.5728155 12.276699,19.7038835 C12.3640777,19.8203883 12.3495146,19.9951456 12.2330097,20.0825243 C12.1747573,20.1407767 12.1165049,20.1553398 12.0582524,20.1553398 L12.0582524,20.1553398 Z M20.3592233,18.7572816 C20.2135922,18.7572816 20.0825243,18.6407767 20.0825243,18.4805825 C20.0825243,18.4368932 20.0970874,18.407767 20.1116505,18.3640777 C20.184466,18.2038835 20.2427184,18.0436893 20.3009709,17.8834951 C20.3446602,17.7378641 20.5048544,17.6650485 20.6504854,17.7087379 C20.7961165,17.7524272 20.868932,17.9126214 20.8252427,18.0582524 L20.8252427,18.0582524 C20.7669903,18.2330097 20.6941748,18.407767 20.6213592,18.5825243 C20.5631068,18.6990291 20.461165,18.7572816 20.3592233,18.7572816 L20.3592233,18.7572816 Z M11.0242718,18.276699 C10.9223301,18.276699 10.8203883,18.2038835 10.776699,18.1019417 C10.7184466,17.9271845 10.6601942,17.7524272 10.6165049,17.5631068 C10.5873786,17.4174757 10.6747573,17.2718447 10.8203883,17.2281553 C10.9660194,17.184466 11.1116505,17.2864078 11.1553398,17.4320388 C11.1990291,17.592233 11.2427184,17.7669903 11.3009709,17.9271845 C11.3446602,18.0728155 11.2718447,18.2184466 11.1262136,18.276699 C11.0970874,18.2912621 11.0679612,18.2912621 11.038835,18.2912621 L11.0242718,18.276699 Z M20.8834951,16.6893204 L20.868932,16.6893204 C20.723301,16.6747573 20.6067961,16.5436893 20.6213592,16.3980583 C20.6213592,16.3980583 20.6213592,16.3980583 20.6213592,16.3980583 C20.6359223,16.2378641 20.6359223,16.0631068 20.6359223,15.9029126 C20.6359223,15.7572816 20.7524272,15.6262136 20.9126214,15.6262136 C21.0582524,15.6262136 21.1747573,15.7427184 21.1893204,15.8883495 C21.1893204,15.8883495 21.1893204,15.8883495 21.1893204,15.8883495 L21.1893204,15.9029126 C21.1893204,16.0776699 21.1893204,16.2669903 21.1747573,16.4417476 C21.1456311,16.5873786 21.0291262,16.7038835 20.8834951,16.6893204 L20.8834951,16.6893204 Z M10.6893204,16.1796117 C10.5436893,16.1796117 10.4271845,16.0631068 10.4126214,15.9174757 C10.4126214,15.9174757 10.4126214,15.9174757 10.4126214,15.9174757 L10.4126214,15.9174757 C10.4126214,15.7281553 10.4271845,15.5533981 10.4417476,15.3640777 C10.4563107,15.2184466 10.5873786,15.1019417 10.7330097,15.1165049 C10.8786408,15.131068 10.9951456,15.2621359 10.9805825,15.407767 C10.9660194,15.5825243 10.9660194,15.7427184 10.9660194,15.9174757 C10.9660194,16.0631068 10.8349515,16.1796117 10.6893204,16.1796117 L10.6893204,16.1796117 Z M20.6941748,14.5631068 C20.5631068,14.5631068 20.461165,14.4757282 20.4320388,14.3592233 C20.3883495,14.1990291 20.3446602,14.0242718 20.2864078,13.8640777 C20.2281553,13.7330097 20.2864078,13.5728155 20.4320388,13.5145631 C20.5776699,13.4563107 20.723301,13.5145631 20.7815534,13.6601942 C20.7815534,13.6747573 20.7961165,13.6893204 20.7961165,13.7038835 C20.8543689,13.8786408 20.9126214,14.0533981 20.9563107,14.2427184 C21,14.3883495 20.8980583,14.5339806 20.7669903,14.5776699 C20.7669903,14.5776699 20.7669903,14.5776699 20.7669903,14.5776699 C20.7378641,14.5631068 20.723301,14.5631068 20.6941748,14.5631068 L20.6941748,14.5631068 Z M11.0242718,14.0679612 C10.8786408,14.0679612 10.7475728,13.9368932 10.7475728,13.7912621 C10.7475728,13.7621359 10.7475728,13.7330097 10.7621359,13.7038835 C10.8203883,13.5291262 10.8932039,13.3543689 10.9660194,13.1796117 C11.0242718,13.0485437 11.184466,12.9757282 11.3300971,13.0339806 C11.4757282,13.092233 11.5339806,13.2524272 11.4757282,13.3980583 C11.4029126,13.5582524 11.3446602,13.7184466 11.2864078,13.8786408 C11.2427184,13.9951456 11.1407767,14.0679612 11.0242718,14.0679612 L11.0242718,14.0679612 Z M19.8349515,12.6116505 C19.7475728,12.6116505 19.6601942,12.5679612 19.6165049,12.4951456 C19.5145631,12.3495146 19.4126214,12.2184466 19.3106796,12.0873786 C19.2087379,11.9708738 19.2378641,11.7961165 19.3543689,11.7087379 C19.4708738,11.6067961 19.6456311,11.6359223 19.7330097,11.7524272 C19.8495146,11.8980583 19.9660194,12.0436893 20.0679612,12.2038835 C20.1553398,12.3203883 20.1262136,12.4951456 19.9951456,12.5825243 C19.9368932,12.5970874 19.8786408,12.6116505 19.8349515,12.6116505 L19.8349515,12.6116505 Z M12.0582524,12.2038835 C11.9126214,12.2038835 11.7961165,12.0728155 11.7961165,11.9271845 C11.7961165,11.868932 11.8106796,11.8106796 11.8543689,11.7669903 C11.9708738,11.6213592 12.1019417,11.4757282 12.2330097,11.3446602 C12.3349515,11.2427184 12.5097087,11.2427184 12.6116505,11.3446602 C12.7135922,11.4466019 12.7135922,11.6213592 12.6116505,11.723301 C12.4951456,11.8398058 12.3786408,11.9708738 12.276699,12.1019417 C12.2038835,12.1747573 12.131068,12.2038835 12.0582524,12.2038835 L12.0582524,12.2038835 Z M18.3203883,11.1116505 C18.2621359,11.1116505 18.2184466,11.0970874 18.1747573,11.0679612 C18.0291262,10.9805825 17.8834951,10.8932039 17.7378641,10.8203883 C17.6067961,10.7475728 17.5485437,10.5873786 17.6213592,10.4563107 C17.6941748,10.3252427 17.8543689,10.2669903 17.9854369,10.3398058 C18.1601942,10.4271845 18.3203883,10.5145631 18.4805825,10.6165049 C18.6116505,10.7038835 18.6407767,10.8640777 18.5533981,10.9951456 C18.4951456,11.0679612 18.407767,11.1116505 18.3203883,11.1116505 L18.3203883,11.1116505 Z M13.7038835,10.8495146 C13.5582524,10.8495146 13.4417476,10.7184466 13.4417476,10.5728155 C13.4417476,10.4708738 13.5,10.3834951 13.5873786,10.3398058 C13.7621359,10.2524272 13.9368932,10.1796117 14.1116505,10.1067961 C14.2572816,10.0485437 14.4029126,10.1213592 14.461165,10.2669903 C14.5194175,10.4126214 14.4466019,10.5582524 14.3009709,10.6165049 C14.1407767,10.6747573 13.9951456,10.7330097 13.8495146,10.8203883 C13.7912621,10.8349515 13.7475728,10.8495146 13.7038835,10.8495146 L13.7038835,10.8495146 Z M16.3106796,10.368932 L16.2815534,10.368932 C16.1213592,10.3543689 15.9466019,10.3398058 15.7864078,10.3398058 C15.6407767,10.3398058 15.5097087,10.223301 15.5097087,10.0631068 C15.5097087,9.91747573 15.6262136,9.80097087 15.7718447,9.78640777 C15.7718447,9.78640777 15.7718447,9.78640777 15.7718447,9.78640777 L15.7864078,9.78640777 C15.9757282,9.78640777 16.1504854,9.80097087 16.3398058,9.81553398 C16.4854369,9.83009709 16.6019417,9.96116505 16.5873786,10.1067961 C16.5728155,10.2669903 16.4417476,10.368932 16.3106796,10.368932 L16.3106796,10.368932 Z M18.0145631,15.0728155 C18.5679612,15.0728155 19.0194175,15.5533981 19.0194175,16.1650485 C19.0194175,16.776699 18.5679612,17.2572816 18.0145631,17.2572816 C17.461165,17.2572816 17.0097087,16.776699 17.0097087,16.1650485 C17.0097087,15.5533981 17.461165,15.0728155 18.0145631,15.0728155 Z M14.0825243,15.0728155 C14.6359223,15.0728155 15.0873786,15.5533981 15.0873786,16.1650485 C15.0873786,16.776699 14.6359223,17.2572816 14.0825243,17.2572816 C13.5291262,17.2572816 13.0776699,16.776699 13.0776699,16.1650485 C13.0776699,15.5533981 13.5291262,15.0728155 14.0825243,15.0728155 Z M16.0485437,12.9029126 C16.4708738,12.9029126 16.8203883,13.2815534 16.8203883,13.7330097 C16.8203883,14.184466 16.4708738,14.5631068 16.0485437,14.5631068 C15.6262136,14.5631068 15.276699,14.184466 15.276699,13.7330097 C15.276699,13.2815534 15.6262136,12.9029126 16.0485437,12.9029126 Z M15.538835,17.5339806 C15.9466019,18.0873786 16.3834951,17.723301 16.5728155,17.5339806 C16.5873786,17.5048544 16.5873786,17.4757282 16.5728155,17.461165 C16.5582524,17.4466019 16.5582524,17.4466019 16.5436893,17.4466019 L15.5825243,17.4466019 C15.5533981,17.4466019 15.5242718,17.461165 15.5242718,17.5048544 C15.5097087,17.5194175 15.5242718,17.5339806 15.538835,17.5339806 Z M15.7864078,23.7815534 C11.9708738,23.7815534 8.86893204,20.2572816 8.86893204,15.9174757 C8.86893204,11.5776699 11.9708738,8.05339806 15.7864078,8.05339806 C19.6019417,8.05339806 22.7038835,11.5776699 22.7038835,15.9174757 C22.7038835,20.2572816 19.6019417,23.7815534 15.7864078,23.7815534 Z M15.7864078,8.59223301 C12.276699,8.59223301 9.4223301,11.868932 9.4223301,15.9029126 C9.4223301,19.9368932 12.276699,23.2135922 15.7864078,23.2135922 C19.2961165,23.2135922 22.1504854,19.9368932 22.1504854,15.9029126 C22.1504854,11.868932 19.2961165,8.59223301 15.7864078,8.59223301 Z M14.2718447,2.40291262 L14.2718447,2.40291262 C14.2718447,2.02427184 13.9660194,1.7184466 13.6019417,1.7184466 C13.5873786,1.7184466 13.5873786,1.7184466 13.5728155,1.7184466 C6.01456311,2.09708738 0,8.53398058 0,16.3834951 C0,20.9708738 2.02427184,25.3106796 5.54854369,28.0631068 C5.83980583,28.2961165 6.26213592,28.2378641 6.49514563,27.9466019 C6.49514563,27.9320388 6.50970874,27.9320388 6.50970874,27.9174757 L6.55339806,27.8592233 C6.75728155,27.5679612 6.69902913,27.1601942 6.4223301,26.9417476 C3.26213592,24.4660194 1.36893204,20.5194175 1.36893204,16.3834951 C1.36893204,9.26213592 6.80097087,3.4223301 13.6456311,3.07281553 C13.9951456,3.05825243 14.2718447,2.75242718 14.2718447,2.40291262 Z M12.2330097,0.276699029 L12.2184466,0.291262136 C12,0.582524272 12.0582524,1.00485437 12.3349515,1.22330097 L13.2087379,1.90776699 C13.4854369,2.12621359 13.5436893,2.53398058 13.3398058,2.82524272 L12.7427184,3.66990291 C12.5242718,3.96116505 12.5970874,4.38349515 12.8883495,4.60194175 L12.8883495,4.60194175 C13.1796117,4.82038835 13.6019417,4.76213592 13.8349515,4.47087379 C13.8349515,4.47087379 13.8495146,4.45631068 13.8495146,4.44174757 L15.1893204,2.49029126 C15.3932039,2.19902913 15.3349515,1.79126214 15.0436893,1.57281553 L13.1941748,0.145631068 C12.8883495,-0.0873786408 12.4660194,-0.0291262136 12.2330097,0.276699029 C12.2330097,0.262135922 12.2330097,0.262135922 12.2330097,0.276699029 Z M21.6407767,3.13106796 L21.6262136,3.14563107 C21.4660194,3.46601942 21.5825243,3.8592233 21.9029126,4.03398058 C25.9951456,6.37864078 28.5436893,10.8203883 28.5436893,15.6990291 C28.5436893,22.8203883 23.1116505,28.6601942 16.2669903,29.0097087 C15.9029126,29.0242718 15.6262136,29.315534 15.6262136,29.6796117 L15.6262136,29.6941748 C15.6262136,30.0728155 15.9320388,30.3640777 16.2961165,30.3640777 C16.3106796,30.3640777 16.3106796,30.3640777 16.3252427,30.3640777 C23.8834951,29.9854369 29.8980583,23.5485437 29.8980583,15.6990291 C29.8980583,10.2961165 27.1019417,5.46116505 22.5728155,2.85436893 C22.2524272,2.66504854 21.8446602,2.7815534 21.6553398,3.10194175 C21.6553398,3.11650485 21.6553398,3.13106796 21.6407767,3.13106796 Z M16.3980583,29.038835 L16.9951456,28.1213592 C17.184466,27.8300971 17.1262136,27.4223301 16.8349515,27.2184466 L16.8203883,27.2038835 C16.5291262,26.9854369 16.1067961,27.0436893 15.8737864,27.3349515 C15.8737864,27.3349515 15.8592233,27.3495146 15.8592233,27.3640777 L14.5194175,29.315534 C14.315534,29.6067961 14.3737864,30.0145631 14.6650485,30.2330097 L16.6019417,31.6893204 C16.8932039,31.907767 17.315534,31.8495146 17.5485437,31.5582524 L17.5631068,31.5436893 C17.7815534,31.2524272 17.723301,30.8300971 17.4320388,30.5970874 L16.5728155,29.9563107 C16.2669903,29.7378641 16.1941748,29.3446602 16.3980583,29.038835 Z" id="Layer_2"></path>
                    </g>
                </g>
            </g>
        </g>
    </g>
</svg>