<svg width="32" height="33" viewBox="0 0 32 33" fill="none" xmlns="http://www.w3.org/2000/svg">
<ellipse cx="16" cy="16.0012" rx="15" ry="15.0012" fill="#940DFF"/>
<ellipse cx="16" cy="16.0012" rx="15" ry="15.0012" fill="#E3E3E3"/>
<ellipse cx="16" cy="16.0012" rx="15" ry="15.0012" fill="url(#paint0_linear_2599_24222)"/>
<ellipse cx="16" cy="16.0012" rx="15" ry="15.0012" fill="url(#paint1_linear_2599_24222)"/>
<ellipse cx="16" cy="16.0012" rx="12.5" ry="12.501" fill="url(#paint2_radial_2599_24222)"/>
<path fill-rule="evenodd" clip-rule="evenodd" d="M23.6142 15.9655C23.6142 11.7467 20.1824 8.31464 15.9644 8.31464C11.746 8.31464 8.31419 11.7467 8.31419 15.9655C8.31419 20.1843 11.746 23.6164 15.9644 23.6164V23.6165C15.9801 23.6165 15.9958 23.6165 16.0116 23.6164H22.1781C22.7899 23.6164 23.2857 23.1205 23.2857 22.5091C23.2857 21.8977 22.7899 21.4022 22.1781 21.4022H21.342C22.7445 20.0146 23.6146 18.0899 23.6146 15.9657H21.4007C21.4007 18.9502 18.9833 21.3809 16.004 21.4022H15.9644C12.9964 21.4022 10.5769 19.012 10.5286 16.0556L10.5281 15.9655C10.5281 12.9678 12.9665 10.5292 15.9644 10.5292V10.5288C18.9619 10.5288 21.4007 12.9678 21.4007 15.9655H23.6142Z" fill="#00FFDD"/>
<defs>
<linearGradient id="paint0_linear_2599_24222" x1="31" y1="0.999942" x2="6.52639" y2="27.6565" gradientUnits="userSpaceOnUse">
<stop offset="0.42003" stop-color="#FFF394"/>
<stop offset="1" stop-color="#A46CFF"/>
</linearGradient>
<linearGradient id="paint1_linear_2599_24222" x1="26" y1="5.06244" x2="8.58691" y2="29.0928" gradientUnits="userSpaceOnUse">
<stop stop-color="#FFD3FB"/>
<stop offset="0.484375" stop-color="#F5FFCB"/>
<stop offset="1" stop-color="#9FFFDD"/>
</linearGradient>
<radialGradient id="paint2_radial_2599_24222" cx="0" cy="0" r="1" gradientUnits="userSpaceOnUse" gradientTransform="translate(16.0001 16.0012) rotate(49.395) scale(11.5234)">
<stop offset="0.354167" stop-color="#20225C"/>
<stop offset="1" stop-color="#0D0E2C"/>
</radialGradient>
</defs>
</svg>
