<svg width="6" height="10" viewBox="0 0 6 10" fill="none" xmlns="http://www.w3.org/2000/svg">
<path fill-rule="evenodd" clip-rule="evenodd" d="M1.75 3C1.75 2.30964 2.30964 1.75 3 1.75C3.69036 1.75 4.25 2.30964 4.25 3V3.12132C4.25 3.48502 4.10552 3.83382 3.84835 4.09099L2.46967 5.46967C2.17678 5.76256 2.17678 6.23744 2.46967 6.53033C2.76256 6.82322 3.23744 6.82322 3.53033 6.53033L4.90901 5.15165C5.44749 4.61317 5.75 3.88284 5.75 3.12132V3C5.75 1.48122 4.51878 0.25 3 0.25C1.48122 0.25 0.25 1.48122 0.25 3V3.5C0.25 3.91421 0.585786 4.25 1 4.25C1.41421 4.25 1.75 3.91421 1.75 3.5V3ZM3 10C3.55228 10 4 9.55229 4 9C4 8.44771 3.55228 8 3 8C2.44772 8 2 8.44771 2 9C2 9.55229 2.44772 10 3 10Z" fill="white"/>
</svg>
