<svg width="32" height="31" viewBox="0 0 32 31" fill="none" xmlns="http://www.w3.org/2000/svg">
<circle cx="16" cy="15.4148" r="15.2439" fill="#0282FF"/>
<path fill-rule="evenodd" clip-rule="evenodd" d="M14.8873 18.6092C13.9476 18.6092 13.1858 19.371 13.1858 20.3107C13.1858 20.6615 12.9014 20.9458 12.5506 20.9458C12.1999 20.9458 11.9155 20.6615 11.9155 20.3107C11.9155 18.6694 13.246 17.3389 14.8873 17.3389C16.5286 17.3389 17.8591 18.6694 17.8591 20.3107C17.8591 20.6615 17.5747 20.9458 17.224 20.9458C16.8732 20.9458 16.5888 20.6615 16.5888 20.3107C16.5888 19.371 15.827 18.6092 14.8873 18.6092Z" fill="black"/>
<ellipse cx="10.4365" cy="13.6341" rx="2.11412" ry="2.11412" fill="white"/>
<ellipse cx="10.3253" cy="14.8579" rx="0.890155" ry="0.890155" fill="black"/>
<ellipse cx="19.5606" cy="13.8563" rx="2.11412" ry="2.11412" fill="white"/>
<ellipse cx="19.4494" cy="15.0801" rx="0.890156" ry="0.890155" fill="black"/>
<path fill-rule="evenodd" clip-rule="evenodd" d="M23.8704 28.5302C28.3428 25.8735 31.3403 20.9942 31.3403 15.4148C31.3403 6.99583 24.5153 0.170898 16.0964 0.170898C11.8304 0.170898 7.97368 1.92323 5.2068 4.74736C7.483 3.39526 10.1412 2.61885 12.9808 2.61885C21.3998 2.61885 28.2247 9.44378 28.2247 17.8628C28.2247 22.0158 26.564 25.7809 23.8704 28.5302Z" fill="#010201" fill-opacity="0.05"/>
</svg>
