<?xml version="1.0" encoding="UTF-8"?>
<svg width="18px" height="18px" viewBox="0 0 18 18" version="1.1" xmlns="http://www.w3.org/2000/svg" xmlns:xlink="http://www.w3.org/1999/xlink">
    <!-- Generator: Sketch 54.1 (76490) - https://sketchapp.com -->
    <title>BUSCAR</title>
    <desc>Created with Sketch.</desc>
    <g id="Page-1" stroke="none" stroke-width="1" fill="none" fill-rule="evenodd">
        <g id="Tipo-de-Reta" transform="translate(-95.000000, -441.000000)" fill="#FFFFFF">
            <g id="Btn-Directa-Copy" transform="translate(81.000000, 429.000000)">
                <g id="Buscar-Copy" transform="translate(14.000000, 12.000000)">
                    <path d="M7.5,1 C11.0862695,1 14,3.91695031 14,7.49807125 C14,11.0794191 11.0862695,14 7.5,14 C3.91758913,14 1,11.0832766 1,7.49807125 C1,3.91309281 3.91758913,1 7.5,1 Z M13.4691079,12.7077254 C14.6426891,11.3586239 15.353336,9.59875595 15.353336,7.67485793 C15.353336,3.44025495 11.9081736,0 7.67655276,0 C3.44101466,0 0,3.44440178 0,7.67485793 C0,11.9055445 3.44516241,15.3497159 7.67655276,15.3497159 C9.60087563,15.3497159 11.3613626,14.6394563 12.7105316,13.4661342 L17.0857104,17.8403471 C17.1896345,17.9440178 17.3292752,18 17.4649986,18 C17.6009524,18 17.7405932,17.9481646 17.8442868,17.8403471 C18.0519044,17.6327753 18.0519044,17.2895101 17.8442868,17.0819383 L13.4691079,12.7077254 Z" id="BUSCAR"></path>
                </g>
            </g>
        </g>
    </g>
</svg>