<svg width="62" height="10" viewBox="0 0 62 10" fill="none" xmlns="http://www.w3.org/2000/svg">
<path fill-rule="evenodd" clip-rule="evenodd" d="M13.6582 9.19335C14.2969 9.19335 14.6777 8.8125 14.6777 8.12695V4.10156H14.7246L17.9824 8.5957C18.293 9.02343 18.5801 9.19335 19.0137 9.19335C19.6641 9.19335 20.0273 8.83593 20.0273 8.18554V1.54687C20.0273 0.861333 19.6523 0.480473 19.0078 0.480473C18.3691 0.480473 17.9883 0.861333 17.9883 1.54687V5.52539H17.9414L14.707 1.07812C14.3848 0.656253 14.0918 0.480473 13.6816 0.480473C13.0137 0.480473 12.6387 0.837893 12.6387 1.5V8.12695C12.6387 8.8125 13.0137 9.19335 13.6582 9.19335ZM22.2246 2.0332C22.8281 2.0332 23.2852 1.59375 23.2852 1.01953C23.2852 0.439453 22.8281 0 22.2246 0C21.6211 0 21.1582 0.439453 21.1582 1.01953C21.1582 1.59375 21.6211 2.0332 22.2246 2.0332ZM22.2246 9.19925C22.875 9.19925 23.2617 8.80664 23.2617 8.12109V3.62695C23.2617 2.94726 22.875 2.54883 22.2246 2.54883C21.5684 2.54883 21.1875 2.94726 21.1875 3.62695V8.12109C21.1875 8.80664 21.5684 9.19925 22.2246 9.19925ZM27.1289 9.19925C27.9023 9.19925 28.3359 8.87109 28.5938 8.13281L30.0703 4.05468C30.1289 3.8789 30.1875 3.65625 30.1875 3.46289C30.1875 2.94726 29.748 2.54883 29.1855 2.54883C28.6875 2.54883 28.3359 2.80664 28.2012 3.36328L27.1465 7.32422H27.1055L26.0391 3.39257C25.8984 2.81836 25.5586 2.54883 25.043 2.54883C24.457 2.54883 24 2.91211 24 3.47461C24 3.69726 24.0527 3.91992 24.1172 4.10742L25.5938 8.13281C25.8574 8.87695 26.2969 9.19925 27.1289 9.19925ZM33.7852 9.21675C35.0566 9.21675 36.0879 8.76562 36.5098 8.01562C36.6035 7.86328 36.6504 7.70507 36.6504 7.54687C36.6504 7.08984 36.293 6.82031 35.8711 6.82031C35.6133 6.82031 35.4434 6.89062 35.2266 7.0957C34.7637 7.56445 34.3711 7.74609 33.8027 7.74609C33.0527 7.74609 32.543 7.21875 32.543 6.44531V6.32812H36.0117C36.5508 6.32812 36.8496 6.03515 36.8496 5.50781C36.8496 3.78515 35.6016 2.53125 33.7031 2.53125C31.7578 2.53125 30.5273 3.83789 30.5273 5.90625C30.5273 7.98047 31.7402 9.21675 33.7852 9.21675ZM32.5723 5.14453C32.625 4.47656 33.0996 4.00781 33.7441 4.00781C34.3945 4.00781 34.8574 4.45312 34.8926 5.14453H32.5723ZM38.7363 9.19925C39.3398 9.19925 39.7734 8.84765 39.7734 8.12109V1.55273C39.7734 0.826173 39.3398 0.474613 38.7363 0.474613C38.127 0.474613 37.6934 0.826173 37.6934 1.55273V8.12109C37.6934 8.84765 38.127 9.19925 38.7363 9.19925ZM44.1973 9.06445H48.8848C49.4297 9.06445 49.7461 8.73047 49.7461 8.23828C49.7461 7.73437 49.4297 7.41211 48.8848 7.41211H45.9609V7.37109L47.6426 5.83593C48.9844 4.62304 49.5352 4.00195 49.5352 2.91797C49.5352 1.42383 48.2695 0.398433 46.3418 0.398433C44.8008 0.398433 43.6758 1.14257 43.3066 2.11523C43.2422 2.26757 43.2188 2.41992 43.2188 2.58398C43.2188 3.11133 43.5527 3.43359 44.1094 3.43359C44.543 3.43359 44.7949 3.26367 45.0645 2.84765C45.375 2.28515 45.7559 2.01562 46.3125 2.01562C46.9863 2.01562 47.4551 2.44922 47.4551 3.05859C47.4551 3.60937 47.1855 3.99609 46.1953 4.89843L43.7812 7.08984C43.3594 7.45312 43.1895 7.74023 43.1895 8.14453C43.1895 8.67773 43.5059 9.06445 44.1973 9.06445ZM7.0861 4.35704L5.9071 5.49455L6.1861 7.10272C6.2341 7.38016 6.1211 7.65562 5.8901 7.8201C5.6611 7.98657 5.3621 8.0074 5.1101 7.87361L3.6551 7.11659L2.1971 7.87559C2.0891 7.93207 1.9711 7.96081 1.8541 7.96081C1.7011 7.96081 1.5501 7.91324 1.4201 7.82109C1.1901 7.65562 1.0771 7.38016 1.1251 7.10272L1.4031 5.49455L0.224099 4.35704C0.0200989 4.16085 -0.0509011 3.87152 0.0370989 3.60399C0.126099 3.33645 0.356099 3.14621 0.637099 3.10657L2.2631 2.87174L2.9921 1.40824C3.1191 1.15656 3.3731 1 3.6551 1H3.6571C3.9401 1.00099 4.1941 1.15755 4.3191 1.40923L5.0481 2.87174L6.6771 3.10756C6.9551 3.14621 7.1851 3.33645 7.2731 3.60399C7.3621 3.87152 7.2911 4.16085 7.0861 4.35704ZM59.9071 5.49455L61.0861 4.35704C61.2911 4.16085 61.3621 3.87152 61.2731 3.60399C61.1851 3.33645 60.9551 3.14621 60.6771 3.10756L59.0481 2.87174L58.3191 1.40923C58.1941 1.15755 57.9401 1.00099 57.6571 1H57.6551C57.3731 1 57.1191 1.15656 56.9921 1.40824L56.2631 2.87174L54.6371 3.10657C54.3561 3.14621 54.1261 3.33645 54.0371 3.60399C53.9491 3.87152 54.0201 4.16085 54.2241 4.35704L55.4031 5.49455L55.1251 7.10272C55.0771 7.38016 55.1901 7.65562 55.4201 7.82109C55.5501 7.91324 55.7011 7.96081 55.8541 7.96081C55.9711 7.96081 56.0891 7.93207 56.1971 7.87559L57.6551 7.11659L59.1101 7.87361C59.3621 8.0074 59.6611 7.98657 59.8901 7.8201C60.1211 7.65562 60.2341 7.38016 60.1861 7.10272L59.9071 5.49455Z" fill="url(#paint0_linear)"/>
<defs>
<linearGradient id="paint0_linear" x1="0" y1="4.18071" x2="62" y2="4.18071" gradientUnits="userSpaceOnUse">
<stop stop-color="#FF7AD9"/>
<stop offset="0.333333" stop-color="#FE8C8C"/>
<stop offset="0.739583" stop-color="#FCFF80"/>
<stop offset="0.994792" stop-color="#D3FF8B"/>
</linearGradient>
</defs>
</svg>
