<svg width="62" height="11" viewBox="0 0 62 11" fill="none" xmlns="http://www.w3.org/2000/svg">
<path fill-rule="evenodd" clip-rule="evenodd" d="M22.3828 2.96875C22.9863 2.96875 23.4434 2.5293 23.4434 1.95508C23.4434 1.375 22.9863 0.935547 22.3828 0.935547C21.7793 0.935547 21.3164 1.375 21.3164 1.95508C21.3164 2.5293 21.7793 2.96875 22.3828 2.96875ZM22.3828 10.1348C23.0332 10.1348 23.4199 9.74219 23.4199 9.05664V4.5625C23.4199 3.88281 23.0332 3.48438 22.3828 3.48438C21.7266 3.48438 21.3457 3.88281 21.3457 4.5625V9.05664C21.3457 9.74219 21.7266 10.1348 22.3828 10.1348ZM13.8164 10.1289C14.4551 10.1289 14.8359 9.74805 14.8359 9.0625V5.03711H14.8828L18.1406 9.53125C18.4512 9.95898 18.7383 10.1289 19.1719 10.1289C19.8223 10.1289 20.1855 9.77148 20.1855 9.12109V2.48242C20.1855 1.79688 19.8105 1.41602 19.166 1.41602C18.5273 1.41602 18.1465 1.79688 18.1465 2.48242V6.46094H18.0996L14.8652 2.01367C14.543 1.5918 14.25 1.41602 13.8398 1.41602C13.1719 1.41602 12.7969 1.77344 12.7969 2.43555V9.0625C12.7969 9.74805 13.1719 10.1289 13.8164 10.1289ZM28.752 9.06836C28.4941 9.80664 28.0605 10.1348 27.2871 10.1348C26.4551 10.1348 26.0156 9.8125 25.752 9.06836L24.2754 5.04297C24.2109 4.85547 24.1582 4.63281 24.1582 4.41016C24.1582 3.84766 24.6152 3.48438 25.2012 3.48438C25.7168 3.48438 26.0566 3.75391 26.1973 4.32812L27.2637 8.25977H27.3047L28.3594 4.29883C28.4941 3.74219 28.8457 3.48438 29.3438 3.48438C29.9062 3.48438 30.3457 3.88281 30.3457 4.39844C30.3457 4.5918 30.2871 4.81445 30.2285 4.99023L28.752 9.06836ZM33.9434 10.1523C35.2148 10.1523 36.2461 9.70117 36.668 8.95117C36.7617 8.79883 36.8086 8.64062 36.8086 8.48242C36.8086 8.02539 36.4512 7.75586 36.0293 7.75586C35.7715 7.75586 35.6016 7.82617 35.3848 8.03125C34.9219 8.5 34.5293 8.68164 33.9609 8.68164C33.2109 8.68164 32.7012 8.1543 32.7012 7.38086V7.26367H36.1699C36.709 7.26367 37.0078 6.9707 37.0078 6.44336C37.0078 4.7207 35.7598 3.4668 33.8613 3.4668C31.916 3.4668 30.6855 4.77344 30.6855 6.8418C30.6855 8.91602 31.8984 10.1523 33.9434 10.1523ZM32.7305 6.08008C32.7832 5.41211 33.2578 4.94336 33.9023 4.94336C34.5527 4.94336 35.0156 5.38867 35.0508 6.08008H32.7305ZM39.9316 9.05664C39.9316 9.7832 39.498 10.1348 38.8945 10.1348C38.2852 10.1348 37.8516 9.7832 37.8516 9.05664V2.48828C37.8516 1.76172 38.2852 1.41016 38.8945 1.41016C39.498 1.41016 39.9316 1.76172 39.9316 2.48828V9.05664ZM48.4043 10.1348C48.9902 10.1348 49.418 9.79492 49.418 9.10938V8.55859H49.7461C50.3086 8.55859 50.6016 8.21289 50.6016 7.72656C50.6016 7.24023 50.3145 6.88867 49.7461 6.88867H49.418V2.92188C49.418 2.00195 48.7207 1.41016 47.6426 1.41016C46.793 1.41016 46.2949 1.75 45.6445 2.75781C44.8652 3.93555 44.1914 5.00195 43.6289 6.01562C43.3301 6.54297 43.2012 6.94727 43.2012 7.35742C43.2012 8.07227 43.7285 8.55859 44.502 8.55859H47.3848V9.10938C47.3848 9.79492 47.8125 10.1348 48.4043 10.1348ZM47.4434 6.96484H45V6.90625C45.6855 5.58789 46.3828 4.50391 47.4023 3.02734H47.4434V6.96484ZM7.0861 5.35704L5.9071 6.49455L6.1861 8.10272C6.2341 8.38016 6.1211 8.65562 5.8901 8.8201C5.6611 8.98657 5.3621 9.00738 5.1101 8.87361L3.6551 8.11659L2.1971 8.87559C2.0891 8.93207 1.9711 8.96081 1.8541 8.96081C1.7011 8.96081 1.5501 8.91324 1.4201 8.82109C1.1901 8.65562 1.0771 8.38016 1.1251 8.10272L1.4031 6.49455L0.224099 5.35704C0.0200989 5.16085 -0.0509011 4.87152 0.0370989 4.60399C0.126099 4.33645 0.356099 4.14621 0.637099 4.10657L2.2631 3.87174L2.9921 2.40824C3.1191 2.15656 3.3731 2 3.6551 2H3.6571C3.9401 2.00099 4.1941 2.15755 4.3191 2.40923L5.0481 3.87174L6.6771 4.10756C6.9551 4.14621 7.1851 4.33645 7.2731 4.60399C7.3621 4.87152 7.2911 5.16085 7.0861 5.35704ZM59.9071 6.49455L61.0861 5.35704C61.2911 5.16085 61.3621 4.87152 61.2731 4.60399C61.1851 4.33645 60.9551 4.14621 60.6771 4.10756L59.0481 3.87174L58.3191 2.40923C58.1941 2.15755 57.9401 2.00099 57.6571 2H57.6551C57.3731 2 57.1191 2.15656 56.9921 2.40824L56.2631 3.87174L54.6371 4.10657C54.3561 4.14621 54.1261 4.33645 54.0371 4.60399C53.9491 4.87152 54.0201 5.16085 54.2241 5.35704L55.4031 6.49455L55.1251 8.10272C55.0771 8.38016 55.1901 8.65562 55.4201 8.82109C55.5501 8.91324 55.7011 8.96081 55.8541 8.96081C55.9711 8.96081 56.0891 8.93207 56.1971 8.87559L57.6551 8.11659L59.1101 8.87361C59.3621 9.00738 59.6611 8.98657 59.8901 8.8201C60.1211 8.65562 60.2341 8.38016 60.1861 8.10272L59.9071 6.49455Z" fill="url(#paint0_radial)"/>
<defs>
<radialGradient id="paint0_radial" cx="0" cy="0" r="1" gradientUnits="userSpaceOnUse" gradientTransform="translate(68 5.1527) rotate(-180) scale(72.5 41.0817)">
<stop stop-color="#A98400"/>
<stop offset="0.0404251" stop-color="#D2B000"/>
<stop offset="0.21875" stop-color="#FFE200"/>
<stop offset="0.369792" stop-color="#FFF800"/>
<stop offset="0.494792" stop-color="#FFFB9B"/>
<stop offset="0.598958" stop-color="#FFF800"/>
<stop offset="0.760417" stop-color="#FFE200"/>
<stop offset="0.927083" stop-color="#D2B400"/>
<stop offset="1" stop-color="#A98400"/>
</radialGradient>
</defs>
</svg>
