<svg width="62" height="18" viewBox="0 0 62 18" fill="none" xmlns="http://www.w3.org/2000/svg">
<path fill-rule="evenodd" clip-rule="evenodd" d="M40.7344 11.6465C40.7344 12.373 40.3008 12.7246 39.6973 12.7246C39.0879 12.7246 38.6543 12.373 38.6543 11.6465V5.07812C38.6543 4.35156 39.0879 4 39.6973 4C40.3008 4 40.7344 4.35156 40.7344 5.07812V11.6465ZM13.0723 12.5898H16.793C17.373 12.5898 17.748 12.2734 17.748 11.7227C17.748 11.1719 17.3672 10.8555 16.793 10.8555H14.1445V5.125C14.1445 4.41016 13.752 4.00586 13.0723 4.00586C12.3926 4.00586 11.9941 4.41016 11.9941 5.125V11.4648C11.9941 12.1797 12.3926 12.5898 13.0723 12.5898ZM21.5039 12.7422C22.7754 12.7422 23.8066 12.291 24.2285 11.541C24.3223 11.3887 24.3691 11.2305 24.3691 11.0723C24.3691 10.6152 24.0117 10.3457 23.5898 10.3457C23.332 10.3457 23.1621 10.416 22.9453 10.6211C22.4824 11.0898 22.0898 11.2715 21.5215 11.2715C20.7715 11.2715 20.2617 10.7441 20.2617 9.9707V9.85352H23.7305C24.2695 9.85352 24.5684 9.56055 24.5684 9.0332C24.5684 7.31055 23.3203 6.05664 21.4219 6.05664C19.4766 6.05664 18.2461 7.36328 18.2461 9.43164C18.2461 11.5059 19.459 12.7422 21.5039 12.7422ZM20.291 8.66992C20.3438 8.00195 20.8184 7.5332 21.4629 7.5332C22.1133 7.5332 22.5762 7.97852 22.6113 8.66992H20.291ZM29.5547 11.6582C29.2969 12.3965 28.8633 12.7246 28.0898 12.7246C27.2578 12.7246 26.8184 12.4023 26.5547 11.6582L25.0781 7.63281C25.0137 7.44531 24.9609 7.22266 24.9609 7C24.9609 6.4375 25.418 6.07422 26.0039 6.07422C26.5195 6.07422 26.8594 6.34375 27 6.91797L28.0664 10.8496H28.1074L29.1621 6.88867C29.2969 6.33203 29.6484 6.07422 30.1465 6.07422C30.709 6.07422 31.1484 6.47266 31.1484 6.98828C31.1484 7.18164 31.0898 7.4043 31.0312 7.58008L29.5547 11.6582ZM34.7461 12.7422C36.0176 12.7422 37.0488 12.291 37.4707 11.541C37.5645 11.3887 37.6113 11.2305 37.6113 11.0723C37.6113 10.6152 37.2539 10.3457 36.832 10.3457C36.5742 10.3457 36.4043 10.416 36.1875 10.6211C35.7246 11.0898 35.332 11.2715 34.7637 11.2715C34.0137 11.2715 33.5039 10.7441 33.5039 9.9707V9.85352H36.9727C37.5117 9.85352 37.8105 9.56055 37.8105 9.0332C37.8105 7.31055 36.5625 6.05664 34.6641 6.05664C32.7188 6.05664 31.4883 7.36328 31.4883 9.43164C31.4883 11.5059 32.7012 12.7422 34.7461 12.7422ZM33.5332 8.66992C33.5859 8.00195 34.0605 7.5332 34.7051 7.5332C35.3555 7.5332 35.8184 7.97852 35.8535 8.66992H33.5332ZM49.207 12.7246C49.793 12.7246 50.2207 12.3848 50.2207 11.6992V11.1484H50.5488C51.1113 11.1484 51.4043 10.8027 51.4043 10.3164C51.4043 9.83008 51.1172 9.47852 50.5488 9.47852H50.2207V5.51172C50.2207 4.5918 49.5234 4 48.4453 4C47.5957 4 47.0977 4.33984 46.4473 5.34766C45.668 6.52539 44.9941 7.5918 44.4316 8.60547C44.1328 9.13281 44.0039 9.53711 44.0039 9.94727C44.0039 10.6621 44.5312 11.1484 45.3047 11.1484H48.1875V11.6992C48.1875 12.3848 48.6152 12.7246 49.207 12.7246ZM48.2461 9.55469H45.8027V9.49609C46.4883 8.17773 47.1855 7.09375 48.2051 5.61719H48.2461V9.55469ZM7.0861 8.35704L5.9071 9.49455L6.1861 11.1027C6.2341 11.3802 6.1211 11.6556 5.8901 11.8201C5.6611 11.9866 5.3621 12.0074 5.1101 11.8736L3.6551 11.1166L2.1971 11.8756C2.0891 11.9321 1.9711 11.9608 1.8541 11.9608C1.7011 11.9608 1.5501 11.9132 1.4201 11.8211C1.1901 11.6556 1.0771 11.3802 1.1251 11.1027L1.4031 9.49455L0.224099 8.35704C0.0200989 8.16085 -0.0509011 7.87152 0.0370989 7.60399C0.126099 7.33645 0.356099 7.14621 0.637099 7.10657L2.2631 6.87174L2.9921 5.40824C3.1191 5.15656 3.3731 5 3.6551 5H3.6571C3.9401 5.00099 4.1941 5.15755 4.3191 5.40923L5.0481 6.87174L6.6771 7.10756C6.9551 7.14621 7.1851 7.33645 7.2731 7.60399C7.3621 7.87152 7.2911 8.16085 7.0861 8.35704ZM59.9071 9.49455L61.0861 8.35704C61.2911 8.16085 61.3621 7.87152 61.2731 7.60399C61.1851 7.33645 60.9551 7.14621 60.6771 7.10756L59.0481 6.87174L58.3191 5.40923C58.1941 5.15755 57.9401 5.00099 57.6571 5H57.6551C57.3731 5 57.1191 5.15656 56.9921 5.40824L56.2631 6.87174L54.6371 7.10657C54.3561 7.14621 54.1261 7.33645 54.0371 7.60399C53.9491 7.87152 54.0201 8.16085 54.2241 8.35704L55.4031 9.49455L55.1251 11.1027C55.0771 11.3802 55.1901 11.6556 55.4201 11.8211C55.5501 11.9132 55.7011 11.9608 55.8541 11.9608C55.9711 11.9608 56.0891 11.9321 56.1971 11.8756L57.6551 11.1166L59.1101 11.8736C59.3621 12.0074 59.6611 11.9866 59.8901 11.8201C60.1211 11.6556 60.2341 11.3802 60.1861 11.1027L59.9071 9.49455Z" fill="url(#paint0_radial)"/>
<defs>
<radialGradient id="paint0_radial" cx="0" cy="0" r="1" gradientUnits="userSpaceOnUse" gradientTransform="translate(68 8) rotate(-180) scale(72.5 38.9663)">
<stop stop-color="#A98400"/>
<stop offset="0.0404251" stop-color="#D2B000"/>
<stop offset="0.21875" stop-color="#FFE200"/>
<stop offset="0.369792" stop-color="#FFF800"/>
<stop offset="0.494792" stop-color="#FFFB9B"/>
<stop offset="0.598958" stop-color="#FFF800"/>
<stop offset="0.760417" stop-color="#FFE200"/>
<stop offset="0.927083" stop-color="#D2B400"/>
<stop offset="1" stop-color="#A98400"/>
</radialGradient>
</defs>
</svg>
