<svg width="62" height="10" viewBox="0 0 62 10" fill="none" xmlns="http://www.w3.org/2000/svg">
<g clip-path="url(#clip0)">
<path fill-rule="evenodd" clip-rule="evenodd" d="M13.8359 9.19335C14.4746 9.19335 14.8555 8.8125 14.8555 8.12695V4.10156H14.9023L18.1602 8.5957C18.4707 9.02343 18.7578 9.19335 19.1914 9.19335C19.8418 9.19335 20.2051 8.83593 20.2051 8.18554V1.54687C20.2051 0.861333 19.8301 0.480473 19.1855 0.480473C18.5469 0.480473 18.166 0.861333 18.166 1.54687V5.52539H18.1191L14.8848 1.07812C14.5625 0.656253 14.2695 0.480473 13.8594 0.480473C13.1914 0.480473 12.8164 0.837893 12.8164 1.5V8.12695C12.8164 8.8125 13.1914 9.19335 13.8359 9.19335ZM22.4023 2.0332C23.0059 2.0332 23.4629 1.59375 23.4629 1.01953C23.4629 0.439453 23.0059 0 22.4023 0C21.7988 0 21.3359 0.439453 21.3359 1.01953C21.3359 1.59375 21.7988 2.0332 22.4023 2.0332ZM22.4023 9.19925C23.0527 9.19925 23.4395 8.80664 23.4395 8.12109V3.62695C23.4395 2.94726 23.0527 2.54883 22.4023 2.54883C21.7461 2.54883 21.3652 2.94726 21.3652 3.62695V8.12109C21.3652 8.80664 21.7461 9.19925 22.4023 9.19925ZM27.3066 9.19925C28.0801 9.19925 28.5137 8.87109 28.7715 8.13281L30.248 4.05468C30.3066 3.8789 30.3652 3.65625 30.3652 3.46289C30.3652 2.94726 29.9258 2.54883 29.3633 2.54883C28.8652 2.54883 28.5137 2.80664 28.3789 3.36328L27.3242 7.32422H27.2832L26.2168 3.39257C26.0762 2.81836 25.7363 2.54883 25.2207 2.54883C24.6348 2.54883 24.1777 2.91211 24.1777 3.47461C24.1777 3.69726 24.2305 3.91992 24.2949 4.10742L25.7715 8.13281C26.0352 8.87695 26.4746 9.19925 27.3066 9.19925ZM33.9629 9.21675C35.2344 9.21675 36.2656 8.76562 36.6875 8.01562C36.7812 7.86328 36.8281 7.70507 36.8281 7.54687C36.8281 7.08984 36.4707 6.82031 36.0488 6.82031C35.791 6.82031 35.6211 6.89062 35.4043 7.0957C34.9414 7.56445 34.5488 7.74609 33.9805 7.74609C33.2305 7.74609 32.7207 7.21875 32.7207 6.44531V6.32812H36.1895C36.7285 6.32812 37.0273 6.03515 37.0273 5.50781C37.0273 3.78515 35.7793 2.53125 33.8809 2.53125C31.9355 2.53125 30.7051 3.83789 30.7051 5.90625C30.7051 7.98047 31.918 9.21675 33.9629 9.21675ZM32.75 5.14453C32.8027 4.47656 33.2773 4.00781 33.9219 4.00781C34.5723 4.00781 35.0352 4.45312 35.0703 5.14453H32.75ZM38.9141 9.19925C39.5176 9.19925 39.9512 8.84765 39.9512 8.12109V1.55273C39.9512 0.826173 39.5176 0.474613 38.9141 0.474613C38.3047 0.474613 37.8711 0.826173 37.8711 1.55273V8.12109C37.8711 8.84765 38.3047 9.19925 38.9141 9.19925ZM46.5312 9.19925C47.1699 9.19925 47.5977 8.7832 47.5977 8.13867V1.67578C47.5977 0.937503 47.1465 0.474613 46.373 0.474613C45.9512 0.474613 45.5879 0.521483 45.1367 0.826173L43.5371 1.91601C43.2324 2.12695 43.1094 2.36718 43.1094 2.67773C43.1094 3.11133 43.4199 3.42187 43.8359 3.42187C44.041 3.42187 44.1699 3.375 44.3633 3.24023L45.418 2.50781H45.459V8.13867C45.459 8.7832 45.8926 9.19925 46.5312 9.19925ZM7.0861 4.35704L5.9071 5.49455L6.1861 7.10272C6.2341 7.38016 6.1211 7.65562 5.8901 7.8201C5.6611 7.98657 5.3621 8.0074 5.1101 7.87361L3.6551 7.11659L2.1971 7.87559C2.0891 7.93207 1.9711 7.96081 1.8541 7.96081C1.7011 7.96081 1.5501 7.91324 1.4201 7.82109C1.1901 7.65562 1.0771 7.38016 1.1251 7.10272L1.4031 5.49455L0.224099 4.35704C0.0200989 4.16085 -0.0509011 3.87152 0.0370989 3.60399C0.126099 3.33645 0.356099 3.14621 0.637099 3.10657L2.2631 2.87174L2.9921 1.40824C3.1191 1.15656 3.3731 1 3.6551 1H3.6571C3.9401 1.00099 4.1941 1.15755 4.3191 1.40923L5.0481 2.87174L6.6771 3.10756C6.9551 3.14621 7.1851 3.33645 7.2731 3.60399C7.3621 3.87152 7.2911 4.16085 7.0861 4.35704ZM59.9071 5.49455L61.0861 4.35704C61.2911 4.16085 61.3621 3.87152 61.2731 3.60399C61.1851 3.33645 60.9551 3.14621 60.6771 3.10756L59.0481 2.87174L58.3191 1.40923C58.1941 1.15755 57.9401 1.00099 57.6571 1H57.6551C57.3731 1 57.1191 1.15656 56.9921 1.40824L56.2631 2.87174L54.6371 3.10657C54.3561 3.14621 54.1261 3.33645 54.0371 3.60399C53.9491 3.87152 54.0201 4.16085 54.2241 4.35704L55.4031 5.49455L55.1251 7.10272C55.0771 7.38016 55.1901 7.65562 55.4201 7.82109C55.5501 7.91324 55.7011 7.96081 55.8541 7.96081C55.9711 7.96081 56.0891 7.93207 56.1971 7.87559L57.6551 7.11659L59.1101 7.87361C59.3621 8.0074 59.6611 7.98657 59.8901 7.8201C60.1211 7.65562 60.2341 7.38016 60.1861 7.10272L59.9071 5.49455Z" fill="url(#paint0_linear)"/>
</g>
<defs>
<linearGradient id="paint0_linear" x1="0" y1="8.39333" x2="61" y2="8.39333" gradientUnits="userSpaceOnUse">
<stop stop-color="#45FEDD"/>
<stop offset="0.265625" stop-color="#78D7FF"/>
<stop offset="0.692708" stop-color="#CD64FD"/>
<stop offset="1" stop-color="#FD68CA"/>
</linearGradient>
<clipPath id="clip0">
<rect width="62" height="10" fill="white"/>
</clipPath>
</defs>
</svg>
