<svg width="62" height="9" viewBox="0 0 62 9" fill="none" xmlns="http://www.w3.org/2000/svg">
<path fill-rule="evenodd" clip-rule="evenodd" d="M47.5723 8.87695C49.6934 8.87695 51.0586 7.85742 51.0586 6.27539C51.0586 5.13281 50.25 4.41211 48.9727 4.2832V4.24219C49.9395 4.04883 50.7246 3.35742 50.7246 2.27344C50.7246 0.837891 49.4004 0 47.5605 0C45.8965 0 44.9004 0.796875 44.5664 1.61719C44.4902 1.79883 44.4609 1.94531 44.4609 2.12695C44.4609 2.61914 44.7598 2.9707 45.3457 2.9707C45.8203 2.9707 46.0781 2.80078 46.3184 2.34961C46.5762 1.8457 46.9687 1.59961 47.5723 1.59961C48.3047 1.59961 48.7266 1.98047 48.7266 2.57812C48.7266 3.19336 48.2227 3.59766 47.3965 3.59766H47.2031C46.6934 3.59766 46.4238 3.89648 46.4238 4.32422C46.4238 4.76367 46.6934 5.05664 47.2031 5.05664H47.4082C48.3457 5.05664 48.873 5.4375 48.873 6.14648C48.873 6.75586 48.3574 7.18945 47.6191 7.18945C46.8164 7.18945 46.4355 6.87891 46.125 6.35156C45.9141 6.01172 45.6504 5.86523 45.2402 5.86523C44.6543 5.86523 44.2969 6.20508 44.2969 6.74414C44.2969 6.89648 44.332 7.07227 44.4023 7.23633C44.7422 8.05664 45.7734 8.87695 47.5723 8.87695ZM40.8574 7.72266C40.8574 8.44922 40.4238 8.80078 39.8203 8.80078C39.2109 8.80078 38.7773 8.44922 38.7773 7.72266V1.1543C38.7773 0.427734 39.2109 0.0761719 39.8203 0.0761719C40.4238 0.0761719 40.8574 0.427734 40.8574 1.1543V7.72266ZM13.1953 8.66602H16.916C17.4961 8.66602 17.8711 8.34961 17.8711 7.79883C17.8711 7.24805 17.4902 6.93164 16.916 6.93164H14.2676V1.20117C14.2676 0.486328 13.875 0.0820312 13.1953 0.0820312C12.5156 0.0820312 12.1172 0.486328 12.1172 1.20117V7.54102C12.1172 8.25586 12.5156 8.66602 13.1953 8.66602ZM21.627 8.81836C22.8984 8.81836 23.9297 8.36719 24.3516 7.61719C24.4453 7.46484 24.4922 7.30664 24.4922 7.14844C24.4922 6.69141 24.1348 6.42188 23.7129 6.42188C23.4551 6.42188 23.2852 6.49219 23.0684 6.69727C22.6055 7.16602 22.2129 7.34766 21.6445 7.34766C20.8945 7.34766 20.3848 6.82031 20.3848 6.04688V5.92969H23.8535C24.3926 5.92969 24.6914 5.63672 24.6914 5.10938C24.6914 3.38672 23.4434 2.13281 21.5449 2.13281C19.5996 2.13281 18.3691 3.43945 18.3691 5.50781C18.3691 7.58203 19.582 8.81836 21.627 8.81836ZM20.4141 4.74609C20.4668 4.07812 20.9414 3.60938 21.5859 3.60938C22.2363 3.60938 22.6992 4.05469 22.7344 4.74609H20.4141ZM29.6777 7.73438C29.4199 8.47266 28.9863 8.80078 28.2129 8.80078C27.3809 8.80078 26.9414 8.47852 26.6777 7.73438L25.2012 3.70898C25.1367 3.52148 25.084 3.29883 25.084 3.07617C25.084 2.51367 25.541 2.15039 26.127 2.15039C26.6426 2.15039 26.9824 2.41992 27.123 2.99414L28.1895 6.92578H28.2305L29.2852 2.96484C29.4199 2.4082 29.7715 2.15039 30.2695 2.15039C30.832 2.15039 31.2715 2.54883 31.2715 3.06445C31.2715 3.25781 31.2129 3.48047 31.1543 3.65625L29.6777 7.73438ZM34.8691 8.81836C36.1406 8.81836 37.1719 8.36719 37.5937 7.61719C37.6875 7.46484 37.7344 7.30664 37.7344 7.14844C37.7344 6.69141 37.377 6.42188 36.9551 6.42188C36.6973 6.42188 36.5273 6.49219 36.3105 6.69727C35.8477 7.16602 35.4551 7.34766 34.8867 7.34766C34.1367 7.34766 33.627 6.82031 33.627 6.04688V5.92969H37.0957C37.6348 5.92969 37.9336 5.63672 37.9336 5.10938C37.9336 3.38672 36.6855 2.13281 34.7871 2.13281C32.8418 2.13281 31.6113 3.43945 31.6113 5.50781C31.6113 7.58203 32.8242 8.81836 34.8691 8.81836ZM33.6562 4.74609C33.709 4.07812 34.1836 3.60938 34.8281 3.60938C35.4785 3.60938 35.9414 4.05469 35.9766 4.74609H33.6562ZM7.0861 4.35704L5.9071 5.49455L6.1861 7.10272C6.2341 7.38016 6.1211 7.65562 5.8901 7.8201C5.6611 7.98657 5.3621 8.00738 5.1101 7.87361L3.6551 7.11659L2.1971 7.87559C2.0891 7.93207 1.9711 7.96081 1.8541 7.96081C1.7011 7.96081 1.5501 7.91324 1.4201 7.82109C1.1901 7.65562 1.0771 7.38016 1.1251 7.10272L1.4031 5.49455L0.224099 4.35704C0.0200989 4.16085 -0.0509011 3.87152 0.0370989 3.60399C0.126099 3.33645 0.356099 3.14621 0.637099 3.10657L2.2631 2.87174L2.9921 1.40824C3.1191 1.15656 3.3731 1 3.6551 1H3.6571C3.9401 1.00099 4.1941 1.15755 4.3191 1.40923L5.0481 2.87174L6.6771 3.10756C6.9551 3.14621 7.1851 3.33645 7.2731 3.60399C7.3621 3.87152 7.2911 4.16085 7.0861 4.35704ZM59.9071 5.49455L61.0861 4.35704C61.2911 4.16085 61.3621 3.87152 61.2731 3.60399C61.1851 3.33645 60.9551 3.14621 60.6771 3.10756L59.0481 2.87174L58.3191 1.40923C58.1941 1.15755 57.9401 1.00099 57.6571 1H57.6551C57.3731 1 57.1191 1.15656 56.9921 1.40824L56.2631 2.87174L54.6371 3.10657C54.3561 3.14621 54.1261 3.33645 54.0371 3.60399C53.9491 3.87152 54.0201 4.16085 54.2241 4.35704L55.4031 5.49455L55.1251 7.10272C55.0771 7.38016 55.1901 7.65562 55.4201 7.82109C55.5501 7.91324 55.7011 7.96081 55.8541 7.96081C55.9711 7.96081 56.0891 7.93207 56.1971 7.87559L57.6551 7.11659L59.1101 7.87361C59.3621 8.00738 59.6611 7.98657 59.8901 7.8201C60.1211 7.65562 60.2341 7.38016 60.1861 7.10272L59.9071 5.49455Z" fill="url(#paint0_linear)"/>
<defs>
<linearGradient id="paint0_linear" x1="-5.5" y1="1.50001" x2="64.5" y2="9.00002" gradientUnits="userSpaceOnUse">
<stop stop-color="#BE6CFF"/>
<stop offset="0.237622" stop-color="#78FFF7"/>
<stop offset="0.794249" stop-color="#F8FF7D"/>
<stop offset="1" stop-color="#FF98DC"/>
</linearGradient>
</defs>
</svg>
