<svg width="62" height="9" viewBox="0 0 62 9" fill="none" xmlns="http://www.w3.org/2000/svg">
<path fill-rule="evenodd" clip-rule="evenodd" d="M44.9395 8.66602H49.627C50.1719 8.66602 50.4883 8.33203 50.4883 7.83984C50.4883 7.33594 50.1719 7.01367 49.627 7.01367H46.7031V6.97266L48.3848 5.4375C49.7266 4.22461 50.2773 3.60352 50.2773 2.51953C50.2773 1.02539 49.0117 0 47.084 0C45.543 0 44.418 0.744141 44.0488 1.7168C43.9844 1.86914 43.9609 2.02148 43.9609 2.18555C43.9609 2.71289 44.2949 3.03516 44.8516 3.03516C45.2852 3.03516 45.5371 2.86523 45.8066 2.44922C46.1172 1.88672 46.498 1.61719 47.0547 1.61719C47.7285 1.61719 48.1973 2.05078 48.1973 2.66016C48.1973 3.21094 47.9277 3.59766 46.9375 4.5L44.5234 6.69141C44.1016 7.05469 43.9316 7.3418 43.9316 7.74609C43.9316 8.2793 44.248 8.66602 44.9395 8.66602ZM40.5156 7.72266C40.5156 8.44922 40.082 8.80078 39.4785 8.80078C38.8691 8.80078 38.4355 8.44922 38.4355 7.72266V1.1543C38.4355 0.427734 38.8691 0.0761719 39.4785 0.0761719C40.082 0.0761719 40.5156 0.427734 40.5156 1.1543V7.72266ZM12.8535 8.66602H16.5742C17.1543 8.66602 17.5293 8.34961 17.5293 7.79883C17.5293 7.24805 17.1484 6.93164 16.5742 6.93164H13.9258V1.20117C13.9258 0.486328 13.5332 0.0820312 12.8535 0.0820312C12.1738 0.0820312 11.7754 0.486328 11.7754 1.20117V7.54102C11.7754 8.25586 12.1738 8.66602 12.8535 8.66602ZM21.2852 8.81836C22.5566 8.81836 23.5879 8.36719 24.0098 7.61719C24.1035 7.46484 24.1504 7.30664 24.1504 7.14844C24.1504 6.69141 23.793 6.42188 23.3711 6.42188C23.1133 6.42188 22.9434 6.49219 22.7266 6.69727C22.2637 7.16602 21.8711 7.34766 21.3027 7.34766C20.5527 7.34766 20.043 6.82031 20.043 6.04688V5.92969H23.5117C24.0508 5.92969 24.3496 5.63672 24.3496 5.10938C24.3496 3.38672 23.1016 2.13281 21.2031 2.13281C19.2578 2.13281 18.0273 3.43945 18.0273 5.50781C18.0273 7.58203 19.2402 8.81836 21.2852 8.81836ZM20.0723 4.74609C20.125 4.07812 20.5996 3.60938 21.2441 3.60938C21.8945 3.60938 22.3574 4.05469 22.3926 4.74609H20.0723ZM29.3359 7.73438C29.0781 8.47266 28.6445 8.80078 27.8711 8.80078C27.0391 8.80078 26.5996 8.47852 26.3359 7.73438L24.8594 3.70898C24.7949 3.52148 24.7422 3.29883 24.7422 3.07617C24.7422 2.51367 25.1992 2.15039 25.7852 2.15039C26.3008 2.15039 26.6406 2.41992 26.7812 2.99414L27.8477 6.92578H27.8887L28.9434 2.96484C29.0781 2.4082 29.4297 2.15039 29.9277 2.15039C30.4902 2.15039 30.9297 2.54883 30.9297 3.06445C30.9297 3.25781 30.8711 3.48047 30.8125 3.65625L29.3359 7.73438ZM34.5273 8.81836C35.7988 8.81836 36.8301 8.36719 37.252 7.61719C37.3457 7.46484 37.3926 7.30664 37.3926 7.14844C37.3926 6.69141 37.0352 6.42188 36.6133 6.42188C36.3555 6.42188 36.1855 6.49219 35.9687 6.69727C35.5059 7.16602 35.1133 7.34766 34.5449 7.34766C33.7949 7.34766 33.2852 6.82031 33.2852 6.04688V5.92969H36.7539C37.293 5.92969 37.5918 5.63672 37.5918 5.10938C37.5918 3.38672 36.3437 2.13281 34.4453 2.13281C32.5 2.13281 31.2695 3.43945 31.2695 5.50781C31.2695 7.58203 32.4824 8.81836 34.5273 8.81836ZM33.3145 4.74609C33.3672 4.07812 33.8418 3.60938 34.4863 3.60938C35.1367 3.60938 35.5996 4.05469 35.6348 4.74609H33.3145ZM7.0861 4.35704L5.9071 5.49455L6.1861 7.10272C6.2341 7.38016 6.1211 7.65562 5.8901 7.8201C5.6611 7.98657 5.3621 8.00738 5.1101 7.87361L3.6551 7.11659L2.1971 7.87559C2.0891 7.93207 1.9711 7.96081 1.8541 7.96081C1.7011 7.96081 1.5501 7.91324 1.4201 7.82109C1.1901 7.65562 1.0771 7.38016 1.1251 7.10272L1.4031 5.49455L0.224099 4.35704C0.0200989 4.16085 -0.0509011 3.87152 0.0370989 3.60399C0.126099 3.33645 0.356099 3.14621 0.637099 3.10657L2.2631 2.87174L2.9921 1.40824C3.1191 1.15656 3.3731 1 3.6551 1H3.6571C3.9401 1.00099 4.1941 1.15755 4.3191 1.40923L5.0481 2.87174L6.6771 3.10756C6.9551 3.14621 7.1851 3.33645 7.2731 3.60399C7.3621 3.87152 7.2911 4.16085 7.0861 4.35704ZM59.9071 5.49455L61.0861 4.35704C61.2911 4.16085 61.3621 3.87152 61.2731 3.60399C61.1851 3.33645 60.9551 3.14621 60.6771 3.10756L59.0481 2.87174L58.3191 1.40923C58.1941 1.15755 57.9401 1.00099 57.6571 1H57.6551C57.3731 1 57.1191 1.15656 56.9921 1.40824L56.2631 2.87174L54.6371 3.10657C54.3561 3.14621 54.1261 3.33645 54.0371 3.60399C53.9491 3.87152 54.0201 4.16085 54.2241 4.35704L55.4031 5.49455L55.1251 7.10272C55.0771 7.38016 55.1901 7.65562 55.4201 7.82109C55.5501 7.91324 55.7011 7.96081 55.8541 7.96081C55.9711 7.96081 56.0891 7.93207 56.1971 7.87559L57.6551 7.11659L59.1101 7.87361C59.3621 8.00738 59.6611 7.98657 59.8901 7.8201C60.1211 7.65562 60.2341 7.38016 60.1861 7.10272L59.9071 5.49455Z" fill="url(#paint0_linear)"/>
<defs>
<linearGradient id="paint0_linear" x1="0" y1="4" x2="62" y2="4" gradientUnits="userSpaceOnUse">
<stop stop-color="#FF7AD9"/>
<stop offset="0.333333" stop-color="#FE8C8C"/>
<stop offset="0.739583" stop-color="#FCFF80"/>
<stop offset="0.994792" stop-color="#D3FF8B"/>
</linearGradient>
</defs>
</svg>
