<svg width="11" height="3" viewBox="0 0 11 3" fill="none" xmlns="http://www.w3.org/2000/svg">
<path d="M1.61719 2.45117H3.76172C4.31836 2.45117 4.72852 2.12891 4.72852 1.56055C4.72852 0.986328 4.31836 0.669922 3.76172 0.669922H1.61719C1.06055 0.669922 0.650391 0.986328 0.650391 1.56055C0.650391 2.12891 1.06055 2.45117 1.61719 2.45117ZM6.99609 2.45117H9.14062C9.69727 2.45117 10.1074 2.12891 10.1074 1.56055C10.1074 0.986328 9.69727 0.669922 9.14062 0.669922H6.99609C6.43945 0.669922 6.0293 0.986328 6.0293 1.56055C6.0293 2.12891 6.43945 2.45117 6.99609 2.45117Z" fill="white"/>
<path d="M1.61719 2.45117H3.76172C4.31836 2.45117 4.72852 2.12891 4.72852 1.56055C4.72852 0.986328 4.31836 0.669922 3.76172 0.669922H1.61719C1.06055 0.669922 0.650391 0.986328 0.650391 1.56055C0.650391 2.12891 1.06055 2.45117 1.61719 2.45117ZM6.99609 2.45117H9.14062C9.69727 2.45117 10.1074 2.12891 10.1074 1.56055C10.1074 0.986328 9.69727 0.669922 9.14062 0.669922H6.99609C6.43945 0.669922 6.0293 0.986328 6.0293 1.56055C6.0293 2.12891 6.43945 2.45117 6.99609 2.45117Z" fill="url(#paint0_linear)"/>
<defs>
<linearGradient id="paint0_linear" x1="0" y1="7.99999" x2="11" y2="7.99999" gradientUnits="userSpaceOnUse">
<stop stop-color="#00F0FF"/>
<stop offset="1" stop-color="#FAFF00"/>
</linearGradient>
</defs>
</svg>
