<svg width="62" height="9" viewBox="0 0 62 9" fill="none" xmlns="http://www.w3.org/2000/svg">
<path fill-rule="evenodd" clip-rule="evenodd" d="M41.7539 7.64648C41.7539 8.37305 41.3203 8.72461 40.7168 8.72461C40.1074 8.72461 39.6738 8.37305 39.6738 7.64648V1.07812C39.6738 0.351562 40.1074 0 40.7168 0C41.3203 0 41.7539 0.351562 41.7539 1.07812V7.64648ZM14.0918 8.58984H17.8125C18.3926 8.58984 18.7676 8.27344 18.7676 7.72266C18.7676 7.17188 18.3867 6.85547 17.8125 6.85547H15.1641V1.125C15.1641 0.410156 14.7715 0.00585938 14.0918 0.00585938C13.4121 0.00585938 13.0137 0.410156 13.0137 1.125V7.46484C13.0137 8.17969 13.4121 8.58984 14.0918 8.58984ZM22.5234 8.74219C23.7949 8.74219 24.8262 8.29102 25.248 7.54102C25.3418 7.38867 25.3887 7.23047 25.3887 7.07227C25.3887 6.61523 25.0312 6.3457 24.6094 6.3457C24.3516 6.3457 24.1816 6.41602 23.9648 6.62109C23.502 7.08984 23.1094 7.27148 22.541 7.27148C21.791 7.27148 21.2812 6.74414 21.2812 5.9707V5.85352H24.75C25.2891 5.85352 25.5879 5.56055 25.5879 5.0332C25.5879 3.31055 24.3398 2.05664 22.4414 2.05664C20.4961 2.05664 19.2656 3.36328 19.2656 5.43164C19.2656 7.50586 20.4785 8.74219 22.5234 8.74219ZM21.3105 4.66992C21.3633 4.00195 21.8379 3.5332 22.4824 3.5332C23.1328 3.5332 23.5957 3.97852 23.6309 4.66992H21.3105ZM30.5742 7.6582C30.3164 8.39648 29.8828 8.72461 29.1094 8.72461C28.2773 8.72461 27.8379 8.40234 27.5742 7.6582L26.0977 3.63281C26.0332 3.44531 25.9805 3.22266 25.9805 3C25.9805 2.4375 26.4375 2.07422 27.0234 2.07422C27.5391 2.07422 27.8789 2.34375 28.0195 2.91797L29.0859 6.84961H29.127L30.1816 2.88867C30.3164 2.33203 30.668 2.07422 31.166 2.07422C31.7285 2.07422 32.168 2.47266 32.168 2.98828C32.168 3.18164 32.1094 3.4043 32.0508 3.58008L30.5742 7.6582ZM35.7656 8.74219C37.0371 8.74219 38.0684 8.29102 38.4902 7.54102C38.584 7.38867 38.6309 7.23047 38.6309 7.07227C38.6309 6.61523 38.2734 6.3457 37.8516 6.3457C37.5938 6.3457 37.4238 6.41602 37.207 6.62109C36.7441 7.08984 36.3516 7.27148 35.7832 7.27148C35.0332 7.27148 34.5234 6.74414 34.5234 5.9707V5.85352H37.9922C38.5312 5.85352 38.8301 5.56055 38.8301 5.0332C38.8301 3.31055 37.582 2.05664 35.6836 2.05664C33.7383 2.05664 32.5078 3.36328 32.5078 5.43164C32.5078 7.50586 33.7207 8.74219 35.7656 8.74219ZM34.5527 4.66992C34.6055 4.00195 35.0801 3.5332 35.7246 3.5332C36.375 3.5332 36.8379 3.97852 36.873 4.66992H34.5527ZM48.334 8.72461C48.9727 8.72461 49.4004 8.30859 49.4004 7.66406V1.20117C49.4004 0.462891 48.9492 0 48.1758 0C47.7539 0 47.3906 0.046875 46.9395 0.351562L45.3398 1.44141C45.0352 1.65234 44.9121 1.89258 44.9121 2.20312C44.9121 2.63672 45.2227 2.94727 45.6387 2.94727C45.8438 2.94727 45.9727 2.90039 46.166 2.76562L47.2207 2.0332H47.2617V7.66406C47.2617 8.30859 47.6953 8.72461 48.334 8.72461ZM61.0861 4.35704L59.9071 5.49455L60.1861 7.10272C60.2341 7.38016 60.1211 7.65562 59.8901 7.8201C59.6611 7.98657 59.3621 8.00738 59.1101 7.87361L57.6551 7.11659L56.1971 7.87559C56.0891 7.93207 55.9711 7.96081 55.8541 7.96081C55.7011 7.96081 55.5501 7.91324 55.4201 7.82109C55.1901 7.65562 55.0771 7.38016 55.1251 7.10272L55.4031 5.49455L54.2241 4.35704C54.0201 4.16085 53.9491 3.87152 54.0371 3.60399C54.1261 3.33645 54.3561 3.14621 54.6371 3.10657L56.2631 2.87174L56.9921 1.40824C57.1191 1.15656 57.3731 1 57.6551 1H57.6571C57.9401 1.00099 58.1941 1.15755 58.3191 1.40923L59.0481 2.87174L60.6771 3.10756C60.9551 3.14621 61.1851 3.33645 61.2731 3.60399C61.3621 3.87152 61.2911 4.16085 61.0861 4.35704ZM5.9071 5.49455L7.0861 4.35704C7.2911 4.16085 7.3621 3.87152 7.2731 3.60399C7.1851 3.33645 6.9551 3.14621 6.6771 3.10756L5.0481 2.87174L4.3191 1.40923C4.1941 1.15755 3.9401 1.00099 3.6571 1H3.6551C3.3731 1 3.1191 1.15656 2.9921 1.40824L2.2631 2.87174L0.637099 3.10657C0.356099 3.14621 0.126099 3.33645 0.0370989 3.60399C-0.0509011 3.87152 0.0200989 4.16085 0.224099 4.35704L1.4031 5.49455L1.1251 7.10272C1.0771 7.38016 1.1901 7.65562 1.4201 7.82109C1.5501 7.91324 1.7011 7.96081 1.8541 7.96081C1.9711 7.96081 2.0891 7.93207 2.1971 7.87559L3.6551 7.11659L5.1101 7.87361C5.3621 8.00738 5.6611 7.98657 5.8901 7.8201C6.1211 7.65562 6.2341 7.38016 6.1861 7.10272L5.9071 5.49455Z" fill="url(#paint0_linear)"/>
<defs>
<linearGradient id="paint0_linear" x1="0" y1="7.96116" x2="61" y2="7.96116" gradientUnits="userSpaceOnUse">
<stop stop-color="#45FEDD"/>
<stop offset="0.265625" stop-color="#78D7FF"/>
<stop offset="0.692708" stop-color="#CD64FD"/>
<stop offset="1" stop-color="#FD68CA"/>
</linearGradient>
</defs>
</svg>
