<svg width="21" height="19" viewBox="0 0 21 19" fill="none" xmlns="http://www.w3.org/2000/svg">
<path d="M20.5391 1.32374C20.9056 1.93977 20.8987 2.70435 20.5256 3.31901L11.8381 17.6556C11.4542 18.3067 10.7595 18.655 10.0108 18.5984C9.24869 18.5412 8.45632 17.8152 8.23905 17.0859L6.55372 11.4237C6.38104 10.843 6.63029 10.22 7.15702 9.91888L14.2503 5.85285C14.6171 5.65078 14.7414 5.18695 14.5248 4.82855C14.3179 4.47276 13.8609 4.35031 13.4941 4.55238L6.39724 8.62781C5.87123 8.93015 5.20391 8.8342 4.78375 8.39537L0.669386 4.10919C0.179198 3.60499 0.00913729 2.91729 0.185206 2.26019C0.20592 2.18288 0.229224 2.09591 0.259662 2.02121C0.558857 1.29354 1.23473 0.832501 2.02353 0.80565L18.7868 0.357067C19.5024 0.331304 20.1727 0.707703 20.5391 1.32374Z" fill="white"/>
</svg>
