<?xml version="1.0" encoding="UTF-8"?>
<svg width="133px" height="132px" viewBox="0 0 133 132" version="1.1" xmlns="http://www.w3.org/2000/svg" xmlns:xlink="http://www.w3.org/1999/xlink">
    <!-- Generator: sketchtool 61 (101010) - https://sketch.com -->
    <title>B95F28FE-E483-4EB1-B214-BF04D16F8BA3</title>
    <desc>Created with sketchtool.</desc>
    <g id="UI" stroke="none" stroke-width="1" fill="none" fill-rule="evenodd">
        <g id="Event-Request-Sent" transform="translate(-121.000000, -171.000000)" fill-rule="nonzero">
            <g id="Sent-Icon" transform="translate(121.000000, 171.000000)">
                <polyline id="Path" fill="#02D3B3" points="129.370787 4 78.6568664 78.2651365 73.3707865 86.0061769 73.3707865 112 92.6415132 92.8947737 82.7996504 74.2583394"></polyline>
                <polyline id="Path" fill="#00FEDF" points="54.9097477 80.7748855 17.3707865 69.221374 130.370787 2 130.370787 104 73.8707865 86.610687"></polyline>
                <polygon id="Path" fill="#00A892" points="73.3112457 112 56.3707865 80.754459 129.370787 4 74.8855893 83.7029695"></polygon>
                <path d="M131.070985,0.33960152 C130.2674,-0.120330986 129.279087,-0.112579315 128.482974,0.359755865 L81.2691155,28.3598267 C80.0442872,29.0861583 79.6385017,30.6705999 80.3627323,31.8989815 C81.0867052,33.1271046 82.6665637,33.5340674 83.8916496,32.8079941 L117.766886,12.718504 L54.6689057,78.3785202 L23.2860943,68.7493939 L64.2420956,44.4608234 C65.4669239,43.7342334 65.8727095,42.1497918 65.1484789,40.9214102 C64.4245059,39.6932871 62.8443898,39.2858076 61.6195615,40.0123976 L15.6359414,67.2825193 C14.7573835,67.80369 14.268122,68.7956456 14.388956,69.8124065 C14.5097899,70.8291674 15.2175314,71.6782338 16.1934779,71.9777067 L53.6723479,83.4770529 L70.2070146,113.660253 C70.2242766,113.691518 70.2420539,113.717874 70.2603464,113.741387 C70.5362806,114.20287 70.9497954,114.579859 71.4655939,114.797423 C71.7884189,114.933594 72.1277329,115 72.4647282,115 C73.1250637,115 73.7750935,114.745228 74.2659008,114.26385 L93.2783071,95.6288315 L129.040511,106.601581 C129.287847,106.677289 129.541624,106.714755 129.794113,106.714755 C130.339282,106.714755 130.877753,106.541118 131.326565,106.208054 C131.983294,105.720733 132.370787,104.949958 132.370787,104.130865 L132.370787,2.58396879 C132.370787,1.65609372 131.874569,0.799275636 131.070985,0.33960152 Z M108.560578,29.7458255 L70.3474293,85.0695046 C70.0490803,85.5017895 69.8890848,86.0149501 69.8890848,86.5407719 L69.8890848,102.346688 L58.5984558,81.7362859 L108.560578,29.7458255 Z M75.0419174,106.277819 L75.0419174,90.033675 L87.6637807,93.9064101 L75.0419174,106.277819 Z M76.5916318,85.1049039 L127.217954,11.8094914 L127.217954,100.63822 L76.5916318,85.1049039 Z" id="Shape" fill="#0D1022"></path>
                <path d="M42.6214978,89.7492937 C41.6221903,88.7502354 40.0027289,88.7502354 39.0031656,89.7492937 L15.1200752,113.632542 C14.1210236,114.6316 14.1210236,116.251584 15.1200752,117.250898 C15.6199848,117.750299 16.274677,118 16.9293693,118 C17.5840615,118 18.2387537,117.750299 18.7384074,117.250642 L42.6214978,93.367394 C43.6205494,92.3685916 43.6205494,90.7486078 42.6214978,89.7492937 Z" id="Path" fill="#0D1022"></path>
                <path d="M7.00379969,121.74907 L1.12001035,127.632911 C0.121045241,128.631885 0.121045241,130.251732 1.12001035,131.250962 C1.61962081,131.750321 2.27425632,132 2.92889184,132 C3.58352736,132 4.23816288,131.750065 4.73777334,131.250706 L10.6215627,125.366865 C11.6205278,124.367891 11.6205278,122.748044 10.6215627,121.748815 C9.62234177,120.750352 8.00302061,120.750352 7.00379969,121.74907 Z" id="Path" fill="#0D1022"></path>
                <path d="M35.8707865,127 C35.2105365,127 34.5682865,127.2675 34.1032865,127.7325 C33.6382865,128.1975 33.3707865,128.84 33.3707865,129.5 C33.3707865,130.1575 33.6380365,130.8025 34.1032865,131.2675 C34.5682865,131.7325 35.2132865,132 35.8707865,132 C36.5282865,132 37.1732865,131.7325 37.6380365,131.2675 C38.1030365,130.8025 38.3707865,130.1575 38.3707865,129.5 C38.3707865,128.84 38.1032865,128.1975 37.6380365,127.7325 C37.1732865,127.2675 36.5282865,127 35.8707865,127 Z" id="Path" fill="#0D1022"></path>
                <path d="M52.9461154,107.759129 L40.129907,120.575216 C39.1177464,121.587388 39.1177464,123.228635 40.129907,124.240807 C40.6361169,124.747022 41.2993996,125 41.9626823,125 C42.625965,125 43.2892478,124.746763 43.7954577,124.240807 L56.6116661,111.424719 C57.6238267,110.412547 57.6238267,108.7713 56.6116661,107.759129 C55.6000238,106.746957 53.9593128,106.746957 52.9461154,107.759129 Z" id="Path" fill="#0D1022"></path>
                <path d="M96.9546366,107.757459 L84.128445,120.583558 C83.1182337,121.593763 83.1182337,123.231819 84.128445,124.242282 C84.63368,124.747255 85.2956854,125 85.9576907,125 C86.619696,125 87.2817014,124.747255 87.7869364,124.242282 L100.613128,111.416183 C101.623339,110.405979 101.623339,108.767922 100.613128,107.757459 C99.602658,106.747514 97.9651067,106.747514 96.9546366,107.757459 Z" id="Path" fill="#0D1022"></path>
                <path d="M71.8707865,39 C72.5282865,39 73.1732865,38.735 73.6382865,38.2675 C74.1030365,37.8025 74.3707865,37.16 74.3707865,36.5025 C74.3707865,35.8425 74.1032865,35.1975 73.6382865,34.7325 C73.1732865,34.2675 72.5282865,34 71.8707865,34 C71.2132865,34 70.5682865,34.2675 70.1032865,34.7325 C69.6385365,35.1975 69.3707865,35.8425 69.3707865,36.5025 C69.3707865,37.16 69.6382865,37.8025 70.1032865,38.2675 C70.5682865,38.735 71.2132865,39 71.8707865,39 Z" id="Path" fill="#000000"></path>
            </g>
        </g>
    </g>
</svg>