<?xml version="1.0" encoding="UTF-8"?>
<svg width="20px" height="20px" viewBox="0 0 20 20" version="1.1" xmlns="http://www.w3.org/2000/svg" xmlns:xlink="http://www.w3.org/1999/xlink">
    <title>Menu</title>
    <g id="UI" stroke="none" stroke-width="1" fill="none" fill-rule="evenodd">
        <g id="Profile" transform="translate(-337.000000, -52.000000)" fill="#FFFFFF">
            <g id="Top-Nav-Bar" transform="translate(24.000000, 42.000000)">
                <g id="profile-menu" transform="translate(311.000000, 8.000000)">
                    <g id="Options-Square" transform="translate(2.000000, 2.000000)">
                        <path d="M0.36899,4.54184 C0.65912,2.34504 2.34504,0.65912 4.54184,0.36899 C6.05208,0.16953 7.94127,0 10,0 C12.0587,0 13.9479,0.16953 15.4582,0.36899 C17.655,0.65912 19.3409,2.34504 19.631,4.54184 C19.8305,6.05208 20,7.94127 20,10 C20,12.0587 19.8305,13.9479 19.631,15.4582 C19.3409,17.655 17.655,19.3409 15.4582,19.631 C13.9479,19.8305 12.0587,20 10,20 C7.94127,20 6.05208,19.8305 4.54184,19.631 C2.34504,19.3409 0.65912,17.655 0.36899,15.4582 C0.16953,13.9479 0,12.0587 0,10 C0,7.94127 0.16953,6.05208 0.36899,4.54184 Z M6,11 C6.55228,11 7,10.5523 7,10 C7,9.4477 6.55228,9 6,9 C5.44772,9 5,9.4477 5,10 C5,10.5523 5.44772,11 6,11 Z M10,11 C10.5523,11 11,10.5523 11,10 C11,9.4477 10.5523,9 10,9 C9.4477,9 9,9.4477 9,10 C9,10.5523 9.4477,11 10,11 Z M15,10 C15,10.5523 14.5523,11 14,11 C13.4477,11 13,10.5523 13,10 C13,9.4477 13.4477,9 14,9 C14.5523,9 15,9.4477 15,10 Z" id="Shape"></path>
                    </g>
                </g>
            </g>
        </g>
    </g>
</svg>