<svg width="24" height="24" viewBox="0 0 24 24" fill="none" xmlns="http://www.w3.org/2000/svg">
<path fill-rule="evenodd" clip-rule="evenodd" d="M15.5342 5.23624C15.7572 5.53752 15.7316 5.96727 15.4498 6.24C15.1498 6.54 14.6598 6.54 14.3598 6.24L12.7698 4.64V8.78H11.2298V4.64L9.6398 6.24L9.55356 6.31438C9.25228 6.53752 8.82253 6.51273 8.5498 6.24C8.3998 6.09 8.3198 5.89 8.3198 5.69C8.3198 5.5 8.3998 5.3 8.5498 5.15L11.4598 2.23L11.5505 2.14848C11.6798 2.0512 11.8398 2 11.9998 2C12.2098 2 12.3998 2.08 12.5498 2.23L15.4598 5.15L15.5342 5.23624ZM17.7688 8.78512C20.1221 8.89627 22 10.8758 22 13.2875V18.2526L21.9952 18.4651C21.8859 20.8599 19.9397 22.7802 17.55 22.7802H6.44L6.23116 22.7753C3.87791 22.6641 2 20.6843 2 18.2628V13.3078L2.00486 13.0945C2.11465 10.6909 4.07 8.7802 6.45 8.7802H11.23V14.8849L11.2371 14.9922C11.2888 15.3776 11.615 15.6683 12 15.6683C12.43 15.6683 12.77 15.3224 12.77 14.8849V8.7802H17.56L17.7688 8.78512Z" fill="white"/>
</svg>
