<svg width="22" height="22" viewBox="0 0 22 22" fill="none" xmlns="http://www.w3.org/2000/svg">
<path fill-rule="evenodd" clip-rule="evenodd" d="M9 0.25H8.96644C7.59472 0.249996 6.51929 0.249992 5.65494 0.320612C4.77479 0.392522 4.04769 0.541379 3.38955 0.876713C2.30762 1.42798 1.42798 2.30762 0.876713 3.38955C0.541379 4.04769 0.392522 4.77479 0.320612 5.65494C0.249992 6.51929 0.249996 7.59472 0.25 8.96644V9V13V13.0336C0.249996 14.4053 0.249992 15.4807 0.320612 16.3451C0.392522 17.2252 0.541379 17.9523 0.876713 18.6104C1.42798 19.6924 2.30762 20.572 3.38955 21.1233C4.04769 21.4586 4.77479 21.6075 5.65494 21.6794C6.51927 21.75 7.59469 21.75 8.96637 21.75H8.96642H9H13H13.0336H13.0336C14.4053 21.75 15.4807 21.75 16.3451 21.6794C17.2252 21.6075 17.9523 21.4586 18.6104 21.1233C19.6924 20.572 20.572 19.6924 21.1233 18.6104C21.4586 17.9523 21.6075 17.2252 21.6794 16.3451C21.75 15.4807 21.75 14.4053 21.75 13.0336V13.0336V13V9V8.96642V8.96637C21.75 7.59469 21.75 6.51927 21.6794 5.65494C21.6075 4.77479 21.4586 4.04769 21.1233 3.38955C20.572 2.30762 19.6924 1.42798 18.6104 0.876713C17.9523 0.541379 17.2252 0.392522 16.3451 0.320612C15.4807 0.249992 14.4053 0.249996 13.0336 0.25H13H9ZM9 8.25C8.30964 8.25 7.75 7.69036 7.75 7C7.75 6.30964 8.30964 5.75 9 5.75H15C15.6904 5.75 16.25 6.30964 16.25 7V13C16.25 13.6904 15.6904 14.25 15 14.25C14.3096 14.25 13.75 13.6904 13.75 13V10.0178L7.88388 15.8839C7.39573 16.372 6.60427 16.372 6.11612 15.8839C5.62796 15.3957 5.62796 14.6043 6.11612 14.1161L11.9822 8.25H9Z" fill="white"/>
</svg>
