<?xml version="1.0" encoding="UTF-8"?>
<svg width="21px" height="21px" viewBox="0 0 21 21" version="1.1" xmlns="http://www.w3.org/2000/svg" xmlns:xlink="http://www.w3.org/1999/xlink">
    <!-- Generator: Sketch 61 (89581) - https://sketch.com -->
    <title>sin-verificar</title>
    <desc>Created with Sketch.</desc>
    <g id="Page-1" stroke="none" stroke-width="1" fill="none" fill-rule="evenodd">
        <g id="PERFIL-Verificar-Pendiente" transform="translate(-305.000000, -13.000000)" fill="#FFFFFF" fill-rule="nonzero">
            <g id="HEADER" transform="translate(14.000000, 13.000000)">
                <g id="verified-(1)" transform="translate(291.000000, 0.000000)">
                    <g id="sin-verificar">
                        <path d="M10.5,21 C9.41833594,21 8.64445313,20.1865781 8.02450195,19.5358242 C7.76068945,19.2152871 7.44540234,18.9404824 7.09233984,18.7224023 C6.66142969,18.6151055 6.21558984,18.5808164 5.77323633,18.6212578 C4.84107422,18.6212578 3.79021289,18.6564492 3.05152148,17.9221465 C2.31283008,17.1878438 2.35679883,16.1369824 2.37439453,15.2048203 C2.41573828,14.7624668 2.38144922,14.316627 2.27325,13.8857168 C2.05516992,13.5326543 1.78036523,13.2173672 1.45982813,12.9535547 C0.826628906,12.3555469 0,11.5816641 0,10.5 C0,9.41833594 0.826628906,8.64445313 1.45978711,8.02450195 C1.78032422,7.76068945 2.05512891,7.44540234 2.27325,7.09233984 C2.3814082,6.66142969 2.41569727,6.21558984 2.37439453,5.77323633 C2.37439453,4.84546289 2.33920313,3.79021289 3.07350586,3.05591016 C3.80780859,2.32160742 4.86305859,2.33920313 5.7952207,2.35679883 C6.23757422,2.39814258 6.68341406,2.36426367 7.11432422,2.2556543 C7.46738672,2.03757422 7.78222266,1.76276953 8.04648633,1.44223242 C8.64445313,0.826628906 9.41833594,0 10.5,0 C11.5816641,0 12.3555469,0.826628906 12.975498,1.46417578 C13.2393105,1.78471289 13.5545977,2.05951758 13.9076602,2.27759766 C14.3385703,2.38575586 14.7844102,2.42004492 15.2267637,2.37874219 C16.1589258,2.37874219 17.2097871,2.34355078 17.9484785,3.07785352 C18.6871699,3.81215625 18.6651855,4.86740625 18.6475898,5.79517969 C18.6062461,6.2375332 18.6405352,6.68337305 18.7487344,7.1142832 C18.9668145,7.4673457 19.2416191,7.78263281 19.5621563,8.04644531 C20.1733711,8.64445313 21,9.41833594 21,10.5 C21,11.5816641 20.1733711,12.3555469 19.5402129,12.975498 C19.2196758,13.2393105 18.9448711,13.5545977 18.726791,13.9076602 C18.6186328,14.3385703 18.5843438,14.7844102 18.6256465,15.2267637 C18.6256465,16.1545371 18.6608379,17.2097871 17.9265352,17.9440898 C17.1922324,18.6783926 16.1369824,18.6607969 15.2048203,18.6432012 C14.7624668,18.6014473 14.316627,18.6357363 13.8857168,18.7443457 C13.5326543,18.9624258 13.2178184,19.2372305 12.9535547,19.5577676 C12.3555469,20.1733711 11.5816641,21 10.5,21 Z M6.19975781,16.8008613 C6.7396875,16.776252 7.27920703,16.8584473 7.7870625,17.0426895 C8.38285547,17.343457 8.90961914,17.7642363 9.33478711,18.2782441 C9.71733984,18.6783516 10.2142031,19.1796445 10.4956113,19.1796445 C10.7770195,19.1796445 11.2738828,18.6783926 11.6563945,18.2782441 C12.0816035,17.7642363 12.6083262,17.343457 13.2041191,17.0426895 C13.8561855,16.8254707 14.5465195,16.744998 15.2311113,16.80525 C15.7411816,16.80525 16.4446816,16.80525 16.6337637,16.6381523 C16.8228457,16.4710547 16.8096387,15.7587363 16.8008613,15.2355 C16.7406094,14.5509082 16.821082,13.8605742 17.0383008,13.2085078 C17.3390684,12.6127148 17.7598477,12.0859512 18.2738555,11.6607832 C18.6739629,11.2782305 19.1752559,10.7813672 19.1752559,10.499959 C19.1752559,10.2185508 18.6740039,9.7216875 18.2738555,9.33917578 C17.7598477,8.91400781 17.3390684,8.38724414 17.0383008,7.79145117 C16.821082,7.13938477 16.7401992,6.44905078 16.8008613,5.76445898 C16.8008613,5.25438867 16.8008613,4.55088867 16.6337637,4.36180664 C16.466666,4.17272461 15.7543477,4.18154297 15.2311113,4.19470898 C14.5465195,4.25496094 13.8565957,4.17403711 13.2041191,3.95726953 C12.6083262,3.65650195 12.0815625,3.23572266 11.6563945,2.72171484 C11.2738418,2.32160742 10.7769785,1.82031445 10.4956113,1.82031445 C10.2142031,1.82031445 9.71733984,2.32156641 9.33478711,2.72171484 C8.90957813,3.23572266 8.38285547,3.65650195 7.7870625,3.95726953 C7.13454492,4.17403711 6.44466211,4.25496094 5.76007031,4.19470898 C5.25,4.19470898 4.5465,4.19470898 4.35741797,4.36180664 C4.16833594,4.5289043 4.18154297,5.24122266 4.19032031,5.76445898 C4.25057227,6.44905078 4.17009961,7.13938477 3.95288086,7.79145117 C3.65211328,8.38724414 3.23133398,8.91400781 2.71732617,9.33917578 C2.31721875,9.72172852 1.81592578,10.2185918 1.81592578,10.5 C1.81592578,10.7814082 2.31717773,11.2782715 2.71732617,11.6607832 C3.23133398,12.0859512 3.65211328,12.6127148 3.95288086,13.2085078 C4.17009961,13.8605742 4.25098242,14.5509082 4.19032031,15.2355 C4.19032031,15.7455703 4.19032031,16.4490703 4.35741797,16.6381523 C4.52451563,16.8272344 5.23683398,16.8140273 5.76007031,16.80525 L6.19975781,16.8008613 Z" id="Shape"></path>
                        <path d="M9.64601296,13.2631579 C9.44583429,13.2635667 9.25162754,13.1965472 9.095442,13.0735142 L6.96143706,11.3879628 C6.58202124,11.0879275 6.52098825,10.5405685 6.82487921,10.1659272 C7.12877018,9.791286 7.68316317,9.73106668 8.0626188,10.031102 L9.58203382,11.2320687 L12.8641598,7.99158517 C13.208182,7.65192775 13.7664369,7.65192775 14.1104193,7.99158517 C14.4544017,8.33124259 14.4544415,8.88241448 14.1104193,9.22203259 L10.2692024,13.0145134 C10.1031433,13.1754783 9.87907699,13.2648246 9.64601296,13.2631579 Z" id="Shape"></path>
                    </g>
                </g>
            </g>
        </g>
    </g>
</svg>