<?xml version="1.0" encoding="utf-8"?>
<!-- Generator: Adobe Illustrator 23.0.3, SVG Export Plug-In . SVG Version: 6.00 Build 0)  -->
<svg version="1.1" id="Layer_1" xmlns="http://www.w3.org/2000/svg" xmlns:xlink="http://www.w3.org/1999/xlink" x="0px" y="0px"
	 viewBox="0 0 24 19" style="enable-background:new 0 0 24 19;" xml:space="preserve">
<style type="text/css">
	.st0{filter:url(#Adobe_OpacityMaskFilter);}
	.st1{fill-rule:evenodd;clip-rule:evenodd;fill:#FFFFFF;}
	.st2{mask:url(#mask-2_1_);fill-rule:evenodd;clip-rule:evenodd;fill:#3DF9DF;}
</style>
<title>smash-logo2</title>
<desc>Created with Sketch.</desc>
<g id="Page-1">
	<g id="Elegir-Juego" transform="translate(-26.000000, -1261.000000)">
		<g id="Switch" transform="translate(10.000000, 1031.000000)">
			<g id="Smash" transform="translate(0.000000, 34.000000)">
				<g id="smash-logo2" transform="translate(16.000000, 193.000000)">
					<g id="Clip-2">
					</g>
					<defs>
						<filter id="Adobe_OpacityMaskFilter" filterUnits="userSpaceOnUse" x="0" y="3" width="23.9" height="18.3">
							<feColorMatrix  type="matrix" values="1 0 0 0 0  0 1 0 0 0  0 0 1 0 0  0 0 0 1 0"/>
						</filter>
					</defs>
					<mask maskUnits="userSpaceOnUse" x="0" y="3" width="23.9" height="18.3" id="mask-2_1_">
						<g class="st0">
							<polygon id="path-1_1_" class="st1" points="0,0 24,0 24,24 0,24 							"/>
						</g>
					</mask>
					<path id="Fill-1" class="st2" d="M10,19.8h3.8c0.2,0,0.3,0.2,0.1,0.3c-0.7,0.7-2.5,2-4.1,0C9.8,20,9.9,19.8,10,19.8L10,19.8z
						 M12,3c1.7,0,3.1,1.4,3.1,3.1c0,1.7-1.4,3.1-3.1,3.1c-1.7,0-3.1-1.4-3.1-3.1C8.9,4.4,10.3,3,12,3L12,3z M15.9,15.1
						c0,2.2,1.8,4,4,4c2.2,0,4-1.8,4-4c0-2.2-1.8-4-4-4C17.7,11.1,15.9,12.9,15.9,15.1L15.9,15.1z M1.4,18.2v-1.7H0.2
						C0.5,17.1,0.9,17.7,1.4,18.2L1.4,18.2z M1.4,12c-0.4,0.4-0.8,0.8-1,1.3C0,14-0.1,14.8,0,15.6h1.4V12z M6.3,18.5
						c0.7-0.5,1.3-1.2,1.6-2H3.3v2.6C4.1,19.2,5.3,19.1,6.3,18.5L6.3,18.5z M3.3,15.6c0-0.1,0-0.2,0-0.3c0-1.1,0-2.3,0-3.4
						c0-0.3,0-0.5,0-0.8c0,0,0-0.1,0.1-0.1c0.8-0.1,1.5,0,2.2,0.3C7,12,7.8,13.1,8,14.6c0,0.3,0,0.7,0,1c0,0,0,0,0,0H3.3z"/>
				</g>
			</g>
		</g>
	</g>
</g>
</svg>
