<svg width="16" height="16" viewBox="0 0 16 16" fill="none" xmlns="http://www.w3.org/2000/svg">
<path fill-rule="evenodd" clip-rule="evenodd" d="M13.2503 10.1235C13.7115 9.66225 13.9421 9.43164 14.107 9.16253C14.2533 8.92394 14.361 8.66382 14.4263 8.39173C14.5 8.08483 14.5 7.7587 14.5 7.10646V5.76667C14.5 4.27319 14.5 3.52646 14.2094 2.95603C13.9537 2.45426 13.5457 2.04631 13.044 1.79065C12.4735 1.5 11.7268 1.5 10.2333 1.5H8.89354C8.2413 1.5 7.91517 1.5 7.60827 1.57368C7.33618 1.639 7.07606 1.74675 6.83747 1.89296C6.56836 2.05787 6.33775 2.28847 5.87655 2.74968L3.64645 4.97978C2.4059 6.22032 1.78563 6.8406 1.53362 7.54792C1.27582 8.27148 1.27582 9.06186 1.53362 9.78541C1.78563 10.4927 2.4059 11.113 3.64645 12.3536C4.88699 13.5941 5.50726 14.2144 6.21459 14.4664C6.93814 14.7242 7.72852 14.7242 8.45208 14.4664C9.1594 14.2144 9.77968 13.5941 11.0202 12.3536L13.2503 10.1235ZM9.33333 8C8.59695 8 8 7.40305 8 6.66667C8 5.93029 8.59695 5.33333 9.33333 5.33333C10.0697 5.33333 10.6667 5.93029 10.6667 6.66667C10.6667 7.40305 10.0697 8 9.33333 8Z" fill="white" fill-opacity="0.6"/>
</svg>
