<svg width="21" height="20" viewBox="0 0 21 20" fill="none" xmlns="http://www.w3.org/2000/svg">
<path fill-rule="evenodd" clip-rule="evenodd" d="M6.17 -0.00012207H14.84C18.23 -0.00012207 20.5 2.37988 20.5 5.91988V14.0909C20.5 17.6199 18.23 19.9999 14.84 19.9999H6.17C2.78 19.9999 0.5 17.6199 0.5 14.0909V5.91988C0.5 2.37988 2.78 -0.00012207 6.17 -0.00012207ZM9.93 12.9899L14.68 8.23988C15.02 7.89988 15.02 7.34988 14.68 6.99988C14.34 6.65988 13.78 6.65988 13.44 6.99988L9.31 11.1299L7.56 9.37988C7.22 9.03988 6.66 9.03988 6.32 9.37988C5.98 9.71988 5.98 10.2699 6.32 10.6199L8.7 12.9899C8.87 13.1599 9.09 13.2399 9.31 13.2399C9.54 13.2399 9.76 13.1599 9.93 12.9899Z" fill="white"/>
</svg>
