<svg width="24" height="25" viewBox="0 0 24 25" fill="none" xmlns="http://www.w3.org/2000/svg">
<path fill-rule="evenodd" clip-rule="evenodd" d="M3.6 0.01828C1.61178 0.01828 0 1.63006 0 3.61828V20.4183C0 22.4066 1.61178 24.0183 3.6 24.0183H20.4C22.3883 24.0183 24 22.4066 24 20.4183V3.61828C24 1.63006 22.3883 0.01828 20.4 0.01828H3.6ZM13.2 4.81813C13.8627 4.81813 14.4 5.3554 14.4 6.01813C14.4 7.34362 15.4744 8.41813 16.8 8.41813C17.4627 8.41813 18 8.95539 18 9.61813C18 10.2809 17.4627 10.8181 16.8 10.8181C15.9256 10.8181 15.1059 10.5844 14.4 10.176V15.0181V15.022C14.3978 17.3398 12.5182 19.2181 10.2 19.2181C7.88036 19.2181 5.99996 17.3377 5.99996 15.0181C5.99996 13.1254 7.40768 11.2389 9.36124 10.8424C10.0107 10.7105 10.6441 11.1301 10.776 11.7797C10.9078 12.4291 10.4882 13.0625 9.83864 13.1944C9.07444 13.3495 8.39996 14.1931 8.39996 15.0181C8.39996 16.0122 9.20584 16.8181 10.2 16.8181C11.194 16.8181 12 16.0122 12 15.0181V6.01813C12 5.3554 12.5372 4.81813 13.2 4.81813Z" fill="white"/>
</svg>
