<svg width="24" height="21" viewBox="0 0 24 21" fill="none" xmlns="http://www.w3.org/2000/svg">
<path fill-rule="evenodd" clip-rule="evenodd" d="M8.18251 20.498C16.4055 20.498 22.8664 13.7108 22.279 5.22673L23.8998 2.88566C24.1815 2.47888 23.8306 1.94286 23.3281 2.012L21.3108 2.2895C20.3534 0.986756 18.7763 0.136292 16.9928 0.136292C14.0734 0.136292 11.7066 2.41536 11.7066 5.22673C11.7066 5.83174 11.8163 6.4121 12.0175 6.95039C7.36636 7.3644 3.65533 5.56995 1.70359 2.35596C1.45116 1.94029 0.824881 1.9427 0.69067 2.40657C-0.452305 6.3571 0.645232 13.9305 7.00796 15.9729C7.00799 15.9729 7.00802 15.973 7.00804 15.973C7.00796 15.973 7.00788 15.9731 7.0078 15.9732C5.54845 17.3785 3.28335 18.0079 0.546169 18.1827C-0.0170597 18.2186 -0.216045 18.8726 0.293042 19.1073C2.5159 20.1324 5.3492 20.498 8.18251 20.498Z" fill="white"/>
</svg>
