<svg width="144" height="48" viewBox="0 0 144 48" fill="none" xmlns="http://www.w3.org/2000/svg">
<path d="M137.684 8.8421H131.368V0H117.5L111.123 8.8421H99.7895L96 12.6316V8.8421H87.1579V0H59.3684V8.8421H20.2737L13.8947 0H0V30.3158L17.6842 48H35.3684V42.9474L40.4211 48H74.5263V42.9474L79.5789 48H96V42.9474L101.053 48H132.632L144 36.6316V15.1579L137.684 8.8421Z" fill="black"/>
<path d="M21.4737 21.4737H12.6316V24.0001H21.4737V34.1053H7.579L2.52637 29.0527V2.52637H12.6316V11.3685H21.4737V21.4737Z" fill="white"/>
<path d="M59.3684 34.1055H29.0526L24 29.0529V11.3687H34.1053V24.0002H36.6316V11.3687H46.7368V24.0002H49.2632V11.3687H59.3684V34.1055Z" fill="white"/>
<path d="M71.9998 34.1055H61.8945V11.3687H71.9998V34.1055Z" fill="white"/>
<path d="M71.9998 8.84216H61.8945V2.52637H71.9998V8.84216Z" fill="white"/>
<path d="M93.4737 21.4737H84.6316V24.0001H93.4737V34.1053H79.579L74.5264 29.0527V2.52637H84.6316V11.3685H93.4737V21.4737Z" fill="white"/>
<path d="M116.211 21.4739H106.105V24.0002H116.211V34.1055H101.053L96 29.0529V16.4213L101.053 11.3687H116.211V21.4739Z" fill="white"/>
<path d="M141.474 34.1053H131.368V21.4737H128.842V34.1053H118.737V2.52637H128.842V11.3685H136.421L141.474 16.4211V34.1053Z" fill="white"/>
</svg>
