<svg width="16" height="20" viewBox="0 0 16 20" fill="none" xmlns="http://www.w3.org/2000/svg">
<path fill-rule="evenodd" clip-rule="evenodd" d="M15.1708 3.8849C15.3874 4.10133 15.3874 4.45143 15.1708 4.66721C15.0625 4.77543 14.9223 4.83335 14.7758 4.83335C14.6356 4.83335 14.4955 4.78243 14.3872 4.66721L13.2531 3.54116L12.1191 4.66721C12.0108 4.77543 11.8706 4.83335 11.724 4.83335C11.5839 4.83335 11.4374 4.77543 11.329 4.66721C11.1124 4.45143 11.1124 4.10133 11.329 3.87853L12.4631 2.75185L11.329 1.61816C11.1124 1.40238 11.1124 1.04591 11.329 0.829484C11.5457 0.612421 11.8961 0.612421 12.1191 0.829484L13.2531 1.96189L14.3808 0.829484C14.6038 0.612421 14.9542 0.612421 15.1708 0.829484C15.3874 1.04591 15.3874 1.40238 15.1708 1.61816L14.0368 2.75185L15.1708 3.8849ZM8.67931 3.49354C8.16246 3.28272 7.59559 3.16669 6.99993 3.16669C4.55151 3.16669 2.58827 5.12837 2.58827 7.5759C2.58827 10.0234 4.55151 11.9859 6.99993 11.9859C9.44918 11.9859 11.4116 10.0234 11.4116 7.5759C11.4116 7.4057 11.4021 7.23784 11.3836 7.07284C9.89685 6.51859 8.80777 5.13784 8.67931 3.49354ZM0.333252 16.9792C0.333252 19.2458 3.38523 19.8334 6.99992 19.8334C10.5954 19.8334 13.6666 19.2667 13.6666 16.9992C13.6666 14.7325 10.6154 14.145 6.99992 14.145C3.4044 14.145 0.333252 14.7116 0.333252 16.9792Z" fill="#FF3B3B"/>
</svg>
