<svg width="24" height="24" viewBox="0 0 24 24" fill="none" xmlns="http://www.w3.org/2000/svg">
<path d="M16.6818 5.88636C16.6818 8.58502 14.4941 10.7727 11.7955 10.7727C9.09679 10.7727 6.90909 8.58502 6.90909 5.88636C6.90909 3.1877 9.09679 1 11.7955 1C14.4941 1 16.6818 3.1877 16.6818 5.88636Z" fill="white"/>
<path fill-rule="evenodd" clip-rule="evenodd" d="M18.4585 13.8265C17.8561 13.1281 16.8214 13.164 16.0123 13.6069C14.7603 14.2922 13.3234 14.6818 11.7955 14.6818C10.2675 14.6818 8.83059 14.2922 7.57857 13.6069C6.76951 13.164 5.73481 13.1281 5.13241 13.8265C3.80353 15.3673 3 17.3739 3 19.5682V20.5455C3 21.6249 3.87508 22.5 4.95455 22.5H18.6364C19.7159 22.5 20.5909 21.6249 20.5909 20.5455V19.5682C20.5909 17.3739 19.7874 15.3673 18.4585 13.8265Z" fill="white"/>
</svg>
