<?xml version="1.0" encoding="UTF-8"?>
<svg width="19px" height="19px" viewBox="0 0 19 19" version="1.1" xmlns="http://www.w3.org/2000/svg" xmlns:xlink="http://www.w3.org/1999/xlink">
    <!-- Generator: Sketch 55.2 (78181) - https://sketchapp.com -->
    <title>Verificado</title>
    <desc>Created with Sketch.</desc>
    <g id="Verificado" stroke="none" stroke-width="1" fill="currentColor" fill-rule="evenodd">
        <path d="M9.5,19 C8.52135156,19 7.82117188,18.2640469 7.26026367,17.6752695 C7.02157617,17.3852598 6.73631641,17.136627 6.41687891,16.9393164 C6.02700781,16.8422383 5.62362891,16.8112148 5.2234043,16.8478047 C4.38001953,16.8478047 3.42924023,16.8796445 2.76090039,16.2152754 C2.09256055,15.5509063 2.1323418,14.600127 2.14826172,13.7567422 C2.18566797,13.3565176 2.15464453,12.9531387 2.05675,12.5632676 C1.85943945,12.2438301 1.61080664,11.9585703 1.32079688,11.7198828 C0.747902344,11.1788281 0,10.4786484 0,9.5 C0,8.52135156 0.747902344,7.82117188 1.32075977,7.26026367 C1.61076953,7.02157617 1.85940234,6.73631641 2.05675,6.41687891 C2.15460742,6.02700781 2.18563086,5.62362891 2.14826172,5.2234043 C2.14826172,4.38399023 2.11642188,3.42924023 2.78079102,2.76487109 C3.44516016,2.10050195 4.39991016,2.11642188 5.24329492,2.1323418 C5.64351953,2.16974805 6.04689844,2.1390957 6.43676953,2.04083008 C6.75620703,1.84351953 7.04105859,1.59488672 7.2801543,1.30487695 C7.82117188,0.747902344 8.52135156,0 9.5,0 C10.4786484,0 11.1788281,0.747902344 11.7397363,1.32473047 C11.9784238,1.61474023 12.2636836,1.86337305 12.5831211,2.06068359 C12.9729922,2.15854102 13.3763711,2.18956445 13.7765957,2.15219531 C14.6199805,2.15219531 15.5707598,2.12035547 16.2390996,2.78472461 C16.9074395,3.44909375 16.8875488,4.40384375 16.8716289,5.24325781 C16.8342227,5.64348242 16.8652461,6.04686133 16.9631406,6.43673242 C17.1604512,6.75616992 17.409084,7.04142969 17.6990938,7.28011719 C18.2520977,7.82117188 19,8.52135156 19,9.5 C19,10.4786484 18.2520977,11.1788281 17.6792402,11.7397363 C17.3892305,11.9784238 17.1405977,12.2636836 16.9432871,12.5831211 C16.8454297,12.9729922 16.8144063,13.3763711 16.8517754,13.7765957 C16.8517754,14.6160098 16.8836152,15.5707598 16.2192461,16.2351289 C15.554877,16.899498 14.600127,16.8835781 13.7567422,16.8676582 C13.3565176,16.8298809 12.9531387,16.8609043 12.5632676,16.9591699 C12.2438301,17.1564805 11.9589785,17.4051133 11.7198828,17.695123 C11.1788281,18.2520977 10.4786484,19 9.5,19 Z" id="Shape" fill="#00E4FF" fill-rule="nonzero"></path>
        <path d="M8.72734506,12 C8.54623103,12.0003699 8.37052016,11.9397332 8.22920942,11.8284176 L6.29844305,10.3033949 C5.95516208,10.0319344 5.89994175,9.5367048 6.17489072,9.19774369 C6.44983969,8.85878257 6.95143335,8.80429843 7.29475034,9.07575894 L8.66945917,10.1623478 L11.6390017,7.23048182 C11.9502599,6.92317273 12.4553476,6.92317273 12.7665698,7.23048182 C13.077792,7.53779091 13.0778281,8.03647024 12.7665698,8.34374377 L9.29118316,11.775036 C9.1409392,11.9206708 8.93821251,12.0015079 8.72734506,12 Z" id="Shape" fill="#FFFFFF" fill-rule="nonzero"></path>
    </g>
</svg>