<svg xmlns="http://www.w3.org/2000/svg" viewBox="0 0 515.6 416.95"><defs></defs><title>video-clip</title><g id="Layer_2" data-name="Layer 2"><g id="Primarios"><path fill="#FFF" d="M303.15,183.83l-91.27-58.08a8.3,8.3,0,0,0-12.75,7V248.91a8.3,8.3,0,0,0,12.75,7l91.27-58.08a8.31,8.31,0,0,0,0-14Zm-87.42,50V147.86l67.51,43Z"/><path fill="#FFF" d="M83,182.54H16.59V107.86H83ZM16.59,199.13H83v74.68H16.59Zm448.05-16.59H398.26V107.86h66.38ZM308.45,365.07H99.57V16.59h282.1V209.8a8.29,8.29,0,0,0,8.3,8.3h0a8.29,8.29,0,0,0,8.29-8.3V199.13h66.38V209.8a8.3,8.3,0,0,0,8.3,8.3h0a8.29,8.29,0,0,0,8.29-8.3V8.3A8.29,8.29,0,0,0,472.94,0H8.3A8.29,8.29,0,0,0,0,8.3V373.37a8.3,8.3,0,0,0,8.3,8.3H308.45a8.31,8.31,0,0,0,8.3-8.3h0A8.31,8.31,0,0,0,308.45,365.07ZM464.64,16.59V91.27H398.26V16.59Zm-448,0H83V91.27H16.59Zm0,348.48V290.4H83v74.67Z"/><path fill="#FA2D79" d="M425.53,236.81a90.07,90.07,0,1,0,90.07,90.07A90.07,90.07,0,0,0,425.53,236.81Zm46.2,77.57-30.06,30.05a5.26,5.26,0,0,1-5.89,1.2,5.09,5.09,0,0,1-3.42-5V326.93q-12,0-19.13,2a22.56,22.56,0,0,0-11.1,6.45q-9.06,10.17-5.3,40.4a2.44,2.44,0,0,1-1.62,2.82,2.47,2.47,0,0,1-1.11.25,2.64,2.64,0,0,1-2.13-1q-14.27-19.05-14.27-34.51c0-3.41.15-6.55.43-9.43a58.39,58.39,0,0,1,1.83-9.53,38.29,38.29,0,0,1,3.8-9.3,39.27,39.27,0,0,1,6.54-8.16,36,36,0,0,1,9.74-6.75,58.71,58.71,0,0,1,13.87-4.35,93.18,93.18,0,0,1,18.45-1.67V280.47a5.13,5.13,0,0,1,3.41-5.05,4.88,4.88,0,0,1,5.9,1.2l30.06,30.07a5.35,5.35,0,0,1,0,7.69Z"/></g></g></svg>