<svg xmlns="http://www.w3.org/2000/svg" viewBox="0 0 515.6 416.95"><defs><style>.cls-1{fill:#fff;}.cls-2{fill:#3df9df;}</style></defs><title>video-clip-check</title><g id="Layer_2" data-name="Layer 2"><g id="Primarios"><path fill="#FFF" d="M303.15,183.83l-91.27-58.08a8.3,8.3,0,0,0-12.75,7V248.91a8.3,8.3,0,0,0,12.75,7l91.27-58.08a8.31,8.31,0,0,0,0-14Zm-87.42,50V147.86l67.51,43Z"/><path fill="#FFF" d="M83,182.54H16.59V107.86H83ZM16.59,199.13H83v74.68H16.59Zm448.05-16.59H398.26V107.86h66.38ZM308.45,365.07H99.57V16.59h282.1V209.8a8.29,8.29,0,0,0,8.3,8.3h0a8.29,8.29,0,0,0,8.29-8.3V199.13h66.38V209.8a8.3,8.3,0,0,0,8.3,8.3h0a8.29,8.29,0,0,0,8.29-8.3V8.3A8.29,8.29,0,0,0,472.94,0H8.3A8.29,8.29,0,0,0,0,8.3V373.37a8.3,8.3,0,0,0,8.3,8.3H308.45a8.31,8.31,0,0,0,8.3-8.3h0A8.31,8.31,0,0,0,308.45,365.07ZM464.64,16.59V91.27H398.26V16.59Zm-448,0H83V91.27H16.59Zm0,348.48V290.4H83v74.67Z"/><path fill="#3DF9DF" d="M425.53,236.81a90.07,90.07,0,1,0,90.07,90.07A90.08,90.08,0,0,0,425.53,236.81ZM404.08,368.22,376,340.1a9.35,9.35,0,0,1,0-13.22h0a9.35,9.35,0,0,1,13.22,0L409,346.71l52.87-52.88a9.35,9.35,0,0,1,13.22,0h0a9.35,9.35,0,0,1,0,13.22l-61.16,61.17A7,7,0,0,1,404.08,368.22Z"/></g></g></svg>