<svg width="17" height="17" viewBox="0 0 17 17" fill="none" xmlns="http://www.w3.org/2000/svg">
<path fill-rule="evenodd" clip-rule="evenodd" d="M0.666718 8.1667C0.666718 6.14631 0.666718 5.13611 1.02326 4.3492C1.42377 3.46527 2.13196 2.75708 3.01589 2.35658C3.8028 2.00003 4.81299 2.00003 6.83338 2.00003L8.53553 2.00003C8.96691 2.00003 9.1826 2.00003 9.36438 2.01666C11.2856 2.19238 12.8077 3.71444 12.9834 5.6357C13.0001 5.81749 13.0001 6.03318 13.0001 6.46455C13.0001 6.50427 13.0001 6.52412 13.0016 6.53553C13.0193 6.66301 13.1687 6.72318 13.2698 6.64355C13.2789 6.63643 13.2926 6.62211 13.3202 6.59349L13.3704 6.54122C13.9238 5.9657 14.2005 5.67795 14.4094 5.5747C15.1229 5.22218 15.9843 5.56914 16.2543 6.31777C16.3334 6.53702 16.3334 6.93621 16.3334 7.73461L16.3334 9.26548C16.3334 10.0639 16.3334 10.4631 16.2543 10.6823C15.9843 11.4309 15.1229 11.7779 14.4094 11.4254C14.2005 11.3222 13.9238 11.0344 13.3704 10.4589L13.3202 10.4066C13.2926 10.378 13.2789 10.3637 13.2698 10.3566C13.1687 10.2769 13.0193 10.3371 13.0016 10.4646C13.0001 10.476 13.0001 10.4958 13.0001 10.5355C13.0001 10.9669 13.0001 11.1826 12.9834 11.3643C12.8077 13.2856 11.2856 14.8077 9.36435 14.9834C9.18258 15 8.96691 15 8.53557 15H6.83338C4.81299 15 3.8028 15 3.01589 14.6435C2.13196 14.243 1.42377 13.5348 1.02326 12.6509C0.666718 11.8639 0.666718 10.8538 0.666718 8.83336L0.666718 8.1667ZM9.50005 6.50003C10.0523 6.50003 10.5001 6.05232 10.5001 5.50003C10.5001 4.94775 10.0523 4.50003 9.50005 4.50003C8.94777 4.50003 8.50005 4.94775 8.50005 5.50003C8.50005 6.05232 8.94777 6.50003 9.50005 6.50003Z" fill="white"/>
</svg>
