<svg width="16" height="17" viewBox="0 0 16 17" fill="none" xmlns="http://www.w3.org/2000/svg">
<path d="M8.90408 4.80037C8.87053 4.47615 8.83557 4.13975 8.74959 3.80407C8.5154 3.00102 7.86667 2.50001 7.1711 2.50001C6.78312 2.49857 6.29237 2.73763 6.01415 2.97955L3.70793 4.91131H2.50065C1.61213 4.91131 0.897689 5.59627 0.76277 6.5847C0.648123 7.53376 0.620161 9.32524 0.76277 10.3695C0.886504 11.4138 1.56879 12.0887 2.50065 12.0887H3.70793L6.05889 14.0491C6.30006 14.2588 6.72579 14.4993 7.11727 14.4993C7.14244 14.5 7.16481 14.5 7.18718 14.5C7.89603 14.5 8.52029 13.9804 8.75448 13.1795C8.84326 12.8388 8.87402 12.5196 8.90408 12.2111L8.93554 11.9055C9.05578 10.9142 9.05578 6.07939 8.93554 5.09526L8.90408 4.80037Z" fill="white"/>
<path opacity="0.4" d="M11.6039 4.8297C11.4117 4.54627 11.0307 4.47542 10.7518 4.67224C10.4756 4.8705 10.4071 5.26129 10.5994 5.54401C11.1341 6.33203 11.4284 7.38129 11.4284 8.49998C11.4284 9.61796 11.1341 10.6679 10.5994 11.456C10.4071 11.7387 10.4756 12.1295 10.7525 12.3277C10.8559 12.4007 10.9769 12.4394 11.1013 12.4394C11.3019 12.4394 11.4893 12.3385 11.6039 12.1703C12.2792 11.1754 12.6518 9.87205 12.6518 8.49998C12.6518 7.12792 12.2792 5.82457 11.6039 4.8297Z" fill="white"/>
<path opacity="0.4" d="M13.7108 2.8048C13.52 2.52208 13.1376 2.44979 12.8593 2.64734C12.5832 2.8456 12.5147 3.23639 12.7062 3.5191C13.6108 4.8518 14.1093 6.62109 14.1093 8.49989C14.1093 10.3794 13.6108 12.1487 12.7062 13.4814C12.5147 13.7648 12.5832 14.1549 12.86 14.3532C12.9635 14.4262 13.0837 14.4648 13.2082 14.4648C13.4088 14.4648 13.5969 14.3639 13.7108 14.1957C14.7566 12.6562 15.3326 10.6335 15.3326 8.49989C15.3326 6.36772 14.7566 4.34434 13.7108 2.8048Z" fill="white"/>
</svg>
