<svg width="32" height="32" viewBox="0 0 32 32" fill="none" xmlns="http://www.w3.org/2000/svg">
<path fill-rule="evenodd" clip-rule="evenodd" d="M12.1895 2.03793C14.5474 0.772839 17.4526 0.772839 19.8105 2.03793L27.1895 5.9969C29.5474 7.26199 31 9.59997 31 12.1301V20.0481C31 22.5783 29.5474 24.9162 27.1895 26.1813L19.8105 30.1403C17.4526 31.4054 14.5474 31.4054 12.1895 30.1403L4.81051 26.1813C2.45256 24.9162 1 22.5783 1 20.0481V12.1301C1 9.59997 2.45256 7.26199 4.81051 5.9969L12.1895 2.03793Z" fill="url(#paint0_linear_0_5007)"/>
<path fill-rule="evenodd" clip-rule="evenodd" d="M19.9829 19.2591C19.9735 19.2592 19.9641 19.2592 19.9547 19.2592H22.7833C22.7833 19.2592 22.7833 19.2591 22.7834 19.2591H23.1528C23.4652 19.2591 23.7185 19.5161 23.7185 19.8333C23.7185 20.1502 23.4652 20.4074 23.1528 20.4074H19.9765C17.8482 20.4074 16.1117 18.6732 16.0673 16.5239L16.0664 16.5239L16.0667 16.4816L16.0664 16.4395L16.0673 16.4394C16.1118 14.3152 17.8318 12.5961 19.9548 12.5566L19.9547 12.5559L19.9921 12.556L20.0295 12.5559C22.1804 12.5966 23.9179 14.361 23.9179 16.5239C23.9179 17.6038 23.4848 18.5637 22.7834 19.2591H19.9829ZM19.9829 19.2591C21.5228 19.2449 22.7709 18.0692 22.7709 16.5239C22.7709 14.9784 21.5228 13.7196 19.983 13.7044C18.4513 13.7294 17.1991 14.9846 17.1991 16.5239C17.2432 18.0397 18.4722 19.2591 19.9765 19.2591H19.9829ZM9.15817 20.2298C9.2634 20.3482 9.40209 20.4074 9.54078 20.4074C9.67947 20.4074 9.81815 20.3482 9.92339 20.2298L12.1408 17.7355L14.3577 20.2298C14.5686 20.4666 14.9121 20.4666 15.1234 20.2298C15.3338 19.9925 15.3338 19.6061 15.1234 19.3683L12.906 16.8745L15.1234 14.3797C15.3338 14.1424 15.3338 13.756 15.1234 13.5183C14.9121 13.2819 14.5686 13.2819 14.3577 13.5183L12.1408 16.0131L9.92339 13.5183C9.71251 13.2819 9.36905 13.2819 9.15817 13.5183C8.94728 13.756 8.94728 14.1424 9.15817 14.3797L11.3751 16.8745L9.15817 19.3683C8.94728 19.6061 8.94728 19.9925 9.15817 20.2298Z" fill="#0AFFD2"/>
<defs>
<linearGradient id="paint0_linear_0_5007" x1="-15.125" y1="17.3377" x2="14.3089" y2="47.2278" gradientUnits="userSpaceOnUse">
<stop stop-color="#2C07FA"/>
<stop offset="1" stop-color="#A716EE"/>
</linearGradient>
</defs>
</svg>
