<svg width="38" height="40" viewBox="0 0 38 40" fill="none" xmlns="http://www.w3.org/2000/svg">
<g filter="url(#filter0_d_2043_18641)">
<path fill-rule="evenodd" clip-rule="evenodd" d="M15.4266 2.03249C17.5954 0.774813 20.2676 0.774814 22.4365 2.03249L29.2238 5.96828C31.3927 7.22595 32.7288 9.55024 32.7288 12.0656V19.9372C32.7288 22.4525 31.3927 24.7768 29.2238 26.0345L22.4365 29.9703C20.2676 31.228 17.5954 31.228 15.4266 29.9703L8.63925 26.0345C6.47036 24.7768 5.13428 22.4525 5.13428 19.9372V12.0656C5.13428 9.55024 6.47036 7.22595 8.63925 5.96828L15.4266 2.03249Z" fill="url(#paint0_linear_2043_18641)"/>
</g>
<path fill-rule="evenodd" clip-rule="evenodd" d="M23.1967 19.1528C23.1875 19.1529 23.1782 19.1529 23.1689 19.1529H25.9686C25.9686 19.1529 25.9687 19.1528 25.9687 19.1528H26.3343C26.6435 19.1528 26.8943 19.4083 26.8943 19.7237C26.8943 20.0387 26.6435 20.2944 26.3343 20.2944H23.1904C21.0838 20.2944 19.365 18.5703 19.321 16.4337L19.3201 16.4336L19.3204 16.3916L19.3201 16.3497L19.321 16.3496C19.3651 14.2379 21.0675 12.5288 23.1689 12.4896L23.1689 12.4889L23.2059 12.489L23.2429 12.4889C25.3718 12.5294 27.0916 14.2834 27.0916 16.4336C27.0916 17.5072 26.6629 18.4615 25.9687 19.1528H23.1967ZM23.1967 19.1528C24.7209 19.1387 25.9563 17.9699 25.9563 16.4336C25.9563 14.8972 24.721 13.6458 23.1968 13.6306C21.6808 13.6555 20.4412 14.9033 20.4412 16.4336C20.485 17.9406 21.7014 19.1528 23.1904 19.1528H23.1967ZM12.4822 20.1178C12.5864 20.2355 12.7237 20.2944 12.861 20.2944C12.9982 20.2944 13.1355 20.2355 13.2397 20.1178L15.4345 17.6381L17.6288 20.1178C17.8376 20.3533 18.1775 20.3533 18.3867 20.1178C18.595 19.882 18.595 19.4978 18.3867 19.2615L16.1919 16.7822L18.3867 14.302C18.595 14.0662 18.595 13.682 18.3867 13.4457C18.1775 13.2107 17.8376 13.2107 17.6288 13.4457L15.4345 15.9258L13.2397 13.4457C13.0309 13.2107 12.691 13.2107 12.4822 13.4457C12.2735 13.682 12.2735 14.0662 12.4822 14.302L14.6766 16.7822L12.4822 19.2615C12.2735 19.4978 12.2735 19.882 12.4822 20.1178Z" fill="#0AFFD2"/>
<defs>
<filter id="filter0_d_2043_18641" x="0.134277" y="0.0892334" width="37.5947" height="39.8243" filterUnits="userSpaceOnUse" color-interpolation-filters="sRGB">
<feFlood flood-opacity="0" result="BackgroundImageFix"/>
<feColorMatrix in="SourceAlpha" type="matrix" values="0 0 0 0 0 0 0 0 0 0 0 0 0 0 0 0 0 0 127 0" result="hardAlpha"/>
<feOffset dy="4"/>
<feGaussianBlur stdDeviation="2.5"/>
<feColorMatrix type="matrix" values="0 0 0 0 0 0 0 0 0 0 0 0 0 0 0 0 0 0 0.14 0"/>
<feBlend mode="normal" in2="BackgroundImageFix" result="effect1_dropShadow_2043_18641"/>
<feBlend mode="normal" in="SourceGraphic" in2="effect1_dropShadow_2043_18641" result="shape"/>
</filter>
<linearGradient id="paint0_linear_2043_18641" x1="-9.69777" y1="17.2426" x2="19.5105" y2="44.686" gradientUnits="userSpaceOnUse">
<stop stop-color="#2C07FA"/>
<stop offset="1" stop-color="#A716EE"/>
</linearGradient>
</defs>
</svg>
