<svg width="40" height="41" viewBox="0 0 40 41" fill="none" xmlns="http://www.w3.org/2000/svg">
<g filter="url(#filter0_d_0_5007)">
<g filter="url(#filter1_d_0_5007)">
<path fill-rule="evenodd" clip-rule="evenodd" d="M16.1895 2.03793C18.5474 0.772839 21.4526 0.772839 23.8105 2.03793L31.1895 5.9969C33.5474 7.26198 35 9.59997 35 12.1301V20.0481C35 22.5783 33.5474 24.9162 31.1895 26.1813L23.8105 30.1403C21.4526 31.4054 18.5474 31.4054 16.1895 30.1403L8.81051 26.1813C6.45256 24.9162 5 22.5783 5 20.0481V12.1301C5 9.59997 6.45256 7.26198 8.81051 5.9969L16.1895 2.03793Z" fill="url(#paint0_linear_0_5007)"/>
</g>
<path fill-rule="evenodd" clip-rule="evenodd" d="M23.9829 19.2591C23.9735 19.2592 23.9641 19.2592 23.9547 19.2592H26.7833C26.7833 19.2592 26.7833 19.2591 26.7834 19.2591H27.1528C27.4652 19.2591 27.7185 19.5161 27.7185 19.8334C27.7185 20.1502 27.4652 20.4074 27.1528 20.4074H23.9765C21.8482 20.4074 20.1117 18.6732 20.0673 16.5239L20.0664 16.5239L20.0667 16.4816L20.0664 16.4395L20.0673 16.4394C20.1118 14.3152 21.8318 12.5961 23.9548 12.5566L23.9547 12.5559L23.9921 12.556L24.0295 12.5559C26.1804 12.5967 27.9179 14.361 27.9179 16.5239C27.9179 17.6038 27.4848 18.5637 26.7834 19.2591H23.9829ZM23.9829 19.2591C25.5228 19.2449 26.7709 18.0692 26.7709 16.5239C26.7709 14.9784 25.5228 13.7196 23.983 13.7044C22.4513 13.7294 21.1991 14.9846 21.1991 16.5239C21.2432 18.0397 22.4722 19.2591 23.9765 19.2591H23.9829ZM13.1582 20.2298C13.2634 20.3482 13.4021 20.4074 13.5408 20.4074C13.6795 20.4074 13.8182 20.3482 13.9234 20.2298L16.1408 17.7355L18.3577 20.2298C18.5686 20.4666 18.9121 20.4666 19.1234 20.2298C19.3338 19.9925 19.3338 19.6061 19.1234 19.3684L16.906 16.8745L19.1234 14.3797C19.3338 14.1424 19.3338 13.756 19.1234 13.5183C18.9121 13.2819 18.5686 13.2819 18.3577 13.5183L16.1408 16.0131L13.9234 13.5183C13.7125 13.2819 13.3691 13.2819 13.1582 13.5183C12.9473 13.756 12.9473 14.1424 13.1582 14.3797L15.3751 16.8745L13.1582 19.3684C12.9473 19.6061 12.9473 19.9925 13.1582 20.2298Z" fill="#0AFFD2"/>
</g>
<defs>
<filter id="filter0_d_0_5007" x="0" y="0" width="40" height="40" filterUnits="userSpaceOnUse" color-interpolation-filters="sRGB">
<feFlood flood-opacity="0" result="BackgroundImageFix"/>
<feColorMatrix in="SourceAlpha" type="matrix" values="0 0 0 0 0 0 0 0 0 0 0 0 0 0 0 0 0 0 127 0" result="hardAlpha"/>
<feOffset dy="4"/>
<feGaussianBlur stdDeviation="2"/>
<feComposite in2="hardAlpha" operator="out"/>
<feColorMatrix type="matrix" values="0 0 0 0 0 0 0 0 0 0 0 0 0 0 0 0 0 0 0.25 0"/>
<feBlend mode="normal" in2="BackgroundImageFix" result="effect1_dropShadow_0_5007"/>
<feBlend mode="normal" in="SourceGraphic" in2="effect1_dropShadow_0_5007" result="shape"/>
</filter>
<filter id="filter1_d_0_5007" x="0" y="0.0891113" width="40" height="40" filterUnits="userSpaceOnUse" color-interpolation-filters="sRGB">
<feFlood flood-opacity="0" result="BackgroundImageFix"/>
<feColorMatrix in="SourceAlpha" type="matrix" values="0 0 0 0 0 0 0 0 0 0 0 0 0 0 0 0 0 0 127 0" result="hardAlpha"/>
<feOffset dy="4"/>
<feGaussianBlur stdDeviation="2.5"/>
<feColorMatrix type="matrix" values="0 0 0 0 0 0 0 0 0 0 0 0 0 0 0 0 0 0 0.14 0"/>
<feBlend mode="normal" in2="BackgroundImageFix" result="effect1_dropShadow_0_5007"/>
<feBlend mode="normal" in="SourceGraphic" in2="effect1_dropShadow_0_5007" result="shape"/>
</filter>
<linearGradient id="paint0_linear_0_5007" x1="-11.125" y1="17.3377" x2="18.3089" y2="47.2278" gradientUnits="userSpaceOnUse">
<stop stop-color="#2C07FA"/>
<stop offset="1" stop-color="#A716EE"/>
</linearGradient>
</defs>
</svg>
