<svg width="24" height="24" viewBox="0 0 24 24" fill="none" xmlns="http://www.w3.org/2000/svg">
<path d="M14.75 5.98444C14.75 3.18663 14.75 1.78772 14.2269 1.21485C13.7741 0.718989 13.1027 0.483463 12.4393 0.587793C11.6729 0.708326 10.7991 1.80069 9.05126 3.98543L4.5988 9.551C3.26733 11.2153 2.60159 12.0475 2.60083 12.7479C2.60017 13.357 2.8771 13.9331 3.35313 14.3131C3.90048 14.75 4.96618 14.75 7.09758 14.75H7.65005C8.2101 14.75 8.49013 14.75 8.70404 14.859C8.8922 14.9549 9.04518 15.1079 9.14106 15.296C9.25005 15.51 9.25005 15.79 9.25005 16.35V18.0156C9.25005 20.8134 9.25005 22.2123 9.77319 22.7852C10.226 23.2811 10.8974 23.5166 11.5608 23.4123C12.3272 23.2917 13.201 22.1994 14.9488 20.0146L19.4013 14.4491C20.7328 12.7847 21.3985 11.9525 21.3993 11.2522C21.3999 10.6431 21.123 10.0669 20.647 9.68694C20.0996 9.25003 19.0339 9.25003 16.9025 9.25003H16.35C15.79 9.25003 15.51 9.25003 15.2961 9.14104C15.1079 9.04516 14.9549 8.89218 14.859 8.70402C14.75 8.49011 14.75 8.21008 14.75 7.65003V5.98444Z" fill="url(#paint0_linear_6464_50949)"/>
<defs>
<linearGradient id="paint0_linear_6464_50949" x1="3.54775" y1="21.1488" x2="21.4807" y2="4.09696" gradientUnits="userSpaceOnUse">
<stop stop-color="#ECC2FF"/>
<stop offset="1" stop-color="#94FFF9"/>
</linearGradient>
</defs>
</svg>
